<?xml version="1.0" standalone="yes"?>

<svg version="1.1" viewBox="0.0 0.0 1152.0 864.0" fill="none" stroke="none" stroke-linecap="square" stroke-miterlimit="10" xmlns="http://www.w3.org/2000/svg" xmlns:xlink="http://www.w3.org/1999/xlink"><clipPath id="p.0"><path d="m0 0l1152.0 0l0 864.0l-1152.0 0l0 -864.0z" clip-rule="nonzero"></path></clipPath><g clip-path="url(#p.0)"><path fill="#000000" fill-opacity="0.0" d="m0 0l1152.0 0l0 864.0l-1152.0 0z" fill-rule="evenodd"></path><path fill="#ff9800" d="m80.28567 391.556l246.58267 -72.59842l246.58264 72.59842z" fill-rule="evenodd"></path><path fill="#ff9800" d="m578.81085 393.61703l249.05511 -72.59842l249.05505 72.59842z" fill-rule="evenodd"></path><path fill="#ffab40" fill-opacity="0.5308" d="m78.79729 391.23517l498.54034 -327.3071l497.3651 327.3071z" fill-rule="evenodd"></path><path stroke="#595959" stroke-width="3.0" stroke-linejoin="round" stroke-linecap="butt" d="m78.79729 391.23517l498.54034 -327.3071l497.3651 327.3071z" fill-rule="evenodd"></path><path fill="#2196f3" fill-opacity="0.4885" d="m78.79729 391.2577l499.12793 404.56696l496.77753 -404.56696z" fill-rule="evenodd"></path><path stroke="#595959" stroke-width="3.0" stroke-linejoin="round" stroke-linecap="butt" d="m78.79729 391.2577l499.12793 404.56696l496.77753 -404.56696z" fill-rule="evenodd"></path><path fill="#2196f3" d="m574.6938 392.51562l-241.8924 98.8443l-249.56998 -98.8443z" fill-rule="evenodd"></path><path fill="#2196f3" d="m574.1348 391.89087l500.76483 -1.026947l-257.8429 102.77969z" fill-rule="evenodd"></path><path fill="#000000" fill-opacity="0.0" d="m577.92523 795.82465l-0.5984497 -731.9055" fill-rule="evenodd"></path><path stroke="#595959" stroke-width="1.0" stroke-linejoin="round" stroke-linecap="butt" d="m577.92523 795.82465l-0.5984497 -731.9055" fill-rule="evenodd"></path><path fill="#000000" fill-opacity="0.0" d="m569.65295 251.96121l-490.86615 139.3071" fill-rule="evenodd"></path><path stroke="#595959" stroke-width="1.0" stroke-linejoin="round" stroke-linecap="butt" d="m569.65295 251.96121l-490.86615 139.3071" fill-rule="evenodd"></path><path fill="#000000" fill-opacity="0.0" d="m585.62146 251.96121l489.07092 139.3071" fill-rule="evenodd"></path><path stroke="#595959" stroke-width="1.0" stroke-linejoin="round" stroke-linecap="butt" d="m585.62146 251.96121l489.07092 139.3071" fill-rule="evenodd"></path><path fill="#000000" fill-opacity="0.0" d="m583.28296 586.584l491.43298 -195.33856" fill-rule="evenodd"></path><path stroke="#595959" stroke-width="1.0" stroke-linejoin="round" stroke-linecap="butt" d="m583.28296 586.584l491.43298 -195.33856" fill-rule="evenodd"></path><path fill="#000000" fill-opacity="0.0" d="m571.9915 586.584l-493.19687 -195.33856" fill-rule="evenodd"></path><path stroke="#595959" stroke-width="1.0" stroke-linejoin="round" stroke-linecap="butt" d="m571.9915 586.584l-493.19687 -195.33856" fill-rule="evenodd"></path><path fill="#000000" fill-opacity="0.0" d="m78.76008 390.8583l504.68506 -139.68503l491.22052 139.68503z" fill-rule="evenodd"></path><path fill="#000000" fill-opacity="0.0" d="m331.10263 321.0158l246.33072 72.59842" fill-rule="evenodd"></path><path stroke="#595959" stroke-width="1.0" stroke-linejoin="round" stroke-linecap="butt" d="m331.10263 321.0158l246.33072 72.59842" fill-rule="evenodd"></path><path fill="#000000" fill-opacity="0.0" d="m577.43335 393.61423l251.62201 -72.59842" fill-rule="evenodd"></path><path stroke="#595959" stroke-width="1.0" stroke-linejoin="round" stroke-linecap="butt" d="m577.43335 393.61423l251.62201 -72.59842" fill-rule="evenodd"></path><path fill="#000000" fill-opacity="0.0" d="m331.0335 491.38776l241.35437 -98.236206" fill-rule="evenodd"></path><path stroke="#595959" stroke-width="1.0" stroke-linejoin="round" stroke-linecap="butt" d="m331.0335 491.38776l241.35437 -98.236206" fill-rule="evenodd"></path><path fill="#000000" fill-opacity="0.0" d="m817.17413 491.38776l-243.02362 -97.82675" fill-rule="evenodd"></path><path stroke="#595959" stroke-width="1.0" stroke-linejoin="round" stroke-linecap="butt" d="m817.17413 491.38776l-243.02362 -97.82675" fill-rule="evenodd"></path><path fill="#000000" d="m569.65295 593.5326l0 0c0 -5.427185 3.574707 -9.826782 7.984253 -9.826782l0 0c2.1175537 0 4.1483765 1.0352783 5.645752 2.8781738c1.4973145 1.8428955 2.338501 4.342346 2.338501 6.9486084l0 0c0 5.427124 -3.574646 9.826721 -7.984253 9.826721l0 0c-4.409546 0 -7.984253 -4.399597 -7.984253 -9.826721z" fill-rule="evenodd"></path><path stroke="#000000" stroke-width="1.0" stroke-linejoin="round" stroke-linecap="butt" d="m569.65295 593.5326l0 0c0 -5.427185 3.574707 -9.826782 7.984253 -9.826782l0 0c2.1175537 0 4.1483765 1.0352783 5.645752 2.8781738c1.4973145 1.8428955 2.338501 4.342346 2.338501 6.9486084l0 0c0 5.427124 -3.574646 9.826721 -7.984253 9.826721l0 0c-4.409546 0 -7.984253 -4.399597 -7.984253 -9.826721z" fill-rule="evenodd"></path><path fill="#000000" d="m569.6592 66.82012l0 0c0 -5.4271736 3.574646 -9.826771 7.984253 -9.826771l0 0c2.1175537 0 4.1483765 1.0353203 5.645691 2.8781967c1.4973755 1.8428764 2.338562 4.3423576 2.338562 6.948574l0 0c0 5.4271774 -3.574707 9.826775 -7.984253 9.826775l0 0c-4.409607 0 -7.984253 -4.399597 -7.984253 -9.826775z" fill-rule="evenodd"></path><path stroke="#000000" stroke-width="1.0" stroke-linejoin="round" stroke-linecap="butt" d="m569.6592 66.82012l0 0c0 -5.4271736 3.574646 -9.826771 7.984253 -9.826771l0 0c2.1175537 0 4.1483765 1.0353203 5.645691 2.8781967c1.4973755 1.8428764 2.338562 4.3423576 2.338562 6.948574l0 0c0 5.4271774 -3.574707 9.826775 -7.984253 9.826775l0 0c-4.409607 0 -7.984253 -4.399597 -7.984253 -9.826775z" fill-rule="evenodd"></path><path fill="#000000" d="m568.7351 797.1799l0 0c0 -5.427185 3.574707 -9.826782 7.984253 -9.826782l0 0c2.1175537 0 4.1483765 1.0353394 5.645752 2.8782349c1.4973145 1.8428345 2.338501 4.342346 2.338501 6.9485474l0 0c0 5.427185 -3.574646 9.826782 -7.984253 9.826782l0 0c-4.409546 0 -7.984253 -4.399597 -7.984253 -9.826782z" fill-rule="evenodd"></path><path stroke="#000000" stroke-width="1.0" stroke-linejoin="round" stroke-linecap="butt" d="m568.7351 797.1799l0 0c0 -5.427185 3.574707 -9.826782 7.984253 -9.826782l0 0c2.1175537 0 4.1483765 1.0353394 5.645752 2.8782349c1.4973145 1.8428345 2.338501 4.342346 2.338501 6.9485474l0 0c0 5.427185 -3.574646 9.826782 -7.984253 9.826782l0 0c-4.409546 0 -7.984253 -4.399597 -7.984253 -9.826782z" fill-rule="evenodd"></path><path fill="#000000" fill-opacity="0.0" d="m78.76008 390.8583l995.9056 0" fill-rule="evenodd"></path><path stroke="#ff0000" stroke-width="3.0" stroke-linejoin="round" stroke-linecap="butt" d="m78.76008 390.8583l995.9056 0" fill-rule="evenodd"></path><path fill="#000000" d="m69.00687 390.8691l0 0c0 -5.427185 3.574669 -9.826782 7.9842453 -9.826782l0 0c2.1175613 0 4.148384 1.0353088 5.6457214 2.8782043c1.4973373 1.842865 2.3385315 4.342346 2.3385315 6.948578l0 0c0 5.427185 -3.574669 9.826752 -7.984253 9.826752l0 0c-4.4095764 0 -7.9842453 -4.3995667 -7.9842453 -9.826752z" fill-rule="evenodd"></path><path stroke="#000000" stroke-width="1.0" stroke-linejoin="round" stroke-linecap="butt" d="m69.00687 390.8691l0 0c0 -5.427185 3.574669 -9.826782 7.9842453 -9.826782l0 0c2.1175613 0 4.148384 1.0353088 5.6457214 2.8782043c1.4973373 1.842865 2.3385315 4.342346 2.3385315 6.948578l0 0c0 5.427185 -3.574669 9.826752 -7.984253 9.826752l0 0c-4.4095764 0 -7.9842453 -4.3995667 -7.9842453 -9.826752z" fill-rule="evenodd"></path><path fill="#000000" d="m1067.0247 390.8691l0 0c0 -5.427185 3.574707 -9.826782 7.984253 -9.826782l0 0c2.1175537 0 4.1483154 1.0353088 5.645752 2.8782043c1.4973145 1.842865 2.338501 4.342346 2.338501 6.948578l0 0c0 5.427185 -3.574707 9.826752 -7.984253 9.826752l0 0c-4.409546 0 -7.984253 -4.3995667 -7.984253 -9.826752z" fill-rule="evenodd"></path><path stroke="#000000" stroke-width="1.0" stroke-linejoin="round" stroke-linecap="butt" d="m1067.0247 390.8691l0 0c0 -5.427185 3.574707 -9.826782 7.984253 -9.826782l0 0c2.1175537 0 4.1483154 1.0353088 5.645752 2.8782043c1.4973145 1.842865 2.338501 4.342346 2.338501 6.948578l0 0c0 5.427185 -3.574707 9.826752 -7.984253 9.826752l0 0c-4.409546 0 -7.984253 -4.3995667 -7.984253 -9.826752z" fill-rule="evenodd"></path><path fill="#000000" d="m569.65295 251.96121l0 0c0 -5.42717 3.574707 -9.826767 7.984253 -9.826767l0 0c2.1175537 0 4.1483765 1.0353241 5.645752 2.8782043c1.4973145 1.842865 2.338501 4.342346 2.338501 6.9485626l0 0c0 5.427185 -3.574646 9.826782 -7.984253 9.826782l0 0c-4.409546 0 -7.984253 -4.399597 -7.984253 -9.826782z" fill-rule="evenodd"></path><path stroke="#000000" stroke-width="1.0" stroke-linejoin="round" stroke-linecap="butt" d="m569.65295 251.96121l0 0c0 -5.42717 3.574707 -9.826767 7.984253 -9.826767l0 0c2.1175537 0 4.1483765 1.0353241 5.645752 2.8782043c1.4973145 1.842865 2.338501 4.342346 2.338501 6.9485626l0 0c0 5.427185 -3.574646 9.826782 -7.984253 9.826782l0 0c-4.409546 0 -7.984253 -4.399597 -7.984253 -9.826782z" fill-rule="evenodd"></path><path fill="#000000" d="m569.6592 389.88525l0 0c0 -5.4271545 3.574646 -9.826752 7.984253 -9.826752l0 0c2.1175537 0 4.1483765 1.0353088 5.645691 2.8781738c1.4973755 1.8428955 2.338562 4.3423767 2.338562 6.948578l0 0c0 5.427185 -3.574707 9.826782 -7.984253 9.826782l0 0c-4.409607 0 -7.984253 -4.399597 -7.984253 -9.826782z" fill-rule="evenodd"></path><path stroke="#000000" stroke-width="1.0" stroke-linejoin="round" stroke-linecap="butt" d="m569.6592 389.88525l0 0c0 -5.4271545 3.574646 -9.826752 7.984253 -9.826752l0 0c2.1175537 0 4.1483765 1.0353088 5.645691 2.8781738c1.4973755 1.8428955 2.338562 4.3423767 2.338562 6.948578l0 0c0 5.427185 -3.574707 9.826782 -7.984253 9.826782l0 0c-4.409607 0 -7.984253 -4.399597 -7.984253 -9.826782z" fill-rule="evenodd"></path><path fill="#000000" d="m821.0458 321.34695l0 0c0 -5.427185 3.574646 -9.826782 7.984253 -9.826782l0 0c2.1175537 0 4.1483765 1.0353088 5.645752 2.8782043c1.4973145 1.842865 2.338501 4.342346 2.338501 6.948578l0 0c0 5.4271545 -3.574646 9.826752 -7.984253 9.826752l0 0c-4.409607 0 -7.984253 -4.399597 -7.984253 -9.826752z" fill-rule="evenodd"></path><path stroke="#000000" stroke-width="1.0" stroke-linejoin="round" stroke-linecap="butt" d="m821.0458 321.34695l0 0c0 -5.427185 3.574646 -9.826782 7.984253 -9.826782l0 0c2.1175537 0 4.1483765 1.0353088 5.645752 2.8782043c1.4973145 1.842865 2.338501 4.342346 2.338501 6.948578l0 0c0 5.4271545 -3.574646 9.826752 -7.984253 9.826752l0 0c-4.409607 0 -7.984253 -4.399597 -7.984253 -9.826752z" fill-rule="evenodd"></path><path fill="#000000" d="m810.3791 492.4414l0 0c0 -5.427185 3.574646 -9.826752 7.984253 -9.826752l0 0c2.1175537 0 4.1483765 1.0353088 5.645691 2.8781738c1.4973755 1.8428955 2.338562 4.342346 2.338562 6.948578l0 0c0 5.427185 -3.574646 9.826782 -7.984253 9.826782l0 0c-4.409607 0 -7.984253 -4.399597 -7.984253 -9.826782z" fill-rule="evenodd"></path><path stroke="#000000" stroke-width="1.0" stroke-linejoin="round" stroke-linecap="butt" d="m810.3791 492.4414l0 0c0 -5.427185 3.574646 -9.826752 7.984253 -9.826752l0 0c2.1175537 0 4.1483765 1.0353088 5.645691 2.8781738c1.4973755 1.8428955 2.338562 4.342346 2.338562 6.948578l0 0c0 5.427185 -3.574646 9.826782 -7.984253 9.826782l0 0c-4.409607 0 -7.984253 -4.399597 -7.984253 -9.826782z" fill-rule="evenodd"></path><path fill="#000000" d="m325.69583 492.4414l0 0c0 -5.427185 3.574646 -9.826752 7.984253 -9.826752l0 0c2.1175537 0 4.1483765 1.0353088 5.645691 2.8781738c1.497345 1.8428955 2.3385315 4.342346 2.3385315 6.948578l0 0c0 5.427185 -3.574646 9.826782 -7.9842224 9.826782l0 0c-4.409607 0 -7.984253 -4.399597 -7.984253 -9.826782z" fill-rule="evenodd"></path><path stroke="#000000" stroke-width="1.0" stroke-linejoin="round" stroke-linecap="butt" d="m325.69583 492.4414l0 0c0 -5.427185 3.574646 -9.826752 7.984253 -9.826752l0 0c2.1175537 0 4.1483765 1.0353088 5.645691 2.8781738c1.497345 1.8428955 2.3385315 4.342346 2.3385315 6.948578l0 0c0 5.427185 -3.574646 9.826782 -7.9842224 9.826782l0 0c-4.409607 0 -7.984253 -4.399597 -7.984253 -9.826782z" fill-rule="evenodd"></path><path fill="#000000" d="m320.96402 321.34695l0 0c0 -5.427185 3.5746765 -9.826782 7.984253 -9.826782l0 0c2.1175537 0 4.1483765 1.0353088 5.6457214 2.8782043c1.497345 1.842865 2.3385315 4.342346 2.3385315 6.948578l0 0c0 5.4271545 -3.5746765 9.826752 -7.984253 9.826752l0 0c-4.4095764 0 -7.984253 -4.399597 -7.984253 -9.826752z" fill-rule="evenodd"></path><path stroke="#000000" stroke-width="1.0" stroke-linejoin="round" stroke-linecap="butt" d="m320.96402 321.34695l0 0c0 -5.427185 3.5746765 -9.826782 7.984253 -9.826782l0 0c2.1175537 0 4.1483765 1.0353088 5.6457214 2.8782043c1.497345 1.842865 2.3385315 4.342346 2.3385315 6.948578l0 0c0 5.4271545 -3.5746765 9.826752 -7.984253 9.826752l0 0c-4.4095764 0 -7.984253 -4.399597 -7.984253 -9.826752z" fill-rule="evenodd"></path></g></svg>

