<?xml version="1.0" standalone="yes"?>

<svg version="1.1" viewBox="0.0 0.0 720.0 540.0" fill="none" stroke="none" stroke-linecap="square" stroke-miterlimit="10" xmlns="http://www.w3.org/2000/svg" xmlns:xlink="http://www.w3.org/1999/xlink"><clipPath id="p.0"><path d="m0 0l720.0 0l0 540.0l-720.0 0l0 -540.0z" clip-rule="nonzero"></path></clipPath><g clip-path="url(#p.0)"><path fill="#000000" fill-opacity="0.0" d="m0 0l720.0 0l0 540.0l-720.0 0z" fill-rule="evenodd"></path><path fill="#eeeeee" d="m112.77981 499.23154l0 -480.11627l482.34366 480.11627z" fill-rule="evenodd"></path><path stroke="#595959" stroke-width="2.0" stroke-linejoin="round" stroke-linecap="butt" d="m112.77981 499.23154l0 -480.11627l482.34366 480.11627z" fill-rule="evenodd"></path><path fill="#000000" fill-opacity="0.0" d="m112.77883 259.1982l241.19635 -0.04840088" fill-rule="evenodd"></path><path stroke="#595959" stroke-width="2.0" stroke-linejoin="round" stroke-linecap="butt" d="m112.77883 259.1982l241.19635 -0.04840088" fill-rule="evenodd"></path><path fill="#000000" fill-opacity="0.0" d="m353.95163 259.1734l-0.049041748 240.0823" fill-rule="evenodd"></path><path stroke="#595959" stroke-width="2.0" stroke-linejoin="round" stroke-linecap="butt" d="m353.95163 259.1734l-0.049041748 240.0823" fill-rule="evenodd"></path><path fill="#000000" fill-opacity="0.0" d="m353.95163 259.1734l-241.19635 240.0823" fill-rule="evenodd"></path><path stroke="#595959" stroke-width="2.0" stroke-linejoin="round" stroke-linecap="butt" d="m353.95163 259.1734l-241.19635 240.0823" fill-rule="evenodd"></path><path fill="#000000" fill-opacity="0.0" d="m354.7347 499.25797l0 -238.10489l238.06754 238.10489z" fill-rule="evenodd"></path><path fill="#000000" fill-opacity="0.0" d="m473.7685 380.2055l0 119.012695" fill-rule="evenodd"></path><path stroke="#595959" stroke-width="2.0" stroke-linejoin="round" stroke-linecap="butt" d="m473.7685 380.2055l0 119.012695" fill-rule="evenodd"></path><path fill="#000000" fill-opacity="0.0" d="m473.7685 380.2055l-119.03378 119.09219" fill-rule="evenodd"></path><path stroke="#595959" stroke-width="2.0" stroke-linejoin="round" stroke-linecap="butt" d="m473.7685 380.2055l-119.03378 119.09219" fill-rule="evenodd"></path><path fill="#000000" fill-opacity="0.0" d="m112.791595 261.21744l0 -242.10461l243.36362 242.10461z" fill-rule="evenodd"></path><path fill="#000000" fill-opacity="0.0" d="m112.791595 258.50555l244.73157 0l-244.73157 240.75137z" fill-rule="evenodd"></path><path fill="#000000" fill-opacity="0.0" d="m354.42902 499.25693l-242.32138 0l242.32138 -240.75137z" fill-rule="evenodd"></path><path fill="#000000" fill-opacity="0.0" d="m234.4734 140.16513l-121.68181 118.31357" fill-rule="evenodd"></path><path stroke="#595959" stroke-width="2.0" stroke-linejoin="round" stroke-linecap="butt" d="m234.4734 140.16513l-121.68181 118.31357" fill-rule="evenodd"></path><path fill="#000000" fill-opacity="0.0" d="m234.4734 140.16513l-121.68181 0" fill-rule="evenodd"></path><path stroke="#595959" stroke-width="2.0" stroke-linejoin="round" stroke-linecap="butt" d="m234.4734 140.16513l-121.68181 0" fill-rule="evenodd"></path><path fill="#000000" fill-opacity="0.0" d="m234.4734 140.16513l-1.1725159 359.06494" fill-rule="evenodd"></path><path stroke="#595959" stroke-width="2.0" stroke-linejoin="round" stroke-linecap="butt" d="m234.4734 140.16513l-1.1725159 359.06494" fill-rule="evenodd"></path><path fill="#000000" fill-opacity="0.0" d="m473.7685 380.2055l-361.00674 -1.353241" fill-rule="evenodd"></path><path stroke="#595959" stroke-width="2.0" stroke-linejoin="round" stroke-linecap="butt" d="m473.7685 380.2055l-361.00674 -1.353241" fill-rule="evenodd"></path><path fill="#000000" fill-opacity="0.0" d="m354.42902 499.25693l-241.66998 -240.75137" fill-rule="evenodd"></path><path stroke="#595959" stroke-width="2.0" stroke-linejoin="round" stroke-linecap="butt" d="m354.42902 499.25693l-241.66998 -240.75137" fill-rule="evenodd"></path><path fill="#000000" fill-opacity="0.0" d="m111.429085 90.66912l83.90052 0l0 32.92932l-83.90052 0z" fill-rule="evenodd"></path><path fill="#002835" d="m142.11568 115.673775l-3.390625 0l0 -13.0625l-4.046875 1.265625l0 -2.765625l7.078125 -2.53125l0.359375 0l0 17.09375zm17.019531 -7.0625q0 3.546875 -1.46875 5.421875q-1.453125 1.875 -4.28125 1.875q-2.78125 0 -4.265625 -1.84375q-1.46875 -1.84375 -1.515625 -5.265625l0 -3.140625q0 -3.578125 1.484375 -5.421875q1.484375 -1.859375 4.265625 -1.859375q2.796875 0 4.265625 1.84375q1.484375 1.828125 1.515625 5.25l0 3.140625zm-3.375 -3.4375q0 -2.125 -0.59375 -3.09375q-0.578125 -0.96875 -1.796875 -0.96875q-1.203125 0 -1.78125 0.921875q-0.5625 0.921875 -0.59375 2.875l0 4.15625q0 2.078125 0.5625 3.09375q0.578125 1.015625 1.828125 1.015625q1.25 0 1.796875 -0.96875q0.546875 -0.96875 0.578125 -2.984375l0 -4.046875zm17.363281 10.5l-11.703125 0l0 -2.328125l5.53125 -5.875q1.125 -1.25 1.671875 -2.171875q0.546875 -0.921875 0.546875 -1.75q0 -1.140625 -0.578125 -1.78125q-0.5625 -0.65625 -1.640625 -0.65625q-1.140625 0 -1.8125 0.796875q-0.65625 0.78125 -0.65625 2.0625l-3.390625 0q0 -1.546875 0.734375 -2.828125q0.75 -1.296875 2.109375 -2.03125q1.359375 -0.734375 3.078125 -0.734375q2.640625 0 4.09375 1.265625q1.46875 1.265625 1.46875 3.578125q0 1.265625 -0.65625 2.578125q-0.65625 1.3125 -2.25 3.046875l-3.890625 4.09375l7.34375 0l0 2.734375z" fill-rule="nonzero"></path><path fill="#000000" fill-opacity="0.0" d="m111.429085 156.73183l83.90052 0l0 32.92932l-83.90052 0z" fill-rule="evenodd"></path><path fill="#002835" d="m142.11568 181.73648l-3.390625 0l0 -13.0625l-4.046875 1.265625l0 -2.765625l7.078125 -2.53125l0.359375 0l0 17.09375zm17.019531 -7.0625q0 3.546875 -1.46875 5.421875q-1.453125 1.875 -4.28125 1.875q-2.78125 0 -4.265625 -1.84375q-1.46875 -1.84375 -1.515625 -5.265625l0 -3.140625q0 -3.578125 1.484375 -5.421875q1.484375 -1.859375 4.265625 -1.859375q2.796875 0 4.265625 1.84375q1.484375 1.828125 1.515625 5.25l0 3.140625zm-3.375 -3.4375q0 -2.125 -0.59375 -3.09375q-0.578125 -0.96875 -1.796875 -0.96875q-1.203125 0 -1.78125 0.921875q-0.5625 0.921875 -0.59375 2.875l0 4.15625q0 2.078125 0.5625 3.09375q0.578125 1.015625 1.828125 1.015625q1.25 0 1.796875 -0.96875q0.546875 -0.96875 0.578125 -2.984375l0 -4.046875zm9.113281 0.46875l1.796875 0q1.296875 0 1.90625 -0.640625q0.625 -0.65625 0.625 -1.71875q0 -1.03125 -0.609375 -1.59375q-0.609375 -0.578125 -1.6875 -0.578125q-0.984375 0 -1.640625 0.53125q-0.65625 0.53125 -0.65625 1.390625l-3.375 0q0 -1.34375 0.71875 -2.40625q0.71875 -1.0625 2.015625 -1.65625q1.296875 -0.59375 2.84375 -0.59375q2.71875 0 4.25 1.296875q1.53125 1.296875 1.53125 3.5625q0 1.171875 -0.71875 2.15625q-0.703125 0.984375 -1.875 1.515625q1.453125 0.515625 2.15625 1.546875q0.703125 1.03125 0.703125 2.4375q0 2.265625 -1.65625 3.640625q-1.65625 1.375 -4.390625 1.375q-2.546875 0 -4.171875 -1.34375q-1.625 -1.359375 -1.625 -3.5625l3.390625 0q0 0.953125 0.71875 1.5625q0.71875 0.609375 1.78125 0.609375q1.203125 0 1.890625 -0.640625q0.6875 -0.640625 0.6875 -1.6875q0 -2.5625 -2.8125 -2.5625l-1.796875 0l0 -2.640625z" fill-rule="nonzero"></path><path fill="#000000" fill-opacity="0.0" d="m149.95406 206.22784l83.90053 0l0 32.92932l-83.90053 0z" fill-rule="evenodd"></path><path fill="#002835" d="m184.10939 231.2325l-11.703125 0l0 -2.328125l5.53125 -5.875q1.125 -1.25 1.671875 -2.171875q0.546875 -0.921875 0.546875 -1.75q0 -1.140625 -0.578125 -1.78125q-0.5625 -0.65625 -1.640625 -0.65625q-1.140625 0 -1.8125 0.796875q-0.65625 0.78125 -0.65625 2.0625l-3.390625 0q0 -1.546875 0.734375 -2.828125q0.75 -1.296875 2.109375 -2.03125q1.359375 -0.734375 3.078125 -0.734375q2.640625 0 4.09375 1.265625q1.46875 1.265625 1.46875 3.578125q0 1.265625 -0.65625 2.578125q-0.65625 1.3125 -2.25 3.046875l-3.890625 4.09375l7.34375 0l0 2.734375zm5.5195312 -10.03125l1.796875 0q1.296875 0 1.90625 -0.640625q0.625 -0.65625 0.625 -1.71875q0 -1.03125 -0.609375 -1.59375q-0.609375 -0.578125 -1.6875 -0.578125q-0.984375 0 -1.640625 0.53125q-0.65625 0.53125 -0.65625 1.390625l-3.375 0q0 -1.34375 0.71875 -2.40625q0.71875 -1.0625 2.015625 -1.65625q1.296875 -0.59375 2.84375 -0.59375q2.71875 0 4.25 1.296875q1.53125 1.296875 1.53125 3.5625q0 1.171875 -0.71875 2.15625q-0.703125 0.984375 -1.875 1.515625q1.453125 0.515625 2.15625 1.546875q0.703125 1.03125 0.703125 2.4375q0 2.265625 -1.65625 3.640625q-1.65625 1.375 -4.390625 1.375q-2.546875 0 -4.171875 -1.34375q-1.625 -1.359375 -1.625 -3.5625l3.390625 0q0 0.953125 0.71875 1.5625q0.71875 0.609375 1.78125 0.609375q1.203125 0 1.890625 -0.640625q0.6875 -0.640625 0.6875 -1.6875q0 -2.5625 -2.8125 -2.5625l-1.796875 0l0 -2.640625zm21.800781 2.96875q0 3.546875 -1.46875 5.421875q-1.453125 1.875 -4.28125 1.875q-2.78125 0 -4.265625 -1.84375q-1.46875 -1.84375 -1.515625 -5.265625l0 -3.140625q0 -3.578125 1.484375 -5.421875q1.484375 -1.859375 4.265625 -1.859375q2.796875 0 4.265625 1.84375q1.484375 1.828125 1.515625 5.25l0 3.140625zm-3.375 -3.4375q0 -2.125 -0.59375 -3.09375q-0.578125 -0.96875 -1.796875 -0.96875q-1.203125 0 -1.78125 0.921875q-0.5625 0.921875 -0.59375 2.875l0 4.15625q0 2.078125 0.5625 3.09375q0.578125 1.015625 1.828125 1.015625q1.25 0 1.796875 -0.96875q0.546875 -0.96875 0.578125 -2.984375l0 -4.046875z" fill-rule="nonzero"></path><path fill="#000000" fill-opacity="0.0" d="m234.4734 206.22784l83.90053 0l0 32.92932l-83.90053 0z" fill-rule="evenodd"></path><path fill="#002835" d="m268.62875 231.2325l-11.703125 0l0 -2.328125l5.53125 -5.875q1.125 -1.25 1.671875 -2.171875q0.546875 -0.921875 0.546875 -1.75q0 -1.140625 -0.578125 -1.78125q-0.5625 -0.65625 -1.640625 -0.65625q-1.140625 0 -1.8125 0.796875q-0.65625 0.78125 -0.65625 2.0625l-3.390625 0q0 -1.546875 0.734375 -2.828125q0.75 -1.296875 2.109375 -2.03125q1.359375 -0.734375 3.078125 -0.734375q2.640625 0 4.09375 1.265625q1.46875 1.265625 1.46875 3.578125q0 1.265625 -0.65625 2.578125q-0.65625 1.3125 -2.25 3.046875l-3.890625 4.09375l7.34375 0l0 2.734375zm5.5195312 -10.03125l1.796875 0q1.296875 0 1.90625 -0.640625q0.625 -0.65625 0.625 -1.71875q0 -1.03125 -0.609375 -1.59375q-0.609375 -0.578125 -1.6875 -0.578125q-0.984375 0 -1.640625 0.53125q-0.65625 0.53125 -0.65625 1.390625l-3.375 0q0 -1.34375 0.71875 -2.40625q0.71875 -1.0625 2.015625 -1.65625q1.296875 -0.59375 2.84375 -0.59375q2.71875 0 4.25 1.296875q1.53125 1.296875 1.53125 3.5625q0 1.171875 -0.71875 2.15625q-0.703125 0.984375 -1.875 1.515625q1.453125 0.515625 2.15625 1.546875q0.703125 1.03125 0.703125 2.4375q0 2.265625 -1.65625 3.640625q-1.65625 1.375 -4.390625 1.375q-2.546875 0 -4.171875 -1.34375q-1.625 -1.359375 -1.625 -3.5625l3.390625 0q0 0.953125 0.71875 1.5625q0.71875 0.609375 1.78125 0.609375q1.203125 0 1.890625 -0.640625q0.6875 -0.640625 0.6875 -1.6875q0 -2.5625 -2.8125 -2.5625l-1.796875 0l0 -2.640625zm18.550781 10.03125l-3.390625 0l0 -13.0625l-4.046875 1.265625l0 -2.765625l7.078125 -2.53125l0.359375 0l0 17.09375z" fill-rule="nonzero"></path><path fill="#000000" fill-opacity="0.0" d="m235.4668 275.7972l83.90051 0l0 32.92932l-83.90051 0z" fill-rule="evenodd"></path><path fill="#002835" d="m269.62213 300.80188l-11.703125 0l0 -2.328125l5.53125 -5.875q1.125 -1.25 1.671875 -2.171875q0.546875 -0.921875 0.546875 -1.75q0 -1.140625 -0.578125 -1.78125q-0.5625 -0.65625 -1.640625 -0.65625q-1.140625 0 -1.8125 0.796875q-0.65625 0.78125 -0.65625 2.0625l-3.390625 0q0 -1.546875 0.734375 -2.828125q0.75 -1.296875 2.109375 -2.03125q1.359375 -0.734375 3.078125 -0.734375q2.640625 0 4.09375 1.265625q1.46875 1.265625 1.46875 3.578125q0 1.265625 -0.65625 2.578125q-0.65625 1.3125 -2.25 3.046875l-3.890625 4.09375l7.34375 0l0 2.734375zm13.769531 0l-11.703125 0l0 -2.328125l5.53125 -5.875q1.125 -1.25 1.671875 -2.171875q0.546875 -0.921875 0.546875 -1.75q0 -1.140625 -0.578125 -1.78125q-0.5625 -0.65625 -1.640625 -0.65625q-1.140625 0 -1.8125 0.796875q-0.65625 0.78125 -0.65625 2.0625l-3.390625 0q0 -1.546875 0.734375 -2.828125q0.75 -1.296875 2.109375 -2.03125q1.359375 -0.734375 3.078125 -0.734375q2.640625 0 4.09375 1.265625q1.46875 1.265625 1.46875 3.578125q0 1.265625 -0.65625 2.578125q-0.65625 1.3125 -2.25 3.046875l-3.890625 4.09375l7.34375 0l0 2.734375zm13.769531 0l-11.703125 0l0 -2.328125l5.53125 -5.875q1.125 -1.25 1.671875 -2.171875q0.546875 -0.921875 0.546875 -1.75q0 -1.140625 -0.578125 -1.78125q-0.5625 -0.65625 -1.640625 -0.65625q-1.140625 0 -1.8125 0.796875q-0.65625 0.78125 -0.65625 2.0625l-3.390625 0q0 -1.546875 0.734375 -2.828125q0.75 -1.296875 2.109375 -2.03125q1.359375 -0.734375 3.078125 -0.734375q2.640625 0 4.09375 1.265625q1.46875 1.265625 1.46875 3.578125q0 1.265625 -0.65625 2.578125q-0.65625 1.3125 -2.25 3.046875l-3.890625 4.09375l7.34375 0l0 2.734375z" fill-rule="nonzero"></path><path fill="#000000" fill-opacity="0.0" d="m150.94745 275.7972l83.90051 0l0 32.92932l-83.90051 0z" fill-rule="evenodd"></path><path fill="#002835" d="m185.10278 300.80188l-11.703125 0l0 -2.328125l5.53125 -5.875q1.125 -1.25 1.671875 -2.171875q0.546875 -0.921875 0.546875 -1.75q0 -1.140625 -0.578125 -1.78125q-0.5625 -0.65625 -1.640625 -0.65625q-1.140625 0 -1.8125 0.796875q-0.65625 0.78125 -0.65625 2.0625l-3.390625 0q0 -1.546875 0.734375 -2.828125q0.75 -1.296875 2.109375 -2.03125q1.359375 -0.734375 3.078125 -0.734375q2.640625 0 4.09375 1.265625q1.46875 1.265625 1.46875 3.578125q0 1.265625 -0.65625 2.578125q-0.65625 1.3125 -2.25 3.046875l-3.890625 4.09375l7.34375 0l0 2.734375zm13.769531 0l-11.703125 0l0 -2.328125l5.53125 -5.875q1.125 -1.25 1.671875 -2.171875q0.546875 -0.921875 0.546875 -1.75q0 -1.140625 -0.578125 -1.78125q-0.5625 -0.65625 -1.640625 -0.65625q-1.140625 0 -1.8125 0.796875q-0.65625 0.78125 -0.65625 2.0625l-3.390625 0q0 -1.546875 0.734375 -2.828125q0.75 -1.296875 2.109375 -2.03125q1.359375 -0.734375 3.078125 -0.734375q2.640625 0 4.09375 1.265625q1.46875 1.265625 1.46875 3.578125q0 1.265625 -0.65625 2.578125q-0.65625 1.3125 -2.25 3.046875l-3.890625 4.09375l7.34375 0l0 2.734375zm5.5195312 -10.03125l1.796875 0q1.296875 0 1.90625 -0.640625q0.625 -0.65625 0.625 -1.71875q0 -1.03125 -0.609375 -1.59375q-0.609375 -0.578125 -1.6875 -0.578125q-0.984375 0 -1.640625 0.53125q-0.65625 0.53125 -0.65625 1.390625l-3.375 0q0 -1.34375 0.71875 -2.40625q0.71875 -1.0625 2.015625 -1.65625q1.296875 -0.59375 2.84375 -0.59375q2.71875 0 4.25 1.296875q1.53125 1.296875 1.53125 3.5625q0 1.171875 -0.71875 2.15625q-0.703125 0.984375 -1.875 1.515625q1.453125 0.515625 2.15625 1.546875q0.703125 1.03125 0.703125 2.4375q0 2.265625 -1.65625 3.640625q-1.65625 1.375 -4.390625 1.375q-2.546875 0 -4.171875 -1.34375q-1.625 -1.359375 -1.625 -3.5625l3.390625 0q0 0.953125 0.71875 1.5625q0.71875 0.609375 1.78125 0.609375q1.203125 0 1.890625 -0.640625q0.6875 -0.640625 0.6875 -1.6875q0 -2.5625 -2.8125 -2.5625l-1.796875 0l0 -2.640625z" fill-rule="nonzero"></path><path fill="#000000" fill-opacity="0.0" d="m111.429085 329.8994l83.90052 0l0 32.92932l-83.90052 0z" fill-rule="evenodd"></path><path fill="#002835" d="m145.58443 354.90408l-11.703125 0l0 -2.328125l5.53125 -5.875q1.125 -1.25 1.671875 -2.171875q0.546875 -0.921875 0.546875 -1.75q0 -1.140625 -0.578125 -1.78125q-0.5625 -0.65625 -1.640625 -0.65625q-1.140625 0 -1.8125 0.796875q-0.65625 0.78125 -0.65625 2.0625l-3.390625 0q0 -1.546875 0.734375 -2.828125q0.75 -1.296875 2.109375 -2.03125q1.359375 -0.734375 3.078125 -0.734375q2.640625 0 4.09375 1.265625q1.46875 1.265625 1.46875 3.578125q0 1.265625 -0.65625 2.578125q-0.65625 1.3125 -2.25 3.046875l-3.890625 4.09375l7.34375 0l0 2.734375zm10.300781 0l-3.390625 0l0 -13.0625l-4.046875 1.265625l0 -2.765625l7.078125 -2.53125l0.359375 0l0 17.09375zm17.019531 -7.0625q0 3.546875 -1.46875 5.421875q-1.453125 1.875 -4.28125 1.875q-2.78125 0 -4.265625 -1.84375q-1.46875 -1.84375 -1.515625 -5.265625l0 -3.140625q0 -3.578125 1.484375 -5.421875q1.484375 -1.859375 4.265625 -1.859375q2.796875 0 4.265625 1.84375q1.484375 1.828125 1.515625 5.25l0 3.140625zm-3.375 -3.4375q0 -2.125 -0.59375 -3.09375q-0.578125 -0.96875 -1.796875 -0.96875q-1.203125 0 -1.78125 0.921875q-0.5625 0.921875 -0.59375 2.875l0 4.15625q0 2.078125 0.5625 3.09375q0.578125 1.015625 1.828125 1.015625q1.25 0 1.796875 -0.96875q0.546875 -0.96875 0.578125 -2.984375l0 -4.046875z" fill-rule="nonzero"></path><path fill="#000000" fill-opacity="0.0" d="m111.429085 394.85992l83.90052 0l0 32.92932l-83.90052 0z" fill-rule="evenodd"></path><path fill="#002835" d="m145.58443 419.86456l-11.703125 0l0 -2.328125l5.53125 -5.875q1.125 -1.25 1.671875 -2.171875q0.546875 -0.921875 0.546875 -1.75q0 -1.140625 -0.578125 -1.78125q-0.5625 -0.65625 -1.640625 -0.65625q-1.140625 0 -1.8125 0.796875q-0.65625 0.78125 -0.65625 2.0625l-3.390625 0q0 -1.546875 0.734375 -2.828125q0.75 -1.296875 2.109375 -2.03125q1.359375 -0.734375 3.078125 -0.734375q2.640625 0 4.09375 1.265625q1.46875 1.265625 1.46875 3.578125q0 1.265625 -0.65625 2.578125q-0.65625 1.3125 -2.25 3.046875l-3.890625 4.09375l7.34375 0l0 2.734375zm10.300781 0l-3.390625 0l0 -13.0625l-4.046875 1.265625l0 -2.765625l7.078125 -2.53125l0.359375 0l0 17.09375zm13.769531 0l-3.390625 0l0 -13.0625l-4.046875 1.265625l0 -2.765625l7.078125 -2.53125l0.359375 0l0 17.09375z" fill-rule="nonzero"></path><path fill="#000000" fill-opacity="0.0" d="m149.95406 449.89517l83.90053 0l0 32.92932l-83.90053 0z" fill-rule="evenodd"></path><path fill="#002835" d="m184.10939 474.8998l-11.703125 0l0 -2.328125l5.53125 -5.875q1.125 -1.25 1.671875 -2.171875q0.546875 -0.921875 0.546875 -1.75q0 -1.140625 -0.578125 -1.78125q-0.5625 -0.65625 -1.640625 -0.65625q-1.140625 0 -1.8125 0.796875q-0.65625 0.78125 -0.65625 2.0625l-3.390625 0q0 -1.546875 0.734375 -2.828125q0.75 -1.296875 2.109375 -2.03125q1.359375 -0.734375 3.078125 -0.734375q2.640625 0 4.09375 1.265625q1.46875 1.265625 1.46875 3.578125q0 1.265625 -0.65625 2.578125q-0.65625 1.3125 -2.25 3.046875l-3.890625 4.09375l7.34375 0l0 2.734375zm10.300781 0l-3.390625 0l0 -13.0625l-4.046875 1.265625l0 -2.765625l7.078125 -2.53125l0.359375 0l0 17.09375zm17.238281 0l-11.703125 0l0 -2.328125l5.53125 -5.875q1.125 -1.25 1.671875 -2.171875q0.546875 -0.921875 0.546875 -1.75q0 -1.140625 -0.578125 -1.78125q-0.5625 -0.65625 -1.640625 -0.65625q-1.140625 0 -1.8125 0.796875q-0.65625 0.78125 -0.65625 2.0625l-3.390625 0q0 -1.546875 0.734375 -2.828125q0.75 -1.296875 2.109375 -2.03125q1.359375 -0.734375 3.078125 -0.734375q2.640625 0 4.09375 1.265625q1.46875 1.265625 1.46875 3.578125q0 1.265625 -0.65625 2.578125q-0.65625 1.3125 -2.25 3.046875l-3.890625 4.09375l7.34375 0l0 2.734375z" fill-rule="nonzero"></path><path fill="#000000" fill-opacity="0.0" d="m234.4734 449.89517l83.90053 0l0 32.92932l-83.90053 0z" fill-rule="evenodd"></path><path fill="#002835" d="m268.62875 474.8998l-11.703125 0l0 -2.328125l5.53125 -5.875q1.125 -1.25 1.671875 -2.171875q0.546875 -0.921875 0.546875 -1.75q0 -1.140625 -0.578125 -1.78125q-0.5625 -0.65625 -1.640625 -0.65625q-1.140625 0 -1.8125 0.796875q-0.65625 0.78125 -0.65625 2.0625l-3.390625 0q0 -1.546875 0.734375 -2.828125q0.75 -1.296875 2.109375 -2.03125q1.359375 -0.734375 3.078125 -0.734375q2.640625 0 4.09375 1.265625q1.46875 1.265625 1.46875 3.578125q0 1.265625 -0.65625 2.578125q-0.65625 1.3125 -2.25 3.046875l-3.890625 4.09375l7.34375 0l0 2.734375zm10.300781 0l-3.390625 0l0 -13.0625l-4.046875 1.265625l0 -2.765625l7.078125 -2.53125l0.359375 0l0 17.09375zm8.988281 -10.03125l1.796875 0q1.296875 0 1.90625 -0.640625q0.625 -0.65625 0.625 -1.71875q0 -1.03125 -0.609375 -1.59375q-0.609375 -0.578125 -1.6875 -0.578125q-0.984375 0 -1.640625 0.53125q-0.65625 0.53125 -0.65625 1.390625l-3.375 0q0 -1.34375 0.71875 -2.40625q0.71875 -1.0625 2.015625 -1.65625q1.296875 -0.59375 2.84375 -0.59375q2.71875 0 4.25 1.296875q1.53125 1.296875 1.53125 3.5625q0 1.171875 -0.71875 2.15625q-0.703125 0.984375 -1.875 1.515625q1.453125 0.515625 2.15625 1.546875q0.703125 1.03125 0.703125 2.4375q0 2.265625 -1.65625 3.640625q-1.65625 1.375 -4.390625 1.375q-2.546875 0 -4.171875 -1.34375q-1.625 -1.359375 -1.625 -3.5625l3.390625 0q0 0.953125 0.71875 1.5625q0.71875 0.609375 1.78125 0.609375q1.203125 0 1.890625 -0.640625q0.6875 -0.640625 0.6875 -1.6875q0 -2.5625 -2.8125 -2.5625l-1.796875 0l0 -2.640625z" fill-rule="nonzero"></path><path fill="#000000" fill-opacity="0.0" d="m271.454 394.85992l83.90054 0l0 32.92932l-83.90054 0z" fill-rule="evenodd"></path><path fill="#002835" d="m305.60934 419.86456l-11.703125 0l0 -2.328125l5.53125 -5.875q1.125 -1.25 1.671875 -2.171875q0.546875 -0.921875 0.546875 -1.75q0 -1.140625 -0.578125 -1.78125q-0.5625 -0.65625 -1.640625 -0.65625q-1.140625 0 -1.8125 0.796875q-0.65625 0.78125 -0.65625 2.0625l-3.390625 0q0 -1.546875 0.734375 -2.828125q0.75 -1.296875 2.109375 -2.03125q1.359375 -0.734375 3.078125 -0.734375q2.640625 0 4.09375 1.265625q1.46875 1.265625 1.46875 3.578125q0 1.265625 -0.65625 2.578125q-0.65625 1.3125 -2.25 3.046875l-3.890625 4.09375l7.34375 0l0 2.734375zm13.769531 0l-11.703125 0l0 -2.328125l5.53125 -5.875q1.125 -1.25 1.671875 -2.171875q0.546875 -0.921875 0.546875 -1.75q0 -1.140625 -0.578125 -1.78125q-0.5625 -0.65625 -1.640625 -0.65625q-1.140625 0 -1.8125 0.796875q-0.65625 0.78125 -0.65625 2.0625l-3.390625 0q0 -1.546875 0.734375 -2.828125q0.75 -1.296875 2.109375 -2.03125q1.359375 -0.734375 3.078125 -0.734375q2.640625 0 4.09375 1.265625q1.46875 1.265625 1.46875 3.578125q0 1.265625 -0.65625 2.578125q-0.65625 1.3125 -2.25 3.046875l-3.890625 4.09375l7.34375 0l0 2.734375zm13.550781 -7.0625q0 3.546875 -1.46875 5.421875q-1.453125 1.875 -4.28125 1.875q-2.78125 0 -4.265625 -1.84375q-1.46875 -1.84375 -1.515625 -5.265625l0 -3.140625q0 -3.578125 1.484375 -5.421875q1.484375 -1.859375 4.265625 -1.859375q2.796875 0 4.265625 1.84375q1.484375 1.828125 1.515625 5.25l0 3.140625zm-3.375 -3.4375q0 -2.125 -0.59375 -3.09375q-0.578125 -0.96875 -1.796875 -0.96875q-1.203125 0 -1.78125 0.921875q-0.5625 0.921875 -0.59375 2.875l0 4.15625q0 2.078125 0.5625 3.09375q0.578125 1.015625 1.828125 1.015625q1.25 0 1.796875 -0.96875q0.546875 -0.96875 0.578125 -2.984375l0 -4.046875z" fill-rule="nonzero"></path><path fill="#000000" fill-opacity="0.0" d="m271.454 329.8994l83.90054 0l0 32.92932l-83.90054 0z" fill-rule="evenodd"></path><path fill="#002835" d="m305.60934 354.90408l-11.703125 0l0 -2.328125l5.53125 -5.875q1.125 -1.25 1.671875 -2.171875q0.546875 -0.921875 0.546875 -1.75q0 -1.140625 -0.578125 -1.78125q-0.5625 -0.65625 -1.640625 -0.65625q-1.140625 0 -1.8125 0.796875q-0.65625 0.78125 -0.65625 2.0625l-3.390625 0q0 -1.546875 0.734375 -2.828125q0.75 -1.296875 2.109375 -2.03125q1.359375 -0.734375 3.078125 -0.734375q2.640625 0 4.09375 1.265625q1.46875 1.265625 1.46875 3.578125q0 1.265625 -0.65625 2.578125q-0.65625 1.3125 -2.25 3.046875l-3.890625 4.09375l7.34375 0l0 2.734375zm13.769531 0l-11.703125 0l0 -2.328125l5.53125 -5.875q1.125 -1.25 1.671875 -2.171875q0.546875 -0.921875 0.546875 -1.75q0 -1.140625 -0.578125 -1.78125q-0.5625 -0.65625 -1.640625 -0.65625q-1.140625 0 -1.8125 0.796875q-0.65625 0.78125 -0.65625 2.0625l-3.390625 0q0 -1.546875 0.734375 -2.828125q0.75 -1.296875 2.109375 -2.03125q1.359375 -0.734375 3.078125 -0.734375q2.640625 0 4.09375 1.265625q1.46875 1.265625 1.46875 3.578125q0 1.265625 -0.65625 2.578125q-0.65625 1.3125 -2.25 3.046875l-3.890625 4.09375l7.34375 0l0 2.734375zm10.300781 0l-3.390625 0l0 -13.0625l-4.046875 1.265625l0 -2.765625l7.078125 -2.53125l0.359375 0l0 17.09375z" fill-rule="nonzero"></path><path fill="#000000" fill-opacity="0.0" d="m356.1552 329.8994l83.90054 0l0 32.92932l-83.90054 0z" fill-rule="evenodd"></path><path fill="#002835" d="m382.06058 344.87283l1.796875 0q1.296875 0 1.90625 -0.640625q0.625 -0.65625 0.625 -1.71875q0 -1.03125 -0.609375 -1.59375q-0.609375 -0.578125 -1.6875 -0.578125q-0.984375 0 -1.640625 0.53125q-0.65625 0.53125 -0.65625 1.390625l-3.375 0q0 -1.34375 0.71875 -2.40625q0.71875 -1.0625 2.015625 -1.65625q1.296875 -0.59375 2.84375 -0.59375q2.71875 0 4.25 1.296875q1.53125 1.296875 1.53125 3.5625q0 1.171875 -0.71875 2.15625q-0.703125 0.984375 -1.875 1.515625q1.453125 0.515625 2.15625 1.546875q0.703125 1.03125 0.703125 2.4375q0 2.265625 -1.65625 3.640625q-1.65625 1.375 -4.390625 1.375q-2.546875 0 -4.171875 -1.34375q-1.625 -1.359375 -1.625 -3.5625l3.390625 0q0 0.953125 0.71875 1.5625q0.71875 0.609375 1.78125 0.609375q1.203125 0 1.890625 -0.640625q0.6875 -0.640625 0.6875 -1.6875q0 -2.5625 -2.8125 -2.5625l-1.796875 0l0 -2.640625zm18.550781 10.03125l-3.390625 0l0 -13.0625l-4.046875 1.265625l0 -2.765625l7.078125 -2.53125l0.359375 0l0 17.09375zm17.238281 0l-11.703125 0l0 -2.328125l5.53125 -5.875q1.125 -1.25 1.671875 -2.171875q0.546875 -0.921875 0.546875 -1.75q0 -1.140625 -0.578125 -1.78125q-0.5625 -0.65625 -1.640625 -0.65625q-1.140625 0 -1.8125 0.796875q-0.65625 0.78125 -0.65625 2.0625l-3.390625 0q0 -1.546875 0.734375 -2.828125q0.75 -1.296875 2.109375 -2.03125q1.359375 -0.734375 3.078125 -0.734375q2.640625 0 4.09375 1.265625q1.46875 1.265625 1.46875 3.578125q0 1.265625 -0.65625 2.578125q-0.65625 1.3125 -2.25 3.046875l-3.890625 4.09375l7.34375 0l0 2.734375z" fill-rule="nonzero"></path><path fill="#000000" fill-opacity="0.0" d="m356.1552 394.85992l83.90054 0l0 32.92932l-83.90054 0z" fill-rule="evenodd"></path><path fill="#002835" d="m382.06058 409.8333l1.796875 0q1.296875 0 1.90625 -0.640625q0.625 -0.65625 0.625 -1.71875q0 -1.03125 -0.609375 -1.59375q-0.609375 -0.578125 -1.6875 -0.578125q-0.984375 0 -1.640625 0.53125q-0.65625 0.53125 -0.65625 1.390625l-3.375 0q0 -1.34375 0.71875 -2.40625q0.71875 -1.0625 2.015625 -1.65625q1.296875 -0.59375 2.84375 -0.59375q2.71875 0 4.25 1.296875q1.53125 1.296875 1.53125 3.5625q0 1.171875 -0.71875 2.15625q-0.703125 0.984375 -1.875 1.515625q1.453125 0.515625 2.15625 1.546875q0.703125 1.03125 0.703125 2.4375q0 2.265625 -1.65625 3.640625q-1.65625 1.375 -4.390625 1.375q-2.546875 0 -4.171875 -1.34375q-1.625 -1.359375 -1.625 -3.5625l3.390625 0q0 0.953125 0.71875 1.5625q0.71875 0.609375 1.78125 0.609375q1.203125 0 1.890625 -0.640625q0.6875 -0.640625 0.6875 -1.6875q0 -2.5625 -2.8125 -2.5625l-1.796875 0l0 -2.640625zm18.550781 10.03125l-3.390625 0l0 -13.0625l-4.046875 1.265625l0 -2.765625l7.078125 -2.53125l0.359375 0l0 17.09375zm8.988281 -10.03125l1.796875 0q1.296875 0 1.90625 -0.640625q0.625 -0.65625 0.625 -1.71875q0 -1.03125 -0.609375 -1.59375q-0.609375 -0.578125 -1.6875 -0.578125q-0.984375 0 -1.640625 0.53125q-0.65625 0.53125 -0.65625 1.390625l-3.375 0q0 -1.34375 0.71875 -2.40625q0.71875 -1.0625 2.015625 -1.65625q1.296875 -0.59375 2.84375 -0.59375q2.71875 0 4.25 1.296875q1.53125 1.296875 1.53125 3.5625q0 1.171875 -0.71875 2.15625q-0.703125 0.984375 -1.875 1.515625q1.453125 0.515625 2.15625 1.546875q0.703125 1.03125 0.703125 2.4375q0 2.265625 -1.65625 3.640625q-1.65625 1.375 -4.390625 1.375q-2.546875 0 -4.171875 -1.34375q-1.625 -1.359375 -1.625 -3.5625l3.390625 0q0 0.953125 0.71875 1.5625q0.71875 0.609375 1.78125 0.609375q1.203125 0 1.890625 -0.640625q0.6875 -0.640625 0.6875 -1.6875q0 -2.5625 -2.8125 -2.5625l-1.796875 0l0 -2.640625z" fill-rule="nonzero"></path><path fill="#000000" fill-opacity="0.0" d="m385.80484 449.89517l83.90054 0l0 32.92932l-83.90054 0z" fill-rule="evenodd"></path><path fill="#002835" d="m411.7102 464.86856l1.796875 0q1.296875 0 1.90625 -0.640625q0.625 -0.65625 0.625 -1.71875q0 -1.03125 -0.609375 -1.59375q-0.609375 -0.578125 -1.6875 -0.578125q-0.984375 0 -1.640625 0.53125q-0.65625 0.53125 -0.65625 1.390625l-3.375 0q0 -1.34375 0.71875 -2.40625q0.71875 -1.0625 2.015625 -1.65625q1.296875 -0.59375 2.84375 -0.59375q2.71875 0 4.25 1.296875q1.53125 1.296875 1.53125 3.5625q0 1.171875 -0.71875 2.15625q-0.703125 0.984375 -1.875 1.515625q1.453125 0.515625 2.15625 1.546875q0.703125 1.03125 0.703125 2.4375q0 2.265625 -1.65625 3.640625q-1.65625 1.375 -4.390625 1.375q-2.546875 0 -4.171875 -1.34375q-1.625 -1.359375 -1.625 -3.5625l3.390625 0q0 0.953125 0.71875 1.5625q0.71875 0.609375 1.78125 0.609375q1.203125 0 1.890625 -0.640625q0.6875 -0.640625 0.6875 -1.6875q0 -2.5625 -2.8125 -2.5625l-1.796875 0l0 -2.640625zm22.019531 10.03125l-11.703125 0l0 -2.328125l5.53125 -5.875q1.125 -1.25 1.671875 -2.171875q0.546875 -0.921875 0.546875 -1.75q0 -1.140625 -0.578125 -1.78125q-0.5625 -0.65625 -1.640625 -0.65625q-1.140625 0 -1.8125 0.796875q-0.65625 0.78125 -0.65625 2.0625l-3.390625 0q0 -1.546875 0.734375 -2.828125q0.75 -1.296875 2.109375 -2.03125q1.359375 -0.734375 3.078125 -0.734375q2.640625 0 4.09375 1.265625q1.46875 1.265625 1.46875 3.578125q0 1.265625 -0.65625 2.578125q-0.65625 1.3125 -2.25 3.046875l-3.890625 4.09375l7.34375 0l0 2.734375zm13.550781 -7.0625q0 3.546875 -1.46875 5.421875q-1.453125 1.875 -4.28125 1.875q-2.78125 0 -4.265625 -1.84375q-1.46875 -1.84375 -1.515625 -5.265625l0 -3.140625q0 -3.578125 1.484375 -5.421875q1.484375 -1.859375 4.265625 -1.859375q2.796875 0 4.265625 1.84375q1.484375 1.828125 1.515625 5.25l0 3.140625zm-3.375 -3.4375q0 -2.125 -0.59375 -3.09375q-0.578125 -0.96875 -1.796875 -0.96875q-1.203125 0 -1.78125 0.921875q-0.5625 0.921875 -0.59375 2.875l0 4.15625q0 2.078125 0.5625 3.09375q0.578125 1.015625 1.828125 1.015625q1.25 0 1.796875 -0.96875q0.546875 -0.96875 0.578125 -2.984375l0 -4.046875z" fill-rule="nonzero"></path><path fill="#000000" fill-opacity="0.0" d="m473.7712 449.89517l83.90054 0l0 32.92932l-83.90054 0z" fill-rule="evenodd"></path><path fill="#002835" d="m499.67654 464.86856l1.796875 0q1.296875 0 1.90625 -0.640625q0.625 -0.65625 0.625 -1.71875q0 -1.03125 -0.609375 -1.59375q-0.609375 -0.578125 -1.6875 -0.578125q-0.984375 0 -1.640625 0.53125q-0.65625 0.53125 -0.65625 1.390625l-3.375 0q0 -1.34375 0.71875 -2.40625q0.71875 -1.0625 2.015625 -1.65625q1.296875 -0.59375 2.84375 -0.59375q2.71875 0 4.25 1.296875q1.53125 1.296875 1.53125 3.5625q0 1.171875 -0.71875 2.15625q-0.703125 0.984375 -1.875 1.515625q1.453125 0.515625 2.15625 1.546875q0.703125 1.03125 0.703125 2.4375q0 2.265625 -1.65625 3.640625q-1.65625 1.375 -4.390625 1.375q-2.546875 0 -4.171875 -1.34375q-1.625 -1.359375 -1.625 -3.5625l3.390625 0q0 0.953125 0.71875 1.5625q0.71875 0.609375 1.78125 0.609375q1.203125 0 1.890625 -0.640625q0.6875 -0.640625 0.6875 -1.6875q0 -2.5625 -2.8125 -2.5625l-1.796875 0l0 -2.640625zm22.019562 10.03125l-11.7031555 0l0 -2.328125l5.5312805 -5.875q1.125 -1.25 1.671875 -2.171875q0.546875 -0.921875 0.546875 -1.75q0 -1.140625 -0.578125 -1.78125q-0.5625 -0.65625 -1.640625 -0.65625q-1.140625 0 -1.8125 0.796875q-0.65625 0.78125 -0.65625 2.0625l-3.3906555 0q0 -1.546875 0.734375 -2.828125q0.75 -1.296875 2.1094055 -2.03125q1.359375 -0.734375 3.078125 -0.734375q2.640625 0 4.09375 1.265625q1.46875 1.265625 1.46875 3.578125q0 1.265625 -0.65625 2.578125q-0.65625 1.3125 -2.25 3.046875l-3.890625 4.09375l7.34375 0l0 2.734375zm10.300781 0l-3.390625 0l0 -13.0625l-4.046875 1.265625l0 -2.765625l7.078125 -2.53125l0.359375 0l0 17.09375z" fill-rule="nonzero"></path><path fill="#000000" fill-opacity="0.0" d="m357.91174 140.97878l-121.66931 0" fill-rule="evenodd"></path><path stroke="#595959" stroke-width="2.0" stroke-linejoin="round" stroke-linecap="butt" stroke-dasharray="2.0,6.0" d="m357.91174 140.97878l-121.66931 0" fill-rule="evenodd"></path><path fill="#000000" fill-opacity="0.0" d="m471.14532 259.2045l-121.66928 0" fill-rule="evenodd"></path><path stroke="#595959" stroke-width="2.0" stroke-linejoin="round" stroke-linecap="butt" stroke-dasharray="2.0,6.0" d="m471.14532 259.2045l-121.66928 0" fill-rule="evenodd"></path><path fill="#000000" fill-opacity="0.0" d="m597.95636 380.3935l-121.66931 0" fill-rule="evenodd"></path><path stroke="#595959" stroke-width="2.0" stroke-linejoin="round" stroke-linecap="butt" stroke-dasharray="2.0,6.0" d="m597.95636 380.3935l-121.66931 0" fill-rule="evenodd"></path><path fill="#000000" fill-opacity="0.0" d="m121.66953 378.70602l-91.46457 0" fill-rule="evenodd"></path><path stroke="#595959" stroke-width="2.0" stroke-linejoin="round" stroke-linecap="butt" stroke-dasharray="2.0,6.0" d="m121.66953 378.70602l-91.46457 0" fill-rule="evenodd"></path><path fill="#000000" fill-opacity="0.0" d="m116.78355 259.2047l-91.46457 0" fill-rule="evenodd"></path><path stroke="#595959" stroke-width="2.0" stroke-linejoin="round" stroke-linecap="butt" stroke-dasharray="2.0,6.0" d="m116.78355 259.2047l-91.46457 0" fill-rule="evenodd"></path><path fill="#000000" fill-opacity="0.0" d="m115.66269 139.70341l-91.46457 0" fill-rule="evenodd"></path><path stroke="#595959" stroke-width="2.0" stroke-linejoin="round" stroke-linecap="butt" stroke-dasharray="2.0,6.0" d="m115.66269 139.70341l-91.46457 0" fill-rule="evenodd"></path><path fill="#000000" fill-opacity="0.0" d="m121.66953 499.2966l-91.46457 0" fill-rule="evenodd"></path><path stroke="#595959" stroke-width="2.0" stroke-linejoin="round" stroke-linecap="butt" stroke-dasharray="2.0,6.0" d="m121.66953 499.2966l-91.46457 0" fill-rule="evenodd"></path><path fill="#000000" fill-opacity="0.0" d="m353.25986 156.27559l0.03149414 102.92912" fill-rule="evenodd"></path><path stroke="#595959" stroke-width="2.0" stroke-linejoin="round" stroke-linecap="butt" stroke-dasharray="2.0,6.0" d="m353.25986 156.27559l0.03149414 102.92912" fill-rule="evenodd"></path><path fill="#000000" fill-opacity="0.0" d="m473.75592 278.44882l0.03149414 102.92914" fill-rule="evenodd"></path><path stroke="#595959" stroke-width="2.0" stroke-linejoin="round" stroke-linecap="butt" stroke-dasharray="2.0,6.0" d="m473.75592 278.44882l0.03149414 102.92914" fill-rule="evenodd"></path><path fill="#000000" fill-opacity="0.0" d="m234.66142 38.04987l0.03149414 102.92914" fill-rule="evenodd"></path><path stroke="#595959" stroke-width="2.0" stroke-linejoin="round" stroke-linecap="butt" stroke-dasharray="2.0,6.0" d="m234.66142 38.04987l0.03149414 102.92914" fill-rule="evenodd"></path><path fill="#000000" fill-opacity="0.0" d="m112.708664 0l0.03149414 102.92913" fill-rule="evenodd"></path><path stroke="#595959" stroke-width="2.0" stroke-linejoin="round" stroke-linecap="butt" stroke-dasharray="2.0,6.0" d="m112.708664 0l0.03149414 102.92913" fill-rule="evenodd"></path><path fill="#000000" fill-opacity="0.0" d="m233.58005 499.2966l-0.06298828 37.795258" fill-rule="evenodd"></path><path stroke="#595959" stroke-width="2.0" stroke-linejoin="round" stroke-linecap="butt" stroke-dasharray="2.0,6.0" d="m233.58005 499.2966l-0.06298828 37.795258" fill-rule="evenodd"></path><path fill="#000000" fill-opacity="0.0" d="m354.0105 499.2966l-0.06298828 37.795258" fill-rule="evenodd"></path><path stroke="#595959" stroke-width="2.0" stroke-linejoin="round" stroke-linecap="butt" stroke-dasharray="2.0,6.0" d="m354.0105 499.2966l-0.06298828 37.795258" fill-rule="evenodd"></path><path fill="#000000" fill-opacity="0.0" d="m473.80316 497.57742l-0.0630188 37.795258" fill-rule="evenodd"></path><path stroke="#595959" stroke-width="2.0" stroke-linejoin="round" stroke-linecap="butt" stroke-dasharray="2.0,6.0" d="m473.80316 497.57742l-0.0630188 37.795258" fill-rule="evenodd"></path><path fill="#000000" fill-opacity="0.0" d="m113.149605 499.2966l-0.06298828 37.795258" fill-rule="evenodd"></path><path stroke="#595959" stroke-width="2.0" stroke-linejoin="round" stroke-linecap="butt" stroke-dasharray="2.0,6.0" d="m113.149605 499.2966l-0.06298828 37.795258" fill-rule="evenodd"></path><path fill="#000000" fill-opacity="0.0" d="m535.063 317.97638l-61.322845 63.40158" fill-rule="evenodd"></path><path stroke="#595959" stroke-width="2.0" stroke-linejoin="round" stroke-linecap="butt" stroke-dasharray="2.0,6.0" d="m535.063 317.97638l-61.322845 63.40158" fill-rule="evenodd"></path><path fill="#000000" fill-opacity="0.0" d="m414.58267 196.7874l-61.322815 63.401566" fill-rule="evenodd"></path><path stroke="#595959" stroke-width="2.0" stroke-linejoin="round" stroke-linecap="butt" stroke-dasharray="2.0,6.0" d="m414.58267 196.7874l-61.322815 63.401566" fill-rule="evenodd"></path><path fill="#000000" fill-opacity="0.0" d="m295.98425 76.301834l-61.32283 63.40158" fill-rule="evenodd"></path><path stroke="#595959" stroke-width="2.0" stroke-linejoin="round" stroke-linecap="butt" stroke-dasharray="2.0,6.0" d="m295.98425 76.301834l-61.32283 63.40158" fill-rule="evenodd"></path><path fill="#000000" fill-opacity="0.0" d="m114.25722 256.81366l-61.322834 63.40155" fill-rule="evenodd"></path><path stroke="#595959" stroke-width="2.0" stroke-linejoin="round" stroke-linecap="butt" stroke-dasharray="2.0,6.0" d="m114.25722 256.81366l-61.322834 63.40155" fill-rule="evenodd"></path><path fill="#000000" fill-opacity="0.0" d="m115.1706 496.8294l-31.338577 33.322815" fill-rule="evenodd"></path><path stroke="#595959" stroke-width="2.0" stroke-linejoin="round" stroke-linecap="butt" stroke-dasharray="2.0,6.0" d="m115.1706 496.8294l-31.338577 33.322815" fill-rule="evenodd"></path><path fill="#000000" fill-opacity="0.0" d="m655.874 500.62466l-62.33069 -1.322815" fill-rule="evenodd"></path><path stroke="#595959" stroke-width="2.0" stroke-linejoin="round" stroke-linecap="butt" stroke-dasharray="2.0,6.0" d="m655.874 500.62466l-62.33069 -1.322815" fill-rule="evenodd"></path><path fill="#000000" fill-opacity="0.0" d="m93.66561 -4.199475E-5l61.16535 60.88189" fill-rule="evenodd"></path><path stroke="#595959" stroke-width="2.0" stroke-linejoin="round" stroke-linecap="butt" stroke-dasharray="2.0,6.0" d="m93.66561 -4.199475E-5l61.16535 60.88189" fill-rule="evenodd"></path><path fill="#000000" fill-opacity="0.0" d="m53.01207 198.3228l61.16535 60.88188" fill-rule="evenodd"></path><path stroke="#595959" stroke-width="2.0" stroke-linejoin="round" stroke-linecap="butt" stroke-dasharray="2.0,6.0" d="m53.01207 198.3228l61.16535 60.88188" fill-rule="evenodd"></path><path fill="#000000" fill-opacity="0.0" d="m575.26404 479.11807l61.165344 60.881866" fill-rule="evenodd"></path><path stroke="#595959" stroke-width="2.0" stroke-linejoin="round" stroke-linecap="butt" stroke-dasharray="2.0,6.0" d="m575.26404 479.11807l61.165344 60.881866" fill-rule="evenodd"></path><path fill="#000000" fill-opacity="0.0" d="m354.42902 499.25693l33.763763 36.126007" fill-rule="evenodd"></path><path stroke="#595959" stroke-width="2.0" stroke-linejoin="round" stroke-linecap="butt" stroke-dasharray="2.0,6.0" d="m354.42902 499.25693l33.763763 36.126007" fill-rule="evenodd"></path><path fill="#000000" fill-opacity="0.0" d="m354.42902 499.25693l-38.299225 40.188995" fill-rule="evenodd"></path><path stroke="#595959" stroke-width="2.0" stroke-linejoin="round" stroke-linecap="butt" stroke-dasharray="2.0,6.0" d="m354.42902 499.25693l-38.299225 40.188995" fill-rule="evenodd"></path><path fill="#000000" fill-opacity="0.0" d="m114.25722 17.682415l-61.322834 63.401577" fill-rule="evenodd"></path><path stroke="#595959" stroke-width="2.0" stroke-linejoin="round" stroke-linecap="butt" stroke-dasharray="2.0,6.0" d="m114.25722 17.682415l-61.322834 63.401577" fill-rule="evenodd"></path><path fill="#000000" fill-opacity="0.0" d="m51.983196 439.74274l93.13385 92.37793" fill-rule="evenodd"></path><path stroke="#595959" stroke-width="2.0" stroke-linejoin="round" stroke-linecap="butt" stroke-dasharray="2.0,6.0" d="m51.983196 439.74274l93.13385 92.37793" fill-rule="evenodd"></path><path fill="#000000" fill-opacity="0.0" d="m233.09808 18.603455l-121.6693 0" fill-rule="evenodd"></path><path stroke="#595959" stroke-width="2.0" stroke-linejoin="round" stroke-linecap="butt" stroke-dasharray="2.0,6.0" d="m233.09808 18.603455l-121.6693 0" fill-rule="evenodd"></path><path fill="#000000" fill-opacity="0.0" d="m642.3753 453.37534l-107.30707 110.64566" fill-rule="evenodd"></path><path stroke="#595959" stroke-width="2.0" stroke-linejoin="round" stroke-linecap="butt" stroke-dasharray="2.0,6.0" d="m642.3753 453.37534l-107.30707 110.64566" fill-rule="evenodd"></path><path fill="#000000" fill-opacity="0.0" d="m597.9554 396.3281l0.03149414 102.92914" fill-rule="evenodd"></path><path stroke="#595959" stroke-width="2.0" stroke-linejoin="round" stroke-linecap="butt" stroke-dasharray="2.0,6.0" d="m597.9554 396.3281l0.03149414 102.92914" fill-rule="evenodd"></path></g></svg>

