<?xml version="1.0" standalone="yes"?>

<svg version="1.1" viewBox="0.0 0.0 1152.0 864.0" fill="none" stroke="none" stroke-linecap="square" stroke-miterlimit="10" xmlns="http://www.w3.org/2000/svg" xmlns:xlink="http://www.w3.org/1999/xlink"><clipPath id="p.0"><path d="m0 0l1152.0 0l0 864.0l-1152.0 0l0 -864.0z" clip-rule="nonzero"></path></clipPath><g clip-path="url(#p.0)"><path fill="#000000" fill-opacity="0.0" d="m0 0l1152.0 0l0 864.0l-1152.0 0z" fill-rule="evenodd"></path><path fill="#000000" fill-opacity="0.0" d="m605.2457 165.5935l0 -118.58998l107.204346 118.58998z" fill-rule="evenodd"></path><path fill="#2196f3" fill-opacity="0.4885" d="m712.3775 224.87004l0 -59.330017l-53.66736 59.330017z" fill-rule="evenodd"></path><path fill="#000000" fill-opacity="0.0" d="m605.1734 284.0458l0 -237.03987l214.40863 237.03987z" fill-rule="evenodd"></path><path stroke="#cc0000" stroke-width="3.0" stroke-linejoin="round" stroke-linecap="butt" d="m605.1734 284.0458l0 -237.03987l214.40863 237.03987z" fill-rule="evenodd"></path><path fill="#000000" fill-opacity="0.0" d="m712.38116 284.1317l0 -118.58998l107.204285 118.58998z" fill-rule="evenodd"></path><path fill="#000000" fill-opacity="0.0" d="m712.4554 283.8591l-106.878296 0l106.878296 -118.37984z" fill-rule="evenodd"></path><path fill="#000000" fill-opacity="0.0" d="m605.1734 165.52588l107.204346 0" fill-rule="evenodd"></path><path stroke="#595959" stroke-width="1.0" stroke-linejoin="round" stroke-linecap="butt" d="m605.1734 165.52588l107.204346 0" fill-rule="evenodd"></path><path fill="#000000" fill-opacity="0.0" d="m712.37775 165.52588l0 118.51993" fill-rule="evenodd"></path><path stroke="#595959" stroke-width="1.0" stroke-linejoin="round" stroke-linecap="butt" d="m712.37775 165.52588l0 118.51993" fill-rule="evenodd"></path><path fill="#000000" fill-opacity="0.0" d="m712.37775 165.52588l-107.204346 118.51993" fill-rule="evenodd"></path><path stroke="#595959" stroke-width="1.0" stroke-linejoin="round" stroke-linecap="butt" d="m712.37775 165.52588l-107.204346 118.51993" fill-rule="evenodd"></path><path fill="#000000" fill-opacity="0.0" d="m605.5628 165.53532l106.878296 0l-106.878296 118.37984z" fill-rule="evenodd"></path><path fill="#000000" fill-opacity="0.0" d="m605.18054 106.36856l53.66736 -0.07004547" fill-rule="evenodd"></path><path stroke="#595959" stroke-width="1.0" stroke-linejoin="round" stroke-linecap="butt" d="m605.18054 106.36856l53.66736 -0.07004547" fill-rule="evenodd"></path><path fill="#000000" fill-opacity="0.0" d="m658.8479 106.298515l0.13043213 177.56976" fill-rule="evenodd"></path><path stroke="#595959" stroke-width="1.0" stroke-linejoin="round" stroke-linecap="butt" d="m658.8479 106.298515l0.13043213 177.56976" fill-rule="evenodd"></path><path fill="#000000" fill-opacity="0.0" d="m658.8479 106.298515l-53.276123 59.25997" fill-rule="evenodd"></path><path stroke="#595959" stroke-width="1.0" stroke-linejoin="round" stroke-linecap="butt" d="m658.8479 106.298515l-53.276123 59.25997" fill-rule="evenodd"></path><path fill="#000000" fill-opacity="0.0" d="m605.5628 165.53532l106.878296 118.3098" fill-rule="evenodd"></path><path stroke="#595959" stroke-width="1.0" stroke-linejoin="round" stroke-linecap="butt" d="m605.5628 165.53532l106.878296 118.3098" fill-rule="evenodd"></path><path fill="#000000" fill-opacity="0.0" d="m605.5628 224.72525l160.41522 0.14009094" fill-rule="evenodd"></path><path stroke="#595959" stroke-width="1.0" stroke-linejoin="round" stroke-linecap="butt" d="m605.5628 224.72525l160.41522 0.14009094" fill-rule="evenodd"></path><path fill="#000000" fill-opacity="0.0" d="m765.9833 224.83672l0 59.330032" fill-rule="evenodd"></path><path stroke="#595959" stroke-width="1.0" stroke-linejoin="round" stroke-linecap="butt" d="m765.9833 224.83672l0 59.330032" fill-rule="evenodd"></path><path fill="#000000" fill-opacity="0.0" d="m765.9833 224.83672l-53.536926 59.04982" fill-rule="evenodd"></path><path stroke="#595959" stroke-width="1.0" stroke-linejoin="round" stroke-linecap="butt" d="m765.9833 224.83672l-53.536926 59.04982" fill-rule="evenodd"></path><path fill="#000000" fill-opacity="0.0" d="m200.3779 284.16638l206.4567 0l0 77.7323l-206.4567 0z" fill-rule="evenodd"></path><path fill="#002835" d="m227.7293 317.07254l0 -17.0625l5.96875 0q3.109375 0 4.703125 1.1875q1.609375 1.1875 1.609375 3.484375q0 1.25 -0.640625 2.21875q-0.640625 0.953125 -1.796875 1.390625q1.3125 0.328125 2.0625 1.328125q0.765625 1.0 0.765625 2.4375q0 2.453125 -1.578125 3.71875q-1.5625 1.265625 -4.46875 1.296875l-6.625 0zm3.515625 -7.4375l0 4.609375l3.0 0q1.25 0 1.9375 -0.59375q0.703125 -0.59375 0.703125 -1.625q0 -2.34375 -2.421875 -2.390625l-3.21875 0zm0 -2.484375l2.59375 0q2.65625 -0.046875 2.65625 -2.109375q0 -1.171875 -0.671875 -1.671875q-0.671875 -0.515625 -2.125 -0.515625l-2.453125 0l0 4.296875zm18.925781 9.921875q-0.234375 -0.453125 -0.34375 -1.140625q-1.234375 1.375 -3.203125 1.375q-1.859375 0 -3.09375 -1.078125q-1.21875 -1.078125 -1.21875 -2.71875q0 -2.015625 1.484375 -3.09375q1.5 -1.078125 4.328125 -1.09375l1.5625 0l0 -0.71875q0 -0.890625 -0.453125 -1.40625q-0.453125 -0.53125 -1.421875 -0.53125q-0.859375 0 -1.34375 0.40625q-0.484375 0.40625 -0.484375 1.125l-3.390625 0q0 -1.09375 0.671875 -2.03125q0.6875 -0.9375 1.921875 -1.46875q1.25 -0.546875 2.796875 -0.546875q2.34375 0 3.71875 1.1875q1.375 1.171875 1.375 3.3125l0 5.484375q0.015625 1.8125 0.515625 2.734375l0 0.203125l-3.421875 0zm-2.8125 -2.359375q0.75 0 1.375 -0.328125q0.640625 -0.34375 0.953125 -0.90625l0 -2.171875l-1.265625 0q-2.546875 0 -2.703125 1.75l-0.015625 0.203125q0 0.640625 0.4375 1.046875q0.453125 0.40625 1.21875 0.40625zm15.195297 -1.140625q0 -0.625 -0.625 -0.984375q-0.609375 -0.359375 -1.96875 -0.640625q-4.5156097 -0.953125 -4.5156097 -3.84375q0 -1.6875 1.3906097 -2.8125q1.40625 -1.140625 3.671875 -1.140625q2.40625 0 3.84375 1.140625q1.453125 1.140625 1.453125 2.953125l-3.375 0q0 -0.71875 -0.46875 -1.1875q-0.46875 -0.484375 -1.46875 -0.484375q-0.859375 0 -1.328125 0.390625q-0.46875 0.375 -0.46875 0.984375q0 0.5625 0.53125 0.90625q0.53125 0.34375 1.796875 0.59375q1.265625 0.25 2.140625 0.5625q2.6875 0.984375 2.6875 3.421875q0 1.734375 -1.5 2.8125q-1.484375 1.0625 -3.84375 1.0625q-1.59375 0 -2.828125 -0.5625q-1.234375 -0.578125 -1.9374847 -1.5625q-0.703125 -1.0 -0.703125 -2.140625l3.2187347 0q0.046875 0.90625 0.65625 1.390625q0.625 0.46875 1.671875 0.46875q0.96875 0 1.46875 -0.359375q0.5 -0.375 0.5 -0.96875zm11.308594 3.734375q-2.796875 0 -4.546875 -1.703125q-1.75 -1.71875 -1.75 -4.5625l0 -0.328125q0 -1.921875 0.734375 -3.421875q0.75 -1.5 2.09375 -2.3125q1.359375 -0.828125 3.09375 -0.828125q2.59375 0 4.09375 1.640625q1.5 1.640625 1.5 4.65625l0 1.390625l-8.078125 0q0.15625 1.234375 0.984375 1.984375q0.828125 0.75 2.09375 0.75q1.953125 0 3.0625 -1.421875l1.65625 1.875q-0.75 1.078125 -2.0625 1.6875q-1.296875 0.59375 -2.875 0.59375zm-0.390625 -10.40625q-1.0 0 -1.640625 0.6875q-0.625 0.671875 -0.796875 1.9375l4.71875 0l0 -0.265625q-0.03125 -1.125 -0.625 -1.734375q-0.578125 -0.625 -1.65625 -0.625zm24.917969 3.953125q0 2.921875 -1.328125 4.6875q-1.328125 1.765625 -3.59375 1.765625q-1.921875 0 -3.109375 -1.34375l0 5.984375l-3.390625 0l0 -17.5625l3.140625 0l0.125 1.25q1.234375 -1.484375 3.203125 -1.484375q2.34375 0 3.640625 1.734375q1.3125 1.734375 1.3125 4.78125l0 0.1875zm-3.390625 -0.25q0 -1.765625 -0.625 -2.71875q-0.625 -0.96875 -1.828125 -0.96875q-1.59375 0 -2.1875 1.21875l0 5.1875q0.625 1.25 2.21875 1.25q2.421875 0 2.421875 -3.96875zm12.605469 -3.03125q-0.6875 -0.09375 -1.21875 -0.09375q-1.921875 0 -2.515625 1.296875l0 8.296875l-3.390625 0l0 -12.6875l3.203125 0l0.09375 1.515625q1.015625 -1.75 2.828125 -1.75q0.5625 0 1.046875 0.15625l-0.046875 3.265625zm5.2070312 9.5l-3.390625 0l0 -12.6875l3.390625 0l0 12.6875zm-3.59375 -15.96875q0 -0.75 0.5 -1.234375q0.515625 -0.5 1.390625 -0.5q0.875 0 1.390625 0.5q0.515625 0.484375 0.515625 1.234375q0 0.78125 -0.53125 1.28125q-0.515625 0.484375 -1.375 0.484375q-0.84375 0 -1.375 -0.484375q-0.515625 -0.5 -0.515625 -1.28125zm9.566406 3.28125l0.09375 1.421875q1.359375 -1.65625 3.65625 -1.65625q2.4375 0 3.359375 1.9375q1.328125 -1.9375 3.8125 -1.9375q2.0625 0 3.0625 1.203125q1.015625 1.203125 1.015625 3.625l0 8.09375l-3.40625 0l0 -8.09375q0 -1.078125 -0.421875 -1.5625q-0.421875 -0.5 -1.484375 -0.5q-1.53125 0 -2.109375 1.453125l0.015625 8.703125l-3.390625 0l0 -8.078125q0 -1.09375 -0.4375 -1.578125q-0.4375 -0.5 -1.46875 -0.5q-1.453125 0 -2.09375 1.1875l0 8.96875l-3.390625 0l0 -12.6875l3.1875 0zm21.167969 12.6875l-3.390625 0l0 -12.6875l3.390625 0l0 12.6875zm-3.59375 -15.96875q0 -0.75 0.5 -1.234375q0.515625 -0.5 1.390625 -0.5q0.875 0 1.390625 0.5q0.515625 0.484375 0.515625 1.234375q0 0.78125 -0.53125 1.28125q-0.515625 0.484375 -1.375 0.484375q-0.84375 0 -1.375 -0.484375q-0.515625 -0.5 -0.515625 -1.28125zm10.441406 0.171875l0 3.109375l2.171875 0l0 2.484375l-2.171875 0l0 6.328125q0 0.703125 0.265625 1.015625q0.265625 0.296875 1.03125 0.296875q0.5625 0 1.0 -0.078125l0 2.5625q-1.0 0.3125 -2.046875 0.3125q-3.5625 0 -3.640625 -3.59375l0 -6.84375l-1.84375 0l0 -2.484375l1.84375 0l0 -3.109375l3.390625 0zm7.625 15.796875l-3.390625 0l0 -12.6875l3.390625 0l0 12.6875zm-3.59375 -15.96875q0 -0.75 0.5 -1.234375q0.515625 -0.5 1.390625 -0.5q0.875 0 1.390625 0.5q0.515625 0.484375 0.515625 1.234375q0 0.78125 -0.53125 1.28125q-0.515625 0.484375 -1.375 0.484375q-0.84375 0 -1.375 -0.484375q-0.515625 -0.5 -0.515625 -1.28125zm11.128906 11.828125l2.359375 -8.546875l3.53125 0l-4.265625 12.6875l-3.234375 0l-4.28125 -12.6875l3.53125 0l2.359375 8.546875zm13.222656 4.375q-2.796875 0 -4.546875 -1.703125q-1.75 -1.71875 -1.75 -4.5625l0 -0.328125q0 -1.921875 0.734375 -3.421875q0.75 -1.5 2.09375 -2.3125q1.359375 -0.828125 3.09375 -0.828125q2.59375 0 4.09375 1.640625q1.5 1.640625 1.5 4.65625l0 1.390625l-8.078125 0q0.15625 1.234375 0.984375 1.984375q0.828125 0.75 2.09375 0.75q1.953125 0 3.0625 -1.421875l1.65625 1.875q-0.75 1.078125 -2.0625 1.6875q-1.296875 0.59375 -2.875 0.59375zm-0.390625 -10.40625q-1.0 0 -1.640625 0.6875q-0.625 0.671875 -0.796875 1.9375l4.71875 0l0 -0.265625q-0.03125 -1.125 -0.625 -1.734375q-0.578125 -0.625 -1.65625 -0.625z" fill-rule="nonzero"></path><path fill="#002835" d="m238.46172 339.13504q0 -2.6875 0.71875 -5.109375q0.71875 -2.421875 2.109375 -4.296875q1.390625 -1.875 3.015625 -2.59375l0.65625 1.828125q-1.703125 1.265625 -2.671875 3.921875q-0.953125 2.640625 -0.953125 6.171875l0 0.375q0 3.546875 0.9375 6.21875q0.953125 2.65625 2.6875 3.96875l-0.65625 1.78125q-1.59375 -0.703125 -2.96875 -2.515625q-1.375 -1.8125 -2.109375 -4.171875q-0.71875 -2.375 -0.765625 -4.953125l0 -0.625zm21.410141 -10.125l0 11.234375q0 2.796875 -1.75 4.4375q-1.75 1.625 -4.7812347 1.625q-3.0 0 -4.765625 -1.578125q-1.75 -1.59375 -1.78125 -4.359375l0 -11.359375l3.515625 0l0 11.265625q0 1.671875 0.796875 2.4375q0.8125 0.765625 2.234375 0.765625q2.9531097 0 2.9999847 -3.109375l0 -11.359375l3.53125 0zm5.78125 4.375l0.109375 1.46875q1.359375 -1.703125 3.640625 -1.703125q2.015625 0 3.0 1.1875q0.984375 1.1875 1.0 3.546875l0 8.1875l-3.375 0l0 -8.109375q0 -1.078125 -0.46875 -1.5625q-0.46875 -0.484375 -1.5625 -0.484375q-1.4375 0 -2.140625 1.21875l0 8.9375l-3.390625 0l0 -12.6875l3.1875 0zm13.894531 12.6875l-3.390625 0l0 -12.6875l3.390625 0l0 12.6875zm-3.59375 -15.96875q0 -0.75 0.5 -1.234375q0.515625 -0.5 1.390625 -0.5q0.875 0 1.390625 0.5q0.515625 0.484375 0.515625 1.234375q0 0.78125 -0.53125 1.28125q-0.515625 0.484375 -1.375 0.484375q-0.84375 0 -1.375 -0.484375q-0.515625 -0.5 -0.515625 -1.28125zm10.441406 0.171875l0 3.109375l2.171875 0l0 2.484375l-2.171875 0l0 6.328125q0 0.703125 0.265625 1.015625q0.265625 0.296875 1.03125 0.296875q0.5625 0 1.0 -0.078125l0 2.5625q-1.0 0.3125 -2.046875 0.3125q-3.5625 0 -3.640625 -3.59375l0 -6.84375l-1.84375 0l0 -2.484375l1.84375 0l0 -3.109375l3.390625 0zm19.101562 11.3125q0 -0.984375 -0.703125 -1.515625q-0.703125 -0.546875 -2.53125 -1.125q-1.828125 -0.59375 -2.890625 -1.171875q-2.90625 -1.578125 -2.90625 -4.234375q0 -1.375 0.765625 -2.453125q0.78125 -1.09375 2.234375 -1.703125q1.46875 -0.609375 3.28125 -0.609375q1.828125 0 3.25 0.671875q1.4375 0.65625 2.234375 1.859375q0.796875 1.203125 0.796875 2.734375l-3.515625 0q0 -1.171875 -0.75 -1.8125q-0.734375 -0.65625 -2.0625 -0.65625q-1.296875 0 -2.015625 0.546875q-0.703125 0.546875 -0.703125 1.4375q0 0.828125 0.828125 1.390625q0.84375 0.5625 2.46875 1.0625q3.0 0.890625 4.375 2.234375q1.375 1.328125 1.375 3.328125q0 2.21875 -1.6875 3.484375q-1.671875 1.25 -4.5 1.25q-1.96875 0 -3.59375 -0.71875q-1.609375 -0.71875 -2.46875 -1.96875q-0.84375 -1.265625 -0.84375 -2.921875l3.53125 0q0 2.828125 3.375 2.828125q1.25 0 1.953125 -0.5q0.703125 -0.515625 0.703125 -1.4375zm17.097656 -1.734375q0 2.921875 -1.328125 4.6875q-1.328125 1.765625 -3.59375 1.765625q-1.921875 0 -3.109375 -1.34375l0 5.984375l-3.390625 0l0 -17.5625l3.140625 0l0.125 1.25q1.234375 -1.484375 3.203125 -1.484375q2.34375 0 3.640625 1.734375q1.3125 1.734375 1.3125 4.78125l0 0.1875zm-3.390625 -0.25q0 -1.765625 -0.625 -2.71875q-0.625 -0.96875 -1.828125 -0.96875q-1.59375 0 -2.1875 1.21875l0 5.1875q0.625 1.25 2.21875 1.25q2.421875 0 2.421875 -3.96875zm12.839844 6.46875q-0.234375 -0.453125 -0.34375 -1.140625q-1.234375 1.375 -3.203125 1.375q-1.859375 0 -3.09375 -1.078125q-1.21875 -1.078125 -1.21875 -2.71875q0 -2.015625 1.484375 -3.09375q1.5 -1.078125 4.328125 -1.09375l1.5625 0l0 -0.71875q0 -0.890625 -0.453125 -1.40625q-0.453125 -0.53125 -1.421875 -0.53125q-0.859375 0 -1.34375 0.40625q-0.484375 0.40625 -0.484375 1.125l-3.390625 0q0 -1.09375 0.671875 -2.03125q0.6875 -0.9375 1.921875 -1.46875q1.25 -0.546875 2.796875 -0.546875q2.34375 0 3.71875 1.1875q1.375 1.171875 1.375 3.3125l0 5.484375q0.015625 1.8125 0.515625 2.734375l0 0.203125l-3.421875 0zm-2.8125 -2.359375q0.75 0 1.375 -0.328125q0.640625 -0.34375 0.953125 -0.90625l0 -2.171875l-1.265625 0q-2.546875 0 -2.703125 1.75l-0.015625 0.203125q0 0.640625 0.4375 1.046875q0.453125 0.40625 1.21875 0.40625zm13.6015625 -0.140625q0.9375 0 1.515625 -0.515625q0.59375 -0.515625 0.609375 -1.375l3.1875 0q-0.015625 1.296875 -0.71875 2.375q-0.6875 1.0625 -1.890625 1.65625q-1.1875 0.59375 -2.640625 0.59375q-2.71875 0 -4.296875 -1.71875q-1.5625 -1.734375 -1.5625 -4.78125l0 -0.234375q0 -2.921875 1.546875 -4.671875q1.5625 -1.75 4.28125 -1.75q2.375 0 3.8125 1.359375q1.4375 1.359375 1.46875 3.609375l-3.1875 0q-0.015625 -0.984375 -0.609375 -1.59375q-0.578125 -0.625 -1.546875 -0.625q-1.171875 0 -1.78125 0.859375q-0.609375 0.859375 -0.609375 2.796875l0 0.34375q0 1.96875 0.59375 2.828125q0.609375 0.84375 1.828125 0.84375zm13.078125 2.734375q-2.796875 0 -4.546875 -1.703125q-1.75 -1.71875 -1.75 -4.5625l0 -0.328125q0 -1.921875 0.734375 -3.421875q0.75 -1.5 2.09375 -2.3125q1.359375 -0.828125 3.09375 -0.828125q2.59375 0 4.09375 1.640625q1.5 1.640625 1.5 4.65625l0 1.390625l-8.078125 0q0.15625 1.234375 0.984375 1.984375q0.828125 0.75 2.09375 0.75q1.953125 0 3.0625 -1.421875l1.65625 1.875q-0.75 1.078125 -2.0625 1.6875q-1.296875 0.59375 -2.875 0.59375zm-0.390625 -10.40625q-1.0 0 -1.640625 0.6875q-0.625 0.671875 -0.796875 1.9375l4.71875 0l0 -0.265625q-0.03125 -1.125 -0.625 -1.734375q-0.578125 -0.625 -1.65625 -0.625zm13.363281 3.5q0 2.65625 -0.765625 5.109375q-0.765625 2.4375 -2.203125 4.3125q-1.421875 1.875 -3.046875 2.578125l-0.65625 -1.78125q1.671875 -1.265625 2.625 -3.875q0.96875 -2.609375 1.0 -6.015625l0 -0.625q0 -3.5 -0.953125 -6.171875q-0.953125 -2.671875 -2.671875 -4.0l0.65625 -1.796875q1.59375 0.6875 3.0 2.515625q1.421875 1.8125 2.203125 4.234375q0.78125 2.40625 0.8125 4.984375l0 0.53125z" fill-rule="nonzero"></path><path fill="#000000" fill-opacity="0.0" d="m609.1517 293.63202l206.45673 0l0 77.73227l-206.45673 0z" fill-rule="evenodd"></path><path fill="#002835" d="m678.296 318.39752q0 2.390625 -0.78125 4.15625q-0.765625 1.75 -2.140625 2.828125l2.84375 2.21875l-2.234375 1.984375l-3.640625 -2.921875q-0.625 0.109375 -1.28125 0.109375q-2.125 0 -3.796875 -1.015625q-1.65625 -1.03125 -2.578125 -2.921875q-0.90625 -1.890625 -0.921875 -4.34375l0 -0.84375q0 -2.53125 0.90625 -4.4375q0.90625 -1.921875 2.5625 -2.9375q1.671875 -1.03125 3.796875 -1.03125q2.140625 0 3.796875 1.03125q1.65625 1.015625 2.5625 2.9375q0.90625 1.90625 0.90625 4.421875l0 0.765625zm-3.5625 -0.78125q0 -2.6875 -0.96875 -4.078125q-0.953125 -1.390625 -2.734375 -1.390625q-1.765625 0 -2.734375 1.375q-0.953125 1.375 -0.96875 4.03125l0 0.84375q0 2.609375 0.953125 4.046875q0.96875 1.4375 2.78125 1.4375q1.765625 0 2.703125 -1.375q0.953125 -1.390625 0.96875 -4.0625l0 -0.828125zm13.5078125 7.625q-1.25 1.53125 -3.46875 1.53125q-2.03125 0 -3.109375 -1.171875q-1.0625 -1.171875 -1.09375 -3.4375l0 -8.3125l3.390625 0l0 8.203125q0 1.96875 1.796875 1.96875q1.734375 0 2.375 -1.1875l0 -8.984375l3.390625 0l0 12.6875l-3.1875 0l-0.09375 -1.296875zm13.1953125 1.296875q-0.234375 -0.453125 -0.34375 -1.140625q-1.234375 1.375 -3.203125 1.375q-1.859375 0 -3.09375 -1.078125q-1.21875 -1.078125 -1.21875 -2.71875q0 -2.015625 1.484375 -3.09375q1.5 -1.078125 4.328125 -1.09375l1.5625 0l0 -0.71875q0 -0.890625 -0.453125 -1.40625q-0.453125 -0.53125 -1.421875 -0.53125q-0.859375 0 -1.34375 0.40625q-0.484375 0.40625 -0.484375 1.125l-3.390625 0q0 -1.09375 0.671875 -2.03125q0.6875 -0.9375 1.921875 -1.46875q1.25 -0.546875 2.796875 -0.546875q2.34375 0 3.71875 1.1875q1.375 1.171875 1.375 3.3125l0 5.484375q0.015625 1.8125 0.515625 2.734375l0 0.203125l-3.421875 0zm-2.8125 -2.359375q0.75 0 1.375 -0.328125q0.640625 -0.34375 0.953125 -0.90625l0 -2.171875l-1.265625 0q-2.546875 0 -2.703125 1.75l-0.015625 0.203125q0 0.640625 0.4375 1.046875q0.453125 0.40625 1.21875 0.40625zm7.8046875 -4.078125q0 -2.96875 1.328125 -4.71875q1.328125 -1.765625 3.640625 -1.765625q1.84375 0 3.046875 1.390625l0 -6.46875l3.40625 0l0 18.0l-3.0625 0l-0.15625 -1.34375q-1.265625 1.578125 -3.265625 1.578125q-2.234375 0 -3.59375 -1.765625q-1.34375 -1.765625 -1.34375 -4.90625zm3.375 0.25q0 1.78125 0.625 2.734375q0.625 0.9375 1.8125 0.9375q1.5625 0 2.203125 -1.3125l0 -5.015625q-0.625 -1.3125 -2.1875 -1.3125q-2.453125 0 -2.453125 3.96875zm14.7265625 -9.609375l0 3.109375l2.171875 0l0 2.484375l-2.171875 0l0 6.328125q0 0.703125 0.265625 1.015625q0.265625 0.296875 1.03125 0.296875q0.5625 0 1.0 -0.078125l0 2.5625q-1.0 0.3125 -2.046875 0.3125q-3.5625 0 -3.640625 -3.59375l0 -6.84375l-1.84375 0l0 -2.484375l1.84375 0l0 -3.109375l3.390625 0zm11.171875 6.296875q-0.6875 -0.09375 -1.21875 -0.09375q-1.921875 0 -2.515625 1.296875l0 8.296875l-3.390625 0l0 -12.6875l3.203125 0l0.09375 1.515625q1.015625 -1.75 2.828125 -1.75q0.5625 0 1.046875 0.15625l-0.046875 3.265625zm7.4726562 9.734375q-2.796875 0 -4.546875 -1.703125q-1.75 -1.71875 -1.75 -4.5625l0 -0.328125q0 -1.921875 0.734375 -3.421875q0.75 -1.5 2.09375 -2.3125q1.359375 -0.828125 3.09375 -0.828125q2.59375 0 4.09375 1.640625q1.5 1.640625 1.5 4.65625l0 1.390625l-8.078125 0q0.15625 1.234375 0.984375 1.984375q0.828125 0.75 2.09375 0.75q1.953125 0 3.0625 -1.421875l1.65625 1.875q-0.75 1.078125 -2.0625 1.6875q-1.296875 0.59375 -2.875 0.59375zm-0.390625 -10.40625q-1.0 0 -1.640625 0.6875q-0.625 0.671875 -0.796875 1.9375l4.71875 0l0 -0.265625q-0.03125 -1.125 -0.625 -1.734375q-0.578125 -0.625 -1.65625 -0.625zm13.363281 10.40625q-2.796875 0 -4.546875 -1.703125q-1.75 -1.71875 -1.75 -4.5625l0 -0.328125q0 -1.921875 0.734375 -3.421875q0.75 -1.5 2.09375 -2.3125q1.359375 -0.828125 3.09375 -0.828125q2.59375 0 4.09375 1.640625q1.5 1.640625 1.5 4.65625l0 1.390625l-8.078125 0q0.15625 1.234375 0.984375 1.984375q0.828125 0.75 2.09375 0.75q1.953125 0 3.0625 -1.421875l1.65625 1.875q-0.75 1.078125 -2.0625 1.6875q-1.296875 0.59375 -2.875 0.59375zm-0.390625 -10.40625q-1.0 0 -1.640625 0.6875q-0.625 0.671875 -0.796875 1.9375l4.71875 0l0 -0.265625q-0.03125 -1.125 -0.625 -1.734375q-0.578125 -0.625 -1.65625 -0.625z" fill-rule="nonzero"></path><path fill="#002835" d="m647.2355 348.60065q0 -2.6875 0.71875 -5.109375q0.71875 -2.421875 2.109375 -4.296875q1.390625 -1.875 3.015625 -2.59375l0.65625 1.828125q-1.703125 1.265625 -2.671875 3.921875q-0.953125 2.640625 -0.953125 6.171875l0 0.375q0 3.546875 0.9375 6.21875q0.953125 2.65625 2.6875 3.96875l-0.65625 1.78125q-1.59375 -0.703125 -2.96875 -2.515625q-1.375 -1.8125 -2.109375 -4.171875q-0.71875 -2.375 -0.765625 -4.953125l0 -0.625zm21.410156 -10.125l0 11.234375q0 2.796875 -1.75 4.4375q-1.75 1.625 -4.78125 1.625q-3.0 0 -4.765625 -1.578125q-1.75 -1.59375 -1.78125 -4.359375l0 -11.359375l3.515625 0l0 11.265625q0 1.671875 0.796875 2.4375q0.8125 0.765625 2.234375 0.765625q2.953125 0 3.0 -3.109375l0 -11.359375l3.53125 0zm5.78125 4.375l0.109375 1.46875q1.359375 -1.703125 3.640625 -1.703125q2.015625 0 3.0 1.1875q0.984375 1.1875 1.0 3.546875l0 8.1875l-3.375 0l0 -8.109375q0 -1.078125 -0.46875 -1.5625q-0.46875 -0.484375 -1.5625 -0.484375q-1.4375 0 -2.140625 1.21875l0 8.9375l-3.390625 0l0 -12.6875l3.1875 0zm13.894531 12.6875l-3.390625 0l0 -12.6875l3.390625 0l0 12.6875zm-3.59375 -15.96875q0 -0.75 0.5 -1.234375q0.515625 -0.5 1.390625 -0.5q0.875 0 1.390625 0.5q0.515625 0.484375 0.515625 1.234375q0 0.78125 -0.53125 1.28125q-0.515625 0.484375 -1.375 0.484375q-0.84375 0 -1.375 -0.484375q-0.515625 -0.5 -0.515625 -1.28125zm10.441406 0.171875l0 3.109375l2.171875 0l0 2.484375l-2.171875 0l0 6.328125q0 0.703125 0.265625 1.015625q0.265625 0.296875 1.03125 0.296875q0.5625 0 1.0 -0.078125l0 2.5625q-1.0 0.3125 -2.046875 0.3125q-3.5625 0 -3.640625 -3.59375l0 -6.84375l-1.84375 0l0 -2.484375l1.84375 0l0 -3.109375l3.390625 0zm19.101562 11.3125q0 -0.984375 -0.703125 -1.515625q-0.703125 -0.546875 -2.53125 -1.125q-1.828125 -0.59375 -2.890625 -1.171875q-2.90625 -1.578125 -2.90625 -4.234375q0 -1.375 0.765625 -2.453125q0.78125 -1.09375 2.234375 -1.703125q1.46875 -0.609375 3.28125 -0.609375q1.828125 0 3.25 0.671875q1.4375 0.65625 2.234375 1.859375q0.796875 1.203125 0.796875 2.734375l-3.515625 0q0 -1.171875 -0.75 -1.8125q-0.734375 -0.65625 -2.0625 -0.65625q-1.296875 0 -2.015625 0.546875q-0.703125 0.546875 -0.703125 1.4375q0 0.828125 0.828125 1.390625q0.84375 0.5625 2.46875 1.0625q3.0 0.890625 4.375 2.234375q1.375 1.328125 1.375 3.328125q0 2.21875 -1.6875 3.484375q-1.671875 1.25 -4.5 1.25q-1.96875 0 -3.59375 -0.71875q-1.609375 -0.71875 -2.46875 -1.96875q-0.84375 -1.265625 -0.84375 -2.921875l3.53125 0q0 2.828125 3.375 2.828125q1.25 0 1.953125 -0.5q0.703125 -0.515625 0.703125 -1.4375zm17.097656 -1.734375q0 2.921875 -1.328125 4.6875q-1.328125 1.765625 -3.59375 1.765625q-1.921875 0 -3.109375 -1.34375l0 5.984375l-3.390625 0l0 -17.5625l3.140625 0l0.125 1.25q1.234375 -1.484375 3.203125 -1.484375q2.34375 0 3.640625 1.734375q1.3125 1.734375 1.3125 4.78125l0 0.1875zm-3.390625 -0.25q0 -1.765625 -0.625 -2.71875q-0.625 -0.96875 -1.828125 -0.96875q-1.59375 0 -2.1875 1.21875l0 5.1875q0.625 1.25 2.21875 1.25q2.421875 0 2.421875 -3.96875zm12.839844 6.46875q-0.234375 -0.453125 -0.34375 -1.140625q-1.234375 1.375 -3.203125 1.375q-1.859375 0 -3.09375 -1.078125q-1.21875 -1.078125 -1.21875 -2.71875q0 -2.015625 1.484375 -3.09375q1.5 -1.078125 4.328125 -1.09375l1.5625 0l0 -0.71875q0 -0.890625 -0.453125 -1.40625q-0.453125 -0.53125 -1.421875 -0.53125q-0.859375 0 -1.34375 0.40625q-0.484375 0.40625 -0.484375 1.125l-3.390625 0q0 -1.09375 0.671875 -2.03125q0.6875 -0.9375 1.921875 -1.46875q1.25 -0.546875 2.796875 -0.546875q2.34375 0 3.71875 1.1875q1.375 1.171875 1.375 3.3125l0 5.484375q0.015625 1.8125 0.515625 2.734375l0 0.203125l-3.421875 0zm-2.8125 -2.359375q0.75 0 1.375 -0.328125q0.640625 -0.34375 0.953125 -0.90625l0 -2.171875l-1.265625 0q-2.546875 0 -2.703125 1.75l-0.015625 0.203125q0 0.640625 0.4375 1.046875q0.453125 0.40625 1.21875 0.40625zm13.6015625 -0.140625q0.9375 0 1.515625 -0.515625q0.59375 -0.515625 0.609375 -1.375l3.1875 0q-0.015625 1.296875 -0.71875 2.375q-0.6875 1.0625 -1.890625 1.65625q-1.1875 0.59375 -2.640625 0.59375q-2.71875 0 -4.296875 -1.71875q-1.5625 -1.734375 -1.5625 -4.78125l0 -0.234375q0 -2.921875 1.546875 -4.671875q1.5625 -1.75 4.28125 -1.75q2.375 0 3.8125 1.359375q1.4375 1.359375 1.46875 3.609375l-3.1875 0q-0.015625 -0.984375 -0.609375 -1.59375q-0.578125 -0.625 -1.546875 -0.625q-1.171875 0 -1.78125 0.859375q-0.609375 0.859375 -0.609375 2.796875l0 0.34375q0 1.96875 0.59375 2.828125q0.609375 0.84375 1.828125 0.84375zm13.078125 2.734375q-2.796875 0 -4.546875 -1.703125q-1.75 -1.71875 -1.75 -4.5625l0 -0.328125q0 -1.921875 0.734375 -3.421875q0.75 -1.5 2.09375 -2.3125q1.359375 -0.828125 3.09375 -0.828125q2.59375 0 4.09375 1.640625q1.5 1.640625 1.5 4.65625l0 1.390625l-8.078125 0q0.15625 1.234375 0.984375 1.984375q0.828125 0.75 2.09375 0.75q1.953125 0 3.0625 -1.421875l1.65625 1.875q-0.75 1.078125 -2.0625 1.6875q-1.296875 0.59375 -2.875 0.59375zm-0.390625 -10.40625q-1.0 0 -1.640625 0.6875q-0.625 0.671875 -0.796875 1.9375l4.71875 0l0 -0.265625q-0.03125 -1.125 -0.625 -1.734375q-0.578125 -0.625 -1.65625 -0.625zm13.363281 3.5q0 2.65625 -0.765625 5.109375q-0.765625 2.4375 -2.203125 4.3125q-1.421875 1.875 -3.046875 2.578125l-0.65625 -1.78125q1.671875 -1.265625 2.625 -3.875q0.96875 -2.609375 1.0 -6.015625l0 -0.625q0 -3.5 -0.953125 -6.171875q-0.953125 -2.671875 -2.671875 -4.0l0.65625 -1.796875q1.59375 0.6875 3.0 2.515625q1.421875 1.8125 2.203125 4.234375q0.78125 2.40625 0.8125 4.984375l0 0.53125z" fill-rule="nonzero"></path><path fill="#2196f3" fill-opacity="0.4885" d="m205.40213 282.30246l0 -237.03937l196.40945 237.03937z" fill-rule="evenodd"></path><path stroke="#595959" stroke-width="2.0" stroke-linejoin="round" stroke-linecap="butt" d="m205.40213 282.30246l0 -237.03937l196.40945 237.03937z" fill-rule="evenodd"></path><path fill="#000000" fill-opacity="0.0" d="m712.4411 165.53532l-52.944885 58.07875" fill-rule="evenodd"></path><path stroke="#ff9900" stroke-width="4.0" stroke-linejoin="round" stroke-linecap="butt" d="m712.4411 165.53532l-52.944885 58.07875" fill-rule="evenodd"></path><path fill="#000000" fill-opacity="0.0" d="m205.40213 45.263092l196.40945 237.03937" fill-rule="evenodd"></path><path stroke="#ff9900" stroke-width="4.0" stroke-linejoin="round" stroke-linecap="butt" d="m205.40213 45.263092l196.40945 237.03937" fill-rule="evenodd"></path><path fill="#000000" fill-opacity="0.0" d="m301.81857 163.7758c95.90552 0 143.85828 10.259857 191.81104 20.5197c47.95273 10.259842 95.90549 20.519684 191.811 20.519684" fill-rule="evenodd"></path><path stroke="#4a86e8" stroke-width="4.0" stroke-linejoin="round" stroke-linecap="butt" d="m301.81857 163.7758c95.90552 0 143.85828 10.259857 191.81104 20.5197c23.976349 5.1299133 47.95273 10.259842 77.92319 14.107285c14.985291 1.9237213 31.468994 3.526825 50.20056 4.648987c9.365784 0.56108093 19.293457 1.0019531 29.876831 1.3025208c5.291626 0.15029907 10.747253 0.2655182 16.378357 0.34317017l3.723877 0.04473877" fill-rule="evenodd"></path><path fill="#4a86e8" stroke="#4a86e8" stroke-width="4.0" stroke-linecap="butt" d="m671.7325 204.74222l-4.522217 4.4743195l12.3828125 -4.43248l-12.334961 -4.5640564z" fill-rule="evenodd"></path><path fill="#000000" fill-opacity="0.0" d="m712.4411 165.53532c131.49493 0 238.00104 115.247696 262.98987 215.44753c24.98883 100.19983 -31.539673 185.3518 -75.57367 215.44751c-44.034058 30.095703 -75.57367 5.135132 -75.57367 10.270325" fill-rule="evenodd"></path><path stroke="#ff0000" stroke-width="4.0" stroke-linejoin="round" stroke-linecap="butt" d="m712.4411 165.53532c131.49493 0 238.00098 115.247696 262.9898 215.44753c24.988892 100.1998 -31.539612 185.3518 -75.57361 215.44751c-11.008545 7.523926 -21.236145 11.606812 -30.385254 13.579224c-4.574585 0.98620605 -8.879517 1.4447632 -12.8776245 1.5420532c-1.9990845 0.048583984 -3.9214478 0.0068969727 -5.76239 -0.10430908c-0.9205322 -0.055664062 -1.8207397 -0.12866211 -2.6999512 -0.21643066l-0.27441406 -0.028686523" fill-rule="evenodd"></path><path fill="#ff0000" stroke="#ff0000" stroke-width="4.0" stroke-linecap="butt" d="m849.0969 604.7125l-19.069458 3.084961l16.591003 9.894348z" fill-rule="evenodd"></path><path fill="#d9d9d9" d="m170.43042 522.2663l224.4299 0l0 229.62671l-224.4299 0z" fill-rule="evenodd"></path><path fill="#adadad" d="m394.86032 522.2663l46.656708 -46.65674l0 229.62677l-46.656708 46.656677z" fill-rule="evenodd"></path><path fill="#e0e0e0" d="m170.43042 522.2663l46.656708 -46.65674l224.4299 0l-46.656708 46.65674z" fill-rule="evenodd"></path><path fill="#000000" fill-opacity="0.0" d="m170.43042 522.2663l46.656708 -46.65674l224.4299 0l0 229.62677l-46.656708 46.656677l-224.4299 0zm0 0l224.4299 0l46.656708 -46.65674m-46.656708 46.65674l0 229.62671" fill-rule="evenodd"></path><path stroke="#595959" stroke-width="2.0" stroke-linejoin="round" stroke-linecap="butt" d="m170.43042 522.2663l46.656708 -46.65674l224.4299 0l0 229.62677l-46.656708 46.656677l-224.4299 0zm0 0l224.4299 0l46.656708 -46.65674m-46.656708 46.65674l0 229.62671" fill-rule="evenodd"></path><path fill="#000000" fill-opacity="0.0" d="m338.2339 578.67206l56.409454 -57.007874l-1.6378174 112.31494z" fill-rule="evenodd"></path><path fill="#2196f3" fill-opacity="0.4885" d="m364.7777 662.555l28.220459 -28.5354l-55.685028 0.78741455z" fill-rule="evenodd"></path><path fill="#000000" fill-opacity="0.0" d="m336.58975 691.03015l56.409454 -57.007874l-1.6377869 112.31494z" fill-rule="evenodd"></path><path fill="#000000" fill-opacity="0.0" d="m336.73434 690.9298l-54.64566 -55.18109l110.99213 -1.7322998z" fill-rule="evenodd"></path><path fill="#000000" fill-opacity="0.0" d="m338.1993 578.62897l54.771667 55.307068" fill-rule="evenodd"></path><path stroke="#595959" stroke-width="1.0" stroke-linejoin="round" stroke-linecap="butt" d="m338.1993 578.62897l54.771667 55.307068" fill-rule="evenodd"></path><path fill="#000000" fill-opacity="0.0" d="m393.005 634.0129l-56.409424 57.007874" fill-rule="evenodd"></path><path stroke="#595959" stroke-width="1.0" stroke-linejoin="round" stroke-linecap="butt" d="m393.005 634.0129l-56.409424 57.007874" fill-rule="evenodd"></path><path fill="#000000" fill-opacity="0.0" d="m393.005 634.0129l-111.24408 1.6063232" fill-rule="evenodd"></path><path stroke="#595959" stroke-width="1.0" stroke-linejoin="round" stroke-linecap="butt" d="m393.005 634.0129l-111.24408 1.6063232" fill-rule="evenodd"></path><path fill="#000000" fill-opacity="0.0" d="m338.38724 578.8691l54.64569 55.18109l-110.99213 1.7322998z" fill-rule="evenodd"></path><path fill="#000000" fill-opacity="0.0" d="m366.29688 550.0421l27.527557 27.779541" fill-rule="evenodd"></path><path stroke="#595959" stroke-width="1.0" stroke-linejoin="round" stroke-linecap="butt" d="m366.29688 550.0421l27.527557 27.779541" fill-rule="evenodd"></path><path fill="#000000" fill-opacity="0.0" d="m393.82443 577.82166l-84.409454 85.51184" fill-rule="evenodd"></path><path stroke="#595959" stroke-width="1.0" stroke-linejoin="round" stroke-linecap="butt" d="m393.82443 577.82166l-84.409454 85.51184" fill-rule="evenodd"></path><path fill="#000000" fill-opacity="0.0" d="m393.82443 577.82166l-55.433075 1.0393677" fill-rule="evenodd"></path><path stroke="#595959" stroke-width="1.0" stroke-linejoin="round" stroke-linecap="butt" d="m393.82443 577.82166l-55.433075 1.0393677" fill-rule="evenodd"></path><path fill="#000000" fill-opacity="0.0" d="m338.38724 578.8691l-1.6377869 112.06299" fill-rule="evenodd"></path><path stroke="#595959" stroke-width="1.0" stroke-linejoin="round" stroke-linecap="butt" d="m338.38724 578.8691l-1.6377869 112.06299" fill-rule="evenodd"></path><path fill="#000000" fill-opacity="0.0" d="m310.21402 607.32574l81.95276 82.86615" fill-rule="evenodd"></path><path stroke="#595959" stroke-width="1.0" stroke-linejoin="round" stroke-linecap="butt" d="m310.21402 607.32574l81.95276 82.86615" fill-rule="evenodd"></path><path fill="#000000" fill-opacity="0.0" d="m392.18033 690.17975l-28.314972 28.629944" fill-rule="evenodd"></path><path stroke="#595959" stroke-width="1.0" stroke-linejoin="round" stroke-linecap="butt" d="m392.18033 690.17975l-28.314972 28.629944" fill-rule="evenodd"></path><path fill="#000000" fill-opacity="0.0" d="m392.18033 690.17975l-55.433075 0.7559204" fill-rule="evenodd"></path><path stroke="#595959" stroke-width="1.0" stroke-linejoin="round" stroke-linecap="butt" d="m392.18033 690.17975l-55.433075 0.7559204" fill-rule="evenodd"></path><path fill="#000000" fill-opacity="0.0" d="m171.42047 524.6543l110.99213 113.102356" fill-rule="evenodd"></path><path stroke="#595959" stroke-width="1.0" stroke-linejoin="round" stroke-linecap="butt" d="m171.42047 524.6543l110.99213 113.102356" fill-rule="evenodd"></path><path fill="#000000" fill-opacity="0.0" d="m171.74657 751.3329l110.708664 -114.17322" fill-rule="evenodd"></path><path stroke="#595959" stroke-width="1.0" stroke-linejoin="round" stroke-linecap="butt" d="m171.74657 751.3329l110.708664 -114.17322" fill-rule="evenodd"></path><path fill="#000000" fill-opacity="0.0" d="m393.03293 634.0502l-55.496063 0.881897" fill-rule="evenodd"></path><path stroke="#ff9900" stroke-width="2.0" stroke-linejoin="round" stroke-linecap="butt" d="m393.03293 634.0502l-55.496063 0.881897" fill-rule="evenodd"></path><path fill="#000000" fill-opacity="0.0" d="m180.50414 762.8629l198.55116 0l0 52.850403l-198.55116 0z" fill-rule="evenodd"></path><path fill="#002835" d="m222.07465 777.64056q-0.203125 2.75 -2.046875 4.34375q-1.828125 1.578125 -4.828125 1.578125q-3.28125 0 -5.15625 -2.203125q-1.875 -2.21875 -1.875 -6.078125l0 -1.03125q0 -2.46875 0.859375 -4.34375q0.875 -1.875 2.484375 -2.875q1.609375 -1.0 3.734375 -1.0q2.953125 0 4.75 1.578125q1.8125 1.578125 2.09375 4.4375l-3.515625 0q-0.125 -1.640625 -0.921875 -2.390625q-0.78125 -0.75 -2.40625 -0.75q-1.75 0 -2.625 1.265625q-0.875 1.265625 -0.890625 3.90625l0 1.296875q0 2.765625 0.828125 4.046875q0.84375 1.265625 2.640625 1.265625q1.640625 0 2.4375 -0.734375q0.796875 -0.75 0.921875 -2.3125l3.515625 0zm1.5625 -0.765625q0 -1.890625 0.71875 -3.359375q0.734375 -1.484375 2.09375 -2.296875q1.359375 -0.8125 3.171875 -0.8125q2.5625 0 4.1875 1.578125q1.625 1.5625 1.8125 4.265625l0.015625 0.859375q0 2.921875 -1.625 4.6875q-1.625 1.765625 -4.375 1.765625q-2.734375 0 -4.375 -1.75q-1.625 -1.765625 -1.625 -4.796875l0 -0.140625zm3.375 0.234375q0 1.8125 0.671875 2.765625q0.6875 0.953125 1.953125 0.953125q1.234375 0 1.921875 -0.9375q0.703125 -0.953125 0.703125 -3.015625q0 -1.78125 -0.703125 -2.75q-0.6875 -0.96875 -1.9375 -0.96875q-1.25 0 -1.9375 0.96875q-0.671875 0.96875 -0.671875 2.984375zm13.8359375 -6.46875l0.109375 1.46875q1.359375 -1.703125 3.640625 -1.703125q2.015625 0 3.0 1.1875q0.984375 1.1875 1.0 3.546875l0 8.1875l-3.375 0l0 -8.109375q0 -1.078125 -0.46875 -1.5625q-0.46875 -0.484375 -1.5625 -0.484375q-1.4375 0 -2.140625 1.21875l0 8.9375l-3.390625 0l0 -12.6875l3.1875 0zm14.378906 -3.109375l0 3.109375l2.171875 0l0 2.484375l-2.171875 0l0 6.328125q0 0.703125 0.265625 1.015625q0.265625 0.296875 1.03125 0.296875q0.5625 0 1.0 -0.078125l0 2.5625q-1.0 0.3125 -2.046875 0.3125q-3.5625 0 -3.640625 -3.59375l0 -6.84375l-1.84375 0l0 -2.484375l1.84375 0l0 -3.109375l3.390625 0zm11.171875 6.296875q-0.6875 -0.09375 -1.21875 -0.09375q-1.921875 0 -2.515625 1.296875l0 8.296875l-3.390625 0l0 -12.6875l3.203125 0l0.09375 1.515625q1.015625 -1.75 2.828125 -1.75q0.5625 0 1.046875 0.15625l-0.046875 3.265625zm1.1132812 3.046875q0 -1.890625 0.71875 -3.359375q0.734375 -1.484375 2.09375 -2.296875q1.359375 -0.8125 3.171875 -0.8125q2.5625 0 4.1875 1.578125q1.625 1.5625 1.8125 4.265625l0.015625 0.859375q0 2.921875 -1.625 4.6875q-1.625 1.765625 -4.375 1.765625q-2.734375 0 -4.375 -1.75q-1.625 -1.765625 -1.625 -4.796875l0 -0.140625zm3.375 0.234375q0 1.8125 0.671875 2.765625q0.6875 0.953125 1.953125 0.953125q1.234375 0 1.921875 -0.9375q0.703125 -0.953125 0.703125 -3.015625q0 -1.78125 -0.703125 -2.75q-0.6875 -0.96875 -1.9375 -0.96875q-1.25 0 -1.9375 0.96875q-0.671875 0.96875 -0.671875 2.984375zm14.2890625 6.21875l-3.390625 0l0 -18.0l3.390625 0l0 18.0zm13.589844 -17.0625l4.375 12.375l4.359375 -12.375l4.625 0l0 17.0625l-3.53125 0l0 -4.671875l0.34375 -8.046875l-4.59375 12.71875l-2.421875 0l-4.59375 -12.703125l0.359375 8.03125l0 4.671875l-3.515625 0l0 -17.0625l4.59375 0zm22.039062 17.296875q-2.796875 0 -4.546875 -1.703125q-1.75 -1.71875 -1.75 -4.5625l0 -0.328125q0 -1.921875 0.734375 -3.421875q0.75 -1.5 2.09375 -2.3125q1.359375 -0.828125 3.09375 -0.828125q2.59375 0 4.09375 1.640625q1.5 1.640625 1.5 4.65625l0 1.390625l-8.078125 0q0.15625 1.234375 0.984375 1.984375q0.828125 0.75 2.09375 0.75q1.953125 0 3.0625 -1.421875l1.65625 1.875q-0.75 1.078125 -2.0625 1.6875q-1.296875 0.59375 -2.875 0.59375zm-0.390625 -10.40625q-1.0 0 -1.640625 0.6875q-0.625 0.671875 -0.796875 1.9375l4.71875 0l0 -0.265625q-0.03125 -1.125 -0.625 -1.734375q-0.578125 -0.625 -1.65625 -0.625zm14.394531 6.671875q0 -0.625 -0.625 -0.984375q-0.609375 -0.359375 -1.96875 -0.640625q-4.515625 -0.953125 -4.515625 -3.84375q0 -1.6875 1.390625 -2.8125q1.40625 -1.140625 3.671875 -1.140625q2.40625 0 3.84375 1.140625q1.453125 1.140625 1.453125 2.953125l-3.375 0q0 -0.71875 -0.46875 -1.1875q-0.46875 -0.484375 -1.46875 -0.484375q-0.859375 0 -1.328125 0.390625q-0.46875 0.375 -0.46875 0.984375q0 0.5625 0.53125 0.90625q0.53125 0.34375 1.796875 0.59375q1.265625 0.25 2.140625 0.5625q2.6875 0.984375 2.6875 3.421875q0 1.734375 -1.5 2.8125q-1.484375 1.0625 -3.84375 1.0625q-1.59375 0 -2.828125 -0.5625q-1.234375 -0.578125 -1.9375 -1.5625q-0.703125 -1.0 -0.703125 -2.140625l3.21875 0q0.046875 0.90625 0.65625 1.390625q0.625 0.46875 1.671875 0.46875q0.96875 0 1.46875 -0.359375q0.5 -0.375 0.5 -0.96875zm8.777344 -7.796875q1.34375 -1.625 3.390625 -1.625q4.125 0 4.171875 4.796875l0 8.125l-3.375 0l0 -8.03125q0 -1.09375 -0.46875 -1.609375q-0.46875 -0.515625 -1.5625 -0.515625q-1.484375 0 -2.15625 1.140625l0 9.015625l-3.390625 0l0 -18.0l3.390625 0l0 6.703125z" fill-rule="nonzero"></path><path fill="#002835" d="m204.89105 805.39056q0 -2.6875 0.71875 -5.109375q0.71875 -2.421875 2.109375 -4.296875q1.390625 -1.875 3.015625 -2.59375l0.65625 1.828125q-1.703125 1.265625 -2.671875 3.921875q-0.953125 2.640625 -0.953125 6.171875l0 0.375q0 3.546875 0.9375 6.21875q0.953125 2.65625 2.6875 3.96875l-0.65625 1.78125q-1.59375 -0.703125 -2.96875 -2.515625q-1.375 -1.8125 -2.109375 -4.171875q-0.71875 -2.375 -0.765625 -4.953125l0 -0.625zm21.785156 2.015625l2.296875 -12.140625l3.5 0l-3.78125 17.0625l-3.53125 0l-2.78125 -11.421875l-2.78125 11.421875l-3.53125 0l-3.796875 -17.0625l3.515625 0l2.296875 12.109375l2.8125 -12.109375l2.984375 0l2.796875 12.140625zm6.9570312 -1.53125q0 -1.890625 0.71875 -3.359375q0.734375 -1.484375 2.09375 -2.296875q1.359375 -0.8125 3.171875 -0.8125q2.5625 0 4.1875 1.578125q1.625 1.5625 1.8125 4.265625l0.015625 0.859375q0 2.921875 -1.625 4.6875q-1.625 1.765625 -4.375 1.765625q-2.734375 0 -4.375 -1.75q-1.625 -1.765625 -1.625 -4.796875l0 -0.140625zm3.375 0.234375q0 1.8125 0.671875 2.765625q0.6875 0.953125 1.953125 0.953125q1.234375 0 1.921875 -0.9375q0.703125 -0.953125 0.703125 -3.015625q0 -1.78125 -0.703125 -2.75q-0.6875 -0.96875 -1.9375 -0.96875q-1.25 0 -1.9375 0.96875q-0.671875 0.96875 -0.671875 2.984375zm17.835938 -3.28125q-0.6875 -0.09375 -1.21875 -0.09375q-1.921875 0 -2.515625 1.296875l0 8.296875l-3.390625 0l0 -12.6875l3.203125 0l0.09375 1.515625q1.015625 -1.75 2.828125 -1.75q0.5625 0 1.046875 0.15625l-0.046875 3.265625zm5.2070312 9.5l-3.390625 0l0 -18.0l3.390625 0l0 18.0zm2.2695312 -6.4375q0 -2.96875 1.328125 -4.71875q1.328125 -1.765625 3.640625 -1.765625q1.84375 0 3.046875 1.390625l0 -6.46875l3.40625 0l0 18.0l-3.0625 0l-0.15625 -1.34375q-1.265625 1.578125 -3.265625 1.578125q-2.234375 0 -3.59375 -1.765625q-1.34375 -1.765625 -1.34375 -4.90625zm3.375 0.25q0 1.78125 0.625 2.734375q0.625 0.9375 1.8125 0.9375q1.5625 0 2.203125 -1.3125l0 -5.015625q-0.625 -1.3125 -2.1875 -1.3125q-2.453125 0 -2.453125 3.96875zm25.71875 1.703125q0 -0.984375 -0.703125 -1.515625q-0.703125 -0.546875 -2.53125 -1.125q-1.828125 -0.59375 -2.890625 -1.171875q-2.90625 -1.578125 -2.90625 -4.234375q0 -1.375 0.765625 -2.453125q0.78125 -1.09375 2.234375 -1.703125q1.46875 -0.609375 3.28125 -0.609375q1.828125 0 3.25 0.671875q1.4375 0.65625 2.234375 1.859375q0.796875 1.203125 0.796875 2.734375l-3.515625 0q0 -1.171875 -0.75 -1.8125q-0.734375 -0.65625 -2.0625 -0.65625q-1.296875 0 -2.015625 0.546875q-0.703125 0.546875 -0.703125 1.4375q0 0.828125 0.828125 1.390625q0.84375 0.5625 2.46875 1.0625q3.0 0.890625 4.375 2.234375q1.375 1.328125 1.375 3.328125q0 2.21875 -1.6875 3.484375q-1.671875 1.25 -4.5 1.25q-1.96875 0 -3.59375 -0.71875q-1.609375 -0.71875 -2.46875 -1.96875q-0.84375 -1.265625 -0.84375 -2.921875l3.53125 0q0 2.828125 3.375 2.828125q1.25 0 1.953125 -0.5q0.703125 -0.515625 0.703125 -1.4375zm17.097656 -1.734375q0 2.921875 -1.328125 4.6875q-1.328125 1.765625 -3.59375 1.765625q-1.921875 0 -3.109375 -1.34375l0 5.984375l-3.390625 0l0 -17.5625l3.140625 0l0.125 1.25q1.234375 -1.484375 3.203125 -1.484375q2.34375 0 3.640625 1.734375q1.3125 1.734375 1.3125 4.78125l0 0.1875zm-3.390625 -0.25q0 -1.765625 -0.625 -2.71875q-0.625 -0.96875 -1.828125 -0.96875q-1.59375 0 -2.1875 1.21875l0 5.1875q0.625 1.25 2.21875 1.25q2.421875 0 2.421875 -3.96875zm12.839844 6.46875q-0.234375 -0.453125 -0.34375 -1.140625q-1.234375 1.375 -3.203125 1.375q-1.859375 0 -3.09375 -1.078125q-1.21875 -1.078125 -1.21875 -2.71875q0 -2.015625 1.484375 -3.09375q1.5 -1.078125 4.328125 -1.09375l1.5625 0l0 -0.71875q0 -0.890625 -0.453125 -1.40625q-0.453125 -0.53125 -1.421875 -0.53125q-0.859375 0 -1.34375 0.40625q-0.484375 0.40625 -0.484375 1.125l-3.390625 0q0 -1.09375 0.671875 -2.03125q0.6875 -0.9375 1.921875 -1.46875q1.25 -0.546875 2.796875 -0.546875q2.34375 0 3.71875 1.1875q1.375 1.171875 1.375 3.3125l0 5.484375q0.015625 1.8125 0.515625 2.734375l0 0.203125l-3.421875 0zm-2.8125 -2.359375q0.75 0 1.375 -0.328125q0.640625 -0.34375 0.953125 -0.90625l0 -2.171875l-1.265625 0q-2.546875 0 -2.703125 1.75l-0.015625 0.203125q0 0.640625 0.4375 1.046875q0.453125 0.40625 1.21875 0.40625zm13.6015625 -0.140625q0.9375 0 1.515625 -0.515625q0.59375 -0.515625 0.609375 -1.375l3.1875 0q-0.015625 1.296875 -0.71875 2.375q-0.6875 1.0625 -1.890625 1.65625q-1.1875 0.59375 -2.640625 0.59375q-2.71875 0 -4.296875 -1.71875q-1.5625 -1.734375 -1.5625 -4.78125l0 -0.234375q0 -2.921875 1.546875 -4.671875q1.5625 -1.75 4.28125 -1.75q2.375 0 3.8125 1.359375q1.4375 1.359375 1.46875 3.609375l-3.1875 0q-0.015625 -0.984375 -0.609375 -1.59375q-0.578125 -0.625 -1.546875 -0.625q-1.171875 0 -1.78125 0.859375q-0.609375 0.859375 -0.609375 2.796875l0 0.34375q0 1.96875 0.59375 2.828125q0.609375 0.84375 1.828125 0.84375zm13.078125 2.734375q-2.796875 0 -4.546875 -1.703125q-1.75 -1.71875 -1.75 -4.5625l0 -0.328125q0 -1.921875 0.734375 -3.421875q0.75 -1.5 2.09375 -2.3125q1.359375 -0.828125 3.09375 -0.828125q2.59375 0 4.09375 1.640625q1.5 1.640625 1.5 4.65625l0 1.390625l-8.078125 0q0.15625 1.234375 0.984375 1.984375q0.828125 0.75 2.09375 0.75q1.953125 0 3.0625 -1.421875l1.65625 1.875q-0.75 1.078125 -2.0625 1.6875q-1.296875 0.59375 -2.875 0.59375zm-0.390625 -10.40625q-1.0 0 -1.640625 0.6875q-0.625 0.671875 -0.796875 1.9375l4.71875 0l0 -0.265625q-0.03125 -1.125 -0.625 -1.734375q-0.578125 -0.625 -1.65625 -0.625zm13.363281 3.5q0 2.65625 -0.765625 5.109375q-0.765625 2.4375 -2.203125 4.3125q-1.421875 1.875 -3.046875 2.578125l-0.65625 -1.78125q1.671875 -1.265625 2.625 -3.875q0.96875 -2.609375 1.0 -6.015625l0 -0.625q0 -3.5 -0.953125 -6.171875q-0.953125 -2.671875 -2.671875 -4.0l0.65625 -1.796875q1.59375 0.6875 3.0 2.515625q1.421875 1.8125 2.203125 4.234375q0.78125 2.40625 0.8125 4.984375l0 0.53125z" fill-rule="nonzero"></path><path fill="#000000" fill-opacity="0.0" d="m612.5795 483.58945l211.59058 0l0 250.01578l-211.59058 0z" fill-rule="evenodd"></path><path stroke="#000000" stroke-width="2.0" stroke-linejoin="round" stroke-linecap="butt" d="m612.5795 483.58945l211.59058 0l0 250.01578l-211.59058 0z" fill-rule="evenodd"></path><path fill="#000000" fill-opacity="0.0" d="m612.95526 484.06537l102.11023 120.91339" fill-rule="evenodd"></path><path stroke="#000000" stroke-width="2.0" stroke-linejoin="round" stroke-linecap="butt" d="m612.95526 484.06537l102.11023 120.91339" fill-rule="evenodd"></path><path fill="#000000" fill-opacity="0.0" d="m715.0655 612.23914l-101.98425 120.50391" fill-rule="evenodd"></path><path stroke="#000000" stroke-width="2.0" stroke-linejoin="round" stroke-linecap="butt" d="m715.0655 612.23914l-101.98425 120.50391" fill-rule="evenodd"></path><path fill="#000000" d="m609.89215 484.26736l0 0c0 -2.0264893 1.3607788 -3.669281 3.0393677 -3.669281l0 0c0.8060913 0 1.5791626 0.38656616 2.14917 1.074707c0.5699463 0.68811035 0.89019775 1.6213989 0.89019775 2.594574l0 0c0 2.0264893 -1.3607788 3.669281 -3.0393677 3.669281l0 0c-1.6785889 0 -3.0393677 -1.6427917 -3.0393677 -3.669281z" fill-rule="evenodd"></path><path stroke="#000000" stroke-width="1.0" stroke-linejoin="round" stroke-linecap="butt" d="m609.89215 484.26736l0 0c0 -2.0264893 1.3607788 -3.669281 3.0393677 -3.669281l0 0c0.8060913 0 1.5791626 0.38656616 2.14917 1.074707c0.5699463 0.68811035 0.89019775 1.6213989 0.89019775 2.594574l0 0c0 2.0264893 -1.3607788 3.669281 -3.0393677 3.669281l0 0c-1.6785889 0 -3.0393677 -1.6427917 -3.0393677 -3.669281z" fill-rule="evenodd"></path><path fill="#000000" d="m609.89215 732.96686l0 0c0 -2.0264893 1.3607788 -3.6693115 3.0393677 -3.6693115l0 0c0.8060913 0 1.5791626 0.38659668 2.14917 1.074707c0.5699463 0.68811035 0.89019775 1.62146 0.89019775 2.5946045l0 0c0 2.0264893 -1.3607788 3.6693115 -3.0393677 3.6693115l0 0c-1.6785889 0 -3.0393677 -1.6428223 -3.0393677 -3.6693115z" fill-rule="evenodd"></path><path stroke="#000000" stroke-width="1.0" stroke-linejoin="round" stroke-linecap="butt" d="m609.89215 732.96686l0 0c0 -2.0264893 1.3607788 -3.6693115 3.0393677 -3.6693115l0 0c0.8060913 0 1.5791626 0.38659668 2.14917 1.074707c0.5699463 0.68811035 0.89019775 1.62146 0.89019775 2.5946045l0 0c0 2.0264893 -1.3607788 3.6693115 -3.0393677 3.6693115l0 0c-1.6785889 0 -3.0393677 -1.6428223 -3.0393677 -3.6693115z" fill-rule="evenodd"></path><path fill="#000000" fill-opacity="0.0" d="m624.1276 582.8052l42.26776 0l0 49.51184l-42.26776 0z" fill-rule="evenodd"></path><path fill="#002835" d="m649.44543 608.8248q0 2.953125 -1.015625 4.40625q-1.015625 1.4375 -3.15625 1.4375q-2.125 0 -3.15625 -1.40625q-1.015625 -1.40625 -1.046875 -4.203125l0 -2.25q0 -2.9375 1.0 -4.359375q1.015625 -1.421875 3.1875 -1.421875q2.140625 0 3.140625 1.375q1.015625 1.375 1.046875 4.234375l0 2.1875zm-1.6875 -2.3125q0 -2.140625 -0.609375 -3.109375q-0.59375 -0.984375 -1.890625 -0.984375q-1.296875 0 -1.890625 0.984375q-0.59375 0.96875 -0.609375 2.984375l0 2.703125q0 2.140625 0.625 3.171875q0.625 1.03125 1.890625 1.03125q1.25 0 1.84375 -0.96875q0.609375 -0.96875 0.640625 -3.046875l0 -2.765625z" fill-rule="nonzero"></path><path fill="#000000" fill-opacity="0.0" d="m681.7516 507.3483l73.29132 0l0 49.51181l-73.29132 0z" fill-rule="evenodd"></path><path fill="#002835" d="m719.7999 539.0242l-1.6875 0l0 -11.234375l-3.40625 1.25l0 -1.53125l4.828125 -1.8125l0.265625 0l0 13.328125z" fill-rule="nonzero"></path><path fill="#000000" fill-opacity="0.0" d="m681.82495 662.0061l73.29138 0l0 49.51184l-73.29138 0z" fill-rule="evenodd"></path><path fill="#002835" d="m723.02954 693.682l-8.6875 0l0 -1.21875l4.578125 -5.09375q1.03125 -1.15625 1.40625 -1.875q0.390625 -0.734375 0.390625 -1.5q0 -1.046875 -0.625 -1.703125q-0.625 -0.671875 -1.671875 -0.671875q-1.265625 0 -1.96875 0.71875q-0.6875 0.71875 -0.6875 1.984375l-1.6875 0q0 -1.828125 1.171875 -2.953125q1.1875 -1.140625 3.171875 -1.140625q1.84375 0 2.921875 0.984375q1.078125 0.96875 1.078125 2.578125q0 1.953125 -2.5 4.65625l-3.546875 3.859375l6.65625 0l0 1.375z" fill-rule="nonzero"></path><path fill="#000000" fill-opacity="0.0" d="m823.03284 633.39124l42.2677 0l0 49.51178l-42.2677 0z" fill-rule="evenodd"></path><path fill="#002835" d="m842.4756 657.614l1.265625 0q1.203125 -0.015625 1.875 -0.625q0.6875 -0.609375 0.6875 -1.65625q0 -2.328125 -2.3125 -2.328125q-1.09375 0 -1.75 0.625q-0.65625 0.625 -0.65625 1.65625l-1.6875 0q0 -1.578125 1.15625 -2.625q1.15625 -1.046875 2.9375 -1.046875q1.875 0 2.9375 1.0q1.0625 1.0 1.0625 2.765625q0 0.859375 -0.5625 1.671875q-0.5625 0.8125 -1.515625 1.203125q1.09375 0.359375 1.6875 1.15625q0.59375 0.796875 0.59375 1.953125q0 1.796875 -1.171875 2.84375q-1.15625 1.046875 -3.03125 1.046875q-1.859375 0 -3.03125 -1.015625q-1.171875 -1.015625 -1.171875 -2.671875l1.6875 0q0 1.046875 0.6875 1.6875q0.6875 0.625 1.828125 0.625q1.21875 0 1.859375 -0.640625q0.65625 -0.640625 0.65625 -1.828125q0 -1.15625 -0.71875 -1.78125q-0.703125 -0.625 -2.046875 -0.640625l-1.265625 0l0 -1.375z" fill-rule="nonzero"></path><path fill="#000000" fill-opacity="0.0" d="m772.14435 544.96893l53.66925 -63.496063l-1.5747681 125.19687z" fill-rule="evenodd"></path><path fill="#2196f3" fill-opacity="0.4885" d="m797.3829 638.5218l26.86615 -31.84253l-52.944885 0.9763794z" fill-rule="evenodd"></path><path fill="#000000" fill-opacity="0.0" d="m770.5807 670.17834l53.66931 -63.496033l-1.5748291 125.19684z" fill-rule="evenodd"></path><path fill="#000000" fill-opacity="0.0" d="m770.73846 670.21246l-51.968506 -61.606262l105.57477 -1.8582764z" fill-rule="evenodd"></path><path fill="#000000" fill-opacity="0.0" d="m772.13324 544.9532l52.094482 61.700745" fill-rule="evenodd"></path><path stroke="#595959" stroke-width="1.0" stroke-linejoin="round" stroke-linecap="butt" d="m772.13324 544.9532l52.094482 61.700745" fill-rule="evenodd"></path><path fill="#000000" fill-opacity="0.0" d="m824.2555 606.6718l-53.606262 63.496094" fill-rule="evenodd"></path><path stroke="#595959" stroke-width="1.0" stroke-linejoin="round" stroke-linecap="butt" d="m824.2555 606.6718l-53.606262 63.496094" fill-rule="evenodd"></path><path fill="#000000" fill-opacity="0.0" d="m824.2555 606.6718l-105.76373 1.8267822" fill-rule="evenodd"></path><path stroke="#595959" stroke-width="1.0" stroke-linejoin="round" stroke-linecap="butt" d="m824.2555 606.6718l-105.76373 1.8267822" fill-rule="evenodd"></path><path fill="#000000" fill-opacity="0.0" d="m772.31354 545.10706l51.968506 61.606323l-105.57477 1.8582764z" fill-rule="evenodd"></path><path fill="#000000" fill-opacity="0.0" d="m798.88446 513.14215l26.141785 30.929138" fill-rule="evenodd"></path><path stroke="#595959" stroke-width="1.0" stroke-linejoin="round" stroke-linecap="butt" d="m798.88446 513.14215l26.141785 30.929138" fill-rule="evenodd"></path><path fill="#000000" fill-opacity="0.0" d="m825.02625 544.0713l-80.28351 95.33856" fill-rule="evenodd"></path><path stroke="#595959" stroke-width="1.0" stroke-linejoin="round" stroke-linecap="butt" d="m825.02625 544.0713l-80.28351 95.33856" fill-rule="evenodd"></path><path fill="#000000" fill-opacity="0.0" d="m825.02625 544.0713l-52.724426 1.0393677" fill-rule="evenodd"></path><path stroke="#595959" stroke-width="1.0" stroke-linejoin="round" stroke-linecap="butt" d="m825.02625 544.0713l-52.724426 1.0393677" fill-rule="evenodd"></path><path fill="#000000" fill-opacity="0.0" d="m772.31354 545.10706l-1.5747681 125.102356" fill-rule="evenodd"></path><path stroke="#595959" stroke-width="1.0" stroke-linejoin="round" stroke-linecap="butt" d="m772.31354 545.10706l-1.5747681 125.102356" fill-rule="evenodd"></path><path fill="#000000" fill-opacity="0.0" d="m745.5104 576.83936l77.95276 92.44092" fill-rule="evenodd"></path><path stroke="#595959" stroke-width="1.0" stroke-linejoin="round" stroke-linecap="butt" d="m745.5104 576.83936l77.95276 92.44092" fill-rule="evenodd"></path><path fill="#000000" fill-opacity="0.0" d="m823.4626 669.2807l-26.929138 31.874023" fill-rule="evenodd"></path><path stroke="#595959" stroke-width="1.0" stroke-linejoin="round" stroke-linecap="butt" d="m823.4626 669.2807l-26.929138 31.874023" fill-rule="evenodd"></path><path fill="#000000" fill-opacity="0.0" d="m823.4626 669.2807l-52.724365 0.94488525" fill-rule="evenodd"></path><path stroke="#595959" stroke-width="1.0" stroke-linejoin="round" stroke-linecap="butt" d="m823.4626 669.2807l-52.724365 0.94488525" fill-rule="evenodd"></path><path fill="#000000" fill-opacity="0.0" d="m718.47296 609.4072l105.54669 -126.15518l-0.92663574 250.08426z" fill-rule="evenodd"></path><path stroke="#ff0000" stroke-width="2.0" stroke-linejoin="round" stroke-linecap="butt" d="m718.47296 609.4072l105.54669 -126.15518l-0.92663574 250.08426z" fill-rule="evenodd"></path><path fill="#000000" d="m820.3362 732.9416l0 0c0 -2.0264893 1.3607788 -3.6693115 3.0393677 -3.6693115l0 0c0.8060913 0 1.5791626 0.38659668 2.14917 1.074707c0.5699463 0.68811035 0.89019775 1.62146 0.89019775 2.5946045l0 0c0 2.0264893 -1.3607788 3.6693115 -3.0393677 3.6693115l0 0c-1.6785889 0 -3.0393677 -1.6428223 -3.0393677 -3.6693115z" fill-rule="evenodd"></path><path stroke="#000000" stroke-width="1.0" stroke-linejoin="round" stroke-linecap="butt" d="m820.3362 732.9416l0 0c0 -2.0264893 1.3607788 -3.6693115 3.0393677 -3.6693115l0 0c0.8060913 0 1.5791626 0.38659668 2.14917 1.074707c0.5699463 0.68811035 0.89019775 1.62146 0.89019775 2.5946045l0 0c0 2.0264893 -1.3607788 3.6693115 -3.0393677 3.6693115l0 0c-1.6785889 0 -3.0393677 -1.6428223 -3.0393677 -3.6693115z" fill-rule="evenodd"></path><path fill="#000000" d="m821.00684 484.242l0 0c0 -2.0264893 1.3607178 -3.669281 3.0393677 -3.669281l0 0c0.8060913 0 1.5791626 0.38659668 2.149109 1.074707c0.5700073 0.68814087 0.8902588 1.6214294 0.8902588 2.594574l0 0c0 2.0264893 -1.3607788 3.6693115 -3.0393677 3.6693115l0 0c-1.6786499 0 -3.0393677 -1.6428223 -3.0393677 -3.6693115z" fill-rule="evenodd"></path><path stroke="#000000" stroke-width="1.0" stroke-linejoin="round" stroke-linecap="butt" d="m821.00684 484.242l0 0c0 -2.0264893 1.3607178 -3.669281 3.0393677 -3.669281l0 0c0.8060913 0 1.5791626 0.38659668 2.149109 1.074707c0.5700073 0.68814087 0.8902588 1.6214294 0.8902588 2.594574l0 0c0 2.0264893 -1.3607788 3.6693115 -3.0393677 3.6693115l0 0c-1.6786499 0 -3.0393677 -1.6428223 -3.0393677 -3.6693115z" fill-rule="evenodd"></path><path fill="#000000" d="m713.65405 608.60895l0 0c0 -2.8353271 2.1574707 -5.13385 4.8189087 -5.13385l0 0c1.2780762 0 2.5037231 0.54089355 3.4074707 1.5036621c0.90374756 0.96276855 1.411438 2.2686157 1.411438 3.630188l0 0c0 2.8353271 -2.1575317 5.13385 -4.8189087 5.13385l0 0c-2.661438 0 -4.8189087 -2.298523 -4.8189087 -5.13385z" fill-rule="evenodd"></path><path stroke="#000000" stroke-width="1.0" stroke-linejoin="round" stroke-linecap="butt" d="m713.65405 608.60895l0 0c0 -2.8353271 2.1574707 -5.13385 4.8189087 -5.13385l0 0c1.2780762 0 2.5037231 0.54089355 3.4074707 1.5036621c0.90374756 0.96276855 1.411438 2.2686157 1.411438 3.630188l0 0c0 2.8353271 -2.1575317 5.13385 -4.8189087 5.13385l0 0c-2.661438 0 -4.8189087 -2.298523 -4.8189087 -5.13385z" fill-rule="evenodd"></path><path fill="#000000" fill-opacity="0.0" d="m628.329 759.8393l180.09448 0l0 58.897644l-180.09448 0z" fill-rule="evenodd"></path><path fill="#002835" d="m653.2942 777.07806l-2.796875 0l0 6.25l-3.515625 0l0 -17.0625l6.328125 0q3.03125 0 4.671875 1.34375q1.640625 1.34375 1.640625 3.8125q0 1.75 -0.765625 2.921875q-0.75 1.15625 -2.28125 1.84375l3.6875 6.96875l0 0.171875l-3.765625 0l-3.203125 -6.25zm-2.796875 -2.84375l2.828125 0q1.328125 0 2.046875 -0.671875q0.734375 -0.671875 0.734375 -1.859375q0 -1.203125 -0.6875 -1.890625q-0.6875 -0.703125 -2.109375 -0.703125l-2.8125 0l0 5.125zm11.050781 2.640625q0 -1.890625 0.71875 -3.359375q0.734375 -1.484375 2.09375 -2.296875q1.359375 -0.8125 3.171875 -0.8125q2.5625 0 4.1875 1.578125q1.625 1.5625 1.8125 4.265625l0.015625 0.859375q0 2.921875 -1.625 4.6875q-1.625 1.765625 -4.375 1.765625q-2.734375 0 -4.375 -1.75q-1.625 -1.765625 -1.625 -4.796875l0 -0.140625zm3.375 0.234375q0 1.8125 0.671875 2.765625q0.6875 0.953125 1.953125 0.953125q1.234375 0 1.921875 -0.9375q0.703125 -0.953125 0.703125 -3.015625q0 -1.78125 -0.703125 -2.75q-0.6875 -0.96875 -1.9375 -0.96875q-1.25 0 -1.9375 0.96875q-0.671875 0.96875 -0.671875 2.984375zm10.1953125 -0.234375q0 -1.890625 0.71875 -3.359375q0.734375 -1.484375 2.09375 -2.296875q1.359375 -0.8125 3.171875 -0.8125q2.5625 0 4.1875 1.578125q1.625 1.5625 1.8125 4.265625l0.015625 0.859375q0 2.921875 -1.625 4.6875q-1.625 1.765625 -4.375 1.765625q-2.734375 0 -4.375 -1.75q-1.625 -1.765625 -1.625 -4.796875l0 -0.140625zm3.375 0.234375q0 1.8125 0.671875 2.765625q0.6875 0.953125 1.953125 0.953125q1.234375 0 1.921875 -0.9375q0.703125 -0.953125 0.703125 -3.015625q0 -1.78125 -0.703125 -2.75q-0.6875 -0.96875 -1.9375 -0.96875q-1.25 0 -1.9375 0.96875q-0.671875 0.96875 -0.671875 2.984375zm14.7734375 -9.578125l0 3.109375l2.171875 0l0 2.484375l-2.171875 0l0 6.328125q0 0.703125 0.265625 1.015625q0.265625 0.296875 1.03125 0.296875q0.5625 0 1.0 -0.078125l0 2.5625q-1.0 0.3125 -2.046875 0.3125q-3.5625 0 -3.640625 -3.59375l0 -6.84375l-1.84375 0l0 -2.484375l1.84375 0l0 -3.109375l3.390625 0zm23.101562 1.578125l-5.234375 0l0 14.21875l-3.515625 0l0 -14.21875l-5.15625 0l0 -2.84375l13.90625 0l0 2.84375zm8.894531 4.71875q-0.6875 -0.09375 -1.21875 -0.09375q-1.921875 0 -2.515625 1.296875l0 8.296875l-3.390625 0l0 -12.6875l3.203125 0l0.09375 1.515625q1.015625 -1.75 2.828125 -1.75q0.5625 0 1.046875 0.15625l-0.046875 3.265625zm5.2070312 9.5l-3.390625 0l0 -12.6875l3.390625 0l0 12.6875zm-3.59375 -15.96875q0 -0.75 0.5 -1.234375q0.515625 -0.5 1.390625 -0.5q0.875 0 1.390625 0.5q0.515625 0.484375 0.515625 1.234375q0 0.78125 -0.53125 1.28125q-0.515625 0.484375 -1.375 0.484375q-0.84375 0 -1.375 -0.484375q-0.515625 -0.5 -0.515625 -1.28125zm13.738281 15.96875q-0.234375 -0.453125 -0.34375 -1.140625q-1.234375 1.375 -3.203125 1.375q-1.859375 0 -3.09375 -1.078125q-1.21875 -1.078125 -1.21875 -2.71875q0 -2.015625 1.484375 -3.09375q1.5 -1.078125 4.328125 -1.09375l1.5625 0l0 -0.71875q0 -0.890625 -0.453125 -1.40625q-0.453125 -0.53125 -1.421875 -0.53125q-0.859375 0 -1.34375 0.40625q-0.484375 0.40625 -0.484375 1.125l-3.390625 0q0 -1.09375 0.671875 -2.03125q0.6875 -0.9375 1.921875 -1.46875q1.25 -0.546875 2.796875 -0.546875q2.34375 0 3.71875 1.1875q1.375 1.171875 1.375 3.3125l0 5.484375q0.015625 1.8125 0.515625 2.734375l0 0.203125l-3.421875 0zm-2.8125 -2.359375q0.75 0 1.375 -0.328125q0.640625 -0.34375 0.953125 -0.90625l0 -2.171875l-1.265625 0q-2.546875 0 -2.703125 1.75l-0.015625 0.203125q0 0.640625 0.4375 1.046875q0.453125 0.40625 1.21875 0.40625zm11.4453125 -10.328125l0.109375 1.46875q1.359375 -1.703125 3.640625 -1.703125q2.015625 0 3.0 1.1875q0.984375 1.1875 1.0 3.546875l0 8.1875l-3.375 0l0 -8.109375q0 -1.078125 -0.46875 -1.5625q-0.46875 -0.484375 -1.5625 -0.484375q-1.4375 0 -2.140625 1.21875l0 8.9375l-3.390625 0l0 -12.6875l3.1875 0zm9.832031 6.25q0 -2.921875 1.390625 -4.703125q1.390625 -1.78125 3.734375 -1.78125q2.09375 0 3.25 1.4375l0.140625 -1.203125l3.078125 0l0 12.265625q0 1.671875 -0.765625 2.890625q-0.75 1.234375 -2.125 1.875q-1.375 0.65625 -3.203125 0.65625q-1.40625 0 -2.734375 -0.5625q-1.3125 -0.5625 -2.0 -1.4375l1.5 -2.0625q1.265625 1.421875 3.078125 1.421875q1.34375 0 2.09375 -0.71875q0.75 -0.71875 0.75 -2.046875l0 -0.6875q-1.171875 1.328125 -3.078125 1.328125q-2.28125 0 -3.703125 -1.78125q-1.40625 -1.796875 -1.40625 -4.75l0 -0.140625zm3.390625 0.25q0 1.71875 0.6875 2.703125q0.6875 0.96875 1.890625 0.96875q1.546875 0 2.21875 -1.15625l0 -5.328125q-0.671875 -1.15625 -2.1875 -1.15625q-1.21875 0 -1.921875 1.0q-0.6875 0.984375 -0.6875 2.96875zm14.371094 6.1875l-3.390625 0l0 -18.0l3.390625 0l0 18.0zm8.628906 0.234375q-2.796875 0 -4.546875 -1.703125q-1.75 -1.71875 -1.75 -4.5625l0 -0.328125q0 -1.921875 0.734375 -3.421875q0.75 -1.5 2.09375 -2.3125q1.359375 -0.828125 3.09375 -0.828125q2.59375 0 4.09375 1.640625q1.5 1.640625 1.5 4.65625l0 1.390625l-8.078125 0q0.15625 1.234375 0.984375 1.984375q0.828125 0.75 2.09375 0.75q1.953125 0 3.0625 -1.421875l1.65625 1.875q-0.75 1.078125 -2.0625 1.6875q-1.296875 0.59375 -2.875 0.59375zm-0.390625 -10.40625q-1.0 0 -1.640625 0.6875q-0.625 0.671875 -0.796875 1.9375l4.71875 0l0 -0.265625q-0.03125 -1.125 -0.625 -1.734375q-0.578125 -0.625 -1.65625 -0.625z" fill-rule="nonzero"></path><path fill="#002835" d="m653.2317 805.39056q0 -2.6875 0.71875 -5.109375q0.71875 -2.421875 2.109375 -4.296875q1.390625 -1.875 3.015625 -2.59375l0.65625 1.828125q-1.703125 1.265625 -2.671875 3.921875q-0.953125 2.640625 -0.953125 6.171875l0 0.375q0 3.546875 0.9375 6.21875q0.953125 2.65625 2.6875 3.96875l-0.65625 1.78125q-1.59375 -0.703125 -2.96875 -2.515625q-1.375 -1.8125 -2.109375 -4.171875q-0.71875 -2.375 -0.765625 -4.953125l0 -0.625zm21.410156 -10.125l0 11.234375q0 2.796875 -1.75 4.4375q-1.75 1.625 -4.78125 1.625q-3.0 0 -4.765625 -1.578125q-1.75 -1.59375 -1.78125 -4.359375l0 -11.359375l3.515625 0l0 11.265625q0 1.671875 0.796875 2.4375q0.8125 0.765625 2.234375 0.765625q2.953125 0 3.0 -3.109375l0 -11.359375l3.53125 0zm5.78125 4.375l0.109375 1.46875q1.359375 -1.703125 3.640625 -1.703125q2.015625 0 3.0 1.1875q0.984375 1.1875 1.0 3.546875l0 8.1875l-3.375 0l0 -8.109375q0 -1.078125 -0.46875 -1.5625q-0.46875 -0.484375 -1.5625 -0.484375q-1.4375 0 -2.140625 1.21875l0 8.9375l-3.390625 0l0 -12.6875l3.1875 0zm13.894531 12.6875l-3.390625 0l0 -12.6875l3.390625 0l0 12.6875zm-3.59375 -15.96875q0 -0.75 0.5 -1.234375q0.515625 -0.5 1.390625 -0.5q0.875 0 1.390625 0.5q0.515625 0.484375 0.515625 1.234375q0 0.78125 -0.53125 1.28125q-0.515625 0.484375 -1.375 0.484375q-0.84375 0 -1.375 -0.484375q-0.515625 -0.5 -0.515625 -1.28125zm10.441406 0.171875l0 3.109375l2.171875 0l0 2.484375l-2.171875 0l0 6.328125q0 0.703125 0.265625 1.015625q0.265625 0.296875 1.03125 0.296875q0.5625 0 1.0 -0.078125l0 2.5625q-1.0 0.3125 -2.046875 0.3125q-3.5625 0 -3.640625 -3.59375l0 -6.84375l-1.84375 0l0 -2.484375l1.84375 0l0 -3.109375l3.390625 0zm19.101562 11.3125q0 -0.984375 -0.703125 -1.515625q-0.703125 -0.546875 -2.53125 -1.125q-1.828125 -0.59375 -2.890625 -1.171875q-2.90625 -1.578125 -2.90625 -4.234375q0 -1.375 0.765625 -2.453125q0.78125 -1.09375 2.234375 -1.703125q1.46875 -0.609375 3.28125 -0.609375q1.828125 0 3.25 0.671875q1.4375 0.65625 2.234375 1.859375q0.796875 1.203125 0.796875 2.734375l-3.515625 0q0 -1.171875 -0.75 -1.8125q-0.734375 -0.65625 -2.0625 -0.65625q-1.296875 0 -2.015625 0.546875q-0.703125 0.546875 -0.703125 1.4375q0 0.828125 0.828125 1.390625q0.84375 0.5625 2.46875 1.0625q3.0 0.890625 4.375 2.234375q1.375 1.328125 1.375 3.328125q0 2.21875 -1.6875 3.484375q-1.671875 1.25 -4.5 1.25q-1.96875 0 -3.59375 -0.71875q-1.609375 -0.71875 -2.46875 -1.96875q-0.84375 -1.265625 -0.84375 -2.921875l3.53125 0q0 2.828125 3.375 2.828125q1.25 0 1.953125 -0.5q0.703125 -0.515625 0.703125 -1.4375zm17.097656 -1.734375q0 2.921875 -1.328125 4.6875q-1.328125 1.765625 -3.59375 1.765625q-1.921875 0 -3.109375 -1.34375l0 5.984375l-3.390625 0l0 -17.5625l3.140625 0l0.125 1.25q1.234375 -1.484375 3.203125 -1.484375q2.34375 0 3.640625 1.734375q1.3125 1.734375 1.3125 4.78125l0 0.1875zm-3.390625 -0.25q0 -1.765625 -0.625 -2.71875q-0.625 -0.96875 -1.828125 -0.96875q-1.59375 0 -2.1875 1.21875l0 5.1875q0.625 1.25 2.21875 1.25q2.421875 0 2.421875 -3.96875zm12.839844 6.46875q-0.234375 -0.453125 -0.34375 -1.140625q-1.234375 1.375 -3.203125 1.375q-1.859375 0 -3.09375 -1.078125q-1.21875 -1.078125 -1.21875 -2.71875q0 -2.015625 1.484375 -3.09375q1.5 -1.078125 4.328125 -1.09375l1.5625 0l0 -0.71875q0 -0.890625 -0.453125 -1.40625q-0.453125 -0.53125 -1.421875 -0.53125q-0.859375 0 -1.34375 0.40625q-0.484375 0.40625 -0.484375 1.125l-3.390625 0q0 -1.09375 0.671875 -2.03125q0.6875 -0.9375 1.921875 -1.46875q1.25 -0.546875 2.796875 -0.546875q2.34375 0 3.71875 1.1875q1.375 1.171875 1.375 3.3125l0 5.484375q0.015625 1.8125 0.515625 2.734375l0 0.203125l-3.421875 0zm-2.8125 -2.359375q0.75 0 1.375 -0.328125q0.640625 -0.34375 0.953125 -0.90625l0 -2.171875l-1.265625 0q-2.546875 0 -2.703125 1.75l-0.015625 0.203125q0 0.640625 0.4375 1.046875q0.453125 0.40625 1.21875 0.40625zm13.6015625 -0.140625q0.9375 0 1.515625 -0.515625q0.59375 -0.515625 0.609375 -1.375l3.1875 0q-0.015625 1.296875 -0.71875 2.375q-0.6875 1.0625 -1.890625 1.65625q-1.1875 0.59375 -2.640625 0.59375q-2.71875 0 -4.296875 -1.71875q-1.5625 -1.734375 -1.5625 -4.78125l0 -0.234375q0 -2.921875 1.546875 -4.671875q1.5625 -1.75 4.28125 -1.75q2.375 0 3.8125 1.359375q1.4375 1.359375 1.46875 3.609375l-3.1875 0q-0.015625 -0.984375 -0.609375 -1.59375q-0.578125 -0.625 -1.546875 -0.625q-1.171875 0 -1.78125 0.859375q-0.609375 0.859375 -0.609375 2.796875l0 0.34375q0 1.96875 0.59375 2.828125q0.609375 0.84375 1.828125 0.84375zm13.078125 2.734375q-2.796875 0 -4.546875 -1.703125q-1.75 -1.71875 -1.75 -4.5625l0 -0.328125q0 -1.921875 0.734375 -3.421875q0.75 -1.5 2.09375 -2.3125q1.359375 -0.828125 3.09375 -0.828125q2.59375 0 4.09375 1.640625q1.5 1.640625 1.5 4.65625l0 1.390625l-8.078125 0q0.15625 1.234375 0.984375 1.984375q0.828125 0.75 2.09375 0.75q1.953125 0 3.0625 -1.421875l1.65625 1.875q-0.75 1.078125 -2.0625 1.6875q-1.296875 0.59375 -2.875 0.59375zm-0.390625 -10.40625q-1.0 0 -1.640625 0.6875q-0.625 0.671875 -0.796875 1.9375l4.71875 0l0 -0.265625q-0.03125 -1.125 -0.625 -1.734375q-0.578125 -0.625 -1.65625 -0.625zm13.363281 3.5q0 2.65625 -0.765625 5.109375q-0.765625 2.4375 -2.203125 4.3125q-1.421875 1.875 -3.046875 2.578125l-0.65625 -1.78125q1.671875 -1.265625 2.625 -3.875q0.96875 -2.609375 1.0 -6.015625l0 -0.625q0 -3.5 -0.953125 -6.171875q-0.953125 -2.671875 -2.671875 -4.0l0.65625 -1.796875q1.59375 0.6875 3.0 2.515625q1.421875 1.8125 2.203125 4.234375q0.78125 2.40625 0.8125 4.984375l0 0.53125z" fill-rule="nonzero"></path><path fill="#000000" fill-opacity="0.0" d="m824.28204 606.7134l-52.787415 0.94488525" fill-rule="evenodd"></path><path stroke="#ff9900" stroke-width="4.0" stroke-linejoin="round" stroke-linecap="butt" d="m824.28204 606.7134l-52.787415 0.94488525" fill-rule="evenodd"></path><path fill="#000000" fill-opacity="0.0" d="m612.5795 608.59735c-54.887512 0 -82.3302 6.3621826 -109.775116 12.724365c-27.444885 6.3622437 -54.891937 12.724426 -109.783905 12.724426" fill-rule="evenodd"></path><path stroke="#595959" stroke-width="4.0" stroke-linejoin="round" stroke-linecap="butt" d="m612.5796 608.5973c-54.887634 0 -82.33026 6.3622437 -109.77518 12.724426c-13.722443 3.1810913 -27.445404 6.3622437 -44.599304 8.748047c-8.576965 1.1929321 -18.011566 2.1870117 -28.732758 2.8828735c-5.3605957 0.3479004 -11.042816 0.62127686 -17.10025 0.8076782c-1.5143738 0.04663086 -3.052185 0.087768555 -4.614258 0.123291016l-1.0296936 0.02142334" fill-rule="evenodd"></path><path fill="#595959" stroke="#595959" stroke-width="4.0" stroke-linecap="butt" d="m406.72812 633.905l4.451782 -4.5444336l-12.312103 4.625366l12.404724 4.3708496z" fill-rule="evenodd"></path><path fill="#000000" fill-opacity="0.0" d="m393.03293 634.0502l-55.496063 0.881897" fill-rule="evenodd"></path><path stroke="#ff9900" stroke-width="4.0" stroke-linejoin="round" stroke-linecap="butt" d="m393.03293 634.0502l-55.496063 0.881897" fill-rule="evenodd"></path><path fill="#000000" fill-opacity="0.0" d="m281.77704 637.7895l112.03735 -114.52875l-0.9836426 227.0365z" fill-rule="evenodd"></path><path stroke="#ff0000" stroke-width="2.0" stroke-linejoin="round" stroke-linecap="butt" d="m281.77704 637.7895l112.03735 -114.52875l-0.9836426 227.0365z" fill-rule="evenodd"></path></g></svg>

