<?xml version="1.0" standalone="yes"?>

<svg version="1.1" viewBox="0.0 0.0 1152.0 864.0" fill="none" stroke="none" stroke-linecap="square" stroke-miterlimit="10" xmlns="http://www.w3.org/2000/svg" xmlns:xlink="http://www.w3.org/1999/xlink"><clipPath id="p.0"><path d="m0 0l1152.0 0l0 864.0l-1152.0 0l0 -864.0z" clip-rule="nonzero"></path></clipPath><g clip-path="url(#p.0)"><path fill="#000000" fill-opacity="0.0" d="m0 0l1152.0 0l0 864.0l-1152.0 0z" fill-rule="evenodd"></path><path fill="#000000" fill-opacity="0.0" d="m649.2591 167.63008l0 -112.85779l119.377686 112.85779z" fill-rule="evenodd"></path><path fill="#2196f3" fill-opacity="0.4885" d="m768.55597 224.0414l0 -56.46222l-59.761475 56.46222z" fill-rule="evenodd"></path><path fill="#000000" fill-opacity="0.0" d="m649.1785 280.35684l0 -225.58224l238.75537 225.58224z" fill-rule="evenodd"></path><path stroke="#cc0000" stroke-width="3.0" stroke-linejoin="round" stroke-linecap="butt" d="m649.1785 280.35684l0 -225.58224l238.75537 225.58224z" fill-rule="evenodd"></path><path fill="#000000" fill-opacity="0.0" d="m768.56 280.43857l0 -112.85776l119.37775 112.85776z" fill-rule="evenodd"></path><path fill="#000000" fill-opacity="0.0" d="m768.6427 280.17917l-119.01465 0l119.01465 -112.65781z" fill-rule="evenodd"></path><path fill="#000000" fill-opacity="0.0" d="m649.1785 167.56572l119.377686 0" fill-rule="evenodd"></path><path stroke="#595959" stroke-width="1.0" stroke-linejoin="round" stroke-linecap="butt" d="m649.1785 167.56572l119.377686 0" fill-rule="evenodd"></path><path fill="#000000" fill-opacity="0.0" d="m768.5562 167.56572l0 112.79112" fill-rule="evenodd"></path><path stroke="#595959" stroke-width="1.0" stroke-linejoin="round" stroke-linecap="butt" d="m768.5562 167.56572l0 112.79112" fill-rule="evenodd"></path><path fill="#000000" fill-opacity="0.0" d="m768.5562 167.56572l-119.377686 112.79112" fill-rule="evenodd"></path><path stroke="#595959" stroke-width="1.0" stroke-linejoin="round" stroke-linecap="butt" d="m768.5562 167.56572l-119.377686 112.79112" fill-rule="evenodd"></path><path fill="#000000" fill-opacity="0.0" d="m649.6122 167.5747l119.01459 0l-119.01459 112.65781z" fill-rule="evenodd"></path><path fill="#000000" fill-opacity="0.0" d="m649.18646 111.267845l59.761475 -0.06665802" fill-rule="evenodd"></path><path stroke="#595959" stroke-width="1.0" stroke-linejoin="round" stroke-linecap="butt" d="m649.18646 111.267845l59.761475 -0.06665802" fill-rule="evenodd"></path><path fill="#000000" fill-opacity="0.0" d="m708.94794 111.20119l0.21783447 168.98668" fill-rule="evenodd"></path><path stroke="#595959" stroke-width="1.0" stroke-linejoin="round" stroke-linecap="butt" d="m708.94794 111.20119l0.21783447 168.98668" fill-rule="evenodd"></path><path fill="#000000" fill-opacity="0.0" d="m708.94794 111.20119l-59.325745 56.395554" fill-rule="evenodd"></path><path stroke="#595959" stroke-width="1.0" stroke-linejoin="round" stroke-linecap="butt" d="m708.94794 111.20119l-59.325745 56.395554" fill-rule="evenodd"></path><path fill="#000000" fill-opacity="0.0" d="m649.6122 167.5747l119.01459 112.591125" fill-rule="evenodd"></path><path stroke="#595959" stroke-width="1.0" stroke-linejoin="round" stroke-linecap="butt" d="m649.6122 167.5747l119.01459 112.591125" fill-rule="evenodd"></path><path fill="#000000" fill-opacity="0.0" d="m649.6122 223.90361l178.63086 0.06666565" fill-rule="evenodd"></path><path stroke="#595959" stroke-width="1.0" stroke-linejoin="round" stroke-linecap="butt" d="m649.6122 223.90361l178.63086 0.06666565" fill-rule="evenodd"></path><path fill="#000000" fill-opacity="0.0" d="m828.24884 224.00969l0 56.462234" fill-rule="evenodd"></path><path stroke="#595959" stroke-width="1.0" stroke-linejoin="round" stroke-linecap="butt" d="m828.24884 224.00969l0 56.462234" fill-rule="evenodd"></path><path fill="#000000" fill-opacity="0.0" d="m828.24884 224.00969l-59.61621 56.12892" fill-rule="evenodd"></path><path stroke="#595959" stroke-width="1.0" stroke-linejoin="round" stroke-linecap="butt" d="m828.24884 224.00969l-59.61621 56.12892" fill-rule="evenodd"></path><path fill="#000000" fill-opacity="0.0" d="m192.83296 291.5156l229.88976 0l0 73.98425l-229.88976 0z" fill-rule="evenodd"></path><path fill="#002835" d="m231.9009 322.54773l0 -17.0625l5.96875 0q3.109375 0 4.703125 1.1875q1.609375 1.1875 1.609375 3.484375q0 1.25 -0.640625 2.21875q-0.640625 0.953125 -1.796875 1.390625q1.3125 0.328125 2.0625 1.328125q0.765625 1.0 0.765625 2.4375q0 2.453125 -1.578125 3.71875q-1.5625 1.265625 -4.46875 1.296875l-6.625 0zm3.515625 -7.4375l0 4.609375l3.0 0q1.25 0 1.9375 -0.59375q0.703125 -0.59375 0.703125 -1.625q0 -2.34375 -2.421875 -2.390625l-3.21875 0zm0 -2.484375l2.59375 0q2.65625 -0.046875 2.65625 -2.109375q0 -1.171875 -0.671875 -1.671875q-0.671875 -0.515625 -2.125 -0.515625l-2.453125 0l0 4.296875zm18.925781 9.921875q-0.234375 -0.453125 -0.34375 -1.140625q-1.234375 1.375 -3.203125 1.375q-1.859375 0 -3.09375 -1.078125q-1.21875 -1.078125 -1.21875 -2.71875q0 -2.015625 1.484375 -3.09375q1.5 -1.078125 4.328125 -1.09375l1.5625 0l0 -0.71875q0 -0.890625 -0.453125 -1.40625q-0.453125 -0.53125 -1.421875 -0.53125q-0.859375 0 -1.34375 0.40625q-0.484375 0.40625 -0.484375 1.125l-3.390625 0q0 -1.09375 0.671875 -2.03125q0.6875 -0.9375 1.921875 -1.46875q1.25 -0.546875 2.796875 -0.546875q2.34375 0 3.71875 1.1875q1.3749847 1.171875 1.3749847 3.3125l0 5.484375q0.015625 1.8125 0.515625 2.734375l0 0.203125l-3.4218597 0zm-2.8125 -2.359375q0.75 0 1.375 -0.328125q0.640625 -0.34375 0.953125 -0.90625l0 -2.171875l-1.265625 0q-2.546875 0 -2.703125 1.75l-0.015625 0.203125q0 0.640625 0.4375 1.046875q0.453125 0.40625 1.21875 0.40625zm15.195297 -1.140625q0 -0.625 -0.625 -0.984375q-0.609375 -0.359375 -1.96875 -0.640625q-4.515625 -0.953125 -4.515625 -3.84375q0 -1.6875 1.390625 -2.8125q1.40625 -1.140625 3.671875 -1.140625q2.40625 0 3.84375 1.140625q1.453125 1.140625 1.453125 2.953125l-3.375 0q0 -0.71875 -0.46875 -1.1875q-0.46875 -0.484375 -1.46875 -0.484375q-0.859375 0 -1.328125 0.390625q-0.46875 0.375 -0.46875 0.984375q0 0.5625 0.53125 0.90625q0.53125 0.34375 1.796875 0.59375q1.265625 0.25 2.140625 0.5625q2.6875 0.984375 2.6875 3.421875q0 1.734375 -1.5 2.8125q-1.484375 1.0625 -3.84375 1.0625q-1.59375 0 -2.828125 -0.5625q-1.234375 -0.578125 -1.9375 -1.5625q-0.703125 -1.0 -0.703125 -2.140625l3.21875 0q0.046875 0.90625 0.65625 1.390625q0.625 0.46875 1.671875 0.46875q0.96875 0 1.46875 -0.359375q0.5 -0.375 0.5 -0.96875zm11.308594 3.734375q-2.796875 0 -4.546875 -1.703125q-1.75 -1.71875 -1.75 -4.5625l0 -0.328125q0 -1.921875 0.734375 -3.421875q0.75 -1.5 2.09375 -2.3125q1.359375 -0.828125 3.09375 -0.828125q2.59375 0 4.09375 1.640625q1.5 1.640625 1.5 4.65625l0 1.390625l-8.078125 0q0.15625 1.234375 0.984375 1.984375q0.828125 0.75 2.09375 0.75q1.953125 0 3.0625 -1.421875l1.65625 1.875q-0.75 1.078125 -2.0625 1.6875q-1.296875 0.59375 -2.875 0.59375zm-0.390625 -10.40625q-1.0 0 -1.640625 0.6875q-0.625 0.671875 -0.796875 1.9375l4.71875 0l0 -0.265625q-0.03125 -1.125 -0.625 -1.734375q-0.578125 -0.625 -1.65625 -0.625zm24.917969 3.953125q0 2.921875 -1.328125 4.6875q-1.328125 1.765625 -3.59375 1.765625q-1.921875 0 -3.109375 -1.34375l0 5.984375l-3.390625 0l0 -17.5625l3.140625 0l0.125 1.25q1.234375 -1.484375 3.203125 -1.484375q2.34375 0 3.640625 1.734375q1.3125 1.734375 1.3125 4.78125l0 0.1875zm-3.390625 -0.25q0 -1.765625 -0.625 -2.71875q-0.625 -0.96875 -1.828125 -0.96875q-1.59375 0 -2.1875 1.21875l0 5.1875q0.625 1.25 2.21875 1.25q2.421875 0 2.421875 -3.96875zm12.605469 -3.03125q-0.6875 -0.09375 -1.21875 -0.09375q-1.921875 0 -2.515625 1.296875l0 8.296875l-3.390625 0l0 -12.6875l3.203125 0l0.09375 1.515625q1.015625 -1.75 2.828125 -1.75q0.5625 0 1.046875 0.15625l-0.046875 3.265625zm5.2070312 9.5l-3.390625 0l0 -12.6875l3.390625 0l0 12.6875zm-3.59375 -15.96875q0 -0.75 0.5 -1.234375q0.515625 -0.5 1.390625 -0.5q0.875 0 1.390625 0.5q0.515625 0.484375 0.515625 1.234375q0 0.78125 -0.53125 1.28125q-0.515625 0.484375 -1.375 0.484375q-0.84375 0 -1.375 -0.484375q-0.515625 -0.5 -0.515625 -1.28125zm9.566406 3.28125l0.09375 1.421875q1.359375 -1.65625 3.65625 -1.65625q2.4375 0 3.359375 1.9375q1.328125 -1.9375 3.8125 -1.9375q2.0625 0 3.0625 1.203125q1.015625 1.203125 1.015625 3.625l0 8.09375l-3.40625 0l0 -8.09375q0 -1.078125 -0.421875 -1.5625q-0.421875 -0.5 -1.484375 -0.5q-1.53125 0 -2.109375 1.453125l0.015625 8.703125l-3.390625 0l0 -8.078125q0 -1.09375 -0.4375 -1.578125q-0.4375 -0.5 -1.46875 -0.5q-1.453125 0 -2.09375 1.1875l0 8.96875l-3.390625 0l0 -12.6875l3.1875 0zm21.167969 12.6875l-3.390625 0l0 -12.6875l3.390625 0l0 12.6875zm-3.59375 -15.96875q0 -0.75 0.5 -1.234375q0.515625 -0.5 1.390625 -0.5q0.875 0 1.390625 0.5q0.515625 0.484375 0.515625 1.234375q0 0.78125 -0.53125 1.28125q-0.515625 0.484375 -1.375 0.484375q-0.84375 0 -1.375 -0.484375q-0.515625 -0.5 -0.515625 -1.28125zm10.441406 0.171875l0 3.109375l2.171875 0l0 2.484375l-2.171875 0l0 6.328125q0 0.703125 0.265625 1.015625q0.265625 0.296875 1.03125 0.296875q0.5625 0 1.0 -0.078125l0 2.5625q-1.0 0.3125 -2.046875 0.3125q-3.5625 0 -3.640625 -3.59375l0 -6.84375l-1.84375 0l0 -2.484375l1.84375 0l0 -3.109375l3.390625 0zm7.625 15.796875l-3.390625 0l0 -12.6875l3.390625 0l0 12.6875zm-3.59375 -15.96875q0 -0.75 0.5 -1.234375q0.515625 -0.5 1.390625 -0.5q0.875 0 1.390625 0.5q0.515625 0.484375 0.515625 1.234375q0 0.78125 -0.53125 1.28125q-0.515625 0.484375 -1.375 0.484375q-0.84375 0 -1.375 -0.484375q-0.515625 -0.5 -0.515625 -1.28125zm11.128906 11.828125l2.359375 -8.546875l3.53125 0l-4.265625 12.6875l-3.234375 0l-4.28125 -12.6875l3.53125 0l2.359375 8.546875zm13.222656 4.375q-2.796875 0 -4.546875 -1.703125q-1.75 -1.71875 -1.75 -4.5625l0 -0.328125q0 -1.921875 0.734375 -3.421875q0.75 -1.5 2.09375 -2.3125q1.359375 -0.828125 3.09375 -0.828125q2.59375 0 4.09375 1.640625q1.5 1.640625 1.5 4.65625l0 1.390625l-8.078125 0q0.15625 1.234375 0.984375 1.984375q0.828125 0.75 2.09375 0.75q1.953125 0 3.0625 -1.421875l1.65625 1.875q-0.75 1.078125 -2.0625 1.6875q-1.296875 0.59375 -2.875 0.59375zm-0.390625 -10.40625q-1.0 0 -1.640625 0.6875q-0.625 0.671875 -0.796875 1.9375l4.71875 0l0 -0.265625q-0.03125 -1.125 -0.625 -1.734375q-0.578125 -0.625 -1.65625 -0.625z" fill-rule="nonzero"></path><path fill="#002835" d="m242.63332 344.61023q0 -2.6875 0.71875 -5.109375q0.71875 -2.421875 2.109375 -4.296875q1.390625 -1.875 3.015625 -2.59375l0.65625 1.828125q-1.703125 1.265625 -2.671875 3.921875q-0.953125 2.640625 -0.953125 6.171875l0 0.375q0 3.546875 0.9375 6.21875q0.953125 2.65625 2.6875 3.96875l-0.65625 1.78125q-1.59375 -0.703125 -2.96875 -2.515625q-1.375 -1.8125 -2.109375 -4.171875q-0.71875 -2.375 -0.765625 -4.953125l0 -0.625zm21.410141 -10.125l0 11.234375q0 2.796875 -1.75 4.4375q-1.75 1.625 -4.78125 1.625q-2.9999847 0 -4.7656097 -1.578125q-1.75 -1.59375 -1.78125 -4.359375l0 -11.359375l3.515625 0l0 11.265625q0 1.671875 0.796875 2.4375q0.81248474 0.765625 2.2343597 0.765625q2.953125 0 3.0 -3.109375l0 -11.359375l3.53125 0zm5.78125 4.375l0.109375 1.46875q1.359375 -1.703125 3.640625 -1.703125q2.015625 0 3.0 1.1875q0.984375 1.1875 1.0 3.546875l0 8.1875l-3.375 0l0 -8.109375q0 -1.078125 -0.46875 -1.5625q-0.46875 -0.484375 -1.5625 -0.484375q-1.4375 0 -2.140625 1.21875l0 8.9375l-3.390625 0l0 -12.6875l3.1875 0zm13.894531 12.6875l-3.390625 0l0 -12.6875l3.390625 0l0 12.6875zm-3.59375 -15.96875q0 -0.75 0.5 -1.234375q0.515625 -0.5 1.390625 -0.5q0.875 0 1.390625 0.5q0.515625 0.484375 0.515625 1.234375q0 0.78125 -0.53125 1.28125q-0.515625 0.484375 -1.375 0.484375q-0.84375 0 -1.375 -0.484375q-0.515625 -0.5 -0.515625 -1.28125zm10.441406 0.171875l0 3.109375l2.171875 0l0 2.484375l-2.171875 0l0 6.328125q0 0.703125 0.265625 1.015625q0.265625 0.296875 1.03125 0.296875q0.5625 0 1.0 -0.078125l0 2.5625q-1.0 0.3125 -2.046875 0.3125q-3.5625 0 -3.640625 -3.59375l0 -6.84375l-1.84375 0l0 -2.484375l1.84375 0l0 -3.109375l3.390625 0zm19.101562 11.3125q0 -0.984375 -0.703125 -1.515625q-0.703125 -0.546875 -2.53125 -1.125q-1.828125 -0.59375 -2.890625 -1.171875q-2.90625 -1.578125 -2.90625 -4.234375q0 -1.375 0.765625 -2.453125q0.78125 -1.09375 2.234375 -1.703125q1.46875 -0.609375 3.28125 -0.609375q1.828125 0 3.25 0.671875q1.4375 0.65625 2.234375 1.859375q0.796875 1.203125 0.796875 2.734375l-3.515625 0q0 -1.171875 -0.75 -1.8125q-0.734375 -0.65625 -2.0625 -0.65625q-1.296875 0 -2.015625 0.546875q-0.703125 0.546875 -0.703125 1.4375q0 0.828125 0.828125 1.390625q0.84375 0.5625 2.46875 1.0625q3.0 0.890625 4.375 2.234375q1.375 1.328125 1.375 3.328125q0 2.21875 -1.6875 3.484375q-1.671875 1.25 -4.5 1.25q-1.96875 0 -3.59375 -0.71875q-1.609375 -0.71875 -2.46875 -1.96875q-0.84375 -1.265625 -0.84375 -2.921875l3.53125 0q0 2.828125 3.375 2.828125q1.25 0 1.953125 -0.5q0.703125 -0.515625 0.703125 -1.4375zm17.097656 -1.734375q0 2.921875 -1.328125 4.6875q-1.328125 1.765625 -3.59375 1.765625q-1.921875 0 -3.109375 -1.34375l0 5.984375l-3.390625 0l0 -17.5625l3.140625 0l0.125 1.25q1.234375 -1.484375 3.203125 -1.484375q2.34375 0 3.640625 1.734375q1.3125 1.734375 1.3125 4.78125l0 0.1875zm-3.390625 -0.25q0 -1.765625 -0.625 -2.71875q-0.625 -0.96875 -1.828125 -0.96875q-1.59375 0 -2.1875 1.21875l0 5.1875q0.625 1.25 2.21875 1.25q2.421875 0 2.421875 -3.96875zm12.839844 6.46875q-0.234375 -0.453125 -0.34375 -1.140625q-1.234375 1.375 -3.203125 1.375q-1.859375 0 -3.09375 -1.078125q-1.21875 -1.078125 -1.21875 -2.71875q0 -2.015625 1.484375 -3.09375q1.5 -1.078125 4.328125 -1.09375l1.5625 0l0 -0.71875q0 -0.890625 -0.453125 -1.40625q-0.453125 -0.53125 -1.421875 -0.53125q-0.859375 0 -1.34375 0.40625q-0.484375 0.40625 -0.484375 1.125l-3.390625 0q0 -1.09375 0.671875 -2.03125q0.6875 -0.9375 1.921875 -1.46875q1.25 -0.546875 2.796875 -0.546875q2.34375 0 3.71875 1.1875q1.375 1.171875 1.375 3.3125l0 5.484375q0.015625 1.8125 0.515625 2.734375l0 0.203125l-3.421875 0zm-2.8125 -2.359375q0.75 0 1.375 -0.328125q0.640625 -0.34375 0.953125 -0.90625l0 -2.171875l-1.265625 0q-2.546875 0 -2.703125 1.75l-0.015625 0.203125q0 0.640625 0.4375 1.046875q0.453125 0.40625 1.21875 0.40625zm13.6015625 -0.140625q0.9375 0 1.515625 -0.515625q0.59375 -0.515625 0.609375 -1.375l3.1875 0q-0.015625 1.296875 -0.71875 2.375q-0.6875 1.0625 -1.890625 1.65625q-1.1875 0.59375 -2.640625 0.59375q-2.71875 0 -4.296875 -1.71875q-1.5625 -1.734375 -1.5625 -4.78125l0 -0.234375q0 -2.921875 1.546875 -4.671875q1.5625 -1.75 4.28125 -1.75q2.375 0 3.8125 1.359375q1.4375 1.359375 1.46875 3.609375l-3.1875 0q-0.015625 -0.984375 -0.609375 -1.59375q-0.578125 -0.625 -1.546875 -0.625q-1.171875 0 -1.78125 0.859375q-0.609375 0.859375 -0.609375 2.796875l0 0.34375q0 1.96875 0.59375 2.828125q0.609375 0.84375 1.828125 0.84375zm13.078125 2.734375q-2.796875 0 -4.546875 -1.703125q-1.75 -1.71875 -1.75 -4.5625l0 -0.328125q0 -1.921875 0.734375 -3.421875q0.75 -1.5 2.09375 -2.3125q1.359375 -0.828125 3.09375 -0.828125q2.59375 0 4.09375 1.640625q1.5 1.640625 1.5 4.65625l0 1.390625l-8.078125 0q0.15625 1.234375 0.984375 1.984375q0.828125 0.75 2.09375 0.75q1.953125 0 3.0625 -1.421875l1.65625 1.875q-0.75 1.078125 -2.0625 1.6875q-1.296875 0.59375 -2.875 0.59375zm-0.390625 -10.40625q-1.0 0 -1.640625 0.6875q-0.625 0.671875 -0.796875 1.9375l4.71875 0l0 -0.265625q-0.03125 -1.125 -0.625 -1.734375q-0.578125 -0.625 -1.65625 -0.625zm13.363281 3.5q0 2.65625 -0.765625 5.109375q-0.765625 2.4375 -2.203125 4.3125q-1.421875 1.875 -3.046875 2.578125l-0.65625 -1.78125q1.671875 -1.265625 2.625 -3.875q0.96875 -2.609375 1.0 -6.015625l0 -0.625q0 -3.5 -0.953125 -6.171875q-0.953125 -2.671875 -2.671875 -4.0l0.65625 -1.796875q1.59375 0.6875 3.0 2.515625q1.421875 1.8125 2.203125 4.234375q0.78125 2.40625 0.8125 4.984375l0 0.53125z" fill-rule="nonzero"></path><path fill="#000000" fill-opacity="0.0" d="m660.13245 291.5156l229.88977 0l0 73.98425l-229.88977 0z" fill-rule="evenodd"></path><path fill="#002835" d="m740.99335 314.4071q0 2.390625 -0.78125 4.15625q-0.765625 1.75 -2.140625 2.828125l2.84375 2.21875l-2.234375 1.984375l-3.640625 -2.921875q-0.625 0.109375 -1.28125 0.109375q-2.125 0 -3.796875 -1.015625q-1.65625 -1.03125 -2.578125 -2.921875q-0.90625 -1.890625 -0.921875 -4.34375l0 -0.84375q0 -2.53125 0.90625 -4.4375q0.90625 -1.921875 2.5625 -2.9375q1.671875 -1.03125 3.796875 -1.03125q2.140625 0 3.796875 1.03125q1.65625 1.015625 2.5625 2.9375q0.90625 1.90625 0.90625 4.421875l0 0.765625zm-3.5625 -0.78125q0 -2.6875 -0.96875 -4.078125q-0.953125 -1.390625 -2.734375 -1.390625q-1.765625 0 -2.734375 1.375q-0.953125 1.375 -0.96875 4.03125l0 0.84375q0 2.609375 0.953125 4.046875q0.96875 1.4375 2.78125 1.4375q1.765625 0 2.703125 -1.375q0.953125 -1.390625 0.96875 -4.0625l0 -0.828125zm13.5078125 7.625q-1.25 1.53125 -3.46875 1.53125q-2.03125 0 -3.109375 -1.171875q-1.0625 -1.171875 -1.09375 -3.4375l0 -8.3125l3.390625 0l0 8.203125q0 1.96875 1.796875 1.96875q1.734375 0 2.375 -1.1875l0 -8.984375l3.390625 0l0 12.6875l-3.1875 0l-0.09375 -1.296875zm13.1953125 1.296875q-0.234375 -0.453125 -0.34375 -1.140625q-1.234375 1.375 -3.203125 1.375q-1.859375 0 -3.09375 -1.078125q-1.21875 -1.078125 -1.21875 -2.71875q0 -2.015625 1.484375 -3.09375q1.5 -1.078125 4.328125 -1.09375l1.5625 0l0 -0.71875q0 -0.890625 -0.453125 -1.40625q-0.453125 -0.53125 -1.421875 -0.53125q-0.859375 0 -1.34375 0.40625q-0.484375 0.40625 -0.484375 1.125l-3.390625 0q0 -1.09375 0.671875 -2.03125q0.6875 -0.9375 1.921875 -1.46875q1.25 -0.546875 2.796875 -0.546875q2.34375 0 3.71875 1.1875q1.375 1.171875 1.375 3.3125l0 5.484375q0.015625 1.8125 0.515625 2.734375l0 0.203125l-3.421875 0zm-2.8125 -2.359375q0.75 0 1.375 -0.328125q0.640625 -0.34375 0.953125 -0.90625l0 -2.171875l-1.265625 0q-2.546875 0 -2.703125 1.75l-0.015625 0.203125q0 0.640625 0.4375 1.046875q0.453125 0.40625 1.21875 0.40625zm7.8046875 -4.078125q0 -2.96875 1.328125 -4.71875q1.328125 -1.765625 3.640625 -1.765625q1.84375 0 3.046875 1.390625l0 -6.46875l3.40625 0l0 18.0l-3.0625 0l-0.15625 -1.34375q-1.265625 1.578125 -3.265625 1.578125q-2.234375 0 -3.59375 -1.765625q-1.34375 -1.765625 -1.34375 -4.90625zm3.375 0.25q0 1.78125 0.625 2.734375q0.625 0.9375 1.8125 0.9375q1.5625 0 2.203125 -1.3125l0 -5.015625q-0.625 -1.3125 -2.1875 -1.3125q-2.453125 0 -2.453125 3.96875zm14.7265625 -9.609375l0 3.109375l2.171875 0l0 2.484375l-2.171875 0l0 6.328125q0 0.703125 0.265625 1.015625q0.265625 0.296875 1.03125 0.296875q0.5625 0 1.0 -0.078125l0 2.5625q-1.0 0.3125 -2.046875 0.3125q-3.5625 0 -3.640625 -3.59375l0 -6.84375l-1.84375 0l0 -2.484375l1.84375 0l0 -3.109375l3.390625 0zm11.171875 6.296875q-0.6875 -0.09375 -1.21875 -0.09375q-1.921875 0 -2.515625 1.296875l0 8.296875l-3.390625 0l0 -12.6875l3.203125 0l0.09375 1.515625q1.015625 -1.75 2.828125 -1.75q0.5625 0 1.046875 0.15625l-0.046875 3.265625zm7.4726562 9.734375q-2.796875 0 -4.546875 -1.703125q-1.75 -1.71875 -1.75 -4.5625l0 -0.328125q0 -1.921875 0.734375 -3.421875q0.75 -1.5 2.09375 -2.3125q1.359375 -0.828125 3.09375 -0.828125q2.59375 0 4.09375 1.640625q1.5 1.640625 1.5 4.65625l0 1.390625l-8.078125 0q0.15625 1.234375 0.984375 1.984375q0.828125 0.75 2.09375 0.75q1.953125 0 3.0625 -1.421875l1.65625 1.875q-0.75 1.078125 -2.0625 1.6875q-1.296875 0.59375 -2.875 0.59375zm-0.390625 -10.40625q-1.0 0 -1.640625 0.6875q-0.625 0.671875 -0.796875 1.9375l4.71875 0l0 -0.265625q-0.03125 -1.125 -0.625 -1.734375q-0.578125 -0.625 -1.65625 -0.625zm13.363281 10.40625q-2.796875 0 -4.546875 -1.703125q-1.75 -1.71875 -1.75 -4.5625l0 -0.328125q0 -1.921875 0.734375 -3.421875q0.75 -1.5 2.09375 -2.3125q1.359375 -0.828125 3.09375 -0.828125q2.59375 0 4.09375 1.640625q1.5 1.640625 1.5 4.65625l0 1.390625l-8.078125 0q0.15625 1.234375 0.984375 1.984375q0.828125 0.75 2.09375 0.75q1.953125 0 3.0625 -1.421875l1.65625 1.875q-0.75 1.078125 -2.0625 1.6875q-1.296875 0.59375 -2.875 0.59375zm-0.390625 -10.40625q-1.0 0 -1.640625 0.6875q-0.625 0.671875 -0.796875 1.9375l4.71875 0l0 -0.265625q-0.03125 -1.125 -0.625 -1.734375q-0.578125 -0.625 -1.65625 -0.625z" fill-rule="nonzero"></path><path fill="#002835" d="m709.9328 344.61023q0 -2.6875 0.71875 -5.109375q0.71875 -2.421875 2.109375 -4.296875q1.390625 -1.875 3.015625 -2.59375l0.65625 1.828125q-1.703125 1.265625 -2.671875 3.921875q-0.953125 2.640625 -0.953125 6.171875l0 0.375q0 3.546875 0.9375 6.21875q0.953125 2.65625 2.6875 3.96875l-0.65625 1.78125q-1.59375 -0.703125 -2.96875 -2.515625q-1.375 -1.8125 -2.109375 -4.171875q-0.71875 -2.375 -0.765625 -4.953125l0 -0.625zm21.410156 -10.125l0 11.234375q0 2.796875 -1.75 4.4375q-1.75 1.625 -4.78125 1.625q-3.0 0 -4.765625 -1.578125q-1.75 -1.59375 -1.78125 -4.359375l0 -11.359375l3.515625 0l0 11.265625q0 1.671875 0.796875 2.4375q0.8125 0.765625 2.234375 0.765625q2.953125 0 3.0 -3.109375l0 -11.359375l3.53125 0zm5.78125 4.375l0.109375 1.46875q1.359375 -1.703125 3.640625 -1.703125q2.015625 0 3.0 1.1875q0.984375 1.1875 1.0 3.546875l0 8.1875l-3.375 0l0 -8.109375q0 -1.078125 -0.46875 -1.5625q-0.46875 -0.484375 -1.5625 -0.484375q-1.4375 0 -2.140625 1.21875l0 8.9375l-3.390625 0l0 -12.6875l3.1875 0zm13.894531 12.6875l-3.390625 0l0 -12.6875l3.390625 0l0 12.6875zm-3.59375 -15.96875q0 -0.75 0.5 -1.234375q0.515625 -0.5 1.390625 -0.5q0.875 0 1.390625 0.5q0.515625 0.484375 0.515625 1.234375q0 0.78125 -0.53125 1.28125q-0.515625 0.484375 -1.375 0.484375q-0.84375 0 -1.375 -0.484375q-0.515625 -0.5 -0.515625 -1.28125zm10.441406 0.171875l0 3.109375l2.171875 0l0 2.484375l-2.171875 0l0 6.328125q0 0.703125 0.265625 1.015625q0.265625 0.296875 1.03125 0.296875q0.5625 0 1.0 -0.078125l0 2.5625q-1.0 0.3125 -2.046875 0.3125q-3.5625 0 -3.640625 -3.59375l0 -6.84375l-1.84375 0l0 -2.484375l1.84375 0l0 -3.109375l3.390625 0zm19.101562 11.3125q0 -0.984375 -0.703125 -1.515625q-0.703125 -0.546875 -2.53125 -1.125q-1.828125 -0.59375 -2.890625 -1.171875q-2.90625 -1.578125 -2.90625 -4.234375q0 -1.375 0.765625 -2.453125q0.78125 -1.09375 2.234375 -1.703125q1.46875 -0.609375 3.28125 -0.609375q1.828125 0 3.25 0.671875q1.4375 0.65625 2.234375 1.859375q0.796875 1.203125 0.796875 2.734375l-3.515625 0q0 -1.171875 -0.75 -1.8125q-0.734375 -0.65625 -2.0625 -0.65625q-1.296875 0 -2.015625 0.546875q-0.703125 0.546875 -0.703125 1.4375q0 0.828125 0.828125 1.390625q0.84375 0.5625 2.46875 1.0625q3.0 0.890625 4.375 2.234375q1.375 1.328125 1.375 3.328125q0 2.21875 -1.6875 3.484375q-1.671875 1.25 -4.5 1.25q-1.96875 0 -3.59375 -0.71875q-1.609375 -0.71875 -2.46875 -1.96875q-0.84375 -1.265625 -0.84375 -2.921875l3.53125 0q0 2.828125 3.375 2.828125q1.25 0 1.953125 -0.5q0.703125 -0.515625 0.703125 -1.4375zm17.097656 -1.734375q0 2.921875 -1.328125 4.6875q-1.328125 1.765625 -3.59375 1.765625q-1.921875 0 -3.109375 -1.34375l0 5.984375l-3.390625 0l0 -17.5625l3.140625 0l0.125 1.25q1.234375 -1.484375 3.203125 -1.484375q2.34375 0 3.640625 1.734375q1.3125 1.734375 1.3125 4.78125l0 0.1875zm-3.390625 -0.25q0 -1.765625 -0.625 -2.71875q-0.625 -0.96875 -1.828125 -0.96875q-1.59375 0 -2.1875 1.21875l0 5.1875q0.625 1.25 2.21875 1.25q2.421875 0 2.421875 -3.96875zm12.839844 6.46875q-0.234375 -0.453125 -0.34375 -1.140625q-1.234375 1.375 -3.203125 1.375q-1.859375 0 -3.09375 -1.078125q-1.21875 -1.078125 -1.21875 -2.71875q0 -2.015625 1.484375 -3.09375q1.5 -1.078125 4.328125 -1.09375l1.5625 0l0 -0.71875q0 -0.890625 -0.453125 -1.40625q-0.453125 -0.53125 -1.421875 -0.53125q-0.859375 0 -1.34375 0.40625q-0.484375 0.40625 -0.484375 1.125l-3.390625 0q0 -1.09375 0.671875 -2.03125q0.6875 -0.9375 1.921875 -1.46875q1.25 -0.546875 2.796875 -0.546875q2.34375 0 3.71875 1.1875q1.375 1.171875 1.375 3.3125l0 5.484375q0.015625 1.8125 0.515625 2.734375l0 0.203125l-3.421875 0zm-2.8125 -2.359375q0.75 0 1.375 -0.328125q0.640625 -0.34375 0.953125 -0.90625l0 -2.171875l-1.265625 0q-2.546875 0 -2.703125 1.75l-0.015625 0.203125q0 0.640625 0.4375 1.046875q0.453125 0.40625 1.21875 0.40625zm13.6015625 -0.140625q0.9375 0 1.515625 -0.515625q0.59375 -0.515625 0.609375 -1.375l3.1875 0q-0.015625 1.296875 -0.71875 2.375q-0.6875 1.0625 -1.890625 1.65625q-1.1875 0.59375 -2.640625 0.59375q-2.71875 0 -4.296875 -1.71875q-1.5625 -1.734375 -1.5625 -4.78125l0 -0.234375q0 -2.921875 1.546875 -4.671875q1.5625 -1.75 4.28125 -1.75q2.375 0 3.8125 1.359375q1.4375 1.359375 1.46875 3.609375l-3.1875 0q-0.015625 -0.984375 -0.609375 -1.59375q-0.578125 -0.625 -1.546875 -0.625q-1.171875 0 -1.78125 0.859375q-0.609375 0.859375 -0.609375 2.796875l0 0.34375q0 1.96875 0.59375 2.828125q0.609375 0.84375 1.828125 0.84375zm13.078125 2.734375q-2.796875 0 -4.546875 -1.703125q-1.75 -1.71875 -1.75 -4.5625l0 -0.328125q0 -1.921875 0.734375 -3.421875q0.75 -1.5 2.09375 -2.3125q1.359375 -0.828125 3.09375 -0.828125q2.59375 0 4.09375 1.640625q1.5 1.640625 1.5 4.65625l0 1.390625l-8.078125 0q0.15625 1.234375 0.984375 1.984375q0.828125 0.75 2.09375 0.75q1.953125 0 3.0625 -1.421875l1.65625 1.875q-0.75 1.078125 -2.0625 1.6875q-1.296875 0.59375 -2.875 0.59375zm-0.390625 -10.40625q-1.0 0 -1.640625 0.6875q-0.625 0.671875 -0.796875 1.9375l4.71875 0l0 -0.265625q-0.03125 -1.125 -0.625 -1.734375q-0.578125 -0.625 -1.65625 -0.625zm13.363281 3.5q0 2.65625 -0.765625 5.109375q-0.765625 2.4375 -2.203125 4.3125q-1.421875 1.875 -3.046875 2.578125l-0.65625 -1.78125q1.671875 -1.265625 2.625 -3.875q0.96875 -2.609375 1.0 -6.015625l0 -0.625q0 -3.5 -0.953125 -6.171875q-0.953125 -2.671875 -2.671875 -4.0l0.65625 -1.796875q1.59375 0.6875 3.0 2.515625q1.421875 1.8125 2.203125 4.234375q0.78125 2.40625 0.8125 4.984375l0 0.53125z" fill-rule="nonzero"></path><path fill="#2196f3" fill-opacity="0.4885" d="m204.01288 278.7297l0 -225.5748l218.70865 225.5748z" fill-rule="evenodd"></path><path stroke="#595959" stroke-width="2.0" stroke-linejoin="round" stroke-linecap="butt" d="m204.01288 278.7297l0 -225.5748l218.70865 225.5748z" fill-rule="evenodd"></path><path fill="#000000" fill-opacity="0.0" d="m768.6268 167.5747l-58.960632 55.27559" fill-rule="evenodd"></path><path stroke="#ff9900" stroke-width="4.0" stroke-linejoin="round" stroke-linecap="butt" d="m768.6268 167.5747l-58.960632 55.27559" fill-rule="evenodd"></path><path fill="#000000" fill-opacity="0.0" d="m204.01288 53.15491l218.70865 225.5748" fill-rule="evenodd"></path><path stroke="#ff9900" stroke-width="4.0" stroke-linejoin="round" stroke-linecap="butt" d="m204.01288 53.15491l218.70865 225.5748" fill-rule="evenodd"></path><path fill="#000000" fill-opacity="0.0" d="m311.37827 165.94545c106.79529 0 160.19293 9.763779 213.59055 19.527557c53.397644 9.763779 106.79529 19.527557 213.59058 19.527557" fill-rule="evenodd"></path><path stroke="#4a86e8" stroke-width="4.0" stroke-linejoin="round" stroke-linecap="butt" d="m311.3783 165.94545c106.79526 0 160.1929 9.763779 213.59052 19.527573c26.698853 4.8818817 53.397644 9.763779 86.77118 13.425186c16.686768 1.830719 35.042175 3.356308 55.900696 4.4242096c10.429199 0.53396606 21.48413 0.95350647 33.269165 1.2395477c5.892578 0.14302063 11.967529 0.2526703 18.238098 0.3265686c1.567688 0.018478394 3.147583 0.034713745 4.739868 0.048675537l0.9633179 0.007019043" fill-rule="evenodd"></path><path fill="#4a86e8" stroke="#4a86e8" stroke-width="4.0" stroke-linecap="butt" d="m724.85114 204.94423l-4.5167847 4.4798126l12.377502 -4.4474945l-12.340515 -4.549103z" fill-rule="evenodd"></path><path fill="#000000" fill-opacity="0.0" d="m187.9441 753.92004l221.10237 0l0 50.33069l-221.10237 0z" fill-rule="evenodd"></path><path fill="#002835" d="m240.7902 767.43787q-0.203125 2.75 -2.046875 4.34375q-1.828125 1.578125 -4.828125 1.578125q-3.28125 0 -5.15625 -2.203125q-1.875 -2.21875 -1.875 -6.078125l0 -1.03125q0 -2.46875 0.859375 -4.34375q0.875 -1.875 2.484375 -2.875q1.609375 -1.0 3.734375 -1.0q2.953125 0 4.75 1.578125q1.8125 1.578125 2.09375 4.4375l-3.515625 0q-0.125 -1.640625 -0.921875 -2.390625q-0.78125 -0.75 -2.40625 -0.75q-1.75 0 -2.625 1.265625q-0.875 1.265625 -0.890625 3.90625l0 1.296875q0 2.765625 0.828125 4.046875q0.84375 1.265625 2.640625 1.265625q1.640625 0 2.4375 -0.734375q0.796875 -0.75 0.921875 -2.3125l3.515625 0zm1.5625 -0.765625q0 -1.890625 0.71875 -3.359375q0.734375 -1.484375 2.09375 -2.296875q1.359375 -0.8125 3.171875 -0.8125q2.5625 0 4.1875 1.578125q1.625 1.5625 1.8125 4.265625l0.015625 0.859375q0 2.921875 -1.625 4.6875q-1.625 1.765625 -4.375 1.765625q-2.734375 0 -4.375 -1.75q-1.625 -1.765625 -1.625 -4.796875l0 -0.140625zm3.375 0.234375q0 1.8125 0.671875 2.765625q0.6875 0.953125 1.953125 0.953125q1.234375 0 1.921875 -0.9375q0.703125 -0.953125 0.703125 -3.015625q0 -1.78125 -0.703125 -2.75q-0.6875 -0.96875 -1.9375 -0.96875q-1.25 0 -1.9375 0.96875q-0.671875 0.96875 -0.671875 2.984375zm13.835922 -6.46875l0.109375 1.46875q1.359375 -1.703125 3.640625 -1.703125q2.015625 0 3.0 1.1875q0.984375 1.1875 1.0 3.546875l0 8.1875l-3.375 0l0 -8.109375q0 -1.078125 -0.46875 -1.5625q-0.46875 -0.484375 -1.5625 -0.484375q-1.4375 0 -2.140625 1.21875l0 8.9375l-3.390625 0l0 -12.6875l3.1875 0zm14.378906 -3.109375l0 3.109375l2.171875 0l0 2.484375l-2.171875 0l0 6.328125q0 0.703125 0.265625 1.015625q0.265625 0.296875 1.03125 0.296875q0.5625 0 1.0 -0.078125l0 2.5625q-1.0 0.3125 -2.046875 0.3125q-3.5625 0 -3.640625 -3.59375l0 -6.84375l-1.84375 0l0 -2.484375l1.84375 0l0 -3.109375l3.390625 0zm11.171875 6.296875q-0.6875 -0.09375 -1.21875 -0.09375q-1.921875 0 -2.515625 1.296875l0 8.296875l-3.390625 0l0 -12.6875l3.203125 0l0.09375 1.515625q1.015625 -1.75 2.828125 -1.75q0.5625 0 1.046875 0.15625l-0.046875 3.265625zm1.1132812 3.046875q0 -1.890625 0.71875 -3.359375q0.734375 -1.484375 2.09375 -2.296875q1.359375 -0.8125 3.171875 -0.8125q2.5625 0 4.1875 1.578125q1.625 1.5625 1.8125 4.265625l0.015625 0.859375q0 2.921875 -1.625 4.6875q-1.625 1.765625 -4.375 1.765625q-2.734375 0 -4.375 -1.75q-1.625 -1.765625 -1.625 -4.796875l0 -0.140625zm3.375 0.234375q0 1.8125 0.671875 2.765625q0.6875 0.953125 1.953125 0.953125q1.234375 0 1.921875 -0.9375q0.703125 -0.953125 0.703125 -3.015625q0 -1.78125 -0.703125 -2.75q-0.6875 -0.96875 -1.9375 -0.96875q-1.25 0 -1.9375 0.96875q-0.671875 0.96875 -0.671875 2.984375zm14.2890625 6.21875l-3.390625 0l0 -18.0l3.390625 0l0 18.0zm13.589844 -17.0625l4.375 12.375l4.359375 -12.375l4.625 0l0 17.0625l-3.53125 0l0 -4.671875l0.34375 -8.046875l-4.59375 12.71875l-2.421875 0l-4.59375 -12.703125l0.359375 8.03125l0 4.671875l-3.515625 0l0 -17.0625l4.59375 0zm22.039062 17.296875q-2.796875 0 -4.546875 -1.703125q-1.75 -1.71875 -1.75 -4.5625l0 -0.328125q0 -1.921875 0.734375 -3.421875q0.75 -1.5 2.09375 -2.3125q1.359375 -0.828125 3.09375 -0.828125q2.59375 0 4.09375 1.640625q1.5 1.640625 1.5 4.65625l0 1.390625l-8.078125 0q0.15625 1.234375 0.984375 1.984375q0.828125 0.75 2.09375 0.75q1.953125 0 3.0625 -1.421875l1.65625 1.875q-0.75 1.078125 -2.0625 1.6875q-1.296875 0.59375 -2.875 0.59375zm-0.390625 -10.40625q-1.0 0 -1.640625 0.6875q-0.625 0.671875 -0.796875 1.9375l4.71875 0l0 -0.265625q-0.03125 -1.125 -0.625 -1.734375q-0.578125 -0.625 -1.65625 -0.625zm14.394531 6.671875q0 -0.625 -0.625 -0.984375q-0.609375 -0.359375 -1.96875 -0.640625q-4.515625 -0.953125 -4.515625 -3.84375q0 -1.6875 1.390625 -2.8125q1.40625 -1.140625 3.671875 -1.140625q2.40625 0 3.84375 1.140625q1.453125 1.140625 1.453125 2.953125l-3.375 0q0 -0.71875 -0.46875 -1.1875q-0.46875 -0.484375 -1.46875 -0.484375q-0.859375 0 -1.328125 0.390625q-0.46875 0.375 -0.46875 0.984375q0 0.5625 0.53125 0.90625q0.53125 0.34375 1.796875 0.59375q1.265625 0.25 2.140625 0.5625q2.6875 0.984375 2.6875 3.421875q0 1.734375 -1.5 2.8125q-1.484375 1.0625 -3.84375 1.0625q-1.59375 0 -2.828125 -0.5625q-1.234375 -0.578125 -1.9375 -1.5625q-0.703125 -1.0 -0.703125 -2.140625l3.21875 0q0.046875 0.90625 0.65625 1.390625q0.625 0.46875 1.671875 0.46875q0.96875 0 1.46875 -0.359375q0.5 -0.375 0.5 -0.96875zm8.777344 -7.796875q1.34375 -1.625 3.390625 -1.625q4.125 0 4.171875 4.796875l0 8.125l-3.375 0l0 -8.03125q0 -1.09375 -0.46875 -1.609375q-0.46875 -0.515625 -1.5625 -0.515625q-1.484375 0 -2.15625 1.140625l0 9.015625l-3.390625 0l0 -18.0l3.390625 0l0 6.703125z" fill-rule="nonzero"></path><path fill="#002835" d="m223.60661 795.18787q0 -2.6875 0.71875 -5.109375q0.71875 -2.421875 2.109375 -4.296875q1.390625 -1.875 3.015625 -2.59375l0.65625 1.828125q-1.703125 1.265625 -2.671875 3.921875q-0.953125 2.640625 -0.953125 6.171875l0 0.375q0 3.546875 0.9375 6.21875q0.953125 2.65625 2.6875 3.96875l-0.65625 1.78125q-1.59375 -0.703125 -2.96875 -2.515625q-1.375 -1.8125 -2.109375 -4.171875q-0.71875 -2.375 -0.765625 -4.953125l0 -0.625zm21.785156 2.015625l2.296875 -12.140625l3.5 0l-3.78125 17.0625l-3.53125 0l-2.78125 -11.421875l-2.78125 11.421875l-3.53125 0l-3.796875 -17.0625l3.515625 0l2.296875 12.109375l2.8125 -12.109375l2.984375 0l2.796875 12.140625zm6.9570312 -1.53125q0 -1.890625 0.71875 -3.359375q0.734375 -1.484375 2.09375 -2.296875q1.3593597 -0.8125 3.1718597 -0.8125q2.5625 0 4.1875 1.578125q1.625 1.5625 1.8125 4.265625l0.015625 0.859375q0 2.921875 -1.625 4.6875q-1.625 1.765625 -4.375 1.765625q-2.7343597 0 -4.3749847 -1.75q-1.625 -1.765625 -1.625 -4.796875l0 -0.140625zm3.375 0.234375q0 1.8125 0.67185974 2.765625q0.6875 0.953125 1.953125 0.953125q1.234375 0 1.921875 -0.9375q0.703125 -0.953125 0.703125 -3.015625q0 -1.78125 -0.703125 -2.75q-0.6875 -0.96875 -1.9375 -0.96875q-1.25 0 -1.9375 0.96875q-0.67185974 0.96875 -0.67185974 2.984375zm17.835922 -3.28125q-0.6875 -0.09375 -1.21875 -0.09375q-1.921875 0 -2.515625 1.296875l0 8.296875l-3.390625 0l0 -12.6875l3.203125 0l0.09375 1.515625q1.015625 -1.75 2.828125 -1.75q0.5625 0 1.046875 0.15625l-0.046875 3.265625zm5.2070312 9.5l-3.390625 0l0 -18.0l3.390625 0l0 18.0zm2.2695312 -6.4375q0 -2.96875 1.328125 -4.71875q1.328125 -1.765625 3.640625 -1.765625q1.84375 0 3.046875 1.390625l0 -6.46875l3.40625 0l0 18.0l-3.0625 0l-0.15625 -1.34375q-1.265625 1.578125 -3.265625 1.578125q-2.234375 0 -3.59375 -1.765625q-1.34375 -1.765625 -1.34375 -4.90625zm3.375 0.25q0 1.78125 0.625 2.734375q0.625 0.9375 1.8125 0.9375q1.5625 0 2.203125 -1.3125l0 -5.015625q-0.625 -1.3125 -2.1875 -1.3125q-2.453125 0 -2.453125 3.96875zm25.71875 1.703125q0 -0.984375 -0.703125 -1.515625q-0.703125 -0.546875 -2.53125 -1.125q-1.828125 -0.59375 -2.890625 -1.171875q-2.90625 -1.578125 -2.90625 -4.234375q0 -1.375 0.765625 -2.453125q0.78125 -1.09375 2.234375 -1.703125q1.46875 -0.609375 3.28125 -0.609375q1.828125 0 3.25 0.671875q1.4375 0.65625 2.234375 1.859375q0.796875 1.203125 0.796875 2.734375l-3.515625 0q0 -1.171875 -0.75 -1.8125q-0.734375 -0.65625 -2.0625 -0.65625q-1.296875 0 -2.015625 0.546875q-0.703125 0.546875 -0.703125 1.4375q0 0.828125 0.828125 1.390625q0.84375 0.5625 2.46875 1.0625q3.0 0.890625 4.375 2.234375q1.375 1.328125 1.375 3.328125q0 2.21875 -1.6875 3.484375q-1.671875 1.25 -4.5 1.25q-1.96875 0 -3.59375 -0.71875q-1.609375 -0.71875 -2.46875 -1.96875q-0.84375 -1.265625 -0.84375 -2.921875l3.53125 0q0 2.828125 3.375 2.828125q1.25 0 1.953125 -0.5q0.703125 -0.515625 0.703125 -1.4375zm17.097656 -1.734375q0 2.921875 -1.328125 4.6875q-1.328125 1.765625 -3.59375 1.765625q-1.921875 0 -3.109375 -1.34375l0 5.984375l-3.390625 0l0 -17.5625l3.140625 0l0.125 1.25q1.234375 -1.484375 3.203125 -1.484375q2.34375 0 3.640625 1.734375q1.3125 1.734375 1.3125 4.78125l0 0.1875zm-3.390625 -0.25q0 -1.765625 -0.625 -2.71875q-0.625 -0.96875 -1.828125 -0.96875q-1.59375 0 -2.1875 1.21875l0 5.1875q0.625 1.25 2.21875 1.25q2.421875 0 2.421875 -3.96875zm12.839844 6.46875q-0.234375 -0.453125 -0.34375 -1.140625q-1.234375 1.375 -3.203125 1.375q-1.859375 0 -3.09375 -1.078125q-1.21875 -1.078125 -1.21875 -2.71875q0 -2.015625 1.484375 -3.09375q1.5 -1.078125 4.328125 -1.09375l1.5625 0l0 -0.71875q0 -0.890625 -0.453125 -1.40625q-0.453125 -0.53125 -1.421875 -0.53125q-0.859375 0 -1.34375 0.40625q-0.484375 0.40625 -0.484375 1.125l-3.390625 0q0 -1.09375 0.671875 -2.03125q0.6875 -0.9375 1.921875 -1.46875q1.25 -0.546875 2.796875 -0.546875q2.34375 0 3.71875 1.1875q1.375 1.171875 1.375 3.3125l0 5.484375q0.015625 1.8125 0.515625 2.734375l0 0.203125l-3.421875 0zm-2.8125 -2.359375q0.75 0 1.375 -0.328125q0.640625 -0.34375 0.953125 -0.90625l0 -2.171875l-1.265625 0q-2.546875 0 -2.703125 1.75l-0.015625 0.203125q0 0.640625 0.4375 1.046875q0.453125 0.40625 1.21875 0.40625zm13.6015625 -0.140625q0.9375 0 1.515625 -0.515625q0.59375 -0.515625 0.609375 -1.375l3.1875 0q-0.015625 1.296875 -0.71875 2.375q-0.6875 1.0625 -1.890625 1.65625q-1.1875 0.59375 -2.640625 0.59375q-2.71875 0 -4.296875 -1.71875q-1.5625 -1.734375 -1.5625 -4.78125l0 -0.234375q0 -2.921875 1.546875 -4.671875q1.5625 -1.75 4.28125 -1.75q2.375 0 3.8125 1.359375q1.4375 1.359375 1.46875 3.609375l-3.1875 0q-0.015625 -0.984375 -0.609375 -1.59375q-0.578125 -0.625 -1.546875 -0.625q-1.171875 0 -1.78125 0.859375q-0.609375 0.859375 -0.609375 2.796875l0 0.34375q0 1.96875 0.59375 2.828125q0.609375 0.84375 1.828125 0.84375zm13.078125 2.734375q-2.796875 0 -4.546875 -1.703125q-1.75 -1.71875 -1.75 -4.5625l0 -0.328125q0 -1.921875 0.734375 -3.421875q0.75 -1.5 2.09375 -2.3125q1.359375 -0.828125 3.09375 -0.828125q2.59375 0 4.09375 1.640625q1.5 1.640625 1.5 4.65625l0 1.390625l-8.078125 0q0.15625 1.234375 0.984375 1.984375q0.828125 0.75 2.09375 0.75q1.953125 0 3.0625 -1.421875l1.65625 1.875q-0.75 1.078125 -2.0625 1.6875q-1.296875 0.59375 -2.875 0.59375zm-0.390625 -10.40625q-1.0 0 -1.640625 0.6875q-0.625 0.671875 -0.796875 1.9375l4.71875 0l0 -0.265625q-0.03125 -1.125 -0.625 -1.734375q-0.578125 -0.625 -1.65625 -0.625zm13.363281 3.5q0 2.65625 -0.765625 5.109375q-0.765625 2.4375 -2.203125 4.3125q-1.421875 1.875 -3.046875 2.578125l-0.65625 -1.78125q1.671875 -1.265625 2.625 -3.875q0.96875 -2.609375 1.0 -6.015625l0 -0.625q0 -3.5 -0.953125 -6.171875q-0.953125 -2.671875 -2.671875 -4.0l0.65625 -1.796875q1.59375 0.6875 3.0 2.515625q1.421875 1.8125 2.203125 4.234375q0.78125 2.40625 0.8125 4.984375l0 0.53125z" fill-rule="nonzero"></path><path fill="#2196f3" fill-opacity="0.4885" d="m776.75006 707.1383l0.08843994 -35.83252l-27.37207 17.733765z" fill-rule="evenodd"></path><path fill="#000000" fill-opacity="0.0" d="m660.654 708.04114l116.57611 -233.3006l116.57617 233.3006z" fill-rule="evenodd"></path><path stroke="#000000" stroke-width="2.0" stroke-linejoin="round" stroke-linecap="butt" d="m660.654 708.04114l116.57611 -233.3006l116.57617 233.3006z" fill-rule="evenodd"></path><path fill="#000000" fill-opacity="0.0" d="m777.2301 474.74054l0 151.00433" fill-rule="evenodd"></path><path stroke="#000000" stroke-width="2.0" stroke-linejoin="round" stroke-linecap="butt" d="m777.2301 474.74054l0 151.00433" fill-rule="evenodd"></path><path fill="#000000" fill-opacity="0.0" d="m773.8697 633.2384l-113.21637 74.80243" fill-rule="evenodd"></path><path stroke="#595959" stroke-width="1.0" stroke-linejoin="round" stroke-linecap="butt" d="m773.8697 633.2384l-113.21637 74.80243" fill-rule="evenodd"></path><path fill="#000000" fill-opacity="0.0" d="m780.5905 633.2384l113.21637 74.80243" fill-rule="evenodd"></path><path stroke="#595959" stroke-width="1.0" stroke-linejoin="round" stroke-linecap="butt" d="m780.5905 633.2384l113.21637 74.80243" fill-rule="evenodd"></path><path fill="#000000" fill-opacity="0.0" d="m718.9225 669.4173l58.31018 38.191223" fill-rule="evenodd"></path><path stroke="#595959" stroke-width="1.0" stroke-linejoin="round" stroke-linecap="butt" d="m718.9225 669.4173l58.31018 38.191223" fill-rule="evenodd"></path><path fill="#000000" fill-opacity="0.0" d="m777.2106 707.58594l58.31018 -38.191223" fill-rule="evenodd"></path><path stroke="#595959" stroke-width="1.0" stroke-linejoin="round" stroke-linecap="butt" d="m777.2106 707.58594l58.31018 -38.191223" fill-rule="evenodd"></path><path fill="#000000" fill-opacity="0.0" d="m777.2106 707.58594l0 -76.33734" fill-rule="evenodd"></path><path stroke="#595959" stroke-width="1.0" stroke-linejoin="round" stroke-linecap="butt" d="m777.2106 707.58594l0 -76.33734" fill-rule="evenodd"></path><path fill="#000000" fill-opacity="0.0" d="m661.5149 707.54456l57.84601 -39.77124l57.84601 39.77124z" fill-rule="evenodd"></path><path fill="#000000" fill-opacity="0.0" d="m777.1885 709.18854l57.84601 -39.77124l57.84601 39.77124z" fill-rule="evenodd"></path><path fill="#000000" fill-opacity="0.0" d="m777.2159 633.93463l57.62494 37.13037l-57.58075 37.13037z" fill-rule="evenodd"></path><path fill="#000000" fill-opacity="0.0" d="m776.3702 633.5095l-56.652405 37.13037l56.696594 37.13037z" fill-rule="evenodd"></path><path fill="#000000" fill-opacity="0.0" d="m690.43787 687.65894l28.911987 19.863037" fill-rule="evenodd"></path><path stroke="#595959" stroke-width="1.0" stroke-linejoin="round" stroke-linecap="butt" d="m690.43787 687.65894l28.911987 19.863037" fill-rule="evenodd"></path><path fill="#000000" fill-opacity="0.0" d="m719.3609 707.54456l86.69159 -55.07483" fill-rule="evenodd"></path><path stroke="#595959" stroke-width="1.0" stroke-linejoin="round" stroke-linecap="butt" d="m719.3609 707.54456l86.69159 -55.07483" fill-rule="evenodd"></path><path fill="#000000" fill-opacity="0.0" d="m748.04395 652.0747l87.0011 57.106323" fill-rule="evenodd"></path><path stroke="#595959" stroke-width="1.0" stroke-linejoin="round" stroke-linecap="butt" d="m748.04395 652.0747l87.0011 57.106323" fill-rule="evenodd"></path><path fill="#000000" fill-opacity="0.0" d="m863.95746 689.3029l-28.911926 19.863037" fill-rule="evenodd"></path><path stroke="#595959" stroke-width="1.0" stroke-linejoin="round" stroke-linecap="butt" d="m863.95746 689.3029l-28.911926 19.863037" fill-rule="evenodd"></path><path fill="#000000" fill-opacity="0.0" d="m660.6344 707.58594l116.57617 -76.33734l116.57617 76.33734z" fill-rule="evenodd"></path><path stroke="#ff0000" stroke-width="2.0" stroke-linejoin="round" stroke-linecap="butt" d="m660.6344 707.58594l116.57617 -76.33734l116.57617 76.33734z" fill-rule="evenodd"></path><path fill="#000000" d="m772.4777 630.142l0 0c0 -2.418396 2.1276855 -4.3789062 4.7523804 -4.3789062l0 0c2.6246338 0 4.7523193 1.9605103 4.7523193 4.3789062l0 0c0 2.418396 -2.1276855 4.3789062 -4.7523193 4.3789062l0 0c-2.6246948 0 -4.7523804 -1.9605103 -4.7523804 -4.3789062z" fill-rule="evenodd"></path><path stroke="#000000" stroke-width="1.0" stroke-linejoin="round" stroke-linecap="butt" d="m772.4777 630.142l0 0c0 -2.418396 2.1276855 -4.3789062 4.7523804 -4.3789062l0 0c2.6246338 0 4.7523193 1.9605103 4.7523193 4.3789062l0 0c0 2.418396 -2.1276855 4.3789062 -4.7523193 4.3789062l0 0c-2.6246948 0 -4.7523804 -1.9605103 -4.7523804 -4.3789062z" fill-rule="evenodd"></path><path fill="#000000" d="m772.4593 476.0604l0 0c0 -2.418396 2.1277466 -4.3789062 4.7523804 -4.3789062l0 0c2.6246338 0 4.7523193 1.9605103 4.7523193 4.3789062l0 0c0 2.418396 -2.1276855 4.3789062 -4.7523193 4.3789062l0 0c-2.6246338 0 -4.7523804 -1.9605103 -4.7523804 -4.3789062z" fill-rule="evenodd"></path><path stroke="#000000" stroke-width="1.0" stroke-linejoin="round" stroke-linecap="butt" d="m772.4593 476.0604l0 0c0 -2.418396 2.1277466 -4.3789062 4.7523804 -4.3789062l0 0c2.6246338 0 4.7523193 1.9605103 4.7523193 4.3789062l0 0c0 2.418396 -2.1276855 4.3789062 -4.7523193 4.3789062l0 0c-2.6246338 0 -4.7523804 -1.9605103 -4.7523804 -4.3789062z" fill-rule="evenodd"></path><path fill="#000000" d="m888.2582 706.4643l0 0c0 -2.418396 2.1276855 -4.3789062 4.7523193 -4.3789062l0 0c2.6246338 0 4.7523804 1.9605103 4.7523804 4.3789062l0 0c0 2.418396 -2.1277466 4.3789062 -4.7523804 4.3789062l0 0c-2.6246338 0 -4.7523193 -1.9605103 -4.7523193 -4.3789062z" fill-rule="evenodd"></path><path stroke="#000000" stroke-width="1.0" stroke-linejoin="round" stroke-linecap="butt" d="m888.2582 706.4643l0 0c0 -2.418396 2.1276855 -4.3789062 4.7523193 -4.3789062l0 0c2.6246338 0 4.7523804 1.9605103 4.7523804 4.3789062l0 0c0 2.418396 -2.1277466 4.3789062 -4.7523804 4.3789062l0 0c-2.6246338 0 -4.7523193 -1.9605103 -4.7523193 -4.3789062z" fill-rule="evenodd"></path><path fill="#000000" d="m656.6642 706.4643l0 0c0 -2.418396 2.1276855 -4.3789062 4.7523193 -4.3789062l0 0c2.6246338 0 4.7523193 1.9605103 4.7523193 4.3789062l0 0c0 2.418396 -2.1276855 4.3789062 -4.7523193 4.3789062l0 0c-2.6246338 0 -4.7523193 -1.9605103 -4.7523193 -4.3789062z" fill-rule="evenodd"></path><path stroke="#000000" stroke-width="1.0" stroke-linejoin="round" stroke-linecap="butt" d="m656.6642 706.4643l0 0c0 -2.418396 2.1276855 -4.3789062 4.7523193 -4.3789062l0 0c2.6246338 0 4.7523193 1.9605103 4.7523193 4.3789062l0 0c0 2.418396 -2.1276855 4.3789062 -4.7523193 4.3789062l0 0c-2.6246338 0 -4.7523193 -1.9605103 -4.7523193 -4.3789062z" fill-rule="evenodd"></path><path fill="#000000" fill-opacity="0.0" d="m676.93005 729.4593l200.5669 0l0 81.3858l-200.5669 0z" fill-rule="evenodd"></path><path fill="#002835" d="m712.1315 757.9422l-2.796875 0l0 6.25l-3.515625 0l0 -17.0625l6.328125 0q3.03125 0 4.671875 1.34375q1.640625 1.34375 1.640625 3.8125q0 1.75 -0.765625 2.921875q-0.75 1.15625 -2.28125 1.84375l3.6875 6.96875l0 0.171875l-3.765625 0l-3.203125 -6.25zm-2.796875 -2.84375l2.828125 0q1.328125 0 2.046875 -0.671875q0.734375 -0.671875 0.734375 -1.859375q0 -1.203125 -0.6875 -1.890625q-0.6875 -0.703125 -2.109375 -0.703125l-2.8125 0l0 5.125zm11.050781 2.640625q0 -1.890625 0.71875 -3.359375q0.734375 -1.484375 2.09375 -2.296875q1.359375 -0.8125 3.171875 -0.8125q2.5625 0 4.1875 1.578125q1.625 1.5625 1.8125 4.265625l0.015625 0.859375q0 2.921875 -1.625 4.6875q-1.625 1.765625 -4.375 1.765625q-2.734375 0 -4.375 -1.75q-1.625 -1.765625 -1.625 -4.796875l0 -0.140625zm3.375 0.234375q0 1.8125 0.671875 2.765625q0.6875 0.953125 1.953125 0.953125q1.234375 0 1.921875 -0.9375q0.703125 -0.953125 0.703125 -3.015625q0 -1.78125 -0.703125 -2.75q-0.6875 -0.96875 -1.9375 -0.96875q-1.25 0 -1.9375 0.96875q-0.671875 0.96875 -0.671875 2.984375zm10.1953125 -0.234375q0 -1.890625 0.71875 -3.359375q0.734375 -1.484375 2.09375 -2.296875q1.359375 -0.8125 3.171875 -0.8125q2.5625 0 4.1875 1.578125q1.625 1.5625 1.8125 4.265625l0.015625 0.859375q0 2.921875 -1.625 4.6875q-1.625 1.765625 -4.375 1.765625q-2.734375 0 -4.375 -1.75q-1.625 -1.765625 -1.625 -4.796875l0 -0.140625zm3.375 0.234375q0 1.8125 0.671875 2.765625q0.6875 0.953125 1.953125 0.953125q1.234375 0 1.921875 -0.9375q0.703125 -0.953125 0.703125 -3.015625q0 -1.78125 -0.703125 -2.75q-0.6875 -0.96875 -1.9375 -0.96875q-1.25 0 -1.9375 0.96875q-0.671875 0.96875 -0.671875 2.984375zm14.7734375 -9.578125l0 3.109375l2.171875 0l0 2.484375l-2.171875 0l0 6.328125q0 0.703125 0.265625 1.015625q0.265625 0.296875 1.03125 0.296875q0.5625 0 1.0 -0.078125l0 2.5625q-1.0 0.3125 -2.046875 0.3125q-3.5625 0 -3.640625 -3.59375l0 -6.84375l-1.84375 0l0 -2.484375l1.84375 0l0 -3.109375l3.390625 0zm23.101562 1.578125l-5.234375 0l0 14.21875l-3.515625 0l0 -14.21875l-5.15625 0l0 -2.84375l13.90625 0l0 2.84375zm8.894531 4.71875q-0.6875 -0.09375 -1.21875 -0.09375q-1.921875 0 -2.515625 1.296875l0 8.296875l-3.390625 0l0 -12.6875l3.203125 0l0.09375 1.515625q1.015625 -1.75 2.828125 -1.75q0.5625 0 1.046875 0.15625l-0.046875 3.265625zm5.2070312 9.5l-3.390625 0l0 -12.6875l3.390625 0l0 12.6875zm-3.59375 -15.96875q0 -0.75 0.5 -1.234375q0.515625 -0.5 1.390625 -0.5q0.875 0 1.390625 0.5q0.515625 0.484375 0.515625 1.234375q0 0.78125 -0.53125 1.28125q-0.515625 0.484375 -1.375 0.484375q-0.84375 0 -1.375 -0.484375q-0.515625 -0.5 -0.515625 -1.28125zm13.738281 15.96875q-0.234375 -0.453125 -0.34375 -1.140625q-1.234375 1.375 -3.203125 1.375q-1.859375 0 -3.09375 -1.078125q-1.21875 -1.078125 -1.21875 -2.71875q0 -2.015625 1.484375 -3.09375q1.5 -1.078125 4.328125 -1.09375l1.5625 0l0 -0.71875q0 -0.890625 -0.453125 -1.40625q-0.453125 -0.53125 -1.421875 -0.53125q-0.859375 0 -1.34375 0.40625q-0.484375 0.40625 -0.484375 1.125l-3.390625 0q0 -1.09375 0.671875 -2.03125q0.6875 -0.9375 1.921875 -1.46875q1.25 -0.546875 2.796875 -0.546875q2.34375 0 3.71875 1.1875q1.375 1.171875 1.375 3.3125l0 5.484375q0.015625 1.8125 0.515625 2.734375l0 0.203125l-3.421875 0zm-2.8125 -2.359375q0.75 0 1.375 -0.328125q0.640625 -0.34375 0.953125 -0.90625l0 -2.171875l-1.265625 0q-2.546875 0 -2.703125 1.75l-0.015625 0.203125q0 0.640625 0.4375 1.046875q0.453125 0.40625 1.21875 0.40625zm11.4453125 -10.328125l0.109375 1.46875q1.359375 -1.703125 3.640625 -1.703125q2.015625 0 3.0 1.1875q0.984375 1.1875 1.0 3.546875l0 8.1875l-3.375 0l0 -8.109375q0 -1.078125 -0.46875 -1.5625q-0.46875 -0.484375 -1.5625 -0.484375q-1.4375 0 -2.140625 1.21875l0 8.9375l-3.390625 0l0 -12.6875l3.1875 0zm9.832031 6.25q0 -2.921875 1.390625 -4.703125q1.390625 -1.78125 3.734375 -1.78125q2.09375 0 3.25 1.4375l0.140625 -1.203125l3.078125 0l0 12.265625q0 1.671875 -0.765625 2.890625q-0.75 1.234375 -2.125 1.875q-1.375 0.65625 -3.203125 0.65625q-1.40625 0 -2.734375 -0.5625q-1.3125 -0.5625 -2.0 -1.4375l1.5 -2.0625q1.265625 1.421875 3.078125 1.421875q1.34375 0 2.09375 -0.71875q0.75 -0.71875 0.75 -2.046875l0 -0.6875q-1.171875 1.328125 -3.078125 1.328125q-2.28125 0 -3.703125 -1.78125q-1.40625 -1.796875 -1.40625 -4.75l0 -0.140625zm3.390625 0.25q0 1.71875 0.6875 2.703125q0.6875 0.96875 1.890625 0.96875q1.546875 0 2.21875 -1.15625l0 -5.328125q-0.671875 -1.15625 -2.1875 -1.15625q-1.21875 0 -1.921875 1.0q-0.6875 0.984375 -0.6875 2.96875zm14.371094 6.1875l-3.390625 0l0 -18.0l3.390625 0l0 18.0zm8.628906 0.234375q-2.796875 0 -4.546875 -1.703125q-1.75 -1.71875 -1.75 -4.5625l0 -0.328125q0 -1.921875 0.734375 -3.421875q0.75 -1.5 2.09375 -2.3125q1.359375 -0.828125 3.09375 -0.828125q2.59375 0 4.09375 1.640625q1.5 1.640625 1.5 4.65625l0 1.390625l-8.078125 0q0.15625 1.234375 0.984375 1.984375q0.828125 0.75 2.09375 0.75q1.953125 0 3.0625 -1.421875l1.65625 1.875q-0.75 1.078125 -2.0625 1.6875q-1.296875 0.59375 -2.875 0.59375zm-0.390625 -10.40625q-1.0 0 -1.640625 0.6875q-0.625 0.671875 -0.796875 1.9375l4.71875 0l0 -0.265625q-0.03125 -1.125 -0.625 -1.734375q-0.578125 -0.625 -1.65625 -0.625z" fill-rule="nonzero"></path><path fill="#002835" d="m712.069 786.2547q0 -2.6875 0.71875 -5.109375q0.71875 -2.421875 2.109375 -4.296875q1.390625 -1.875 3.015625 -2.59375l0.65625 1.828125q-1.703125 1.265625 -2.671875 3.921875q-0.953125 2.640625 -0.953125 6.171875l0 0.375q0 3.546875 0.9375 6.21875q0.953125 2.65625 2.6875 3.96875l-0.65625 1.78125q-1.59375 -0.703125 -2.96875 -2.515625q-1.375 -1.8125 -2.109375 -4.171875q-0.71875 -2.375 -0.765625 -4.953125l0 -0.625zm21.410156 -10.125l0 11.234375q0 2.796875 -1.75 4.4375q-1.75 1.625 -4.78125 1.625q-3.0 0 -4.765625 -1.578125q-1.75 -1.59375 -1.78125 -4.359375l0 -11.359375l3.515625 0l0 11.265625q0 1.671875 0.796875 2.4375q0.8125 0.765625 2.234375 0.765625q2.953125 0 3.0 -3.109375l0 -11.359375l3.53125 0zm5.78125 4.375l0.109375 1.46875q1.359375 -1.703125 3.640625 -1.703125q2.015625 0 3.0 1.1875q0.984375 1.1875 1.0 3.546875l0 8.1875l-3.375 0l0 -8.109375q0 -1.078125 -0.46875 -1.5625q-0.46875 -0.484375 -1.5625 -0.484375q-1.4375 0 -2.140625 1.21875l0 8.9375l-3.390625 0l0 -12.6875l3.1875 0zm13.894531 12.6875l-3.390625 0l0 -12.6875l3.390625 0l0 12.6875zm-3.59375 -15.96875q0 -0.75 0.5 -1.234375q0.515625 -0.5 1.390625 -0.5q0.875 0 1.390625 0.5q0.515625 0.484375 0.515625 1.234375q0 0.78125 -0.53125 1.28125q-0.515625 0.484375 -1.375 0.484375q-0.84375 0 -1.375 -0.484375q-0.515625 -0.5 -0.515625 -1.28125zm10.441406 0.171875l0 3.109375l2.171875 0l0 2.484375l-2.171875 0l0 6.328125q0 0.703125 0.265625 1.015625q0.265625 0.296875 1.03125 0.296875q0.5625 0 1.0 -0.078125l0 2.5625q-1.0 0.3125 -2.046875 0.3125q-3.5625 0 -3.640625 -3.59375l0 -6.84375l-1.84375 0l0 -2.484375l1.84375 0l0 -3.109375l3.390625 0zm19.101562 11.3125q0 -0.984375 -0.703125 -1.515625q-0.703125 -0.546875 -2.53125 -1.125q-1.828125 -0.59375 -2.890625 -1.171875q-2.90625 -1.578125 -2.90625 -4.234375q0 -1.375 0.765625 -2.453125q0.78125 -1.09375 2.234375 -1.703125q1.46875 -0.609375 3.28125 -0.609375q1.828125 0 3.25 0.671875q1.4375 0.65625 2.234375 1.859375q0.796875 1.203125 0.796875 2.734375l-3.515625 0q0 -1.171875 -0.75 -1.8125q-0.734375 -0.65625 -2.0625 -0.65625q-1.296875 0 -2.015625 0.546875q-0.703125 0.546875 -0.703125 1.4375q0 0.828125 0.828125 1.390625q0.84375 0.5625 2.46875 1.0625q3.0 0.890625 4.375 2.234375q1.375 1.328125 1.375 3.328125q0 2.21875 -1.6875 3.484375q-1.671875 1.25 -4.5 1.25q-1.96875 0 -3.59375 -0.71875q-1.609375 -0.71875 -2.46875 -1.96875q-0.84375 -1.265625 -0.84375 -2.921875l3.53125 0q0 2.828125 3.375 2.828125q1.25 0 1.953125 -0.5q0.703125 -0.515625 0.703125 -1.4375zm17.097656 -1.734375q0 2.921875 -1.328125 4.6875q-1.328125 1.765625 -3.59375 1.765625q-1.921875 0 -3.109375 -1.34375l0 5.984375l-3.390625 0l0 -17.5625l3.140625 0l0.125 1.25q1.234375 -1.484375 3.203125 -1.484375q2.34375 0 3.640625 1.734375q1.3125 1.734375 1.3125 4.78125l0 0.1875zm-3.390625 -0.25q0 -1.765625 -0.625 -2.71875q-0.625 -0.96875 -1.828125 -0.96875q-1.59375 0 -2.1875 1.21875l0 5.1875q0.625 1.25 2.21875 1.25q2.421875 0 2.421875 -3.96875zm12.839844 6.46875q-0.234375 -0.453125 -0.34375 -1.140625q-1.234375 1.375 -3.203125 1.375q-1.859375 0 -3.09375 -1.078125q-1.21875 -1.078125 -1.21875 -2.71875q0 -2.015625 1.484375 -3.09375q1.5 -1.078125 4.328125 -1.09375l1.5625 0l0 -0.71875q0 -0.890625 -0.453125 -1.40625q-0.453125 -0.53125 -1.421875 -0.53125q-0.859375 0 -1.34375 0.40625q-0.484375 0.40625 -0.484375 1.125l-3.390625 0q0 -1.09375 0.671875 -2.03125q0.6875 -0.9375 1.921875 -1.46875q1.25 -0.546875 2.796875 -0.546875q2.34375 0 3.71875 1.1875q1.375 1.171875 1.375 3.3125l0 5.484375q0.015625 1.8125 0.515625 2.734375l0 0.203125l-3.421875 0zm-2.8125 -2.359375q0.75 0 1.375 -0.328125q0.640625 -0.34375 0.953125 -0.90625l0 -2.171875l-1.265625 0q-2.546875 0 -2.703125 1.75l-0.015625 0.203125q0 0.640625 0.4375 1.046875q0.453125 0.40625 1.21875 0.40625zm13.6015625 -0.140625q0.9375 0 1.515625 -0.515625q0.59375 -0.515625 0.609375 -1.375l3.1875 0q-0.015625 1.296875 -0.71875 2.375q-0.6875 1.0625 -1.890625 1.65625q-1.1875 0.59375 -2.640625 0.59375q-2.71875 0 -4.296875 -1.71875q-1.5625 -1.734375 -1.5625 -4.78125l0 -0.234375q0 -2.921875 1.546875 -4.671875q1.5625 -1.75 4.28125 -1.75q2.375 0 3.8125 1.359375q1.4375 1.359375 1.46875 3.609375l-3.1875 0q-0.015625 -0.984375 -0.609375 -1.59375q-0.578125 -0.625 -1.546875 -0.625q-1.171875 0 -1.78125 0.859375q-0.609375 0.859375 -0.609375 2.796875l0 0.34375q0 1.96875 0.59375 2.828125q0.609375 0.84375 1.828125 0.84375zm13.078125 2.734375q-2.796875 0 -4.546875 -1.703125q-1.75 -1.71875 -1.75 -4.5625l0 -0.328125q0 -1.921875 0.734375 -3.421875q0.75 -1.5 2.09375 -2.3125q1.359375 -0.828125 3.09375 -0.828125q2.59375 0 4.09375 1.640625q1.5 1.640625 1.5 4.65625l0 1.390625l-8.078125 0q0.15625 1.234375 0.984375 1.984375q0.828125 0.75 2.09375 0.75q1.953125 0 3.0625 -1.421875l1.65625 1.875q-0.75 1.078125 -2.0625 1.6875q-1.296875 0.59375 -2.875 0.59375zm-0.390625 -10.40625q-1.0 0 -1.640625 0.6875q-0.625 0.671875 -0.796875 1.9375l4.71875 0l0 -0.265625q-0.03125 -1.125 -0.625 -1.734375q-0.578125 -0.625 -1.65625 -0.625zm13.363281 3.5q0 2.65625 -0.765625 5.109375q-0.765625 2.4375 -2.203125 4.3125q-1.421875 1.875 -3.046875 2.578125l-0.65625 -1.78125q1.671875 -1.265625 2.625 -3.875q0.96875 -2.609375 1.0 -6.015625l0 -0.625q0 -3.5 -0.953125 -6.171875q-0.953125 -2.671875 -2.671875 -4.0l0.65625 -1.796875q1.59375 0.6875 3.0 2.515625q1.421875 1.8125 2.203125 4.234375q0.78125 2.40625 0.8125 4.984375l0 0.53125z" fill-rule="nonzero"></path><path fill="#000000" fill-opacity="0.0" d="m768.6268 167.5747c107.24994 0 206.14166 125.46457 214.49994 250.92914c8.358215 125.46454 -73.816895 250.92914 -147.63379 250.92914" fill-rule="evenodd"></path><path stroke="#ff0000" stroke-width="4.0" stroke-linejoin="round" stroke-linecap="butt" d="m768.62683 167.5747c107.24988 0 206.14154 125.46457 214.49982 250.92914c4.179138 62.7323 -14.275085 125.4646 -43.00116 172.5138c-14.363098 23.524597 -31.294128 43.128418 -49.247925 56.851135c-8.976868 6.861328 -18.209473 12.25238 -27.504639 15.928101c-1.1618652 0.45947266 -2.324768 0.8921509 -3.4882202 1.2975464l-0.7418823 0.25408936" fill-rule="evenodd"></path><path fill="#ff0000" stroke="#ff0000" stroke-width="4.0" stroke-linecap="butt" d="m858.01843 658.83795l-16.763184 9.5998535l19.012024 3.4212036z" fill-rule="evenodd"></path><path fill="#d9d9d9" d="m168.3063 715.40485l130.189 -249.51184l130.18896 249.51184z" fill-rule="evenodd"></path><path stroke="#595959" stroke-width="2.0" stroke-linejoin="round" stroke-linecap="butt" d="m168.3063 715.40485l130.189 -249.51184l130.18896 249.51184z" fill-rule="evenodd"></path><path fill="#2196f3" fill-opacity="0.4885" d="m297.976 714.435l0.098724365 -38.325012l-30.572205 18.967346z" fill-rule="evenodd"></path><path fill="#000000" fill-opacity="0.0" d="m298.4953 465.893l-0.03149414 167.37006" fill-rule="evenodd"></path><path stroke="#595959" stroke-width="2.0" stroke-linejoin="round" stroke-linecap="butt" d="m298.4953 465.893l-0.03149414 167.37006" fill-rule="evenodd"></path><path fill="#000000" fill-opacity="0.0" d="m294.7315 635.40485l-126.4252 80.0" fill-rule="evenodd"></path><path stroke="#595959" stroke-width="1.0" stroke-linejoin="round" stroke-linecap="butt" d="m294.7315 635.40485l-126.4252 80.0" fill-rule="evenodd"></path><path fill="#000000" fill-opacity="0.0" d="m302.25906 635.40485l126.4252 80.0" fill-rule="evenodd"></path><path stroke="#595959" stroke-width="1.0" stroke-linejoin="round" stroke-linecap="butt" d="m302.25906 635.40485l126.4252 80.0" fill-rule="evenodd"></path><path fill="#000000" fill-opacity="0.0" d="m233.37895 674.10547l65.10237 40.81891" fill-rule="evenodd"></path><path stroke="#595959" stroke-width="1.0" stroke-linejoin="round" stroke-linecap="butt" d="m233.37895 674.10547l65.10237 40.81891" fill-rule="evenodd"></path><path fill="#000000" fill-opacity="0.0" d="m298.47345 714.9401l65.102356 -40.81891" fill-rule="evenodd"></path><path stroke="#595959" stroke-width="1.0" stroke-linejoin="round" stroke-linecap="butt" d="m298.47345 714.9401l65.102356 -40.81891" fill-rule="evenodd"></path><path fill="#000000" fill-opacity="0.0" d="m298.47345 714.9401l0 -81.66931" fill-rule="evenodd"></path><path stroke="#595959" stroke-width="1.0" stroke-linejoin="round" stroke-linecap="butt" d="m298.47345 714.9401l0 -81.66931" fill-rule="evenodd"></path><path fill="#000000" fill-opacity="0.0" d="m169.26788 714.85187l64.62991 -42.519653l64.62991 42.519653z" fill-rule="evenodd"></path><path fill="#000000" fill-opacity="0.0" d="m298.46576 716.61005l64.62991 -42.519714l64.629944 42.519714z" fill-rule="evenodd"></path><path fill="#000000" fill-opacity="0.0" d="m298.48758 636.1434l64.37796 39.700806l-64.31497 39.700806z" fill-rule="evenodd"></path><path fill="#000000" fill-opacity="0.0" d="m297.5581 635.6888l-63.275574 39.700745l63.338593 39.700806z" fill-rule="evenodd"></path><path fill="#000000" fill-opacity="0.0" d="m201.58284 693.59204l32.314957 21.259827" fill-rule="evenodd"></path><path stroke="#595959" stroke-width="1.0" stroke-linejoin="round" stroke-linecap="butt" d="m201.58284 693.59204l32.314957 21.259827" fill-rule="evenodd"></path><path fill="#000000" fill-opacity="0.0" d="m233.8978 714.85187l96.787415 -58.86615" fill-rule="evenodd"></path><path stroke="#595959" stroke-width="1.0" stroke-linejoin="round" stroke-linecap="butt" d="m233.8978 714.85187l96.787415 -58.86615" fill-rule="evenodd"></path><path fill="#000000" fill-opacity="0.0" d="m265.92032 655.5392l97.165344 61.07086" fill-rule="evenodd"></path><path stroke="#595959" stroke-width="1.0" stroke-linejoin="round" stroke-linecap="butt" d="m265.92032 655.5392l97.165344 61.07086" fill-rule="evenodd"></path><path fill="#000000" fill-opacity="0.0" d="m395.41064 695.3502l-32.314972 21.259827" fill-rule="evenodd"></path><path stroke="#595959" stroke-width="1.0" stroke-linejoin="round" stroke-linecap="butt" d="m395.41064 695.3502l-32.314972 21.259827" fill-rule="evenodd"></path><path fill="#000000" fill-opacity="0.0" d="m168.28447 714.9401l130.18898 -81.66931l130.18896 81.66931z" fill-rule="evenodd"></path><path stroke="#ff0000" stroke-width="2.0" stroke-linejoin="round" stroke-linecap="butt" d="m168.28447 714.9401l130.18898 -81.66931l130.18896 81.66931z" fill-rule="evenodd"></path><path fill="#b7b7b7" d="m428.4419 714.9618l-129.93097 -249.0693l159.93875 148.67722z" fill-rule="evenodd"></path><path stroke="#595959" stroke-width="2.0" stroke-linejoin="round" stroke-linecap="butt" d="m428.4419 714.9618l-129.93097 -249.0693l159.93875 148.67722z" fill-rule="evenodd"></path><path fill="#000000" fill-opacity="0.0" d="m298.73322 676.5043l-0.56692505 37.543335" fill-rule="evenodd"></path><path stroke="#ff9900" stroke-width="4.0" stroke-linejoin="round" stroke-linecap="butt" d="m298.73322 676.5043l-0.56692505 37.543335" fill-rule="evenodd"></path><path fill="#000000" fill-opacity="0.0" d="m718.942 591.39087c-87.13611 0 -129.85492 -0.18902588 -174.27222 -0.37799072c-44.417328 -0.18896484 -90.53317 -0.3779297 -181.06635 -0.3779297" fill-rule="evenodd"></path><path stroke="#595959" stroke-width="4.0" stroke-linejoin="round" stroke-linecap="butt" d="m718.942 591.3908c-87.13611 0 -129.85492 -0.18896484 -174.27222 -0.3779297c-22.20868 -0.09448242 -44.84195 -0.18896484 -73.23978 -0.25982666c-14.198853 -0.035461426 -29.838867 -0.06500244 -47.587463 -0.085632324c-8.874298 -0.010375977 -18.275757 -0.018493652 -28.28778 -0.023986816c-5.006012 -0.002746582 -10.164673 -0.0048828125 -15.48642 -0.0063476562l-2.7565613 -3.6621094E-4" fill-rule="evenodd"></path><path fill="#595959" stroke="#595959" stroke-width="4.0" stroke-linecap="butt" d="m377.31183 590.6367l4.4989014 -4.4977417l-12.35965 4.496704l12.35849 4.5z" fill-rule="evenodd"></path><path fill="#000000" fill-opacity="0.0" d="m709.66034 579.5607l68.252014 0l0 47.118103l-68.252014 0z" fill-rule="evenodd"></path><path fill="#002835" d="m747.9703 604.38354q0 2.953125 -1.015625 4.40625q-1.015625 1.4375 -3.15625 1.4375q-2.125 0 -3.15625 -1.40625q-1.015625 -1.40625 -1.046875 -4.203125l0 -2.25q0 -2.9375 1.0 -4.359375q1.015625 -1.421875 3.1875 -1.421875q2.140625 0 3.140625 1.375q1.015625 1.375 1.046875 4.234375l0 2.1875zm-1.6875 -2.3125q0 -2.140625 -0.609375 -3.109375q-0.59375 -0.984375 -1.890625 -0.984375q-1.296875 0 -1.890625 0.984375q-0.59375 0.96875 -0.609375 2.984375l0 2.703125q0 2.140625 0.625 3.171875q0.625 1.03125 1.890625 1.03125q1.25 0 1.84375 -0.96875q0.609375 -0.96875 0.640625 -3.046875l0 -2.765625z" fill-rule="nonzero"></path><path fill="#000000" fill-opacity="0.0" d="m768.6208 579.5607l81.60626 0l0 47.118103l-81.60626 0z" fill-rule="evenodd"></path><path fill="#002835" d="m810.8266 610.0398l-1.6875 0l0 -11.234375l-3.40625 1.25l0 -1.53125l4.828125 -1.8125l0.265625 0l0 13.328125z" fill-rule="nonzero"></path><path fill="#000000" fill-opacity="0.0" d="m835.979 710.8358l81.60632 0l0 47.118103l-81.60632 0z" fill-rule="evenodd"></path><path fill="#002835" d="m881.34106 741.3149l-8.6875 0l0 -1.21875l4.578125 -5.09375q1.03125 -1.15625 1.40625 -1.875q0.390625 -0.734375 0.390625 -1.5q0 -1.046875 -0.625 -1.703125q-0.625 -0.671875 -1.671875 -0.671875q-1.265625 0 -1.96875 0.71875q-0.6875 0.71875 -0.6875 1.984375l-1.6875 0q0 -1.828125 1.171875 -2.953125q1.1875 -1.140625 3.171875 -1.140625q1.84375 0 2.921875 0.984375q1.078125 0.96875 1.078125 2.578125q0 1.953125 -2.5 4.65625l-3.546875 3.859375l6.65625 0l0 1.375z" fill-rule="nonzero"></path></g></svg>

