<?xml version="1.0" standalone="yes"?>

<svg version="1.1" viewBox="0.0 0.0 1280.0 960.0" fill="none" stroke="none" stroke-linecap="square" stroke-miterlimit="10" xmlns="http://www.w3.org/2000/svg" xmlns:xlink="http://www.w3.org/1999/xlink"><clipPath id="p.0"><path d="m0 0l1280.0 0l0 960.0l-1280.0 0l0 -960.0z" clip-rule="nonzero"></path></clipPath><g clip-path="url(#p.0)"><path fill="#000000" fill-opacity="0.0" d="m0 0l1280.0 0l0 960.0l-1280.0 0z" fill-rule="evenodd"></path><path fill="#00ff00" fill-opacity="0.6731" d="m747.0 565.03937l250.47241 -272.18896l250.47241 272.18896z" fill-rule="evenodd"></path><path fill="#000000" fill-opacity="0.0" d="m743.56885 567.0068l0 -550.50433l504.37036 550.50433z" fill-rule="evenodd"></path><path stroke="#595959" stroke-width="4.0" stroke-linejoin="round" stroke-linecap="butt" d="m743.56885 567.0068l0 -550.50433l504.37036 550.50433z" fill-rule="evenodd"></path><path fill="#000000" fill-opacity="0.0" d="m995.754 291.7546l-252.18518 0" fill-rule="evenodd"></path><path stroke="#595959" stroke-width="4.0" stroke-linejoin="round" stroke-linecap="butt" d="m995.754 291.7546l-252.18518 0" fill-rule="evenodd"></path><path fill="#000000" fill-opacity="0.0" d="m995.754 291.7546l-252.18518 275.25217" fill-rule="evenodd"></path><path stroke="#595959" stroke-width="4.0" stroke-linejoin="round" stroke-linecap="butt" d="m995.754 291.7546l-252.18518 275.25217" fill-rule="evenodd"></path><path fill="#00ff00" fill-opacity="0.6731" d="m311.82153 567.46454l0 -274.61414l-252.25198 274.61414z" fill-rule="evenodd"></path><path stroke="#000000" stroke-width="4.0" stroke-linejoin="round" stroke-linecap="butt" d="m311.82153 567.46454l0 -274.61414l-252.25198 274.61414z" fill-rule="evenodd"></path><path fill="#2196f3" fill-opacity="0.4885" d="m311.75592 567.46454l0 -274.61414l252.25195 274.61414z" fill-rule="evenodd"></path><path stroke="#000000" stroke-width="4.0" stroke-linejoin="round" stroke-linecap="butt" d="m311.75592 567.46454l0 -274.61414l252.25195 274.61414z" fill-rule="evenodd"></path><path fill="#000000" fill-opacity="0.0" d="m59.56882 567.54877l0 -550.50433l504.3704 550.50433z" fill-rule="evenodd"></path><path stroke="#595959" stroke-width="4.0" stroke-linejoin="round" stroke-linecap="butt" d="m59.56882 567.54877l0 -550.50433l504.3704 550.50433z" fill-rule="evenodd"></path><path fill="#000000" fill-opacity="0.0" d="m311.75403 292.2966l-252.18521 0" fill-rule="evenodd"></path><path stroke="#595959" stroke-width="4.0" stroke-linejoin="round" stroke-linecap="butt" d="m311.75403 292.2966l-252.18521 0" fill-rule="evenodd"></path><path fill="#000000" fill-opacity="0.0" d="m311.75403 292.2966l-252.18521 275.25217" fill-rule="evenodd"></path><path stroke="#595959" stroke-width="4.0" stroke-linejoin="round" stroke-linecap="butt" d="m311.75403 292.2966l-252.18521 275.25217" fill-rule="evenodd"></path><path fill="#000000" fill-opacity="0.0" d="m311.75403 292.2966l0 275.25217" fill-rule="evenodd"></path><path stroke="#595959" stroke-width="4.0" stroke-linejoin="round" stroke-linecap="butt" d="m311.75403 292.2966l0 275.25217" fill-rule="evenodd"></path><path fill="#000000" fill-opacity="0.0" d="m59.576683 567.50397l0 376.5354l504.37796 -376.5354z" fill-rule="evenodd"></path><path stroke="#595959" stroke-width="4.0" stroke-linejoin="round" stroke-linecap="butt" d="m59.576683 567.50397l0 376.5354l504.37796 -376.5354z" fill-rule="evenodd"></path><path fill="#000000" fill-opacity="0.0" d="m265.8793 562.6693l0 0c0 -27.092407 21.871063 -49.055115 48.850372 -49.055115l0 0c12.955933 0 25.381226 5.168274 34.54245 14.367859c9.161224 9.199646 14.307953 21.677002 14.307953 34.687256l0 0c0 27.092346 -21.871063 49.055115 -48.850403 49.055115l0 0c-26.97931 0 -48.850372 -21.962769 -48.850372 -49.055115z" fill-rule="evenodd"></path><path stroke="#ff0000" stroke-width="8.0" stroke-linejoin="round" stroke-linecap="butt" d="m265.8793 562.6693l0 0c0 -27.092407 21.871063 -49.055115 48.850372 -49.055115l0 0c12.955933 0 25.381226 5.168274 34.54245 14.367859c9.161224 9.199646 14.307953 21.677002 14.307953 34.687256l0 0c0 27.092346 -21.871063 49.055115 -48.850403 49.055115l0 0c-26.97931 0 -48.850372 -21.962769 -48.850372 -49.055115z" fill-rule="evenodd"></path><path fill="#000000" fill-opacity="0.0" d="m85.67746 143.0371l107.65355 0l0 132.59843l-107.65355 0z" fill-rule="evenodd"></path><path fill="#000000" d="m151.03157 212.30693q0 7.078125 -2.9375 10.828125q-2.921875 3.75 -8.578125 3.75q-5.578125 0 -8.53125 -3.671875q-2.953125 -3.6875 -3.015625 -10.5625l0 -6.28125q0 -7.140625 2.953125 -10.84375q2.96875 -3.703125 8.546875 -3.703125q5.578125 0 8.53125 3.671875q2.953125 3.65625 3.03125 10.53125l0 6.28125zm-6.78125 -6.890625q0 -4.25 -1.15625 -6.171875q-1.15625 -1.9375 -3.625 -1.9375q-2.390625 0 -3.53125 1.84375q-1.125 1.828125 -1.203125 5.75l0 8.296875q0 4.171875 1.140625 6.203125q1.140625 2.015625 3.640625 2.015625q2.484375 0 3.578125 -1.9375q1.109375 -1.953125 1.15625 -5.953125l0 -8.109375z" fill-rule="nonzero"></path><path fill="#000000" fill-opacity="0.0" d="m85.67746 307.2688l107.65355 0l0 132.59845l-107.65355 0z" fill-rule="evenodd"></path><path fill="#000000" d="m144.51595 390.648l-6.78125 0l0 -26.109375l-8.078125 2.5l0 -5.5l14.125 -5.0625l0.734375 0l0 34.171875z" fill-rule="nonzero"></path><path fill="#000000" fill-opacity="0.0" d="m336.00598 405.23157l107.653534 0l0 132.59845l-107.653534 0z" fill-rule="evenodd"></path><path fill="#000000" d="m385.28195 468.54828l3.609375 0q2.578125 0 3.8125 -1.28125q1.25 -1.296875 1.25 -3.4375q0 -2.0625 -1.234375 -3.203125q-1.234375 -1.15625 -3.390625 -1.15625q-1.9375 0 -3.25 1.078125q-1.3125 1.0625 -1.3125 2.765625l-6.78125 0q0 -2.671875 1.4375 -4.78125q1.453125 -2.125 4.03125 -3.3125q2.59375 -1.203125 5.71875 -1.203125q5.40625 0 8.46875 2.59375q3.078125 2.578125 3.078125 7.125q0 2.34375 -1.4375 4.3125q-1.421875 1.96875 -3.734375 3.03125q2.875 1.03125 4.296875 3.09375q1.421875 2.0625 1.421875 4.875q0 4.546875 -3.328125 7.296875q-3.3125 2.734375 -8.765625 2.734375q-5.109375 0 -8.359375 -2.6875q-3.25 -2.703125 -3.25 -7.140625l6.78125 0q0 1.921875 1.4375 3.140625q1.4375 1.21875 3.546875 1.21875q2.421875 0 3.78125 -1.265625q1.375 -1.28125 1.375 -3.390625q0 -5.109375 -5.625 -5.109375l-3.578125 0l0 -5.296875z" fill-rule="nonzero"></path><path fill="#000000" fill-opacity="0.0" d="m235.34102 548.5609c0 46.878113 34.592545 106.06464 75.102005 110.93384c40.287262 4.8425293 100.93002 -1.0128784 115.1564 -44.66394c7.145355 -21.924194 -19.687347 -41.000305 -28.785828 -61.944153" fill-rule="evenodd"></path><path stroke="#6aa84f" stroke-width="8.0" stroke-linejoin="round" stroke-linecap="butt" d="m235.34102 548.5609c0 46.878174 34.592545 106.06464 75.102005 110.93384c40.287292 4.8425293 100.92999 -1.0128784 115.15637 -44.66394c3.5726929 -10.962097 -1.3491516 -21.21222 -8.301453 -31.339722c-1.7380676 -2.5319214 -3.6030579 -5.0560913 -5.493927 -7.581909l-0.033721924 -0.04486084" fill-rule="evenodd"></path><path fill="#6aa84f" stroke="#6aa84f" stroke-width="8.0" stroke-linecap="butt" d="m411.77032 575.8643l12.447968 2.632019l-21.024567 -15.808044l5.9445496 25.623962z" fill-rule="evenodd"></path><path fill="#000000" fill-opacity="0.0" d="m363.57712 384.65497c52.582855 -62.85022 115.86746 -147.00378 191.5068 -141.1837" fill-rule="evenodd"></path><path stroke="#1155cc" stroke-width="8.0" stroke-linejoin="round" stroke-linecap="butt" d="m363.57715 384.65497c26.291412 -31.42511 55.25827 -68.176056 87.10721 -96.3432c15.924438 -14.083588 32.569458 -26.02124 49.960785 -34.07422c4.347809 -2.0132446 8.742279 -3.7836914 13.183777 -5.284195c2.2207642 -0.75024414 4.453308 -1.4330139 6.697632 -2.0448914c1.1221924 -0.30593872 2.2473145 -0.59413147 3.3753662 -0.86421204c0.28204346 -0.06752014 0.56427 -0.13389587 0.84661865 -0.19914246l0.10662842 -0.02418518" fill-rule="evenodd"></path><path fill="#1155cc" stroke="#1155cc" stroke-width="8.0" stroke-linecap="butt" d="m523.83527 232.70052l26.240845 -2.0397034l2.039734 26.24086l-26.240845 2.0396729l-2.039734 -26.24083z" fill-rule="nonzero"></path><path fill="#000000" fill-opacity="0.0" d="m193.30748 405.23157l107.65355 0l0 132.59845l-107.65355 0z" fill-rule="evenodd"></path><path fill="#000000" d="m259.08347 488.61078l-23.39061 0l0 -4.640625l11.03125 -11.765625q2.28125 -2.484375 3.359375 -4.328125q1.09375 -1.859375 1.09375 -3.53125q0 -2.265625 -1.15625 -3.5625q-1.140625 -1.3125 -3.265625 -1.3125q-2.296875 0 -3.625 1.59375q-1.328125 1.578125 -1.328125 4.15625l-6.796875 0q0 -3.125 1.484375 -5.703125q1.5 -2.578125 4.21875 -4.03125q2.71875 -1.46875 6.15625 -1.46875q5.28125 0 8.1875 2.53125q2.9218597 2.53125 2.9218597 7.140625q0 2.53125 -1.3125 5.15625q-1.3124847 2.625 -4.4999847 6.125l-7.75 8.171875l14.67186 0l0 5.46875z" fill-rule="nonzero"></path><path fill="#000000" fill-opacity="0.0" d="m743.57666 566.9619l0 376.53546l504.37793 -376.53546z" fill-rule="evenodd"></path><path stroke="#595959" stroke-width="4.0" stroke-linejoin="round" stroke-linecap="butt" d="m743.57666 566.9619l0 376.53546l504.37793 -376.53546z" fill-rule="evenodd"></path><path fill="#000000" fill-opacity="0.0" d="m949.8793 562.1273l0 0c0 -27.092407 21.871094 -49.055115 48.850403 -49.055115l0 0c12.955933 0 25.381165 5.168274 34.54242 14.367859c9.161255 9.199646 14.307983 21.677002 14.307983 34.687256l0 0c0 27.092346 -21.871094 49.055115 -48.850403 49.055115l0 0c-26.97931 0 -48.850403 -21.962769 -48.850403 -49.055115z" fill-rule="evenodd"></path><path stroke="#ff0000" stroke-width="8.0" stroke-linejoin="round" stroke-linecap="butt" d="m949.8793 562.1273l0 0c0 -27.092407 21.871094 -49.055115 48.850403 -49.055115l0 0c12.955933 0 25.381165 5.168274 34.54242 14.367859c9.161255 9.199646 14.307983 21.677002 14.307983 34.687256l0 0c0 27.092346 -21.871094 49.055115 -48.850403 49.055115l0 0c-26.97931 0 -48.850403 -21.962769 -48.850403 -49.055115z" fill-rule="evenodd"></path><path fill="#000000" fill-opacity="0.0" d="m769.6774 142.4951l107.653564 0l0 132.59843l-107.653564 0z" fill-rule="evenodd"></path><path fill="#000000" d="m835.03156 211.76494q0 7.078125 -2.9375 10.828125q-2.921875 3.75 -8.578125 3.75q-5.578125 0 -8.53125 -3.671875q-2.953125 -3.6875 -3.015625 -10.5625l0 -6.28125q0 -7.140625 2.953125 -10.84375q2.96875 -3.703125 8.546875 -3.703125q5.578125 0 8.53125 3.671875q2.953125 3.65625 3.03125 10.53125l0 6.28125zm-6.78125 -6.890625q0 -4.25 -1.15625 -6.171875q-1.15625 -1.9375 -3.625 -1.9375q-2.390625 0 -3.53125 1.84375q-1.125 1.828125 -1.203125 5.75l0 8.296875q0 4.171875 1.140625 6.203125q1.140625 2.015625 3.640625 2.015625q2.484375 0 3.578125 -1.9375q1.109375 -1.953125 1.15625 -5.953125l0 -8.109375z" fill-rule="nonzero"></path><path fill="#000000" fill-opacity="0.0" d="m940.6697 362.64496l107.653564 0l0 132.59842l-107.653564 0z" fill-rule="evenodd"></path><path fill="#000000" d="m1006.4457 446.02417l-23.390625 0l0 -4.640625l11.03125 -11.765625q2.28125 -2.484375 3.359375 -4.328125q1.09375 -1.859375 1.09375 -3.53125q0 -2.265625 -1.15625 -3.5625q-1.140625 -1.3125 -3.265625 -1.3125q-2.296875 0 -3.625 1.59375q-1.328125 1.578125 -1.328125 4.15625l-6.796875 0q0 -3.125 1.484375 -5.703125q1.5 -2.578125 4.21875 -4.03125q2.71875 -1.46875 6.15625 -1.46875q5.28125 0 8.1875 2.53125q2.921875 2.53125 2.921875 7.140625q0 2.53125 -1.3125 5.15625q-1.3125 2.625 -4.5 6.125l-7.75 8.171875l14.671875 0l0 5.46875z" fill-rule="nonzero"></path><path fill="#000000" fill-opacity="0.0" d="m769.67755 320.64496l107.653564 0l0 132.59842l-107.653564 0z" fill-rule="evenodd"></path><path fill="#000000" d="m828.51605 404.02417l-6.78125 0l0 -26.109375l-8.078125 2.5l0 -5.5l14.125 -5.0625l0.734375 0l0 34.171875z" fill-rule="nonzero"></path></g></svg>

