<?xml version="1.0" standalone="yes"?>

<svg version="1.1" viewBox="0.0 0.0 800.0 600.0" fill="none" stroke="none" stroke-linecap="square" stroke-miterlimit="10" xmlns="http://www.w3.org/2000/svg" xmlns:xlink="http://www.w3.org/1999/xlink"><clipPath id="p.0"><path d="m0 0l800.0 0l0 600.0l-800.0 0l0 -600.0z" clip-rule="nonzero"></path></clipPath><g clip-path="url(#p.0)"><path fill="#000000" fill-opacity="0.0" d="m0 0l800.0 0l0 600.0l-800.0 0z" fill-rule="evenodd"></path><path fill="#000000" fill-opacity="0.0" d="m355.24326 348.97183l0 188.94485l201.92123 -188.94485z" fill-rule="evenodd"></path><path stroke="#666666" stroke-width="3.0" stroke-linejoin="round" stroke-linecap="butt" stroke-dasharray="12.0,9.0" d="m355.24326 348.97183l0 188.94485l201.92123 -188.94485z" fill-rule="evenodd"></path><path fill="#000000" fill-opacity="0.0" d="m355.24326 349.05853l0 -206.17323l-187.77953 206.17323z" fill-rule="evenodd"></path><path stroke="#666666" stroke-width="3.0" stroke-linejoin="round" stroke-linecap="butt" stroke-dasharray="12.0,9.0" d="m355.24326 349.05853l0 -206.17323l-187.77953 206.17323z" fill-rule="evenodd"></path><path fill="#000000" fill-opacity="0.0" d="m358.41934 62.083298l296.50394 0l0 53.102364l-296.50394 0z" fill-rule="evenodd"></path><path fill="#002835" d="m464.6546 84.55448l-2.734375 0l0 -5.6875l-5.328125 0l0 5.6875l-2.734375 0l0 -13.265625l2.734375 0l0 5.375l5.328125 0l0 -5.375l2.734375 0l0 13.265625zm7.322052 -4.625l-5.125 0l0 -2.109375l5.125 0l0 2.109375zm13.076691 4.625l-2.734375 0l-5.3125 -8.734375l0 8.734375l-2.734375 0l0 -13.265625l2.734375 0l5.328125 8.75l0 -8.75l2.71875 0l0 13.265625zm6.750458 0.1875q-2.171875 0 -3.53125 -1.328125q-1.359375 -1.34375 -1.359375 -3.546875l0 -0.265625q0 -1.484375 0.5625 -2.640625q0.578125 -1.171875 1.625 -1.796875q1.0625 -0.640625 2.40625 -0.640625q2.03125 0 3.1875 1.28125q1.15625 1.265625 1.15625 3.609375l0 1.0625l-6.265625 0q0.125 0.96875 0.765625 1.5625q0.640625 0.578125 1.625 0.578125q1.515625 0 2.375 -1.109375l1.296875 1.453125q-0.59375 0.84375 -1.609375 1.3125q-1.0 0.46875 -2.234375 0.46875zm-0.296875 -8.09375q-0.78125 0 -1.28125 0.53125q-0.484375 0.53125 -0.609375 1.515625l3.65625 0l0 -0.21875q-0.015625 -0.875 -0.484375 -1.34375q-0.453125 -0.484375 -1.28125 -0.484375zm8.6311035 7.90625l-2.65625 0l0 -9.859375l2.65625 0l0 9.859375zm-2.796875 -12.40625q0 -0.59375 0.390625 -0.96875q0.390625 -0.390625 1.078125 -0.390625q0.671875 0 1.0625 0.390625q0.40625 0.375 0.40625 0.96875q0 0.59375 -0.40625 0.984375q-0.390625 0.375 -1.0625 0.375q-0.671875 0 -1.078125 -0.375q-0.390625 -0.390625 -0.390625 -0.984375zm4.5714417 7.40625q0 -2.265625 1.078125 -3.640625q1.078125 -1.390625 2.921875 -1.390625q1.609375 0 2.515625 1.109375l0.109375 -0.9375l2.390625 0l0 9.53125q0 1.296875 -0.59375 2.25q-0.578125 0.953125 -1.65625 1.453125q-1.0625 0.5 -2.484375 0.5q-1.09375 0 -2.125 -0.4375q-1.015625 -0.421875 -1.546875 -1.109375l1.15625 -1.59375q0.984375 1.09375 2.390625 1.09375q1.046875 0 1.625 -0.5625q0.59375 -0.5625 0.59375 -1.578125l0 -0.53125q-0.921875 1.03125 -2.40625 1.03125q-1.765625 0 -2.875 -1.390625q-1.09375 -1.390625 -1.09375 -3.6875l0 -0.109375zm2.640625 0.1875q0 1.34375 0.53125 2.109375q0.546875 0.75 1.484375 0.75q1.203125 0 1.71875 -0.890625l0 -4.15625q-0.53125 -0.890625 -1.703125 -0.890625q-0.953125 0 -1.5 0.78125q-0.53125 0.765625 -0.53125 2.296875zm10.961487 -3.96875q1.046875 -1.25 2.640625 -1.25q3.203125 0 3.25 3.71875l0 6.3125l-2.640625 0l0 -6.234375q0 -0.859375 -0.359375 -1.25q-0.359375 -0.40625 -1.21875 -0.40625q-1.15625 0 -1.671875 0.890625l0 7.0l-2.625 0l0 -14.0l2.625 0l0 5.21875zm16.752014 3.9375q0 2.375 -1.015625 3.703125q-1.0 1.328125 -2.8125 1.328125q-1.609375 0 -2.5625 -1.234375l-0.125 1.046875l-2.359375 0l0 -14.0l2.625 0l0 5.03125q0.921875 -1.0625 2.40625 -1.0625q1.796875 0 2.8125 1.328125q1.03125 1.3125 1.03125 3.71875l0 0.140625zm-2.625 -0.1875q0 -1.484375 -0.484375 -2.171875q-0.46875 -0.6875 -1.40625 -0.6875q-1.25 0 -1.734375 1.015625l0 3.890625q0.484375 1.046875 1.75 1.046875q1.28125 0 1.671875 -1.265625q0.203125 -0.59375 0.203125 -1.828125zm3.8313599 0.015625q0 -1.46875 0.5625 -2.609375q0.578125 -1.15625 1.640625 -1.78125q1.0625 -0.625 2.453125 -0.625q2.0 0 3.265625 1.21875q1.265625 1.21875 1.40625 3.3125l0.015625 0.671875q0 2.265625 -1.265625 3.640625q-1.265625 1.375 -3.40625 1.375q-2.125 0 -3.40625 -1.359375q-1.265625 -1.375 -1.265625 -3.734375l0 -0.109375zm2.640625 0.1875q0 1.40625 0.53125 2.15625q0.53125 0.734375 1.515625 0.734375q0.953125 0 1.484375 -0.734375q0.546875 -0.734375 0.546875 -2.34375q0 -1.375 -0.546875 -2.125q-0.53125 -0.765625 -1.515625 -0.765625q-0.953125 0 -1.484375 0.75q-0.53125 0.75 -0.53125 2.328125zm14.236328 3.828125q-0.984375 1.1875 -2.703125 1.1875q-1.59375 0 -2.421875 -0.90625q-0.828125 -0.921875 -0.84375 -2.671875l0 -6.46875l2.625 0l0 6.375q0 1.53125 1.40625 1.53125q1.34375 0 1.84375 -0.921875l0 -6.984375l2.640625 0l0 9.859375l-2.484375 0l-0.0625 -1.0zm10.064453 -6.390625q-0.53125 -0.0625 -0.9375 -0.0625q-1.5 0 -1.96875 1.0l0 6.453125l-2.625 0l0 -9.859375l2.484375 0l0.078125 1.171875q0.78125 -1.34375 2.1875 -1.34375q0.4375 0 0.828125 0.109375l-0.046875 2.53125z" fill-rule="nonzero"></path><path fill="#002835" d="m463.62802 103.11698l0.9375 -0.953125l0.109375 0.09375l-10.828125 0.140625l0 -2.265625l12.84375 0.203125l-0.140625 -0.15625l0.9375 -0.921875l-0.765625 -0.765625l-0.109375 -0.109375l-12.765625 0l0 -2.265625l10.5 0l-0.078125 -0.0625l-0.640625 -0.65625l1.671875 -1.65625l0.578125 0.5625l4.375 4.375l0.5625 0.578125l-1.90625 1.921875l-3.609375 3.59375l-1.671875 -1.65625z" fill-rule="nonzero"></path><path fill="#002835" d="m483.9926 103.07011q0 -0.765625 -0.546875 -1.171875q-0.546875 -0.421875 -1.96875 -0.875q-1.421875 -0.46875 -2.25 -0.921875q-2.265625 -1.21875 -2.265625 -3.28125q0 -1.078125 0.609375 -1.921875q0.609375 -0.84375 1.734375 -1.3125q1.140625 -0.484375 2.5625 -0.484375q1.40625 0 2.515625 0.515625q1.125 0.515625 1.734375 1.453125q0.609375 0.9375 0.609375 2.140625l-2.71875 0q0 -0.90625 -0.578125 -1.40625q-0.578125 -0.515625 -1.609375 -0.515625q-1.015625 0 -1.578125 0.421875q-0.546875 0.421875 -0.546875 1.109375q0 0.65625 0.65625 1.09375q0.65625 0.4375 1.921875 0.8125q2.328125 0.703125 3.390625 1.75q1.0625 1.03125 1.0625 2.578125q0 1.71875 -1.296875 2.703125q-1.296875 0.984375 -3.5 0.984375q-1.53125 0 -2.796875 -0.5625q-1.25 -0.5625 -1.921875 -1.53125q-0.65625 -0.984375 -0.65625 -2.265625l2.75 0q0 2.1875 2.625 2.1875q0.96875 0 1.515625 -0.390625q0.546875 -0.390625 0.546875 -1.109375zm10.125092 3.484375q-0.171875 -0.359375 -0.265625 -0.890625q-0.953125 1.078125 -2.484375 1.078125q-1.453125 0 -2.40625 -0.84375q-0.9375 -0.84375 -0.9375 -2.109375q0 -1.578125 1.15625 -2.40625q1.15625 -0.84375 3.359375 -0.84375l1.203125 0l0 -0.578125q0 -0.671875 -0.359375 -1.078125q-0.34375 -0.421875 -1.09375 -0.421875q-0.65625 0 -1.046875 0.328125q-0.375 0.3125 -0.375 0.875l-2.625 0q0 -0.859375 0.515625 -1.578125q0.53125 -0.734375 1.5 -1.140625q0.96875 -0.421875 2.171875 -0.421875q1.8125 0 2.875 0.921875q1.078125 0.90625 1.078125 2.5625l0 4.265625q0.015625 1.40625 0.390625 2.125l0 0.15625l-2.65625 0zm-2.171875 -1.828125q0.578125 0 1.0625 -0.25q0.5 -0.265625 0.734375 -0.703125l0 -1.703125l-0.984375 0q-1.96875 0 -2.09375 1.375l-0.015625 0.15625q0 0.484375 0.34375 0.8125q0.34375 0.3125 0.953125 0.3125zm8.939728 -8.03125l0.078125 1.109375q1.046875 -1.28125 2.828125 -1.28125q1.90625 0 2.625 1.5q1.03125 -1.5 2.953125 -1.5q1.609375 0 2.390625 0.9375q0.78125 0.921875 0.78125 2.796875l0 6.296875l-2.640625 0l0 -6.28125q0 -0.84375 -0.328125 -1.21875q-0.328125 -0.390625 -1.15625 -0.390625q-1.1875 0 -1.640625 1.125l0 6.765625l-2.625 0l0 -6.28125q0 -0.84375 -0.34375 -1.21875q-0.328125 -0.390625 -1.140625 -0.390625q-1.125 0 -1.625 0.921875l0 6.96875l-2.625 0l0 -9.859375l2.46875 0zm18.213684 10.046875q-2.171875 0 -3.53125 -1.328125q-1.359375 -1.34375 -1.359375 -3.546875l0 -0.265625q0 -1.484375 0.5625 -2.640625q0.578125 -1.171875 1.625 -1.796875q1.0625 -0.640625 2.40625 -0.640625q2.03125 0 3.1875 1.28125q1.15625 1.265625 1.15625 3.609375l0 1.0625l-6.265625 0q0.125 0.96875 0.765625 1.5625q0.640625 0.578125 1.625 0.578125q1.515625 0 2.375 -1.109375l1.296875 1.453125q-0.59375 0.84375 -1.609375 1.3125q-1.0 0.46875 -2.234375 0.46875zm-0.296875 -8.09375q-0.78125 0 -1.28125 0.53125q-0.484375 0.53125 -0.609375 1.515625l3.65625 0l0 -0.21875q-0.015625 -0.875 -0.484375 -1.34375q-0.453125 -0.484375 -1.28125 -0.484375zm13.4019165 5.703125l5.796875 0l0 2.203125l-8.53125 0l0 -13.265625l2.734375 0l0 11.0625zm6.774292 -2.8125q0 -1.46875 0.5625 -2.609375q0.578125 -1.15625 1.640625 -1.78125q1.0625 -0.625 2.453125 -0.625q2.0 0 3.265625 1.21875q1.265625 1.21875 1.40625 3.3125l0.015625 0.671875q0 2.265625 -1.265625 3.640625q-1.265625 1.375 -3.40625 1.375q-2.125 0 -3.40625 -1.359375q-1.265625 -1.375 -1.265625 -3.734375l0 -0.109375zm2.640625 0.1875q0 1.40625 0.53125 2.15625q0.53125 0.734375 1.515625 0.734375q0.953125 0 1.484375 -0.734375q0.546875 -0.734375 0.546875 -2.34375q0 -1.375 -0.546875 -2.125q-0.53125 -0.765625 -1.515625 -0.765625q-0.953125 0 -1.484375 0.75q-0.53125 0.75 -0.53125 2.328125zm8.501953 4.828125l0 -13.265625l4.078125 0q1.75 0 3.125 0.796875q1.390625 0.78125 2.15625 2.234375q0.78125 1.453125 0.78125 3.296875l0 0.609375q0 1.859375 -0.765625 3.296875q-0.765625 1.4375 -2.15625 2.234375q-1.375 0.78125 -3.109375 0.796875l-4.109375 0zm2.734375 -11.046875l0 8.84375l1.3125 0q1.609375 0 2.453125 -1.046875q0.84375 -1.046875 0.859375 -2.984375l0 -0.703125q0 -2.03125 -0.84375 -3.0625q-0.828125 -1.046875 -2.4375 -1.046875l-1.34375 0z" fill-rule="nonzero"></path><path fill="#000000" fill-opacity="0.0" d="m227.92711 196.71l102.07875 84.377945" fill-rule="evenodd"></path><path stroke="#595959" stroke-width="3.0" stroke-linejoin="round" stroke-linecap="butt" d="m227.92711 196.71002l88.20491 72.90988" fill-rule="evenodd"></path><path fill="#595959" stroke="#595959" stroke-width="3.0" stroke-linecap="butt" d="m312.97498 273.4392l13.650513 4.854553l-7.3364563 -12.493164z" fill-rule="evenodd"></path><path fill="#000000" fill-opacity="0.0" d="m333.16458 434.66226l101.82678 -10.582703" fill-rule="evenodd"></path><path stroke="#595959" stroke-width="3.0" stroke-linejoin="round" stroke-linecap="butt" d="m333.16458 434.66223l83.92319 -8.721985" fill-rule="evenodd"></path><path fill="#595959" stroke="#595959" stroke-width="3.0" stroke-linecap="butt" d="m417.6 430.8689l13.029114 -6.335968l-14.053558 -3.5213318z" fill-rule="evenodd"></path><path fill="#000000" fill-opacity="0.0" d="m167.4638 405.38666l165.70078 0l0 58.551178l-165.70078 0z" fill-rule="evenodd"></path><path fill="#002835" d="m202.91559 432.89474l2.484375 -4.578125l3.140625 0l-3.859375 6.578125l3.953125 6.6875l-3.171875 0l-2.546875 -4.640625l-2.5625 4.640625l-3.171875 0l3.953125 -6.6875l-3.859375 -6.578125l3.140625 0l2.5 4.578125zm12.038956 4.0625l-5.125 0l0 -2.109375l5.125 0l0 2.109375zm13.076691 4.625l-2.734375 0l-5.3125 -8.734375l0 8.734375l-2.734375 0l0 -13.265625l2.734375 0l5.328125 8.75l0 -8.75l2.71875 0l0 13.265625zm6.750458 0.1875q-2.171875 0 -3.53125 -1.328125q-1.359375 -1.34375 -1.359375 -3.546875l0 -0.265625q0 -1.484375 0.5625 -2.640625q0.578125 -1.171875 1.625 -1.796875q1.0625 -0.640625 2.40625 -0.640625q2.03125 0 3.1875 1.28125q1.15625 1.265625 1.15625 3.609375l0 1.0625l-6.265625 0q0.125 0.96875 0.765625 1.5625q0.640625 0.578125 1.625 0.578125q1.515625 0 2.375 -1.109375l1.296875 1.453125q-0.59375 0.84375 -1.609375 1.3125q-1.0 0.46875 -2.234375 0.46875zm-0.296875 -8.09375q-0.78125 0 -1.28125 0.53125q-0.484375 0.53125 -0.609375 1.515625l3.65625 0l0 -0.21875q-0.015625 -0.875 -0.484375 -1.34375q-0.453125 -0.484375 -1.28125 -0.484375zm8.631088 7.90625l-2.65625 0l0 -9.859375l2.65625 0l0 9.859375zm-2.796875 -12.40625q0 -0.59375 0.390625 -0.96875q0.390625 -0.390625 1.078125 -0.390625q0.671875 0 1.0625 0.390625q0.40625 0.375 0.40625 0.96875q0 0.59375 -0.40625 0.984375q-0.390625 0.375 -1.0625 0.375q-0.671875 0 -1.078125 -0.375q-0.390625 -0.390625 -0.390625 -0.984375zm4.571457 7.40625q0 -2.265625 1.078125 -3.640625q1.078125 -1.390625 2.921875 -1.390625q1.609375 0 2.515625 1.109375l0.109375 -0.9375l2.390625 0l0 9.53125q0 1.296875 -0.59375 2.25q-0.578125 0.953125 -1.65625 1.453125q-1.0625 0.5 -2.484375 0.5q-1.09375 0 -2.125 -0.4375q-1.015625 -0.421875 -1.546875 -1.109375l1.15625 -1.59375q0.984375 1.09375 2.390625 1.09375q1.046875 0 1.625 -0.5625q0.59375 -0.5625 0.59375 -1.578125l0 -0.53125q-0.921875 1.03125 -2.40625 1.03125q-1.765625 0 -2.875 -1.390625q-1.09375 -1.390625 -1.09375 -3.6875l0 -0.109375zm2.640625 0.1875q0 1.34375 0.53125 2.109375q0.546875 0.75 1.484375 0.75q1.203125 0 1.71875 -0.890625l0 -4.15625q-0.53125 -0.890625 -1.703125 -0.890625q-0.953125 0 -1.5 0.78125q-0.53125 0.765625 -0.53125 2.296875zm10.961502 -3.96875q1.046875 -1.25 2.640625 -1.25q3.203125 0 3.25 3.71875l0 6.3125l-2.640625 0l0 -6.234375q0 -0.859375 -0.359375 -1.25q-0.359375 -0.40625 -1.21875 -0.40625q-1.15625 0 -1.671875 0.890625l0 7.0l-2.625 0l0 -14.0l2.625 0l0 5.21875zm16.751984 3.9375q0 2.375 -1.015625 3.703125q-1.0 1.328125 -2.8125 1.328125q-1.609375 0 -2.5625 -1.234375l-0.125 1.046875l-2.359375 0l0 -14.0l2.625 0l0 5.03125q0.921875 -1.0625 2.40625 -1.0625q1.796875 0 2.8125 1.328125q1.03125 1.3125 1.03125 3.71875l0 0.140625zm-2.625 -0.1875q0 -1.484375 -0.484375 -2.171875q-0.46875 -0.6875 -1.40625 -0.6875q-1.25 0 -1.734375 1.015625l0 3.890625q0.484375 1.046875 1.75 1.046875q1.28125 0 1.671875 -1.265625q0.203125 -0.59375 0.203125 -1.828125zm3.8313904 0.015625q0 -1.46875 0.5625 -2.609375q0.578125 -1.15625 1.640625 -1.78125q1.0625 -0.625 2.453125 -0.625q2.0 0 3.265625 1.21875q1.265625 1.21875 1.40625 3.3125l0.015625 0.671875q0 2.265625 -1.265625 3.640625q-1.265625 1.375 -3.40625 1.375q-2.125 0 -3.40625 -1.359375q-1.265625 -1.375 -1.265625 -3.734375l0 -0.109375zm2.640625 0.1875q0 1.40625 0.53125 2.15625q0.53125 0.734375 1.515625 0.734375q0.953125 0 1.484375 -0.734375q0.546875 -0.734375 0.546875 -2.34375q0 -1.375 -0.546875 -2.125q-0.53125 -0.765625 -1.515625 -0.765625q-0.953125 0 -1.484375 0.75q-0.53125 0.75 -0.53125 2.328125zm14.236298 3.828125q-0.984375 1.1875 -2.703125 1.1875q-1.59375 0 -2.421875 -0.90625q-0.828125 -0.921875 -0.84375 -2.671875l0 -6.46875l2.625 0l0 6.375q0 1.53125 1.40625 1.53125q1.34375 0 1.84375 -0.921875l0 -6.984375l2.640625 0l0 9.859375l-2.484375 0l-0.0625 -1.0zm10.064484 -6.390625q-0.53125 -0.0625 -0.9375 -0.0625q-1.5 0 -1.96875 1.0l0 6.453125l-2.625 0l0 -9.859375l2.484375 0l0.078125 1.171875q0.78125 -1.34375 2.1875 -1.34375q0.4375 0 0.828125 0.109375l-0.046875 2.53125z" fill-rule="nonzero"></path><path fill="#2196f3" fill-opacity="0.4885" d="m355.24326 349.05853l0 -206.17323l201.92123 206.17323z" fill-rule="evenodd"></path><path stroke="#000000" stroke-width="3.0" stroke-linejoin="round" stroke-linecap="butt" d="m355.24326 349.05853l0 -206.17323l201.92123 206.17323z" fill-rule="evenodd"></path><path fill="#000000" fill-opacity="0.0" d="m557.1583 142.83165l0 206.17323l-201.92126 -206.17323z" fill-rule="evenodd"></path><path stroke="#666666" stroke-width="3.0" stroke-linejoin="round" stroke-linecap="butt" stroke-dasharray="12.0,9.0" d="m557.1583 142.83165l0 206.17323l-201.92126 -206.17323z" fill-rule="evenodd"></path><path fill="#000000" fill-opacity="0.0" d="m355.24326 142.8853l-187.77953 206.17323" fill-rule="evenodd"></path><path stroke="#ffab40" stroke-width="3.0" stroke-linejoin="round" stroke-linecap="butt" d="m355.24326 142.8853l-187.77953 206.17323" fill-rule="evenodd"></path><path fill="#000000" fill-opacity="0.0" d="m355.24326 142.8853l201.92123 206.07872" fill-rule="evenodd"></path><path stroke="#4a86e8" stroke-width="3.0" stroke-linejoin="round" stroke-linecap="butt" d="m355.24326 142.8853l201.92123 206.07872" fill-rule="evenodd"></path><path fill="#000000" fill-opacity="0.0" d="m355.24326 537.9167l201.92123 -188.94485" fill-rule="evenodd"></path><path stroke="#ffab40" stroke-width="3.0" stroke-linejoin="round" stroke-linecap="butt" d="m355.24326 537.9167l201.92123 -188.94485" fill-rule="evenodd"></path><path fill="#000000" fill-opacity="0.0" d="m456.2039 348.97183l0 -103.05513" fill-rule="evenodd"></path><path stroke="#000000" stroke-width="3.0" stroke-linejoin="round" stroke-linecap="butt" d="m456.2039 348.97183l0 -103.05513" fill-rule="evenodd"></path><path fill="#000000" fill-opacity="0.0" d="m355.24326 245.97191l100.944885 -0.06298828" fill-rule="evenodd"></path><path stroke="#000000" stroke-width="3.0" stroke-linejoin="round" stroke-linecap="butt" d="m355.24326 245.97191l100.944885 -0.06298828" fill-rule="evenodd"></path><path fill="#000000" fill-opacity="0.0" d="m355.24326 349.05853l100.944885 -103.14961" fill-rule="evenodd"></path><path stroke="#000000" stroke-width="3.0" stroke-linejoin="round" stroke-linecap="butt" d="m355.24326 349.05853l100.944885 -103.14961" fill-rule="evenodd"></path><path fill="#000000" fill-opacity="0.0" d="m506.67657 463.93903l-34.17325 -98.141754" fill-rule="evenodd"></path><path stroke="#595959" stroke-width="3.0" stroke-linejoin="round" stroke-linecap="butt" d="m506.67654 463.93903l-28.25415 -81.14282" fill-rule="evenodd"></path><path fill="#595959" stroke="#595959" stroke-width="3.0" stroke-linecap="butt" d="m483.10202 381.16678l-9.156525 -11.227692l-0.20269775 14.486603z" fill-rule="evenodd"></path><path fill="#000000" fill-opacity="0.0" d="m442.66083 463.93903l128.0315 0l0 29.13385l-128.0315 0z" fill-rule="evenodd"></path><path fill="#002835" d="m471.81815 474.37906l-4.0625 0l0 11.046875l-2.734375 0l0 -11.046875l-4.015625 0l0 -2.21875l10.8125 0l0 2.21875zm6.494873 6.421875l-5.125 0l0 -2.109375l5.125 0l0 2.109375zm7.6391907 -8.640625l2.734375 0l0 9.1875q0 1.265625 -0.5625 2.234375q-0.5625 0.96875 -1.578125 1.5q-1.015625 0.53125 -2.3125 0.53125q-2.09375 0 -3.28125 -1.0625q-1.171875 -1.078125 -1.171875 -3.046875l2.75 0q0 0.984375 0.40625 1.453125q0.421875 0.453125 1.296875 0.453125q0.796875 0 1.25 -0.53125q0.46875 -0.546875 0.46875 -1.53125l0 -9.1875zm10.81189 12.265625q-0.984375 1.1875 -2.703125 1.1875q-1.59375 0 -2.421875 -0.90625q-0.828125 -0.921875 -0.84375 -2.671875l0 -6.46875l2.625 0l0 6.375q0 1.53125 1.40625 1.53125q1.34375 0 1.84375 -0.921875l0 -6.984375l2.640625 0l0 9.859375l-2.484375 0l-0.0625 -1.0zm6.9551086 -8.859375l0.078125 1.140625q1.0625 -1.3125 2.828125 -1.3125q1.578125 0 2.34375 0.921875q0.765625 0.90625 0.78125 2.734375l0 6.375l-2.640625 0l0 -6.296875q0 -0.84375 -0.359375 -1.21875q-0.359375 -0.375 -1.21875 -0.375q-1.109375 0 -1.65625 0.9375l0 6.953125l-2.640625 0l0 -9.859375l2.484375 0zm12.120453 7.921875q0.734375 0 1.1875 -0.390625q0.453125 -0.40625 0.46875 -1.078125l2.46875 0q0 1.0 -0.546875 1.84375q-0.53125 0.828125 -1.46875 1.296875q-0.9375 0.453125 -2.0625 0.453125q-2.109375 0 -3.34375 -1.34375q-1.21875 -1.34375 -1.21875 -3.71875l0 -0.171875q0 -2.28125 1.21875 -3.625q1.21875 -1.359375 3.328125 -1.359375q1.84375 0 2.953125 1.046875q1.125 1.046875 1.140625 2.796875l-2.46875 0q-0.015625 -0.765625 -0.46875 -1.234375q-0.453125 -0.484375 -1.203125 -0.484375q-0.921875 0 -1.390625 0.671875q-0.46875 0.671875 -0.46875 2.171875l0 0.265625q0 1.53125 0.453125 2.203125q0.46875 0.65625 1.421875 0.65625zm8.775818 -10.34375l0 2.421875l1.6875 0l0 1.9375l-1.6875 0l0 4.921875q0 0.546875 0.203125 0.78125q0.21875 0.234375 0.8125 0.234375q0.4375 0 0.78125 -0.0625l0 2.0q-0.78125 0.234375 -1.59375 0.234375q-2.78125 0 -2.828125 -2.796875l0 -5.3125l-1.4375 0l0 -1.9375l1.4375 0l0 -2.421875l2.625 0zm5.944397 12.28125l-2.65625 0l0 -9.859375l2.65625 0l0 9.859375zm-2.796875 -12.40625q0 -0.59375 0.390625 -0.96875q0.390625 -0.390625 1.078125 -0.390625q0.671875 0 1.0625 0.390625q0.40625 0.375 0.40625 0.96875q0 0.59375 -0.40625 0.984375q-0.390625 0.375 -1.0625 0.375q-0.671875 0 -1.078125 -0.375q-0.390625 -0.390625 -0.390625 -0.984375zm4.540222 7.390625q0 -1.46875 0.5625 -2.609375q0.578125 -1.15625 1.640625 -1.78125q1.0625 -0.625 2.453125 -0.625q2.0 0 3.265625 1.21875q1.265625 1.21875 1.40625 3.3125l0.015625 0.671875q0 2.265625 -1.265625 3.640625q-1.265625 1.375 -3.40625 1.375q-2.125 0 -3.40625 -1.359375q-1.265625 -1.375 -1.265625 -3.734375l0 -0.109375zm2.640625 0.1875q0 1.40625 0.53125 2.15625q0.53125 0.734375 1.515625 0.734375q0.953125 0 1.484375 -0.734375q0.546875 -0.734375 0.546875 -2.34375q0 -1.375 -0.546875 -2.125q-0.53125 -0.765625 -1.515625 -0.765625q-0.953125 0 -1.484375 0.75q-0.53125 0.75 -0.53125 2.328125zm10.751892 -5.03125l0.078125 1.140625q1.0625 -1.3125 2.828125 -1.3125q1.578125 0 2.34375 0.921875q0.765625 0.90625 0.78125 2.734375l0 6.375l-2.640625 0l0 -6.296875q0 -0.84375 -0.359375 -1.21875q-0.359375 -0.375 -1.21875 -0.375q-1.109375 0 -1.65625 0.9375l0 6.953125l-2.640625 0l0 -9.859375l2.484375 0z" fill-rule="nonzero"></path><path fill="#000000" fill-opacity="0.0" d="m506.67133 115.18566l-17.637817 67.21259" fill-rule="evenodd"></path><path stroke="#595959" stroke-width="3.0" stroke-linejoin="round" stroke-linecap="butt" d="m506.6713 115.18566l-13.06897 49.802086" fill-rule="evenodd"></path><path fill="#595959" stroke="#595959" stroke-width="3.0" stroke-linecap="butt" d="m488.80942 163.73l1.3372803 14.426178l8.248566 -11.910675z" fill-rule="evenodd"></path><path fill="#000000" fill-opacity="0.0" d="m261.3535 245.97191l93.88977 0" fill-rule="evenodd"></path><path stroke="#666666" stroke-width="3.0" stroke-linejoin="round" stroke-linecap="butt" stroke-dasharray="12.0,9.0" d="m261.3535 245.97191l93.88977 0" fill-rule="evenodd"></path><path fill="#000000" fill-opacity="0.0" d="m261.3535 245.97191l0 103.086624" fill-rule="evenodd"></path><path stroke="#666666" stroke-width="3.0" stroke-linejoin="round" stroke-linecap="butt" stroke-dasharray="12.0,9.0" d="m261.3535 245.97191l0 103.086624" fill-rule="evenodd"></path><path fill="#000000" fill-opacity="0.0" d="m261.3535 245.97191l93.88977 103.023636" fill-rule="evenodd"></path><path stroke="#666666" stroke-width="3.0" stroke-linejoin="round" stroke-linecap="butt" stroke-dasharray="12.0,9.0" d="m261.3535 245.97191l93.88977 103.023636" fill-rule="evenodd"></path><path fill="#000000" fill-opacity="0.0" d="m456.1977 142.83165l0 103.086624" fill-rule="evenodd"></path><path stroke="#666666" stroke-width="3.0" stroke-linejoin="round" stroke-linecap="butt" stroke-dasharray="12.0,9.0" d="m456.1977 142.83165l0 103.086624" fill-rule="evenodd"></path><path fill="#000000" fill-opacity="0.0" d="m456.1977 245.91827l100.97638 0" fill-rule="evenodd"></path><path stroke="#666666" stroke-width="3.0" stroke-linejoin="round" stroke-linecap="butt" stroke-dasharray="12.0,9.0" d="m456.1977 245.91827l100.97638 0" fill-rule="evenodd"></path><path fill="#000000" fill-opacity="0.0" d="m456.1977 245.91827l100.97638 -103.086624" fill-rule="evenodd"></path><path stroke="#666666" stroke-width="3.0" stroke-linejoin="round" stroke-linecap="butt" stroke-dasharray="12.0,9.0" d="m456.1977 245.91827l100.97638 -103.086624" fill-rule="evenodd"></path><path fill="#000000" d="m349.8332 143.1982l0 0c0 -2.7831726 2.2209473 -5.0393677 4.9606323 -5.0393677l0 0c1.3156433 0 2.5773926 0.53092957 3.5076904 1.4759979c0.93029785 0.94506836 1.4529419 2.2268524 1.4529419 3.5633698l0 0c0 2.7831726 -2.2209473 5.0393677 -4.9606323 5.0393677l0 0c-2.739685 0 -4.9606323 -2.256195 -4.9606323 -5.0393677z" fill-rule="evenodd"></path><path stroke="#000000" stroke-width="3.0" stroke-linejoin="round" stroke-linecap="butt" d="m349.8332 143.1982l0 0c0 -2.7831726 2.2209473 -5.0393677 4.9606323 -5.0393677l0 0c1.3156433 0 2.5773926 0.53092957 3.5076904 1.4759979c0.93029785 0.94506836 1.4529419 2.2268524 1.4529419 3.5633698l0 0c0 2.7831726 -2.2209473 5.0393677 -4.9606323 5.0393677l0 0c-2.739685 0 -4.9606323 -2.256195 -4.9606323 -5.0393677z" fill-rule="evenodd"></path><path fill="#000000" d="m349.8332 245.92116l0 0c0 -2.7831573 2.2209473 -5.0393677 4.9606323 -5.0393677l0 0c1.3156433 0 2.5773926 0.53092957 3.5076904 1.4759979c0.93029785 0.94506836 1.4529419 2.2268524 1.4529419 3.5633698l0 0c0 2.7831726 -2.2209473 5.0393677 -4.9606323 5.0393677l0 0c-2.739685 0 -4.9606323 -2.256195 -4.9606323 -5.0393677z" fill-rule="evenodd"></path><path stroke="#000000" stroke-width="3.0" stroke-linejoin="round" stroke-linecap="butt" d="m349.8332 245.92116l0 0c0 -2.7831573 2.2209473 -5.0393677 4.9606323 -5.0393677l0 0c1.3156433 0 2.5773926 0.53092957 3.5076904 1.4759979c0.93029785 0.94506836 1.4529419 2.2268524 1.4529419 3.5633698l0 0c0 2.7831726 -2.2209473 5.0393677 -4.9606323 5.0393677l0 0c-2.739685 0 -4.9606323 -2.256195 -4.9606323 -5.0393677z" fill-rule="evenodd"></path><path fill="#000000" d="m349.8332 348.64413l0 0c0 -2.7831726 2.2209473 -5.0393677 4.9606323 -5.0393677l0 0c1.3156433 0 2.5773926 0.5309143 3.5076904 1.4759827c0.93029785 0.94506836 1.4529419 2.2268677 1.4529419 3.563385l0 0c0 2.7831726 -2.2209473 5.0393677 -4.9606323 5.0393677l0 0c-2.739685 0 -4.9606323 -2.256195 -4.9606323 -5.0393677z" fill-rule="evenodd"></path><path stroke="#000000" stroke-width="3.0" stroke-linejoin="round" stroke-linecap="butt" d="m349.8332 348.64413l0 0c0 -2.7831726 2.2209473 -5.0393677 4.9606323 -5.0393677l0 0c1.3156433 0 2.5773926 0.5309143 3.5076904 1.4759827c0.93029785 0.94506836 1.4529419 2.2268677 1.4529419 3.563385l0 0c0 2.7831726 -2.2209473 5.0393677 -4.9606323 5.0393677l0 0c-2.739685 0 -4.9606323 -2.256195 -4.9606323 -5.0393677z" fill-rule="evenodd"></path><path fill="#000000" d="m451.23578 348.64413l0 0c0 -2.7831726 2.2209473 -5.0393677 4.9606323 -5.0393677l0 0c1.3156433 0 2.5773926 0.5309143 3.5076904 1.4759827c0.93029785 0.94506836 1.4529419 2.2268677 1.4529419 3.563385l0 0c0 2.7831726 -2.2209473 5.0393677 -4.9606323 5.0393677l0 0c-2.739685 0 -4.9606323 -2.256195 -4.9606323 -5.0393677z" fill-rule="evenodd"></path><path stroke="#000000" stroke-width="3.0" stroke-linejoin="round" stroke-linecap="butt" d="m451.23578 348.64413l0 0c0 -2.7831726 2.2209473 -5.0393677 4.9606323 -5.0393677l0 0c1.3156433 0 2.5773926 0.5309143 3.5076904 1.4759827c0.93029785 0.94506836 1.4529419 2.2268677 1.4529419 3.563385l0 0c0 2.7831726 -2.2209473 5.0393677 -4.9606323 5.0393677l0 0c-2.739685 0 -4.9606323 -2.256195 -4.9606323 -5.0393677z" fill-rule="evenodd"></path><path fill="#000000" d="m451.23578 247.24864l0 0c0 -2.7831726 2.2209473 -5.0393677 4.9606323 -5.0393677l0 0c1.3156433 0 2.5773926 0.53092957 3.5076904 1.4759979c0.93029785 0.9450531 1.4529419 2.2268372 1.4529419 3.5633698l0 0c0 2.7831573 -2.2209473 5.0393677 -4.9606323 5.0393677l0 0c-2.739685 0 -4.9606323 -2.2562103 -4.9606323 -5.0393677z" fill-rule="evenodd"></path><path stroke="#000000" stroke-width="3.0" stroke-linejoin="round" stroke-linecap="butt" d="m451.23578 247.24864l0 0c0 -2.7831726 2.2209473 -5.0393677 4.9606323 -5.0393677l0 0c1.3156433 0 2.5773926 0.53092957 3.5076904 1.4759979c0.93029785 0.9450531 1.4529419 2.2268372 1.4529419 3.5633698l0 0c0 2.7831573 -2.2209473 5.0393677 -4.9606323 5.0393677l0 0c-2.739685 0 -4.9606323 -2.2562103 -4.9606323 -5.0393677z" fill-rule="evenodd"></path><path fill="#000000" d="m550.1083 348.64413l0 0c0 -2.7831726 2.2209473 -5.0393677 4.9606323 -5.0393677l0 0c1.3156128 0 2.5773926 0.5309143 3.5076904 1.4759827c0.93029785 0.94506836 1.4529419 2.2268677 1.4529419 3.563385l0 0c0 2.7831726 -2.2209473 5.0393677 -4.9606323 5.0393677l0 0c-2.739685 0 -4.9606323 -2.256195 -4.9606323 -5.0393677z" fill-rule="evenodd"></path><path stroke="#000000" stroke-width="3.0" stroke-linejoin="round" stroke-linecap="butt" d="m550.1083 348.64413l0 0c0 -2.7831726 2.2209473 -5.0393677 4.9606323 -5.0393677l0 0c1.3156128 0 2.5773926 0.5309143 3.5076904 1.4759827c0.93029785 0.94506836 1.4529419 2.2268677 1.4529419 3.563385l0 0c0 2.7831726 -2.2209473 5.0393677 -4.9606323 5.0393677l0 0c-2.739685 0 -4.9606323 -2.256195 -4.9606323 -5.0393677z" fill-rule="evenodd"></path><path fill="#000000" fill-opacity="0.0" d="m145.07672 138.15883l165.70078 0l0 58.551178l-165.70078 0z" fill-rule="evenodd"></path><path fill="#002835" d="m180.50043 167.07317l2.765625 -5.984375l2.984375 0l-4.34375 8.453125l0 4.8125l-2.78125 0l0 -4.8125l-4.359375 -8.453125l3.0 0l2.734375 5.984375zm11.907623 2.65625l-5.125 0l0 -2.109375l5.125 0l0 2.109375zm13.076691 4.625l-2.734375 0l-5.3125 -8.734375l0 8.734375l-2.734375 0l0 -13.265625l2.734375 0l5.328125 8.75l0 -8.75l2.71875 0l0 13.265625zm6.750458 0.1875q-2.171875 0 -3.53125 -1.328125q-1.359375 -1.34375 -1.359375 -3.546875l0 -0.265625q0 -1.484375 0.5625 -2.640625q0.578125 -1.171875 1.625 -1.796875q1.0625 -0.640625 2.40625 -0.640625q2.03125 0 3.1875 1.28125q1.15625 1.265625 1.15625 3.609375l0 1.0625l-6.265625 0q0.125 0.96875 0.765625 1.5625q0.640625 0.578125 1.625 0.578125q1.515625 0 2.375 -1.109375l1.296875 1.453125q-0.59375 0.84375 -1.609375 1.3125q-1.0 0.46875 -2.234375 0.46875zm-0.296875 -8.09375q-0.78125 0 -1.28125 0.53125q-0.484375 0.53125 -0.609375 1.515625l3.65625 0l0 -0.21875q-0.015625 -0.875 -0.484375 -1.34375q-0.453125 -0.484375 -1.28125 -0.484375zm8.631088 7.90625l-2.65625 0l0 -9.859375l2.65625 0l0 9.859375zm-2.796875 -12.40625q0 -0.59375 0.390625 -0.96875q0.390625 -0.390625 1.078125 -0.390625q0.671875 0 1.0625 0.390625q0.40625 0.375 0.40625 0.96875q0 0.59375 -0.40625 0.984375q-0.390625 0.375 -1.0625 0.375q-0.671875 0 -1.078125 -0.375q-0.390625 -0.390625 -0.390625 -0.984375zm4.571457 7.40625q0 -2.265625 1.078125 -3.640625q1.078125 -1.390625 2.921875 -1.390625q1.609375 0 2.515625 1.109375l0.109375 -0.9375l2.390625 0l0 9.53125q0 1.296875 -0.59375 2.25q-0.578125 0.953125 -1.65625 1.453125q-1.0625 0.5 -2.484375 0.5q-1.09375 0 -2.125 -0.4375q-1.015625 -0.421875 -1.546875 -1.109375l1.15625 -1.59375q0.984375 1.09375 2.390625 1.09375q1.046875 0 1.625 -0.5625q0.59375 -0.5625 0.59375 -1.578125l0 -0.53125q-0.921875 1.03125 -2.40625 1.03125q-1.765625 0 -2.875 -1.390625q-1.09375 -1.390625 -1.09375 -3.6875l0 -0.109375zm2.640625 0.1875q0 1.34375 0.53125 2.109375q0.546875 0.75 1.484375 0.75q1.203125 0 1.71875 -0.890625l0 -4.15625q-0.53125 -0.890625 -1.703125 -0.890625q-0.953125 0 -1.5 0.78125q-0.53125 0.765625 -0.53125 2.296875zm10.961502 -3.96875q1.046875 -1.25 2.640625 -1.25q3.203125 0 3.25 3.71875l0 6.3125l-2.640625 0l0 -6.234375q0 -0.859375 -0.359375 -1.25q-0.359375 -0.40625 -1.21875 -0.40625q-1.15625 0 -1.671875 0.890625l0 7.0l-2.625 0l0 -14.0l2.625 0l0 5.21875zm16.751984 3.9375q0 2.375 -1.015625 3.703125q-1.0 1.328125 -2.8125 1.328125q-1.609375 0 -2.5625 -1.234375l-0.125 1.046875l-2.359375 0l0 -14.0l2.625 0l0 5.03125q0.921875 -1.0625 2.40625 -1.0625q1.796875 0 2.8125 1.328125q1.03125 1.3125 1.03125 3.71875l0 0.140625zm-2.625 -0.1875q0 -1.484375 -0.484375 -2.171875q-0.46875 -0.6875 -1.40625 -0.6875q-1.25 0 -1.734375 1.015625l0 3.890625q0.484375 1.046875 1.75 1.046875q1.28125 0 1.671875 -1.265625q0.203125 -0.59375 0.203125 -1.828125zm3.8313751 0.015625q0 -1.46875 0.5625 -2.609375q0.578125 -1.15625 1.640625 -1.78125q1.0625 -0.625 2.453125 -0.625q2.0 0 3.265625 1.21875q1.265625 1.21875 1.40625 3.3125l0.015625 0.671875q0 2.265625 -1.265625 3.640625q-1.265625 1.375 -3.40625 1.375q-2.125 0 -3.40625 -1.359375q-1.265625 -1.375 -1.265625 -3.734375l0 -0.109375zm2.640625 0.1875q0 1.40625 0.53125 2.15625q0.53125 0.734375 1.515625 0.734375q0.953125 0 1.484375 -0.734375q0.546875 -0.734375 0.546875 -2.34375q0 -1.375 -0.546875 -2.125q-0.53125 -0.765625 -1.515625 -0.765625q-0.953125 0 -1.484375 0.75q-0.53125 0.75 -0.53125 2.328125zm14.236298 3.828125q-0.984375 1.1875 -2.703125 1.1875q-1.59375 0 -2.421875 -0.90625q-0.828125 -0.921875 -0.84375 -2.671875l0 -6.46875l2.625 0l0 6.375q0 1.53125 1.40625 1.53125q1.34375 0 1.84375 -0.921875l0 -6.984375l2.640625 0l0 9.859375l-2.484375 0l-0.0625 -1.0zm10.064484 -6.390625q-0.53125 -0.0625 -0.9375 -0.0625q-1.5 0 -1.96875 1.0l0 6.453125l-2.625 0l0 -9.859375l2.484375 0l0.078125 1.171875q0.78125 -1.34375 2.1875 -1.34375q0.4375 0 0.828125 0.109375l-0.046875 2.53125z" fill-rule="nonzero"></path><path fill="#000000" fill-opacity="0.0" d="m430.14713 348.66046l0 0c0 -13.393982 11.104736 -24.251953 24.803131 -24.251953l0 0c6.5782166 0 12.886993 2.5551147 17.538483 7.103241c4.6514893 4.548126 7.264679 10.716705 7.264679 17.148712l0 0c0 13.394012 -11.104767 24.251984 -24.803162 24.251984l0 0c-13.698395 0 -24.803131 -10.857971 -24.803131 -24.251984z" fill-rule="evenodd"></path><path stroke="#ff0000" stroke-width="4.0" stroke-linejoin="round" stroke-linecap="butt" d="m430.14713 348.66046l0 0c0 -13.393982 11.104736 -24.251953 24.803131 -24.251953l0 0c6.5782166 0 12.886993 2.5551147 17.538483 7.103241c4.6514893 4.548126 7.264679 10.716705 7.264679 17.148712l0 0c0 13.394012 -11.104767 24.251984 -24.803162 24.251984l0 0c-13.698395 0 -24.803131 -10.857971 -24.803131 -24.251984z" fill-rule="evenodd"></path></g></svg>

