<?xml version="1.0" standalone="yes"?>

<svg version="1.1" viewBox="0.0 0.0 720.0 540.0" fill="none" stroke="none" stroke-linecap="square" stroke-miterlimit="10" xmlns="http://www.w3.org/2000/svg" xmlns:xlink="http://www.w3.org/1999/xlink"><clipPath id="p.0"><path d="m0 0l720.0 0l0 540.0l-720.0 0l0 -540.0z" clip-rule="nonzero"></path></clipPath><g clip-path="url(#p.0)"><path fill="#000000" fill-opacity="0.0" d="m0 0l720.0 0l0 540.0l-720.0 0z" fill-rule="evenodd"></path><path fill="#cfe2f3" d="m102.80577 424.99344l0 -291.87402l291.87402 291.87402z" fill-rule="evenodd"></path><path stroke="#000000" stroke-width="3.0" stroke-linejoin="round" stroke-linecap="butt" d="m102.80577 424.99344l0 -291.87402l291.87402 291.87402z" fill-rule="evenodd"></path><path fill="#000000" d="m96.249344 134.36351l0 0c0 -3.7920532 3.0811234 -6.8661346 6.8818893 -6.8661346l0 0c1.8251877 0 3.5756302 0.7233887 4.866234 2.0110474c1.2906036 1.2876434 2.0156555 3.0340729 2.0156555 4.8550873l0 0c0 3.7920685 -3.0811234 6.86615 -6.8818893 6.86615l0 0c-3.800766 0 -6.8818893 -3.0740814 -6.8818893 -6.86615z" fill-rule="evenodd"></path><path stroke="#000000" stroke-width="1.0" stroke-linejoin="round" stroke-linecap="butt" d="m96.249344 134.36351l0 0c0 -3.7920532 3.0811234 -6.8661346 6.8818893 -6.8661346l0 0c1.8251877 0 3.5756302 0.7233887 4.866234 2.0110474c1.2906036 1.2876434 2.0156555 3.0340729 2.0156555 4.8550873l0 0c0 3.7920685 -3.0811234 6.86615 -6.8818893 6.86615l0 0c-3.800766 0 -6.8818893 -3.0740814 -6.8818893 -6.86615z" fill-rule="evenodd"></path><path fill="#000000" d="m96.249344 424.11417l0 0c0 -3.7920532 3.0811234 -6.86615 6.8818893 -6.86615l0 0c1.8251877 0 3.5756302 0.7234192 4.866234 2.0110474c1.2906036 1.2876587 2.0156555 3.0340881 2.0156555 4.8551025l0 0c0 3.7920837 -3.0811234 6.86615 -6.8818893 6.86615l0 0c-3.800766 0 -6.8818893 -3.0740662 -6.8818893 -6.86615z" fill-rule="evenodd"></path><path stroke="#000000" stroke-width="1.0" stroke-linejoin="round" stroke-linecap="butt" d="m96.249344 424.11417l0 0c0 -3.7920532 3.0811234 -6.86615 6.8818893 -6.86615l0 0c1.8251877 0 3.5756302 0.7234192 4.866234 2.0110474c1.2906036 1.2876587 2.0156555 3.0340881 2.0156555 4.8551025l0 0c0 3.7920837 -3.0811234 6.86615 -6.8818893 6.86615l0 0c-3.800766 0 -6.8818893 -3.0740662 -6.8818893 -6.86615z" fill-rule="evenodd"></path><path fill="#000000" d="m386.62466 424.11417l0 0c0 -3.7920532 3.0811462 -6.86615 6.881897 -6.86615l0 0c1.8251953 0 3.5756226 0.7234192 4.8662415 2.0110474c1.2905884 1.2876587 2.0156555 3.0340881 2.0156555 4.8551025l0 0c0 3.7920837 -3.0811462 6.86615 -6.881897 6.86615l0 0c-3.8007507 0 -6.881897 -3.0740662 -6.881897 -6.86615z" fill-rule="evenodd"></path><path stroke="#000000" stroke-width="1.0" stroke-linejoin="round" stroke-linecap="butt" d="m386.62466 424.11417l0 0c0 -3.7920532 3.0811462 -6.86615 6.881897 -6.86615l0 0c1.8251953 0 3.5756226 0.7234192 4.8662415 2.0110474c1.2905884 1.2876587 2.0156555 3.0340881 2.0156555 4.8551025l0 0c0 3.7920837 -3.0811462 6.86615 -6.881897 6.86615l0 0c-3.8007507 0 -6.881897 -3.0740662 -6.881897 -6.86615z" fill-rule="evenodd"></path><path fill="#000000" fill-opacity="0.0" d="m36.564304 69.02756l133.13387 0l0 49.354332l-133.13387 0z" fill-rule="evenodd"></path><path fill="#002835" d="m80.588264 76.322845q0 -2.65625 0.703125 -5.09375q0.71875 -2.4375 2.125 -4.421875q1.40625 -2.0 2.90625 -2.8124962l0.453125 1.4218712q-1.71875 1.3125 -2.8125 4.015625q-1.09375 2.6875 -1.203125 6.03125l0 1.0q0 4.515625 1.640625 7.84375q1.0 2.0 2.375 3.125l-0.453125 1.328125q-1.546875 -0.875 -2.96875 -2.90625q-2.765625 -4.0 -2.765625 -9.53125zm18.765625 -0.359375q0 3.8125 -1.3125 5.671875q-1.296875 1.84375 -4.0625 1.84375q-2.734375 0 -4.046875 -1.8125q-1.3125 -1.8125 -1.359375 -5.40625l0 -2.890625q0 -3.765625 1.296875 -5.59375q1.3125 -1.828125 4.09375 -1.828125q2.75 0 4.046875 1.765625q1.296875 1.765625 1.34375 5.4375l0 2.8125zm-2.171875 -2.96875q0 -2.75 -0.78125 -4.0q-0.765625 -1.265625 -2.4375 -1.265625q-1.671875 0 -2.4375 1.25q-0.75 1.25 -0.78125 3.859375l0 3.46875q0 2.765625 0.796875 4.09375q0.8125 1.3125 2.4375 1.3125q1.609375 0 2.390625 -1.234375q0.78125 -1.25 0.8125 -3.921875l0 -3.5625zm5.1015625 13.65625l-1.234375 -0.84375q1.09375 -1.546875 1.140625 -3.171875l0 -1.953125l2.125 0l0 1.6875q0 1.1875 -0.578125 2.375q-0.578125 1.1875 -1.453125 1.90625zm11.6796875 -3.40625l-2.1875 0l0 -14.453125l-4.359375 1.609375l0 -1.96875l6.203125 -2.328125l0.34375 0l0 17.140625zm11.5703125 -6.8125q0 2.609375 -0.6875 5.015625q-0.671875 2.390625 -2.09375 4.421875q-1.40625 2.03125 -2.953125 2.890625l-0.453125 -1.328125q1.796875 -1.390625 2.890625 -4.296875q1.09375 -2.921875 1.125 -6.46875l0 -0.375q0 -2.453125 -0.515625 -4.5625q-0.515625 -2.125 -1.4375 -3.796875q-0.921875 -1.6875 -2.0625 -2.625l0.453125 -1.3124962q1.546875 0.8437462 2.9375 2.8593712q1.40625 2.0 2.09375 4.421875q0.703125 2.40625 0.703125 5.15625z" fill-rule="nonzero"></path><path fill="#002835" d="m111.84998 97.17472l0 14.984375q0 3.734375 -2.34375 5.90625q-2.328125 2.171875 -6.375 2.171875q-3.984375 0 -6.328125 -2.109375q-2.34375 -2.109375 -2.390625 -5.796875l0 -15.15625l4.6875 0l0 15.015625q0 2.234375 1.0625 3.265625q1.078125 1.015625 2.96875 1.015625q3.953125 0 4.015625 -4.15625l0 -15.140625l4.703125 0z" fill-rule="nonzero"></path><path fill="#000000" fill-opacity="0.0" d="m16.789698 435.98032l83.433075 0l0 34.992126l-83.433075 0z" fill-rule="evenodd"></path><path fill="#002835" d="m89.84776 439.837q0 3.359375 -1.1875 5.890625q-1.1875 2.53125 -3.40625 3.90625q-2.203125 1.375 -5.0625 1.375q-2.828125 0 -5.046875 -1.359375q-2.21875 -1.359375 -3.4375 -3.875q-1.21875 -2.53125 -1.234375 -5.8125l0 -1.125q0 -3.359375 1.203125 -5.90625q1.21875 -2.5625 3.421875 -3.921875q2.21875 -1.375 5.0625 -1.375q2.84375 0 5.046875 1.375q2.21875 1.359375 3.421875 3.921875q1.21875 2.546875 1.21875 5.890625l0 1.015625zm-4.75 -1.03125q0 -3.578125 -1.28125 -5.4375q-1.28125 -1.859375 -3.65625 -1.859375q-2.359375 0 -3.640625 1.84375q-1.28125 1.828125 -1.296875 5.375l0 1.109375q0 3.484375 1.28125 5.40625q1.28125 1.921875 3.6875 1.921875q2.359375 0 3.625 -1.84375q1.265625 -1.859375 1.28125 -5.40625l0 -1.109375z" fill-rule="nonzero"></path><path fill="#002835" d="m44.57433 474.0945q0 -2.65625 0.703125 -5.09375q0.71875 -2.4375 2.125 -4.421875q1.40625 -2.0 2.90625 -2.8125l0.453125 1.421875q-1.71875 1.3125 -2.8125 4.015625q-1.09375 2.6875 -1.203125 6.03125l0 1.0q0 4.515625 1.640625 7.84375q1.0 2.0 2.375 3.125l-0.453125 1.328125q-1.546875 -0.875 -2.96875 -2.90625q-2.765625 -4.0 -2.765625 -9.53125zm18.765625 -0.359375q0 3.8125 -1.3125 5.671875q-1.296875 1.84375 -4.0625 1.84375q-2.734375 0 -4.046875 -1.8125q-1.3125 -1.8125 -1.359375 -5.40625l0 -2.890625q0 -3.765625 1.296875 -5.59375q1.3125 -1.828125 4.09375 -1.828125q2.75 0 4.046875 1.765625q1.296875 1.765625 1.34375 5.4375l0 2.8125zm-2.171875 -2.96875q0 -2.75 -0.78125 -4.0q-0.765625 -1.265625 -2.4375 -1.265625q-1.671875 0 -2.4375 1.25q-0.75 1.25 -0.78125 3.859375l0 3.46875q0 2.765625 0.796875 4.09375q0.8125 1.3125 2.4375 1.3125q1.609375 0 2.390625 -1.234375q0.78125 -1.25 0.8125 -3.921875l0 -3.5625zm5.1015587 13.65625l-1.234375 -0.84375q1.09375 -1.546875 1.140625 -3.171875l0 -1.953125l2.125 0l0 1.6875q0 1.1875 -0.578125 2.375q-0.578125 1.1875 -1.453125 1.90625zm15.2578125 -10.6875q0 3.8125 -1.3125 5.671875q-1.296875 1.84375 -4.0625 1.84375q-2.734375 0 -4.046875 -1.8125q-1.3125 -1.8125 -1.359375 -5.40625l0 -2.890625q0 -3.765625 1.296875 -5.59375q1.3125 -1.828125 4.09375 -1.828125q2.75 0 4.046875 1.765625q1.296875 1.765625 1.34375 5.4375l0 2.8125zm-2.171875 -2.96875q0 -2.75 -0.78125 -4.0q-0.765625 -1.265625 -2.4375 -1.265625q-1.671875 0 -2.4375 1.25q-0.75 1.25 -0.78125 3.859375l0 3.46875q0 2.765625 0.796875 4.09375q0.8125 1.3125 2.4375 1.3125q1.609375 0 2.390625 -1.234375q0.78125 -1.25 0.8125 -3.921875l0 -3.5625zm10.1640625 3.4375q0 2.609375 -0.6875 5.015625q-0.671875 2.390625 -2.09375 4.421875q-1.40625 2.03125 -2.953125 2.890625l-0.453125 -1.328125q1.796875 -1.390625 2.890625 -4.296875q1.09375 -2.921875 1.125 -6.46875l0 -0.375q0 -2.453125 -0.515625 -4.5625q-0.515625 -2.125 -1.4375 -3.796875q-0.921875 -1.6875 -2.0625 -2.625l0.453125 -1.3125q1.546875 0.84375 2.9375 2.859375q1.40625 2.0 2.09375 4.421875q0.703125 2.40625 0.703125 5.15625z" fill-rule="nonzero"></path><path fill="#000000" fill-opacity="0.0" d="m400.38846 424.99344l142.74014 0l0 34.992126l-142.74014 0z" fill-rule="evenodd"></path><path fill="#002835" d="m419.84158 431.38138l-3.734375 0l0 8.328125l-4.6875 0l0 -22.75l8.453125 0q4.03125 0 6.21875 1.796875q2.1875 1.796875 2.1875 5.078125q0 2.328125 -1.015625 3.890625q-1.0 1.546875 -3.046875 2.46875l4.921875 9.296875l0 0.21875l-5.03125 0l-4.265625 -8.328125zm-3.734375 -3.796875l3.78125 0q1.765625 0 2.734375 -0.890625q0.96875 -0.90625 0.96875 -2.484375q0 -1.609375 -0.921875 -2.53125q-0.90625 -0.921875 -2.796875 -0.921875l-3.765625 0l0 6.828125z" fill-rule="nonzero"></path><path fill="#002835" d="m410.95096 463.10764q0 -2.65625 0.703125 -5.09375q0.71875 -2.4375 2.125 -4.421875q1.40625 -2.0 2.90625 -2.8125l0.453125 1.421875q-1.71875 1.3125 -2.8125 4.015625q-1.09375 2.6875 -1.203125 6.03125l0 1.0q0 4.515625 1.640625 7.84375q1.0 2.0 2.375 3.125l-0.453125 1.328125q-1.546875 -0.875 -2.96875 -2.90625q-2.765625 -4.0 -2.765625 -9.53125zm15.1875 6.921875l-2.1875 0l0 -14.453125l-4.359375 1.609375l0 -1.96875l6.203125 -2.328125l0.34375 0l0 17.140625zm6.5078125 3.40625l-1.234375 -0.84375q1.09375 -1.546875 1.140625 -3.171875l0 -1.953125l2.125 0l0 1.6875q0 1.1875 -0.578125 2.375q-0.578125 1.1875 -1.453125 1.90625zm15.2578125 -10.6875q0 3.8125 -1.3125 5.671875q-1.296875 1.84375 -4.0625 1.84375q-2.734375 0 -4.046875 -1.8125q-1.3125 -1.8125 -1.359375 -5.40625l0 -2.890625q0 -3.765625 1.296875 -5.59375q1.3125 -1.828125 4.09375 -1.828125q2.75 0 4.046875 1.765625q1.296875 1.765625 1.34375 5.4375l0 2.8125zm-2.171875 -2.96875q0 -2.75 -0.78125 -4.0q-0.765625 -1.265625 -2.4375 -1.265625q-1.671875 0 -2.4375 1.25q-0.75 1.25 -0.78125 3.859375l0 3.46875q0 2.765625 0.796875 4.09375q0.8125 1.3125 2.4375 1.3125q1.609375 0 2.390625 -1.234375q0.78125 -1.25 0.8125 -3.921875l0 -3.5625zm10.1640625 3.4375q0 2.609375 -0.6875 5.015625q-0.671875 2.390625 -2.09375 4.421875q-1.40625 2.03125 -2.953125 2.890625l-0.453125 -1.328125q1.796875 -1.390625 2.890625 -4.296875q1.09375 -2.921875 1.125 -6.46875l0 -0.375q0 -2.453125 -0.515625 -4.5625q-0.515625 -2.125 -1.4375 -3.796875q-0.921875 -1.6875 -2.0625 -2.625l0.453125 -1.3125q1.546875 0.84375 2.9375 2.859375q1.40625 2.0 2.09375 4.421875q0.703125 2.40625 0.703125 5.15625z" fill-rule="nonzero"></path><path fill="#000000" fill-opacity="0.0" d="m509.1181 331.91602l117.763794 0l0 49.35434l-117.763794 0z" fill-rule="evenodd"></path><path fill="#002835" d="m541.2207 358.88318l-2.796875 0l0 6.25l-3.515625 0l0 -17.0625l6.328125 0q3.03125 0 4.671875 1.34375q1.640625 1.34375 1.640625 3.8125q0 1.75 -0.765625 2.921875q-0.75 1.15625 -2.28125 1.84375l3.6875 6.96875l0 0.171875l-3.765625 0l-3.203125 -6.25zm-2.796875 -2.84375l2.828125 0q1.328125 0 2.046875 -0.671875q0.734375 -0.671875 0.734375 -1.859375q0 -1.203125 -0.6875 -1.890625q-0.6875 -0.703125 -2.109375 -0.703125l-2.8125 0l0 5.125zm11.722656 2.15625q0 -2.6875 0.71875 -5.109375q0.71875 -2.421875 2.109375 -4.296875q1.390625 -1.875 3.015625 -2.59375l0.65625 1.828125q-1.703125 1.265625 -2.671875 3.921875q-0.953125 2.640625 -0.953125 6.171875l0 0.375q0 3.546875 0.9375 6.21875q0.953125 2.65625 2.6875 3.96875l-0.65625 1.78125q-1.59375 -0.703125 -2.96875 -2.515625q-1.375 -1.8125 -2.109375 -4.171875q-0.71875 -2.375 -0.765625 -4.953125l0 -0.625zm12.019531 0.921875l0 6.015625l-3.515625 0l0 -17.0625l6.65625 0q1.921875 0 3.375 0.703125q1.453125 0.703125 2.234375 2.0q0.796875 1.296875 0.796875 2.9375q0 2.515625 -1.71875 3.96875q-1.71875 1.4375 -4.75 1.4375l-3.078125 0zm0 -2.84375l3.140625 0q1.390625 0 2.125 -0.65625q0.734375 -0.65625 0.734375 -1.875q0 -1.25 -0.75 -2.015625q-0.734375 -0.78125 -2.03125 -0.8125l-3.21875 0l0 5.359375zm12.621094 13.140625l-1.78125 -0.921875l0.421875 -0.765625q0.796875 -1.4375 0.8125 -2.859375l0 -2.625l2.859375 0l-0.015625 2.34375q0 1.3125 -0.65625 2.625q-0.640625 1.328125 -1.640625 2.203125zm18.59375 -9.96875q-0.203125 2.75 -2.046875 4.34375q-1.828125 1.578125 -4.828125 1.578125q-3.28125 0 -5.15625 -2.203125q-1.875 -2.21875 -1.875 -6.078125l0 -1.03125q0 -2.46875 0.859375 -4.34375q0.875 -1.875 2.484375 -2.875q1.609375 -1.0 3.734375 -1.0q2.953125 0 4.75 1.578125q1.8125 1.578125 2.09375 4.4375l-3.515625 0q-0.125 -1.640625 -0.921875 -2.390625q-0.78125 -0.75 -2.40625 -0.75q-1.75 0 -2.625 1.265625q-0.875 1.265625 -0.890625 3.90625l0 1.296875q0 2.765625 0.828125 4.046875q0.84375 1.265625 2.640625 1.265625q1.640625 0 2.4375 -0.734375q0.796875 -0.75 0.921875 -2.3125l3.515625 0zm7.921875 -0.984375q0 2.65625 -0.765625 5.109375q-0.765625 2.4375 -2.203125 4.3125q-1.421875 1.875 -3.046875 2.578125l-0.65625 -1.78125q1.671875 -1.265625 2.625 -3.875q0.96875 -2.609375 1.0 -6.015625l0 -0.625q0 -3.5 -0.953125 -6.171875q-0.953125 -2.671875 -2.671875 -4.0l0.65625 -1.796875q1.59375 0.6875 3.0 2.515625q1.421875 1.8125 2.203125 4.234375q0.78125 2.40625 0.8125 4.984375l0 0.53125z" fill-rule="nonzero"></path><path fill="#000000" fill-opacity="0.0" d="m557.59845 239.34908l45.19684 0l0 34.99214l-45.19684 0z" fill-rule="evenodd"></path><path fill="#002835" d="m587.26715 259.69763q-0.203125 2.75 -2.046875 4.34375q-1.828125 1.578125 -4.828125 1.578125q-3.28125 0 -5.15625 -2.203125q-1.875 -2.21875 -1.875 -6.078125l0 -1.03125q0 -2.4687347 0.859375 -4.3437347q0.875 -1.875 2.484375 -2.875q1.609375 -1.0 3.734375 -1.0q2.953125 0 4.75 1.578125q1.8125 1.578125 2.09375 4.4375l-3.515625 0q-0.125 -1.640625 -0.921875 -2.390625q-0.78125 -0.75 -2.40625 -0.75q-1.75 0 -2.625 1.265625q-0.875 1.265625 -0.890625 3.9062347l0 1.296875q0 2.765625 0.828125 4.046875q0.84375 1.265625 2.640625 1.265625q1.640625 0 2.4375 -0.734375q0.796875 -0.75 0.921875 -2.3125l3.515625 0z" fill-rule="nonzero"></path><path fill="#000000" fill-opacity="0.0" d="m557.59845 142.72966l45.19684 0l0 34.992126l-45.19684 0z" fill-rule="evenodd"></path><path fill="#002835" d="m577.5035 162.75009l0 6.015625l-3.515625 0l0 -17.0625l6.65625 0q1.921875 0 3.375 0.703125q1.453125 0.703125 2.234375 2.0q0.796875 1.296875 0.796875 2.9375q0 2.515625 -1.71875 3.96875q-1.71875 1.4375 -4.75 1.4375l-3.078125 0zm0 -2.84375l3.140625 0q1.390625 0 2.125 -0.65625q0.734375 -0.65625 0.734375 -1.875q0 -1.25 -0.75 -2.015625q-0.734375 -0.78125 -2.03125 -0.8125l-3.21875 0l0 5.359375z" fill-rule="nonzero"></path><path fill="#000000" d="m605.50134 157.0971l0 0c0 -3.7920532 3.0811157 -6.8661346 6.881836 -6.8661346l0 0c1.8251953 0 3.5756226 0.7233887 4.866272 2.0110474c1.2905884 1.2876434 2.015625 3.0340729 2.015625 4.8550873l0 0c0 3.7920685 -3.0811157 6.86615 -6.881897 6.86615l0 0c-3.8007202 0 -6.881836 -3.0740814 -6.881836 -6.86615z" fill-rule="evenodd"></path><path stroke="#000000" stroke-width="1.0" stroke-linejoin="round" stroke-linecap="butt" d="m605.50134 157.0971l0 0c0 -3.7920532 3.0811157 -6.8661346 6.881836 -6.8661346l0 0c1.8251953 0 3.5756226 0.7233887 4.866272 2.0110474c1.2905884 1.2876434 2.015625 3.0340729 2.015625 4.8550873l0 0c0 3.7920685 -3.0811157 6.86615 -6.881897 6.86615l0 0c-3.8007202 0 -6.881836 -3.0740814 -6.881836 -6.86615z" fill-rule="evenodd"></path><path fill="#000000" d="m605.50134 256.84515l0 0c0 -3.7920685 3.0811157 -6.86615 6.881836 -6.86615l0 0c1.8251953 0 3.5756226 0.7233887 4.866272 2.0110474c1.2905884 1.2876434 2.015625 3.0340729 2.015625 4.8551025l0 0c0 3.7920532 -3.0811157 6.8661194 -6.881897 6.8661194l0 0c-3.8007202 0 -6.881836 -3.0740662 -6.881836 -6.8661194z" fill-rule="evenodd"></path><path stroke="#000000" stroke-width="1.0" stroke-linejoin="round" stroke-linecap="butt" d="m605.50134 256.84515l0 0c0 -3.7920685 3.0811157 -6.86615 6.881836 -6.86615l0 0c1.8251953 0 3.5756226 0.7233887 4.866272 2.0110474c1.2905884 1.2876434 2.015625 3.0340729 2.015625 4.8551025l0 0c0 3.7920532 -3.0811157 6.8661194 -6.881897 6.8661194l0 0c-3.8007202 0 -6.881836 -3.0740662 -6.881836 -6.8661194z" fill-rule="evenodd"></path><path fill="#000000" fill-opacity="0.0" d="m612.3832 163.96326l0 86.01575" fill-rule="evenodd"></path><path stroke="#000000" stroke-width="3.0" stroke-linejoin="round" stroke-linecap="butt" d="m612.3832 163.96326l0 75.7345" fill-rule="evenodd"></path><path fill="#000000" stroke="#000000" stroke-width="3.0" stroke-linecap="butt" d="m612.3832 239.69774l-3.3737183 -3.3737488l3.3737183 9.269302l3.3737793 -9.269302z" fill-rule="evenodd"></path><path fill="#000000" d="m605.50134 356.59317l0 0c0 -3.7920532 3.0811157 -6.86615 6.881836 -6.86615l0 0c1.8251953 0 3.5756226 0.7234192 4.866272 2.0110474c1.2905884 1.2876587 2.015625 3.0340881 2.015625 4.8551025l0 0c0 3.7920837 -3.0811157 6.86615 -6.881897 6.86615l0 0c-3.8007202 0 -6.881836 -3.0740662 -6.881836 -6.86615z" fill-rule="evenodd"></path><path stroke="#000000" stroke-width="1.0" stroke-linejoin="round" stroke-linecap="butt" d="m605.50134 356.59317l0 0c0 -3.7920532 3.0811157 -6.86615 6.881836 -6.86615l0 0c1.8251953 0 3.5756226 0.7234192 4.866272 2.0110474c1.2905884 1.2876587 2.015625 3.0340881 2.015625 4.8551025l0 0c0 3.7920837 -3.0811157 6.86615 -6.881897 6.86615l0 0c-3.8007202 0 -6.881836 -3.0740662 -6.881836 -6.86615z" fill-rule="evenodd"></path><path fill="#000000" fill-opacity="0.0" d="m612.3832 263.71127l0 86.01575" fill-rule="evenodd"></path><path stroke="#000000" stroke-width="3.0" stroke-linejoin="round" stroke-linecap="butt" d="m612.3832 263.71127l0 75.7345" fill-rule="evenodd"></path><path fill="#000000" stroke="#000000" stroke-width="3.0" stroke-linecap="butt" d="m612.3832 339.44577l-3.3737183 -3.3737488l3.3737183 9.269318l3.3737793 -9.269318z" fill-rule="evenodd"></path></g></svg>

