<?xml version="1.0" standalone="yes"?>

<svg version="1.1" viewBox="0.0 0.0 800.0 600.0" fill="none" stroke="none" stroke-linecap="square" stroke-miterlimit="10" xmlns="http://www.w3.org/2000/svg" xmlns:xlink="http://www.w3.org/1999/xlink"><clipPath id="p.0"><path d="m0 0l800.0 0l0 600.0l-800.0 0l0 -600.0z" clip-rule="nonzero"></path></clipPath><g clip-path="url(#p.0)"><path fill="#000000" fill-opacity="0.0" d="m0 0l800.0 0l0 600.0l-800.0 0z" fill-rule="evenodd"></path><path fill="#000000" fill-opacity="0.0" d="m566.191 302.59753l-337.16534 -2.582672" fill-rule="evenodd"></path><path stroke="#4a86e8" stroke-width="4.0" stroke-linejoin="round" stroke-linecap="butt" d="m566.19104 302.59753l-323.45746 -2.4776611" fill-rule="evenodd"></path><path fill="#4a86e8" stroke="#4a86e8" stroke-width="4.0" stroke-linecap="butt" d="m242.7336 300.11987l4.532654 -4.463745l-12.393158 4.403534l12.324249 4.592865z" fill-rule="evenodd"></path><path fill="#2196f3" fill-opacity="0.3808" d="m391.15735 300.09354l0 -201.6378l184.09448 201.6378z" fill-rule="evenodd"></path><path fill="#000000" fill-opacity="0.0" d="m391.15826 501.63785l0 -403.0866l368.22046 403.0866z" fill-rule="evenodd"></path><path stroke="#999999" stroke-width="3.0" stroke-linejoin="round" stroke-linecap="butt" d="m391.15826 501.63785l0 -403.0866l368.22046 403.0866z" fill-rule="evenodd"></path><path fill="#000000" fill-opacity="0.0" d="m575.2644 501.46924l0 -201.51181" fill-rule="evenodd"></path><path stroke="#999999" stroke-width="3.0" stroke-linejoin="round" stroke-linecap="butt" d="m575.2644 501.46924l0 -201.51181" fill-rule="evenodd"></path><path fill="#000000" fill-opacity="0.0" d="m391.15826 501.62012l184.09448 -201.63782" fill-rule="evenodd"></path><path stroke="#999999" stroke-width="3.0" stroke-linejoin="round" stroke-linecap="butt" d="m391.15826 501.62012l184.09448 -201.63782" fill-rule="evenodd"></path><path fill="#000000" d="m381.29358 99.16881l0 0c0 -5.444565 4.0541077 -9.858269 9.055115 -9.858269l0 0c2.4015503 0 4.704773 1.0386429 6.4029236 2.8874207c1.6981506 1.8487854 2.6521912 4.3562775 2.6521912 6.970848l0 0c0 5.4445724 -4.0541077 9.858269 -9.055115 9.858269l0 0c-5.001007 0 -9.055115 -4.4136963 -9.055115 -9.858269z" fill-rule="evenodd"></path><path stroke="#000000" stroke-width="3.0" stroke-linejoin="round" stroke-linecap="butt" d="m381.29358 99.16881l0 0c0 -5.444565 4.0541077 -9.858269 9.055115 -9.858269l0 0c2.4015503 0 4.704773 1.0386429 6.4029236 2.8874207c1.6981506 1.8487854 2.6521912 4.3562775 2.6521912 6.970848l0 0c0 5.4445724 -4.0541077 9.858269 -9.055115 9.858269l0 0c-5.001007 0 -9.055115 -4.4136963 -9.055115 -9.858269z" fill-rule="evenodd"></path><path fill="#000000" d="m381.29358 500.8356l0 0c0 -5.44458 4.0541077 -9.858276 9.055115 -9.858276l0 0c2.4015503 0 4.704773 1.0386353 6.4029236 2.8874207c1.6981506 1.8487854 2.6521912 4.356262 2.6521912 6.9708557l0 0c0 5.4445496 -4.0541077 9.858246 -9.055115 9.858246l0 0c-5.001007 0 -9.055115 -4.4136963 -9.055115 -9.858246z" fill-rule="evenodd"></path><path stroke="#000000" stroke-width="3.0" stroke-linejoin="round" stroke-linecap="butt" d="m381.29358 500.8356l0 0c0 -5.44458 4.0541077 -9.858276 9.055115 -9.858276l0 0c2.4015503 0 4.704773 1.0386353 6.4029236 2.8874207c1.6981506 1.8487854 2.6521912 4.356262 2.6521912 6.9708557l0 0c0 5.4445496 -4.0541077 9.858246 -9.055115 9.858246l0 0c-5.001007 0 -9.055115 -4.4136963 -9.055115 -9.858246z" fill-rule="evenodd"></path><path fill="#000000" d="m566.191 500.8356l0 0c0 -5.44458 4.054138 -9.858276 9.055176 -9.858276l0 0c2.4015503 0 4.704773 1.0386353 6.402893 2.8874207c1.6981812 1.8487854 2.6522217 4.356262 2.6522217 6.9708557l0 0c0 5.4445496 -4.054138 9.858246 -9.055115 9.858246l0 0c-5.0010376 0 -9.055176 -4.4136963 -9.055176 -9.858246z" fill-rule="evenodd"></path><path stroke="#000000" stroke-width="3.0" stroke-linejoin="round" stroke-linecap="butt" d="m566.191 500.8356l0 0c0 -5.44458 4.054138 -9.858276 9.055176 -9.858276l0 0c2.4015503 0 4.704773 1.0386353 6.402893 2.8874207c1.6981812 1.8487854 2.6522217 4.356262 2.6522217 6.9708557l0 0c0 5.4445496 -4.054138 9.858246 -9.055115 9.858246l0 0c-5.0010376 0 -9.055176 -4.4136963 -9.055176 -9.858246z" fill-rule="evenodd"></path><path fill="#000000" d="m566.191 302.59753l0 0c0 -5.4445496 4.054138 -9.858246 9.055176 -9.858246l0 0c2.4015503 0 4.704773 1.0386353 6.402893 2.8874207c1.6981812 1.8487854 2.6522217 4.356262 2.6522217 6.970825l0 0c0 5.44458 -4.054138 9.858276 -9.055115 9.858276l0 0c-5.0010376 0 -9.055176 -4.4136963 -9.055176 -9.858276z" fill-rule="evenodd"></path><path stroke="#000000" stroke-width="3.0" stroke-linejoin="round" stroke-linecap="butt" d="m566.191 302.59753l0 0c0 -5.4445496 4.054138 -9.858246 9.055176 -9.858246l0 0c2.4015503 0 4.704773 1.0386353 6.402893 2.8874207c1.6981812 1.8487854 2.6522217 4.356262 2.6522217 6.970825l0 0c0 5.44458 -4.054138 9.858276 -9.055115 9.858276l0 0c-5.0010376 0 -9.055176 -4.4136963 -9.055176 -9.858276z" fill-rule="evenodd"></path><path fill="#000000" d="m746.47504 500.8356l0 0c0 -5.44458 4.054138 -9.858276 9.055176 -9.858276l0 0c2.4015503 0 4.704773 1.0386353 6.402893 2.8874207c1.6981812 1.8487854 2.6522217 4.356262 2.6522217 6.9708557l0 0c0 5.4445496 -4.054138 9.858246 -9.055115 9.858246l0 0c-5.0010376 0 -9.055176 -4.4136963 -9.055176 -9.858246z" fill-rule="evenodd"></path><path stroke="#000000" stroke-width="3.0" stroke-linejoin="round" stroke-linecap="butt" d="m746.47504 500.8356l0 0c0 -5.44458 4.054138 -9.858276 9.055176 -9.858276l0 0c2.4015503 0 4.704773 1.0386353 6.402893 2.8874207c1.6981812 1.8487854 2.6522217 4.356262 2.6522217 6.9708557l0 0c0 5.4445496 -4.054138 9.858246 -9.055115 9.858246l0 0c-5.0010376 0 -9.055176 -4.4136963 -9.055176 -9.858246z" fill-rule="evenodd"></path><path fill="#000000" fill-opacity="0.0" d="m412.13608 210.57526l75.84253 0l0 55.24408l-75.84253 0z" fill-rule="evenodd"></path><path fill="#002835" d="m457.73703 240.51106q0 4.71875 -1.953125 7.21875q-1.953125 2.5 -5.71875 2.5q-3.71875 0 -5.6875 -2.453125q-1.96875 -2.453125 -2.015625 -7.03125l0 -4.1875q0 -4.765625 1.96875 -7.234375q1.984375 -2.46875 5.703125 -2.46875q3.71875 0 5.6875 2.453125q1.96875 2.4375 2.015625 7.015625l0 4.1875zm-4.515625 -4.59375q0 -2.828125 -0.78125 -4.109375q-0.765625 -1.296875 -2.40625 -1.296875q-1.59375 0 -2.359375 1.234375q-0.75 1.21875 -0.796875 3.828125l0 5.53125q0 2.78125 0.75 4.140625q0.765625 1.34375 2.4375 1.34375q1.65625 0 2.390625 -1.296875q0.734375 -1.296875 0.765625 -3.96875l0 -5.40625z" fill-rule="nonzero"></path><path fill="#000000" fill-opacity="0.0" d="m478.08475 411.6783l75.8425 0l0 55.24408l-75.8425 0z" fill-rule="evenodd"></path><path fill="#002835" d="m523.9669 451.02036l-15.5937195 0l0 -3.09375l7.3593445 -7.84375q1.515625 -1.65625 2.234375 -2.890625q0.734375 -1.234375 0.734375 -2.34375q0 -1.515625 -0.765625 -2.375q-0.765625 -0.875 -2.1875 -0.875q-1.53125 0 -2.421875 1.0625q-0.875 1.046875 -0.875 2.765625l-4.5312195 0q0 -2.078125 0.984375 -3.796875q1.0 -1.71875 2.8125 -2.6875q1.8124695 -0.984375 4.1093445 -0.984375q3.515625 0 5.453125 1.6875q1.953125 1.6875 1.953125 4.765625q0 1.6875 -0.875 3.4375q-0.875 1.75 -3.0 4.078125l-5.171875 5.453125l9.78125 0l0 3.640625z" fill-rule="nonzero"></path><path fill="#000000" fill-opacity="0.0" d="m605.6605 411.6783l75.84253 0l0 55.24408l-75.84253 0z" fill-rule="evenodd"></path><path fill="#002835" d="m640.5427 437.64536l2.40625 0q1.71875 0 2.546875 -0.859375q0.828125 -0.859375 0.828125 -2.28125q0 -1.375 -0.828125 -2.140625q-0.8125 -0.765625 -2.25 -0.765625q-1.296875 0 -2.171875 0.71875q-0.875 0.703125 -0.875 1.84375l-4.515625 0q0 -1.78125 0.953125 -3.1875q0.96875 -1.421875 2.6875 -2.21875q1.734375 -0.796875 3.8125 -0.796875q3.609375 0 5.65625 1.734375q2.046875 1.71875 2.046875 4.75q0 1.5625 -0.953125 2.875q-0.953125 1.3125 -2.5 2.015625q1.921875 0.6875 2.859375 2.0625q0.953125 1.375 0.953125 3.25q0 3.03125 -2.21875 4.859375q-2.203125 1.828125 -5.84375 1.828125q-3.40625 0 -5.578125 -1.796875q-2.15625 -1.796875 -2.15625 -4.75l4.515625 0q0 1.28125 0.953125 2.09375q0.96875 0.8125 2.375 0.8125q1.609375 0 2.515625 -0.84375q0.921875 -0.859375 0.921875 -2.265625q0 -3.40625 -3.75 -3.40625l-2.390625 0l0 -3.53125z" fill-rule="nonzero"></path><path fill="#000000" d="m41.32765 500.83096l0 0c0 -5.4445496 4.0541153 -9.858246 9.055119 -9.858246l0 0c2.4015656 0 4.704773 1.0386353 6.402935 2.8873901c1.6981659 1.8487854 2.6521835 4.3562927 2.6521835 6.9708557l0 0c0 5.44458 -4.0541153 9.858276 -9.055119 9.858276l0 0c-5.0010033 0 -9.055119 -4.4136963 -9.055119 -9.858276z" fill-rule="evenodd"></path><path stroke="#000000" stroke-width="3.0" stroke-linejoin="round" stroke-linecap="butt" d="m41.32765 500.83096l0 0c0 -5.4445496 4.0541153 -9.858246 9.055119 -9.858246l0 0c2.4015656 0 4.704773 1.0386353 6.402935 2.8873901c1.6981659 1.8487854 2.6521835 4.3562927 2.6521835 6.9708557l0 0c0 5.44458 -4.0541153 9.858276 -9.055119 9.858276l0 0c-5.0010033 0 -9.055119 -4.4136963 -9.055119 -9.858276z" fill-rule="evenodd"></path><path fill="#000000" fill-opacity="0.0" d="m329.41678 293.0178l69.95276 0l0 55.24411l-69.95276 0z" fill-rule="evenodd"></path><path fill="#1155cc" d="m374.06503 321.50046q0 3.359375 -1.1875 5.890625q-1.1875 2.53125 -3.40625 3.90625q-2.203125 1.375 -5.0625 1.375q-2.828125 0 -5.046875 -1.359375q-2.21875 -1.359375 -3.4375 -3.875q-1.21875 -2.53125 -1.234375 -5.8125l0 -1.125q0 -3.359375 1.203125 -5.90625q1.21875 -2.5625 3.421875 -3.921875q2.21875 -1.375 5.0625 -1.375q2.84375 0 5.046875 1.375q2.21875 1.359375 3.421875 3.921875q1.21875 2.546875 1.21875 5.890625l0 1.015625zm-4.75 -1.03125q0 -3.578125 -1.28125 -5.4375q-1.28125 -1.859375 -3.65625 -1.859375q-2.359375 0 -3.640625 1.84375q-1.28125 1.828125 -1.296875 5.375l0 1.109375q0 3.484375 1.28125 5.40625q1.28125 1.921875 3.6875 1.921875q2.359375 0 3.625 -1.84375q1.265625 -1.859375 1.28125 -5.40625l0 -1.109375z" fill-rule="nonzero"></path><path fill="#000000" fill-opacity="0.0" d="m584.2745 272.36414l60.15747 0l0 55.24408l-60.15747 0z" fill-rule="evenodd"></path><path fill="#1155cc" d="m614.5954 303.37805l-3.734375 0l0 8.328125l-4.6875 0l0 -22.75l8.453125 0q4.03125 0 6.21875 1.796875q2.1875 1.796875 2.1875 5.078125q0 2.328125 -1.015625 3.890625q-1.0 1.546875 -3.046875 2.46875l4.921875 9.296875l0 0.21875l-5.03125 0l-4.265625 -8.328125zm-3.734375 -3.796875l3.78125 0q1.765625 0 2.734375 -0.890625q0.96875 -0.90625 0.96875 -2.484375q0 -1.609375 -0.921875 -2.53125q-0.90625 -0.921875 -2.796875 -0.921875l-3.765625 0l0 6.828125z" fill-rule="nonzero"></path><path fill="#000000" fill-opacity="0.0" d="m309.19952 34.065372l162.29922 0l0 55.24409l-162.29922 0z" fill-rule="evenodd"></path><path fill="#1155cc" d="m364.5199 50.65742l0 14.984371q0 3.734375 -2.34375 5.90625q-2.328125 2.171875 -6.375 2.171875q-3.984375 0 -6.328125 -2.109375q-2.34375 -2.109375 -2.390625 -5.796875l0 -15.156246l4.6875 0l0 15.015621q0 2.234375 1.0625 3.265625q1.078125 1.015625 2.96875 1.015625q3.953125 0 4.015625 -4.15625l0 -15.140621l4.703125 0z" fill-rule="nonzero"></path><path fill="#002835" d="m390.3949 61.75117l-13.96875 0l0 -3.6875l13.96875 0l0 3.6875zm0 6.765621l-13.96875 0l0 -3.6875l13.96875 0l0 3.6875zm30.734375 4.890625l-4.6875 0l0 -9.749996l-9.140625 0l0 9.749996l-4.6875 0l0 -22.749996l4.6875 0l0 9.21875l9.140625 0l0 -9.21875l4.6875 0l0 22.749996z" fill-rule="nonzero"></path><path fill="#002835" d="m434.42615 79.14179q0 3.140625 -1.296875 4.8125q-1.296875 1.65625 -3.8125 1.65625q-2.484375 0 -3.796875 -1.625q-1.3125 -1.640625 -1.34375 -4.6875l0 -2.796875q0 -3.171875 1.3125 -4.8125q1.328125 -1.65625 3.796875 -1.65625q2.484375 0 3.796875 1.640625q1.3125 1.625 1.34375 4.671875l0 2.796875zm-3.0 -3.0625q0 -1.890625 -0.515625 -2.75q-0.515625 -0.859375 -1.609375 -0.859375q-1.0625 0 -1.578125 0.828125q-0.5 0.8125 -0.53125 2.546875l0 3.6875q0 1.859375 0.5 2.765625q0.515625 0.890625 1.625 0.890625q1.109375 0 1.59375 -0.859375q0.484375 -0.875 0.515625 -2.65625l0 -3.59375z" fill-rule="nonzero"></path><path fill="#000000" fill-opacity="0.0" d="m412.13608 334.2544l75.84253 0l0 55.24411l-75.84253 0z" fill-rule="evenodd"></path><path fill="#002835" d="m453.39328 373.59644l-4.515625 0l0 -17.40625l-5.390625 1.671875l0 -3.671875l9.421875 -3.375l0.484375 0l0 22.78125z" fill-rule="nonzero"></path><path fill="#000000" fill-opacity="0.0" d="m35.4147 510.69052l65.82677 0l0 55.24411l-65.82677 0z" fill-rule="evenodd"></path><path fill="#002835" d="m71.451965 550.0326l-4.6874924 0l0 -9.75l-9.140629 0l0 9.75l-4.6875 0l0 -22.75l4.6875 0l0 9.21875l9.140629 0l0 -9.21875l4.6874924 0l0 22.75z" fill-rule="nonzero"></path><path fill="#002835" d="m81.858215 562.0326l-3.015625 0l0 -11.59375l-3.59375 1.109375l0 -2.453125l6.28125 -2.25l0.328125 0l0 15.1875z" fill-rule="nonzero"></path><path fill="#000000" d="m381.29358 300.0022l0 0c0 -5.44458 4.0541077 -9.858276 9.055115 -9.858276l0 0c2.4015503 0 4.704773 1.0386353 6.4029236 2.8874207c1.6981506 1.8487854 2.6521912 4.3562927 2.6521912 6.9708557l0 0c0 5.44458 -4.0541077 9.858276 -9.055115 9.858276l0 0c-5.001007 0 -9.055115 -4.4136963 -9.055115 -9.858276z" fill-rule="evenodd"></path><path stroke="#000000" stroke-width="3.0" stroke-linejoin="round" stroke-linecap="butt" d="m381.29358 300.0022l0 0c0 -5.44458 4.0541077 -9.858276 9.055115 -9.858276l0 0c2.4015503 0 4.704773 1.0386353 6.4029236 2.8874207c1.6981506 1.8487854 2.6521912 4.3562927 2.6521912 6.9708557l0 0c0 5.44458 -4.0541077 9.858276 -9.055115 9.858276l0 0c-5.001007 0 -9.055115 -4.4136963 -9.055115 -9.858276z" fill-rule="evenodd"></path><path fill="#000000" fill-opacity="0.0" d="m108.114975 272.36414l162.29921 0l0 55.24408l-162.29921 0z" fill-rule="evenodd"></path><path fill="#002835" d="m198.52238 292.75305l-6.96875 0l0 18.953125l-4.6875 0l0 -18.953125l-6.875 0l0 -3.796875l18.53125 0l0 3.796875z" fill-rule="nonzero"></path><path fill="#000000" fill-opacity="0.0" d="m383.94574 106.139656l-327.1496 387.71655" fill-rule="evenodd"></path><path stroke="#4a86e8" stroke-width="4.0" stroke-linejoin="round" stroke-linecap="butt" d="m383.94574 106.13966l-318.30927 377.2395" fill-rule="evenodd"></path><path fill="#4a86e8" stroke="#4a86e8" stroke-width="4.0" stroke-linecap="butt" d="m65.636475 483.37918l-0.5370636 -6.3388977l-4.5322227 12.34668l11.408176 -6.5448303z" fill-rule="evenodd"></path><path fill="#000000" d="m210.9216 300.0022l0 0c0 -5.44458 4.0541077 -9.858276 9.055115 -9.858276l0 0c2.4015656 0 4.704773 1.0386353 6.402939 2.8874207c1.6981659 1.8487854 2.652176 4.3562927 2.652176 6.9708557l0 0c0 5.44458 -4.0541077 9.858276 -9.055115 9.858276l0 0c-5.001007 0 -9.055115 -4.4136963 -9.055115 -9.858276z" fill-rule="evenodd"></path><path stroke="#000000" stroke-width="3.0" stroke-linejoin="round" stroke-linecap="butt" d="m210.9216 300.0022l0 0c0 -5.44458 4.0541077 -9.858276 9.055115 -9.858276l0 0c2.4015656 0 4.704773 1.0386353 6.402939 2.8874207c1.6981659 1.8487854 2.652176 4.3562927 2.652176 6.9708557l0 0c0 5.44458 -4.0541077 9.858276 -9.055115 9.858276l0 0c-5.001007 0 -9.055115 -4.4136963 -9.055115 -9.858276z" fill-rule="evenodd"></path></g></svg>

