<?xml version="1.0" standalone="yes"?>

<svg version="1.1" viewBox="0.0 0.0 800.0 600.0" fill="none" stroke="none" stroke-linecap="square" stroke-miterlimit="10" xmlns="http://www.w3.org/2000/svg" xmlns:xlink="http://www.w3.org/1999/xlink"><clipPath id="p.0"><path d="m0 0l800.0 0l0 600.0l-800.0 0l0 -600.0z" clip-rule="nonzero"></path></clipPath><g clip-path="url(#p.0)"><path fill="#000000" fill-opacity="0.0" d="m0 0l800.0 0l0 600.0l-800.0 0z" fill-rule="evenodd"></path><path fill="#78ffb1" fill-opacity="0.4192" d="m402.8714 314.64304l0 -148.6614l-139.3386 148.6614z" fill-rule="evenodd"></path><path stroke="#666666" stroke-width="2.0" stroke-linejoin="round" stroke-linecap="butt" d="m402.8714 314.64304l0 -148.6614l-139.3386 148.6614z" fill-rule="evenodd"></path><path fill="#000000" fill-opacity="0.0" d="m267.72324 578.5437l264.56693 -261.00787" fill-rule="evenodd"></path><path stroke="#54bb6f" stroke-width="4.0" stroke-linejoin="round" stroke-linecap="butt" d="m277.4819 568.91626l254.80826 -251.38043" fill-rule="evenodd"></path><path fill="#54bb6f" stroke="#54bb6f" stroke-width="4.0" stroke-linecap="butt" d="m277.48193 568.91626l0.043060303 -6.36145l-5.638977 11.88208l11.957367 -5.477539z" fill-rule="evenodd"></path><path fill="#000000" fill-opacity="0.0" d="m401.75598 312.88885l0 -148.53543" fill-rule="evenodd"></path><path stroke="#000000" stroke-width="3.0" stroke-linejoin="round" stroke-linecap="butt" d="m401.75598 312.88885l0 -148.53543" fill-rule="evenodd"></path><path fill="#000000" fill-opacity="0.0" d="m263.54214 164.43744l138.20471 -0.06298828" fill-rule="evenodd"></path><path stroke="#000000" stroke-width="3.0" stroke-linejoin="round" stroke-linecap="butt" d="m263.54214 164.43744l138.20471 -0.06298828" fill-rule="evenodd"></path><path fill="#000000" fill-opacity="0.0" d="m263.54214 313.00006l138.20471 -148.66142" fill-rule="evenodd"></path><path stroke="#000000" stroke-width="3.0" stroke-linejoin="round" stroke-linecap="butt" d="m263.54214 313.00006l138.20471 -148.66142" fill-rule="evenodd"></path><path fill="#000000" d="m256.1364 16.322824l0 0c0 -4.0095005 3.0388184 -7.259843 6.7874146 -7.259843l0 0c1.8001099 0 3.5265198 0.76487446 4.799408 2.126359c1.2728882 1.3614845 1.9879761 3.2080536 1.9879761 5.133484l0 0c0 4.0095005 -3.0388184 7.259842 -6.787384 7.259842l0 0c-3.7485962 0 -6.7874146 -3.2503414 -6.7874146 -7.259842z" fill-rule="evenodd"></path><path stroke="#000000" stroke-width="3.0" stroke-linejoin="round" stroke-linecap="butt" d="m256.1364 16.322824l0 0c0 -4.0095005 3.0388184 -7.259843 6.7874146 -7.259843l0 0c1.8001099 0 3.5265198 0.76487446 4.799408 2.126359c1.2728882 1.3614845 1.9879761 3.2080536 1.9879761 5.133484l0 0c0 4.0095005 -3.0388184 7.259842 -6.787384 7.259842l0 0c-3.7485962 0 -6.7874146 -3.2503414 -6.7874146 -7.259842z" fill-rule="evenodd"></path><path fill="#000000" d="m256.1364 164.36865l0 0c0 -4.009491 3.0388184 -7.259842 6.7874146 -7.259842l0 0c1.8001099 0 3.5265198 0.7648773 4.799408 2.126358c1.2728882 1.361496 1.9879761 3.2080536 1.9879761 5.133484l0 0c0 4.009506 -3.0388184 7.259842 -6.787384 7.259842l0 0c-3.7485962 0 -6.7874146 -3.2503357 -6.7874146 -7.259842z" fill-rule="evenodd"></path><path stroke="#000000" stroke-width="3.0" stroke-linejoin="round" stroke-linecap="butt" d="m256.1364 164.36865l0 0c0 -4.009491 3.0388184 -7.259842 6.7874146 -7.259842l0 0c1.8001099 0 3.5265198 0.7648773 4.799408 2.126358c1.2728882 1.361496 1.9879761 3.2080536 1.9879761 5.133484l0 0c0 4.009506 -3.0388184 7.259842 -6.787384 7.259842l0 0c-3.7485962 0 -6.7874146 -3.2503357 -6.7874146 -7.259842z" fill-rule="evenodd"></path><path fill="#000000" fill-opacity="0.0" d="m279.29077 98.45417l56.944885 0l0 40.72442l-56.944885 0z" fill-rule="evenodd"></path><path fill="#002835" d="m315.4429 121.13013q0 4.71875 -1.953125 7.21875q-1.953125 2.5 -5.71875 2.5q-3.71875 0 -5.6875 -2.453125q-1.96875 -2.453125 -2.015625 -7.03125l0 -4.1875q0 -4.765625 1.96875 -7.234375q1.984375 -2.46875 5.703125 -2.46875q3.71875 0 5.6875 2.453125q1.96875 2.4375 2.015625 7.015625l0 4.1875zm-4.515625 -4.59375q0 -2.828125 -0.78125 -4.109375q-0.765625 -1.296875 -2.40625 -1.296875q-1.59375 0 -2.359375 1.234375q-0.75 1.21875 -0.796875 3.828125l0 5.53125q0 2.78125 0.75 4.140625q0.765625 1.34375 2.4375 1.34375q1.65625 0 2.390625 -1.296875q0.734375 -1.296875 0.765625 -3.96875l0 -5.40625z" fill-rule="nonzero"></path><path fill="#000000" fill-opacity="0.0" d="m328.80038 246.69879l56.944885 0l0 40.724396l-56.944885 0z" fill-rule="evenodd"></path><path fill="#002835" d="m365.23376 278.781l-15.59375 0l0 -3.09375l7.359375 -7.84375q1.515625 -1.65625 2.234375 -2.890625q0.734375 -1.234375 0.734375 -2.34375q0 -1.515625 -0.765625 -2.375q-0.765625 -0.875 -2.1875 -0.875q-1.53125 0 -2.421875 1.0625q-0.875 1.046875 -0.875 2.765625l-4.53125 0q0 -2.078125 0.984375 -3.796875q1.0 -1.71875 2.8125 -2.6875q1.8125 -0.98439026 4.109375 -0.98439026q3.515625 0 5.453125 1.6875153q1.953125 1.6875 1.953125 4.765625q0 1.6875 -0.875 3.4375q-0.875 1.75 -3.0 4.078125l-5.171875 5.453125l9.78125 0l0 3.640625z" fill-rule="nonzero"></path><path fill="#000000" fill-opacity="0.0" d="m424.5752 246.69879l56.944885 0l0 40.724396l-56.944885 0z" fill-rule="evenodd"></path><path fill="#002835" d="m450.00858 265.406l2.40625 0q1.71875 0 2.546875 -0.859375q0.828125 -0.859375 0.828125 -2.28125q0 -1.375 -0.828125 -2.140625q-0.8125 -0.765625 -2.25 -0.765625q-1.296875 0 -2.171875 0.71875q-0.875 0.703125 -0.875 1.84375l-4.515625 0q0 -1.78125 0.953125 -3.1875q0.96875 -1.421875 2.6875 -2.21875q1.734375 -0.79689026 3.8125 -0.79689026q3.609375 0 5.65625 1.7343903q2.046875 1.71875 2.046875 4.75q0 1.5625 -0.953125 2.875q-0.953125 1.3125 -2.5 2.015625q1.921875 0.6875 2.859375 2.0625q0.953125 1.375 0.953125 3.25q0 3.03125 -2.21875 4.859375q-2.203125 1.828125 -5.84375 1.828125q-3.40625 0 -5.578125 -1.796875q-2.15625 -1.796875 -2.15625 -4.75l4.515625 0q0 1.28125 0.953125 2.09375q0.96875 0.8125 2.375 0.8125q1.609375 0 2.515625 -0.84375q0.921875 -0.859375 0.921875 -2.265625q0 -3.40625 -3.75 -3.40625l-2.390625 0l0 -3.53125z" fill-rule="nonzero"></path><path fill="#000000" d="m256.1364 583.6772l0 0c0 -4.0095215 3.0388184 -7.2598267 6.7874146 -7.2598267l0 0c1.8001099 0 3.5265198 0.76483154 4.799408 2.1263428c1.2728882 1.3614502 1.9879761 3.2080688 1.9879761 5.133484l0 0c0 4.0094604 -3.0388184 7.2598267 -6.787384 7.2598267l0 0c-3.7485962 0 -6.7874146 -3.2503662 -6.7874146 -7.2598267z" fill-rule="evenodd"></path><path stroke="#000000" stroke-width="3.0" stroke-linejoin="round" stroke-linecap="butt" d="m256.1364 583.6772l0 0c0 -4.0095215 3.0388184 -7.2598267 6.7874146 -7.2598267l0 0c1.8001099 0 3.5265198 0.76483154 4.799408 2.1263428c1.2728882 1.3614502 1.9879761 3.2080688 1.9879761 5.133484l0 0c0 4.0094604 -3.0388184 7.2598267 -6.787384 7.2598267l0 0c-3.7485962 0 -6.7874146 -3.2503662 -6.7874146 -7.2598267z" fill-rule="evenodd"></path><path fill="#000000" fill-opacity="0.0" d="m279.29077 189.62518l56.944885 0l0 40.72441l-56.944885 0z" fill-rule="evenodd"></path><path fill="#002835" d="m311.09915 221.70738l-4.515625 0l0 -17.40625l-5.390625 1.671875l0 -3.671875l9.421875 -3.375l0.484375 0l0 22.78125z" fill-rule="nonzero"></path><path fill="#000000" fill-opacity="0.0" d="m348.13507 317.5644l76.44095 0l0 40.724426l-76.44095 0z" fill-rule="evenodd"></path><path fill="#54bb6f" d="m396.02744 338.78723q0 3.359375 -1.1875 5.890625q-1.1875 2.53125 -3.40625 3.90625q-2.203125 1.375 -5.0625 1.375q-2.828125 0 -5.046875 -1.359375q-2.2187805 -1.359375 -3.4375305 -3.875q-1.21875 -2.53125 -1.234375 -5.8125l0 -1.125q0 -3.359375 1.203125 -5.90625q1.21875 -2.5625 3.4219055 -3.921875q2.21875 -1.375 5.0625 -1.375q2.84375 0 5.046875 1.375q2.21875 1.359375 3.421875 3.921875q1.21875 2.546875 1.21875 5.890625l0 1.015625zm-4.75 -1.03125q0 -3.578125 -1.28125 -5.4375q-1.28125 -1.859375 -3.65625 -1.859375q-2.359375 0 -3.640625 1.84375q-1.28125 1.828125 -1.296875 5.375l0 1.109375q0 3.484375 1.28125 5.40625q1.28125 1.921875 3.6875 1.921875q2.359375 0 3.625 -1.84375q1.265625 -1.859375 1.28125 -5.40625l0 -1.109375z" fill-rule="nonzero"></path><path fill="#000000" fill-opacity="0.0" d="m204.65231 270.23236l76.44095 0l0 40.724426l-76.44095 0z" fill-rule="evenodd"></path><path fill="#54bb6f" d="m251.59154 279.56458l0 14.984375q0 3.734375 -2.34375 5.90625q-2.328125 2.171875 -6.375 2.171875q-3.984375 0 -6.328125 -2.109375q-2.34375 -2.109375 -2.390625 -5.796875l0 -15.15625l4.6875 0l0 15.015625q0 2.234375 1.0625 3.265625q1.078125 1.015625 2.96875 1.015625q3.953125 0 4.015625 -4.15625l0 -15.140625l4.703125 0z" fill-rule="nonzero"></path><path fill="#000000" d="m396.08453 445.1933l0 0c0 -4.009491 3.0388184 -7.259857 6.7874146 -7.259857l0 0c1.8001099 0 3.5265198 0.7648926 4.799408 2.1263733c1.2728882 1.3614807 1.9879761 3.2080383 1.9879761 5.133484l0 0c0 4.009491 -3.0388184 7.2598267 -6.787384 7.2598267l0 0c-3.7485962 0 -6.7874146 -3.2503357 -6.7874146 -7.2598267z" fill-rule="evenodd"></path><path stroke="#000000" stroke-width="3.0" stroke-linejoin="round" stroke-linecap="butt" d="m396.08453 445.1933l0 0c0 -4.009491 3.0388184 -7.259857 6.7874146 -7.259857l0 0c1.8001099 0 3.5265198 0.7648926 4.799408 2.1263733c1.2728882 1.3614807 1.9879761 3.2080383 1.9879761 5.133484l0 0c0 4.009491 -3.0388184 7.2598267 -6.787384 7.2598267l0 0c-3.7485962 0 -6.7874146 -3.2503357 -6.7874146 -7.2598267z" fill-rule="evenodd"></path><path fill="#000000" fill-opacity="0.0" d="m402.87195 437.93344l-1.1338806 -264.37793" fill-rule="evenodd"></path><path stroke="#54bb6f" stroke-width="4.0" stroke-linejoin="round" stroke-linecap="butt" d="m402.8131 424.22522l-1.0750427 -250.66971" fill-rule="evenodd"></path><path fill="#54bb6f" stroke="#54bb6f" stroke-width="4.0" stroke-linecap="butt" d="m402.81314 424.22522l-4.517578 -4.479004l4.5512695 12.339661l4.4453125 -12.378235z" fill-rule="evenodd"></path><path fill="#000000" fill-opacity="0.0" d="m364.6523 456.03577l76.44095 0l0 40.724426l-76.44095 0z" fill-rule="evenodd"></path><path fill="#002835" d="m412.13058 469.16486l-6.96875 0l0 18.953125l-4.6875 0l0 -18.953125l-6.875 0l0 -3.796875l18.53125 0l0 3.796875z" fill-rule="nonzero"></path><path fill="#000000" fill-opacity="0.0" d="m539.98425 292.0525l69.95276 0l0 40.724426l-69.95276 0z" fill-rule="evenodd"></path><path fill="#002835" d="m578.08453 324.1347l-4.6875 0l0 -9.75l-9.140625 0l0 9.75l-4.6875 0l0 -22.75l4.6875 0l0 9.21875l9.140625 0l0 -9.21875l4.6875 0l0 22.75z" fill-rule="nonzero"></path><path fill="#002835" d="m591.3814 329.86908q0 3.140625 -1.296875 4.8125q-1.296875 1.65625 -3.8125 1.65625q-2.484375 0 -3.796875 -1.625q-1.3125 -1.640625 -1.34375 -4.6875l0 -2.796875q0 -3.171875 1.3125 -4.8125q1.328125 -1.65625 3.796875 -1.65625q2.484375 0 3.796875 1.640625q1.3125 1.625 1.34375 4.671875l0 2.796875zm-3.0 -3.0625q0 -1.890625 -0.515625 -2.75q-0.515625 -0.859375 -1.609375 -0.859375q-1.0625 0 -1.578125 0.828125q-0.5 0.8125 -0.53125 2.546875l0 3.6875q0 1.859375 0.5 2.765625q0.515625 0.890625 1.625 0.890625q1.109375 0 1.59375 -0.859375q0.484375 -0.875 0.515625 -2.65625l0 -3.59375z" fill-rule="nonzero"></path><path fill="#000000" fill-opacity="0.0" d="m197.21124 530.37744l76.44095 0l0 40.724426l-76.44095 0z" fill-rule="evenodd"></path><path fill="#002835" d="m238.5556 562.45966l-4.6875 0l0 -9.75l-9.140625 0l0 9.75l-4.6875 0l0 -22.75l4.6875 0l0 9.21875l9.140625 0l0 -9.21875l4.6875 0l0 22.75z" fill-rule="nonzero"></path><path fill="#002835" d="m248.96185 574.45966l-3.015625 0l0 -11.59375l-3.59375 1.109375l0 -2.453125l6.28125 -2.25l0.328125 0l0 15.1875z" fill-rule="nonzero"></path><path fill="#000000" d="m394.9443 166.28183l0 0c0 -4.009491 3.0388184 -7.259842 6.787384 -7.259842l0 0c1.8001404 0 3.5265503 0.7648773 4.7994385 2.126358c1.2728882 1.361496 1.9879761 3.2080536 1.9879761 5.133484l0 0c0 4.009506 -3.0388184 7.259842 -6.7874146 7.259842l0 0c-3.7485657 0 -6.787384 -3.2503357 -6.787384 -7.259842z" fill-rule="evenodd"></path><path stroke="#000000" stroke-width="3.0" stroke-linejoin="round" stroke-linecap="butt" d="m394.9443 166.28183l0 0c0 -4.009491 3.0388184 -7.259842 6.787384 -7.259842l0 0c1.8001404 0 3.5265503 0.7648773 4.7994385 2.126358c1.2728882 1.361496 1.9879761 3.2080536 1.9879761 5.133484l0 0c0 4.009506 -3.0388184 7.259842 -6.7874146 7.259842l0 0c-3.7485657 0 -6.787384 -3.2503357 -6.787384 -7.259842z" fill-rule="evenodd"></path><path fill="#000000" fill-opacity="0.0" d="m263.54214 313.0087l0 -297.13385l276.44095 297.13385z" fill-rule="evenodd"></path><path stroke="#000000" stroke-width="3.0" stroke-linejoin="round" stroke-linecap="butt" d="m263.54214 313.0087l0 -297.13385l276.44095 297.13385z" fill-rule="evenodd"></path><path fill="#000000" fill-opacity="0.0" d="m530.28876 312.4145l-266.74014 0.5984192" fill-rule="evenodd"></path><path stroke="#54bb6f" stroke-width="4.0" stroke-linejoin="round" stroke-linecap="butt" d="m516.5805 312.44525l-253.03189 0.5676575" fill-rule="evenodd"></path><path fill="#54bb6f" stroke="#54bb6f" stroke-width="4.0" stroke-linecap="butt" d="m516.5805 312.44525l-4.4882812 4.508423l12.348999 -4.526062l-12.369141 -4.470581z" fill-rule="evenodd"></path><path fill="#000000" d="m394.9443 312.4145l0 0c0 -4.009491 3.0388184 -7.2598267 6.787384 -7.2598267l0 0c1.8001404 0 3.5265503 0.76486206 4.7994385 2.1263428c1.2728882 1.3614807 1.9879761 3.2080688 1.9879761 5.133484l0 0c0 4.009491 -3.0388184 7.259857 -6.7874146 7.259857l0 0c-3.7485657 0 -6.787384 -3.2503662 -6.787384 -7.259857z" fill-rule="evenodd"></path><path stroke="#000000" stroke-width="3.0" stroke-linejoin="round" stroke-linecap="butt" d="m394.9443 312.4145l0 0c0 -4.009491 3.0388184 -7.2598267 6.787384 -7.2598267l0 0c1.8001404 0 3.5265503 0.76486206 4.7994385 2.1263428c1.2728882 1.3614807 1.9879761 3.2080688 1.9879761 5.133484l0 0c0 4.009491 -3.0388184 7.259857 -6.7874146 7.259857l0 0c-3.7485657 0 -6.787384 -3.2503662 -6.787384 -7.259857z" fill-rule="evenodd"></path><path fill="#000000" fill-opacity="0.0" d="m376.29413 112.42782l56.944885 0l0 40.72442l-56.944885 0z" fill-rule="evenodd"></path><path fill="#54bb6f" d="m405.00876 136.1819l-3.734375 0l0 8.328125l-4.6875 0l0 -22.75l8.453125 0q4.03125 0 6.21875 1.796875q2.1875 1.796875 2.1875 5.078125q0 2.328125 -1.015625 3.890625q-1.0 1.546875 -3.046875 2.46875l4.921875 9.296875l0 0.21875l-5.03125 0l-4.265625 -8.328125zm-3.734375 -3.796875l3.78125 0q1.765625 0 2.734375 -0.890625q0.96875 -0.90625 0.96875 -2.484375q0 -1.609375 -0.921875 -2.53125q-0.90625 -0.921875 -2.796875 -0.921875l-3.765625 0l0 6.828125z" fill-rule="nonzero"></path><path fill="#000000" d="m256.1364 312.4145l0 0c0 -4.009491 3.0388184 -7.2598267 6.7874146 -7.2598267l0 0c1.8001099 0 3.5265198 0.76486206 4.799408 2.1263428c1.2728882 1.3614807 1.9879761 3.2080688 1.9879761 5.133484l0 0c0 4.009491 -3.0388184 7.259857 -6.787384 7.259857l0 0c-3.7485962 0 -6.7874146 -3.2503662 -6.7874146 -7.259857z" fill-rule="evenodd"></path><path stroke="#000000" stroke-width="3.0" stroke-linejoin="round" stroke-linecap="butt" d="m256.1364 312.4145l0 0c0 -4.009491 3.0388184 -7.2598267 6.7874146 -7.2598267l0 0c1.8001099 0 3.5265198 0.76486206 4.799408 2.1263428c1.2728882 1.3614807 1.9879761 3.2080688 1.9879761 5.133484l0 0c0 4.009491 -3.0388184 7.259857 -6.787384 7.259857l0 0c-3.7485962 0 -6.7874146 -3.2503662 -6.7874146 -7.259857z" fill-rule="evenodd"></path><path fill="#000000" d="m530.28876 312.4145l0 0c0 -4.009491 3.0388184 -7.2598267 6.7874146 -7.2598267l0 0c1.8001099 0 3.5265503 0.76486206 4.7994385 2.1263428c1.2728882 1.3614807 1.9879761 3.2080688 1.9879761 5.133484l0 0c0 4.009491 -3.0388184 7.259857 -6.7874146 7.259857l0 0c-3.7485962 0 -6.7874146 -3.2503662 -6.7874146 -7.259857z" fill-rule="evenodd"></path><path stroke="#000000" stroke-width="3.0" stroke-linejoin="round" stroke-linecap="butt" d="m530.28876 312.4145l0 0c0 -4.009491 3.0388184 -7.2598267 6.7874146 -7.2598267l0 0c1.8001099 0 3.5265503 0.76486206 4.7994385 2.1263428c1.2728882 1.3614807 1.9879761 3.2080688 1.9879761 5.133484l0 0c0 4.009491 -3.0388184 7.259857 -6.7874146 7.259857l0 0c-3.7485962 0 -6.7874146 -3.2503662 -6.7874146 -7.259857z" fill-rule="evenodd"></path></g></svg>

