<?xml version="1.0" standalone="yes"?>

<svg version="1.1" viewBox="0.0 0.0 800.0 600.0" fill="none" stroke="none" stroke-linecap="square" stroke-miterlimit="10" xmlns="http://www.w3.org/2000/svg" xmlns:xlink="http://www.w3.org/1999/xlink"><clipPath id="p.0"><path d="m0 0l800.0 0l0 600.0l-800.0 0l0 -600.0z" clip-rule="nonzero"></path></clipPath><g clip-path="url(#p.0)"><path fill="#000000" fill-opacity="0.0" d="m0 0l800.0 0l0 600.0l-800.0 0z" fill-rule="evenodd"></path><path fill="#78ffb1" fill-opacity="0.4192" d="m401.72443 312.66806l135.81104 0l-135.81104 -148.78741z" fill-rule="evenodd"></path><path stroke="#666666" stroke-width="2.0" stroke-linejoin="round" stroke-linecap="butt" d="m401.72443 312.66806l135.81104 0l-135.81104 -148.78741z" fill-rule="evenodd"></path><path fill="#000000" fill-opacity="0.0" d="m267.69354 313.0641l0 -299.02362l268.0 299.02362z" fill-rule="evenodd"></path><path stroke="#000000" stroke-width="3.0" stroke-linejoin="round" stroke-linecap="butt" d="m267.69354 313.0641l0 -299.02362l268.0 299.02362z" fill-rule="evenodd"></path><path fill="#000000" fill-opacity="0.0" d="m271.75058 580.3141l256.50394 -262.64566" fill-rule="evenodd"></path><path stroke="#54bb6f" stroke-width="4.0" stroke-linejoin="round" stroke-linecap="butt" d="m281.3285 570.50684l246.92603 -252.83841" fill-rule="evenodd"></path><path fill="#54bb6f" stroke="#54bb6f" stroke-width="4.0" stroke-linecap="butt" d="m281.3285 570.50684l-0.07525635 -6.361145l-5.416992 11.984924l11.853424 -5.6990356z" fill-rule="evenodd"></path><path fill="#000000" fill-opacity="0.0" d="m401.70065 312.95477l0 -149.48032" fill-rule="evenodd"></path><path stroke="#000000" stroke-width="3.0" stroke-linejoin="round" stroke-linecap="butt" d="m401.70065 312.95477l0 -149.48032" fill-rule="evenodd"></path><path fill="#000000" fill-opacity="0.0" d="m267.69354 163.55357l133.98425 -0.06298828" fill-rule="evenodd"></path><path stroke="#000000" stroke-width="3.0" stroke-linejoin="round" stroke-linecap="butt" d="m267.69354 163.55357l133.98425 -0.06298828" fill-rule="evenodd"></path><path fill="#000000" fill-opacity="0.0" d="m267.69354 313.06668l133.98425 -149.5748" fill-rule="evenodd"></path><path stroke="#000000" stroke-width="3.0" stroke-linejoin="round" stroke-linecap="butt" d="m267.69354 313.06668l133.98425 -149.5748" fill-rule="evenodd"></path><path fill="#000000" d="m260.51324 14.507867l0 0c0 -4.0442905 2.947174 -7.322835 6.582672 -7.322835l0 0c1.7458496 0 3.420166 0.7715106 4.654663 2.1448088c1.2344971 1.3732977 1.928009 3.2358894 1.928009 5.178026l0 0c0 4.0442896 -2.9471436 7.322835 -6.582672 7.322835l0 0c-3.635498 0 -6.582672 -3.2785454 -6.582672 -7.322835z" fill-rule="evenodd"></path><path stroke="#000000" stroke-width="3.0" stroke-linejoin="round" stroke-linecap="butt" d="m260.51324 14.507867l0 0c0 -4.0442905 2.947174 -7.322835 6.582672 -7.322835l0 0c1.7458496 0 3.420166 0.7715106 4.654663 2.1448088c1.2344971 1.3732977 1.928009 3.2358894 1.928009 5.178026l0 0c0 4.0442896 -2.9471436 7.322835 -6.582672 7.322835l0 0c-3.635498 0 -6.582672 -3.2785454 -6.582672 -7.322835z" fill-rule="evenodd"></path><path fill="#000000" d="m260.51324 163.5009l0 0c0 -4.0442963 2.947174 -7.3228455 6.582672 -7.3228455l0 0c1.7458496 0 3.420166 0.7715149 4.654663 2.144806c1.2344971 1.3733063 1.928009 3.2359009 1.928009 5.1780396l0 0c0 4.044281 -2.9471436 7.32283 -6.582672 7.32283l0 0c-3.635498 0 -6.582672 -3.2785492 -6.582672 -7.32283z" fill-rule="evenodd"></path><path stroke="#000000" stroke-width="3.0" stroke-linejoin="round" stroke-linecap="butt" d="m260.51324 163.5009l0 0c0 -4.0442963 2.947174 -7.3228455 6.582672 -7.3228455l0 0c1.7458496 0 3.420166 0.7715149 4.654663 2.144806c1.2344971 1.3733063 1.928009 3.2359009 1.928009 5.1780396l0 0c0 4.044281 -2.9471436 7.32283 -6.582672 7.32283l0 0c-3.635498 0 -6.582672 -3.2785492 -6.582672 -7.32283z" fill-rule="evenodd"></path><path fill="#000000" fill-opacity="0.0" d="m282.9629 97.14815l55.212585 0l0 41.007874l-55.212585 0z" fill-rule="evenodd"></path><path fill="#002835" d="m318.24887 119.965836q0 4.71875 -1.953125 7.21875q-1.953125 2.5 -5.71875 2.5q-3.71875 0 -5.6875 -2.453125q-1.96875 -2.453125 -2.015625 -7.03125l0 -4.1875q0 -4.765625 1.96875 -7.234375q1.984375 -2.46875 5.703125 -2.46875q3.71875 0 5.6875 2.453125q1.96875 2.4375 2.015625 7.015625l0 4.1875zm-4.515625 -4.59375q0 -2.828125 -0.78125 -4.109375q-0.765625 -1.296875 -2.40625 -1.296875q-1.59375 0 -2.359375 1.234375q-0.75 1.21875 -0.796875 3.828125l0 5.53125q0 2.78125 0.75 4.140625q0.765625 1.34375 2.4375 1.34375q1.65625 0 2.390625 -1.296875q0.734375 -1.296875 0.765625 -3.96875l0 -5.40625z" fill-rule="nonzero"></path><path fill="#000000" fill-opacity="0.0" d="m330.96558 246.34123l55.212585 0l0 41.00786l-55.212585 0z" fill-rule="evenodd"></path><path fill="#002835" d="m366.5328 278.56516l-15.59375 0l0 -3.09375l7.359375 -7.84375q1.515625 -1.65625 2.234375 -2.890625q0.734375 -1.234375 0.734375 -2.34375q0 -1.515625 -0.765625 -2.375q-0.765625 -0.875 -2.1875 -0.875q-1.53125 0 -2.421875 1.0625q-0.875 1.046875 -0.875 2.765625l-4.53125 0q0 -2.078125 0.984375 -3.796875q1.0 -1.71875 2.8125 -2.6875q1.8125 -0.98435974 4.109375 -0.98435974q3.515625 0 5.453125 1.6874847q1.953125 1.6875 1.953125 4.765625q0 1.6875 -0.875 3.4375q-0.875 1.75 -3.0 4.078125l-5.171875 5.453125l9.78125 0l0 3.640625z" fill-rule="nonzero"></path><path fill="#000000" fill-opacity="0.0" d="m423.82535 246.34123l55.212616 0l0 41.00786l-55.212616 0z" fill-rule="evenodd"></path><path fill="#002835" d="m448.3926 265.19016l2.40625 0q1.71875 0 2.546875 -0.859375q0.828125 -0.859375 0.828125 -2.28125q0 -1.375 -0.828125 -2.140625q-0.8125 -0.765625 -2.25 -0.765625q-1.296875 0 -2.171875 0.71875q-0.875 0.703125 -0.875 1.84375l-4.515625 0q0 -1.78125 0.953125 -3.1875q0.96875 -1.421875 2.6875 -2.21875q1.734375 -0.79685974 3.8125 -0.79685974q3.609375 0 5.65625 1.7343597q2.046875 1.71875 2.046875 4.75q0 1.5625 -0.953125 2.875q-0.953125 1.3125 -2.5 2.015625q1.921875 0.6875 2.859375 2.0625q0.953125 1.375 0.953125 3.25q0 3.03125 -2.21875 4.859375q-2.203125 1.828125 -5.84375 1.828125q-3.40625 0 -5.578125 -1.796875q-2.15625 -1.796875 -2.15625 -4.75l4.515625 0q0 1.28125 0.953125 2.09375q0.96875 0.8125 2.375 0.8125q1.609375 0 2.515625 -0.84375q0.921875 -0.859375 0.921875 -2.265625q0 -3.40625 -3.75 -3.40625l-2.390625 0l0 -3.53125z" fill-rule="nonzero"></path><path fill="#000000" d="m260.51324 585.4921l0 0c0 -4.0443115 2.947174 -7.322815 6.582672 -7.322815l0 0c1.7458496 0 3.420166 0.7714844 4.654663 2.1447754c1.2344971 1.373291 1.928009 3.2359009 1.928009 5.1780396l0 0c0 4.0443115 -2.9471436 7.322815 -6.582672 7.322815l0 0c-3.635498 0 -6.582672 -3.2785034 -6.582672 -7.322815z" fill-rule="evenodd"></path><path stroke="#000000" stroke-width="3.0" stroke-linejoin="round" stroke-linecap="butt" d="m260.51324 585.4921l0 0c0 -4.0443115 2.947174 -7.322815 6.582672 -7.322815l0 0c1.7458496 0 3.420166 0.7714844 4.654663 2.1447754c1.2344971 1.373291 1.928009 3.2359009 1.928009 5.1780396l0 0c0 4.0443115 -2.9471436 7.322815 -6.582672 7.322815l0 0c-3.635498 0 -6.582672 -3.2785034 -6.582672 -7.322815z" fill-rule="evenodd"></path><path fill="#000000" fill-opacity="0.0" d="m282.9629 188.90247l55.212585 0l0 41.007874l-55.212585 0z" fill-rule="evenodd"></path><path fill="#002835" d="m313.90512 221.1264l-4.515625 0l0 -17.40625l-5.390625 1.671875l0 -3.671875l9.421875 -3.375l0.484375 0l0 22.78125z" fill-rule="nonzero"></path><path fill="#000000" fill-opacity="0.0" d="m349.7118 317.66025l74.11023 0l0 41.007874l-74.11023 0z" fill-rule="evenodd"></path><path fill="#54bb6f" d="m396.43878 339.0248q0 3.359375 -1.1875 5.890625q-1.1875 2.53125 -3.40625 3.90625q-2.203125 1.375 -5.0625 1.375q-2.828125 0 -5.046875 -1.359375q-2.21875 -1.359375 -3.4375 -3.875q-1.21875 -2.53125 -1.234375 -5.8125l0 -1.125q0 -3.359375 1.203125 -5.90625q1.21875 -2.5625 3.421875 -3.921875q2.21875 -1.375 5.0625 -1.375q2.84375 0 5.046875 1.375q2.21875 1.359375 3.421875 3.921875q1.21875 2.546875 1.21875 5.890625l0 1.015625zm-4.75 -1.03125q0 -3.578125 -1.28125 -5.4375q-1.28125 -1.859375 -3.65625 -1.859375q-2.359375 0 -3.640625 1.84375q-1.28125 1.828125 -1.296875 5.375l0 1.109375q0 3.484375 1.28125 5.40625q1.28125 1.921875 3.6875 1.921875q2.359375 0 3.625 -1.84375q1.265625 -1.859375 1.28125 -5.40625l0 -1.109375z" fill-rule="nonzero"></path><path fill="#000000" fill-opacity="0.0" d="m365.72632 109.00169l74.11023 0l0 41.007874l-74.11023 0z" fill-rule="evenodd"></path><path fill="#54bb6f" d="m411.50018 118.47563l0 14.984375q0 3.734375 -2.34375 5.90625q-2.328125 2.171875 -6.375 2.171875q-3.984375 0 -6.328125 -2.109375q-2.34375 -2.109375 -2.390625 -5.796875l0 -15.15625l4.6875 0l0 15.015625q0 2.234375 1.0625 3.265625q1.078125 1.015625 2.96875 1.015625q3.953125 0 4.015625 -4.15625l0 -15.140625l4.703125 0z" fill-rule="nonzero"></path><path fill="#000000" d="m396.20184 446.12225l0 0c0 -4.0443115 2.947174 -7.3228455 6.582672 -7.3228455l0 0c1.7458496 0 3.420166 0.7715149 4.654663 2.144806c1.2344971 1.373291 1.9280396 3.2359009 1.9280396 5.1780396l0 0c0 4.044281 -2.947174 7.322815 -6.5827026 7.322815l0 0c-3.635498 0 -6.582672 -3.278534 -6.582672 -7.322815z" fill-rule="evenodd"></path><path stroke="#000000" stroke-width="3.0" stroke-linejoin="round" stroke-linecap="butt" d="m396.20184 446.12225l0 0c0 -4.0443115 2.947174 -7.3228455 6.582672 -7.3228455l0 0c1.7458496 0 3.420166 0.7715149 4.654663 2.144806c1.2344971 1.373291 1.9280396 3.2359009 1.9280396 5.1780396l0 0c0 4.044281 -2.947174 7.322815 -6.5827026 7.322815l0 0c-3.635498 0 -6.582672 -3.278534 -6.582672 -7.322815z" fill-rule="evenodd"></path><path fill="#000000" fill-opacity="0.0" d="m402.78452 438.7994l-1.102356 -266.04724" fill-rule="evenodd"></path><path stroke="#54bb6f" stroke-width="4.0" stroke-linejoin="round" stroke-linecap="butt" d="m402.72772 425.09122l-1.0455627 -252.33907" fill-rule="evenodd"></path><path fill="#54bb6f" stroke="#54bb6f" stroke-width="4.0" stroke-linecap="butt" d="m402.72772 425.0912l-4.5169373 -4.479645l4.54953 12.340332l4.4470825 -12.3776245z" fill-rule="evenodd"></path><path fill="#000000" fill-opacity="0.0" d="m365.72632 457.01755l74.11023 0l0 41.007874l-74.11023 0z" fill-rule="evenodd"></path><path fill="#002835" d="m412.03925 470.28836l-6.96875 0l0 18.953125l-4.6875 0l0 -18.953125l-6.875 0l0 -3.796875l18.53125 0l0 3.796875z" fill-rule="nonzero"></path><path fill="#000000" fill-opacity="0.0" d="m521.362 292.9449l140.12598 0l0 41.007874l-140.12598 0z" fill-rule="evenodd"></path><path fill="#54bb6f" d="m557.1192 316.8407l-3.734375 0l0 8.328125l-4.6875 0l0 -22.75l8.453125 0q4.03125 0 6.21875 1.796875q2.1875 1.796875 2.1875 5.078125q0 2.328125 -1.015625 3.890625q-1.0 1.546875 -3.046875 2.46875l4.921875 9.296875l0 0.21875l-5.03125 0l-4.265625 -8.328125zm-3.734375 -3.796875l3.78125 0q1.765625 0 2.734375 -0.890625q0.96875 -0.90625 0.96875 -2.484375q0 -1.609375 -0.921875 -2.53125q-0.90625 -0.921875 -2.796875 -0.921875l-3.765625 0l0 6.828125z" fill-rule="nonzero"></path><path fill="#002835" d="m591.1504 313.51257l-13.968689 0l0 -3.6875l13.968689 0l0 3.6875zm0 6.765625l-13.968689 0l0 -3.6875l13.968689 0l0 3.6875zm30.734375 4.890625l-4.6875 0l0 -9.75l-9.140625 0l0 9.75l-4.6875 0l0 -22.75l4.6875 0l0 9.21875l9.140625 0l0 -9.21875l4.6875 0l0 22.75z" fill-rule="nonzero"></path><path fill="#002835" d="m635.18164 330.9032q0 3.140625 -1.296875 4.8125q-1.296875 1.65625 -3.8125 1.65625q-2.484375 0 -3.796875 -1.625q-1.3125 -1.640625 -1.34375 -4.6875l0 -2.796875q0 -3.171875 1.3125 -4.8125q1.328125 -1.65625 3.796875 -1.65625q2.484375 0 3.796875 1.640625q1.3125 1.625 1.34375 4.671875l0 2.796875zm-3.0 -3.0625q0 -1.890625 -0.515625 -2.75q-0.515625 -0.859375 -1.609375 -0.859375q-1.0625 0 -1.578125 0.828125q-0.5 0.8125 -0.53125 2.546875l0 3.6875q0 1.859375 0.5 2.765625q0.515625 0.890625 1.625 0.890625q1.109375 0 1.59375 -0.859375q0.484375 -0.875 0.515625 -2.65625l0 -3.59375z" fill-rule="nonzero"></path><path fill="#000000" fill-opacity="0.0" d="m193.75066 545.2772l74.110245 0l0 41.007874l-74.110245 0z" fill-rule="evenodd"></path><path fill="#002835" d="m233.92966 577.50116l-4.6875 0l0 -9.75l-9.140625 0l0 9.75l-4.6875 0l0 -22.75l4.6875 0l0 9.21875l9.140625 0l0 -9.21875l4.6875 0l0 22.75z" fill-rule="nonzero"></path><path fill="#002835" d="m244.3359 589.50116l-3.015625 0l0 -11.59375l-3.59375 1.109375l0 -2.453125l6.28125 -2.25l0.328125 0l0 15.1875z" fill-rule="nonzero"></path><path fill="#000000" d="m395.0963 312.49393l0 0c0 -4.0443115 2.947174 -7.3228455 6.582672 -7.3228455l0 0c1.7458496 0 3.420166 0.7715149 4.654663 2.144806c1.2344971 1.373291 1.928009 3.2359009 1.928009 5.1780396l0 0c0 4.044281 -2.9471436 7.322815 -6.582672 7.322815l0 0c-3.635498 0 -6.582672 -3.278534 -6.582672 -7.322815z" fill-rule="evenodd"></path><path stroke="#000000" stroke-width="3.0" stroke-linejoin="round" stroke-linecap="butt" d="m395.0963 312.49393l0 0c0 -4.0443115 2.947174 -7.3228455 6.582672 -7.3228455l0 0c1.7458496 0 3.420166 0.7715149 4.654663 2.144806c1.2344971 1.373291 1.928009 3.2359009 1.928009 5.1780396l0 0c0 4.044281 -2.9471436 7.322815 -6.582672 7.322815l0 0c-3.635498 0 -6.582672 -3.278534 -6.582672 -7.322815z" fill-rule="evenodd"></path><path fill="#000000" d="m260.51324 312.49393l0 0c0 -4.0443115 2.947174 -7.3228455 6.582672 -7.3228455l0 0c1.7458496 0 3.420166 0.7715149 4.654663 2.144806c1.2344971 1.373291 1.928009 3.2359009 1.928009 5.1780396l0 0c0 4.044281 -2.9471436 7.322815 -6.582672 7.322815l0 0c-3.635498 0 -6.582672 -3.278534 -6.582672 -7.322815z" fill-rule="evenodd"></path><path stroke="#000000" stroke-width="3.0" stroke-linejoin="round" stroke-linecap="butt" d="m260.51324 312.49393l0 0c0 -4.0443115 2.947174 -7.3228455 6.582672 -7.3228455l0 0c1.7458496 0 3.420166 0.7715149 4.654663 2.144806c1.2344971 1.373291 1.928009 3.2359009 1.928009 5.1780396l0 0c0 4.044281 -2.9471436 7.322815 -6.582672 7.322815l0 0c-3.635498 0 -6.582672 -3.278534 -6.582672 -7.322815z" fill-rule="evenodd"></path><path fill="#000000" d="m526.3214 312.49393l0 0c0 -4.0443115 2.9471436 -7.3228455 6.5826416 -7.3228455l0 0c1.7458496 0 3.420166 0.7715149 4.654663 2.144806c1.2344971 1.373291 1.9280396 3.2359009 1.9280396 5.1780396l0 0c0 4.044281 -2.9471436 7.322815 -6.5827026 7.322815l0 0c-3.635498 0 -6.5826416 -3.278534 -6.5826416 -7.322815z" fill-rule="evenodd"></path><path stroke="#000000" stroke-width="3.0" stroke-linejoin="round" stroke-linecap="butt" d="m526.3214 312.49393l0 0c0 -4.0443115 2.9471436 -7.3228455 6.5826416 -7.3228455l0 0c1.7458496 0 3.420166 0.7715149 4.654663 2.144806c1.2344971 1.373291 1.9280396 3.2359009 1.9280396 5.1780396l0 0c0 4.044281 -2.9471436 7.322815 -6.5827026 7.322815l0 0c-3.635498 0 -6.5826416 -3.278534 -6.5826416 -7.322815z" fill-rule="evenodd"></path><path fill="#000000" d="m395.0963 165.42632l0 0c0 -4.0442963 2.947174 -7.3228455 6.582672 -7.3228455l0 0c1.7458496 0 3.420166 0.7715149 4.654663 2.1448212c1.2344971 1.373291 1.928009 3.2358856 1.928009 5.1780243l0 0c0 4.044281 -2.9471436 7.32283 -6.582672 7.32283l0 0c-3.635498 0 -6.582672 -3.2785492 -6.582672 -7.32283z" fill-rule="evenodd"></path><path stroke="#000000" stroke-width="3.0" stroke-linejoin="round" stroke-linecap="butt" d="m395.0963 165.42632l0 0c0 -4.0442963 2.947174 -7.3228455 6.582672 -7.3228455l0 0c1.7458496 0 3.420166 0.7715149 4.654663 2.1448212c1.2344971 1.373291 1.928009 3.2358856 1.928009 5.1780243l0 0c0 4.044281 -2.9471436 7.32283 -6.582672 7.32283l0 0c-3.635498 0 -6.582672 -3.2785492 -6.582672 -7.32283z" fill-rule="evenodd"></path></g></svg>

