<?xml version="1.0" standalone="yes"?>

<svg version="1.1" viewBox="0.0 0.0 800.0 600.0" fill="none" stroke="none" stroke-linecap="square" stroke-miterlimit="10" xmlns="http://www.w3.org/2000/svg" xmlns:xlink="http://www.w3.org/1999/xlink"><clipPath id="p.0"><path d="m0 0l800.0 0l0 600.0l-800.0 0l0 -600.0z" clip-rule="nonzero"></path></clipPath><g clip-path="url(#p.0)"><path fill="#000000" fill-opacity="0.0" d="m0 0l800.0 0l0 600.0l-800.0 0z" fill-rule="evenodd"></path><path fill="#2196f3" fill-opacity="0.3808" d="m399.3413 294.81003l177.57483 0l-177.57483 194.80313z" fill-rule="evenodd"></path><path fill="#000000" fill-opacity="0.0" d="m400.11618 490.84793l0 -391.87402l355.21262 391.87402z" fill-rule="evenodd"></path><path stroke="#999999" stroke-width="3.0" stroke-linejoin="round" stroke-linecap="butt" d="m400.11618 490.84793l0 -391.87402l355.21262 391.87402z" fill-rule="evenodd"></path><path fill="#000000" fill-opacity="0.0" d="m568.9655 297.35892l-325.29138 -2.5196838" fill-rule="evenodd"></path><path stroke="#4a86e8" stroke-width="4.0" stroke-linejoin="round" stroke-linecap="butt" d="m568.96545 297.35892l-311.58337 -2.4135132" fill-rule="evenodd"></path><path fill="#4a86e8" stroke="#4a86e8" stroke-width="4.0" stroke-linecap="butt" d="m257.38208 294.94543l4.5330505 -4.463379l-12.393539 4.402466l12.323837 4.593933z" fill-rule="evenodd"></path><path fill="#000000" fill-opacity="0.0" d="m577.7184 490.7009l0 -195.87402" fill-rule="evenodd"></path><path stroke="#999999" stroke-width="3.0" stroke-linejoin="round" stroke-linecap="butt" d="m577.7184 490.7009l0 -195.87402" fill-rule="evenodd"></path><path fill="#000000" fill-opacity="0.0" d="m400.11618 490.84756l177.5748 -196.0315" fill-rule="evenodd"></path><path stroke="#999999" stroke-width="3.0" stroke-linejoin="round" stroke-linecap="butt" d="m400.11618 490.84756l177.5748 -196.0315" fill-rule="evenodd"></path><path fill="#000000" fill-opacity="0.0" d="m420.3529 207.88646l73.19687 0l0 53.70079l-73.19687 0z" fill-rule="evenodd"></path><path fill="#002835" d="m464.631 237.0506q0 4.71875 -1.953125 7.21875q-1.953125 2.5 -5.71875 2.5q-3.71875 0 -5.6875 -2.453125q-1.96875 -2.453125 -2.015625 -7.03125l0 -4.1875q0 -4.765625 1.96875 -7.234375q1.984375 -2.46875 5.703125 -2.46875q3.71875 0 5.6875 2.453125q1.96875 2.4375 2.015625 7.015625l0 4.1875zm-4.515625 -4.59375q0 -2.828125 -0.78125 -4.109375q-0.765625 -1.296875 -2.40625 -1.296875q-1.59375 0 -2.359375 1.234375q-0.75 1.21875 -0.796875 3.828125l0 5.53125q0 2.78125 0.75 4.140625q0.765625 1.34375 2.4375 1.34375q1.65625 0 2.390625 -1.296875q0.734375 -1.296875 0.765625 -3.96875l0 -5.40625z" fill-rule="nonzero"></path><path fill="#000000" fill-opacity="0.0" d="m483.9718 403.40387l73.19684 0l0 53.700806l-73.19684 0z" fill-rule="evenodd"></path><path fill="#002835" d="m528.5312 441.97427l-15.593811 0l0 -3.09375l7.359436 -7.84375q1.515625 -1.65625 2.234375 -2.890625q0.734375 -1.234375 0.734375 -2.34375q0 -1.515625 -0.765625 -2.375q-0.765625 -0.875 -2.1875 -0.875q-1.53125 0 -2.421875 1.0625q-0.875 1.046875 -0.875 2.765625l-4.531311 0q0 -2.078125 0.984375 -3.796875q1.0 -1.71875 2.812561 -2.6875q1.8125 -0.984375 4.109375 -0.984375q3.515625 0 5.453125 1.6875q1.953125 1.6875 1.953125 4.765625q0 1.6875 -0.875 3.4375q-0.875 1.75 -3.0 4.078125l-5.171875 5.453125l9.78125 0l0 3.640625z" fill-rule="nonzero"></path><path fill="#000000" fill-opacity="0.0" d="m607.04065 403.40387l73.19684 0l0 53.700806l-73.19684 0z" fill-rule="evenodd"></path><path fill="#002835" d="m640.6 428.59927l2.40625 0q1.71875 0 2.546875 -0.859375q0.828125 -0.859375 0.828125 -2.28125q0 -1.375 -0.828125 -2.140625q-0.8125 -0.765625 -2.25 -0.765625q-1.296875 0 -2.171875 0.71875q-0.875 0.703125 -0.875 1.84375l-4.515625 0q0 -1.78125 0.953125 -3.1875q0.96875 -1.421875 2.6875 -2.21875q1.734375 -0.796875 3.8125 -0.796875q3.609375 0 5.65625 1.734375q2.046875 1.71875 2.046875 4.75q0 1.5625 -0.953125 2.875q-0.953125 1.3125 -2.5 2.015625q1.921875 0.6875 2.859375 2.0625q0.953125 1.375 0.953125 3.25q0 3.03125 -2.21875 4.859375q-2.203125 1.828125 -5.84375 1.828125q-3.40625 0 -5.578125 -1.796875q-2.15625 -1.796875 -2.15625 -4.75l4.515625 0q0 1.28125 0.953125 2.09375q0.96875 0.8125 2.375 0.8125q1.609375 0 2.515625 -0.84375q0.921875 -0.859375 0.921875 -2.265625q0 -3.40625 -3.75 -3.40625l-2.390625 0l0 -3.53125z" fill-rule="nonzero"></path><path fill="#000000" fill-opacity="0.0" d="m340.55588 288.03915l67.49606 0l0 53.700806l-67.49606 0z" fill-rule="evenodd"></path><path fill="#1155cc" d="m383.9758 315.75018q0 3.359375 -1.1875 5.890625q-1.1875 2.53125 -3.40625 3.90625q-2.203125 1.375 -5.0625 1.375q-2.828125 0 -5.046875 -1.359375q-2.21875 -1.359375 -3.4375 -3.875q-1.21875 -2.53125 -1.234375 -5.8125l0 -1.125q0 -3.359375 1.203125 -5.90625q1.21875 -2.5625 3.421875 -3.921875q2.21875 -1.375 5.0625 -1.375q2.84375 0 5.046875 1.375q2.21875 1.359375 3.421875 3.921875q1.21875 2.546875 1.21875 5.890625l0 1.015625zm-4.75 -1.03125q0 -3.578125 -1.28125 -5.4375q-1.28125 -1.859375 -3.65625 -1.859375q-2.359375 0 -3.640625 1.84375q-1.28125 1.828125 -1.296875 5.375l0 1.109375q0 3.484375 1.28125 5.40625q1.28125 1.921875 3.6875 1.921875q2.359375 0 3.625 -1.84375q1.265625 -1.859375 1.28125 -5.40625l0 -1.109375z" fill-rule="nonzero"></path><path fill="#000000" fill-opacity="0.0" d="m586.4101 267.95914l58.078735 0l0 53.700806l-58.078735 0z" fill-rule="evenodd"></path><path fill="#1155cc" d="m624.1682 283.77954l0 14.984375q0 3.734375 -2.34375 5.90625q-2.328125 2.171875 -6.375 2.171875q-3.984375 0 -6.328125 -2.109375q-2.34375 -2.109375 -2.390625 -5.796875l0 -15.15625l4.6875 0l0 15.015625q0 2.234375 1.0625 3.265625q1.078125 1.015625 2.96875 1.015625q3.953125 0 4.015625 -4.15625l0 -15.140625l4.703125 0z" fill-rule="nonzero"></path><path fill="#000000" fill-opacity="0.0" d="m308.7993 499.6626l156.53543 0l0 53.700806l-156.53543 0z" fill-rule="evenodd"></path><path fill="#1155cc" d="m387.3092 529.90485l-3.734375 0l0 8.328125l-4.6875 0l0 -22.75l8.453125 0q4.03125 0 6.21875 1.796875q2.1875 1.796875 2.1875 5.078125q0 2.328125 -1.015625 3.890625q-1.0 1.546875 -3.046875 2.46875l4.921875 9.296875l0 0.21875l-5.03125 0l-4.265625 -8.328125zm-3.734375 -3.796875l3.78125 0q1.765625 0 2.734375 -0.890625q0.96875 -0.90625 0.96875 -2.484375q0 -1.609375 -0.921875 -2.53125q-0.90625 -0.921875 -2.796875 -0.921875l-3.765625 0l0 6.828125z" fill-rule="nonzero"></path><path fill="#000000" fill-opacity="0.0" d="m420.3529 328.13043l73.19687 0l0 53.700775l-73.19687 0z" fill-rule="evenodd"></path><path fill="#002835" d="m460.28726 366.7008l-4.515625 0l0 -17.40625l-5.390625 1.671875l0 -3.671875l9.421875 -3.375l0.484375 0l0 22.78125z" fill-rule="nonzero"></path><path fill="#000000" fill-opacity="0.0" d="m39.7021 499.65378l87.40158 0l0 53.700775l-87.40158 0z" fill-rule="evenodd"></path><path fill="#002835" d="m86.52677 538.2242l-4.6875 0l0 -9.75l-9.140625 0l0 9.75l-4.6875 0l0 -22.75l4.6875 0l0 9.21875l9.140625 0l0 -9.21875l4.6875 0l0 22.75z" fill-rule="nonzero"></path><path fill="#002835" d="m96.93302 550.2242l-3.015625 0l0 -11.59375l-3.59375 1.109375l0 -2.453125l6.28125 -2.25l0.328125 0l0 15.1875z" fill-rule="nonzero"></path><path fill="#000000" fill-opacity="0.0" d="m127.07208 267.95914l156.53543 0l0 53.700806l-156.53543 0z" fill-rule="evenodd"></path><path fill="#002835" d="m214.59761 287.57642l-6.96875 0l0 18.953125l-4.6875 0l0 -18.953125l-6.875 0l0 -3.796875l18.53125 0l0 3.796875z" fill-rule="nonzero"></path><path fill="#000000" fill-opacity="0.0" d="m393.1507 106.36196l-315.65353 376.9449" fill-rule="evenodd"></path><path stroke="#4a86e8" stroke-width="4.0" stroke-linejoin="round" stroke-linecap="butt" d="m393.15073 106.36196l-306.8525 366.43488" fill-rule="evenodd"></path><path fill="#4a86e8" stroke="#4a86e8" stroke-width="4.0" stroke-linecap="butt" d="m86.29822 472.79684l-0.56077576 -6.336853l-4.4859924 12.363556l11.383606 -6.5874634z" fill-rule="evenodd"></path><path fill="#000000" fill-opacity="0.0" d="m323.26175 30.636604l156.53543 0l0 53.70079l-156.53543 0z" fill-rule="evenodd"></path><path fill="#002835" d="m404.65335 69.207l-4.6875 0l0 -9.750004l-9.140625 0l0 9.750004l-4.6875 0l0 -22.750004l4.6875 0l0 9.21875l9.140625 0l0 -9.21875l4.6875 0l0 22.750004z" fill-rule="nonzero"></path><path fill="#002835" d="m417.95023 74.941376q0 3.140625 -1.296875 4.8125q-1.296875 1.65625 -3.8125 1.65625q-2.484375 0 -3.796875 -1.625q-1.3125 -1.640625 -1.34375 -4.6875l0 -2.796875q0 -3.171875 1.3125 -4.8125q1.328125 -1.65625 3.796875 -1.65625q2.484375 0 3.796875 1.640625q1.3125 1.625 1.34375 4.671875l0 2.796875zm-3.0 -3.0625q0 -1.890625 -0.515625 -2.75q-0.515625 -0.859375 -1.609375 -0.859375q-1.0625 0 -1.578125 0.828125q-0.5 0.8125 -0.53125 2.546875l0 3.6875q0 1.859375 0.5 2.765625q0.515625 0.890625 1.625 0.890625q1.109375 0 1.59375 -0.859375q0.484375 -0.875 0.515625 -2.65625l0 -3.59375z" fill-rule="nonzero"></path><path fill="#000000" fill-opacity="0.0" d="m399.30865 480.50037l0 -371.33856" fill-rule="evenodd"></path><path stroke="#4a86e8" stroke-width="4.0" stroke-linejoin="round" stroke-linecap="butt" d="m399.30865 480.50037l0 -357.63025" fill-rule="evenodd"></path><path fill="#4a86e8" stroke="#4a86e8" stroke-width="4.0" stroke-linecap="butt" d="m399.30865 122.87013l4.4983215 4.498337l-4.4983215 -12.359077l-4.498352 12.359077z" fill-rule="evenodd"></path><path fill="#000000" d="m568.9655 490.0909l0 0c0 -5.296692 3.8989868 -9.590546 8.708618 -9.590546l0 0c2.3096924 0 4.5247803 1.010437 6.157959 2.809021c1.6331787 1.798584 2.5507202 4.237976 2.5507202 6.7815247l0 0c0 5.2967224 -3.8989868 9.590576 -8.708679 9.590576l0 0c-4.8096313 0 -8.708618 -4.2938538 -8.708618 -9.590576z" fill-rule="evenodd"></path><path stroke="#000000" stroke-width="3.0" stroke-linejoin="round" stroke-linecap="butt" d="m568.9655 490.0909l0 0c0 -5.296692 3.8989868 -9.590546 8.708618 -9.590546l0 0c2.3096924 0 4.5247803 1.010437 6.157959 2.809021c1.6331787 1.798584 2.5507202 4.237976 2.5507202 6.7815247l0 0c0 5.2967224 -3.8989868 9.590576 -8.708679 9.590576l0 0c-4.8096313 0 -8.708618 -4.2938538 -8.708618 -9.590576z" fill-rule="evenodd"></path><path fill="#000000" d="m568.9655 297.35892l0 0c0 -5.296692 3.8989868 -9.590546 8.708618 -9.590546l0 0c2.3096924 0 4.5247803 1.010437 6.157959 2.809021c1.6331787 1.798584 2.5507202 4.237976 2.5507202 6.7815247l0 0c0 5.2967224 -3.8989868 9.590576 -8.708679 9.590576l0 0c-4.8096313 0 -8.708618 -4.2938538 -8.708618 -9.590576z" fill-rule="evenodd"></path><path stroke="#000000" stroke-width="3.0" stroke-linejoin="round" stroke-linecap="butt" d="m568.9655 297.35892l0 0c0 -5.296692 3.8989868 -9.590546 8.708618 -9.590546l0 0c2.3096924 0 4.5247803 1.010437 6.157959 2.809021c1.6331787 1.798584 2.5507202 4.237976 2.5507202 6.7815247l0 0c0 5.2967224 -3.8989868 9.590576 -8.708679 9.590576l0 0c-4.8096313 0 -8.708618 -4.2938538 -8.708618 -9.590576z" fill-rule="evenodd"></path><path fill="#000000" d="m742.88055 490.0909l0 0c0 -5.296692 3.8990479 -9.590546 8.708679 -9.590546l0 0c2.3096924 0 4.5247803 1.010437 6.157959 2.809021c1.6331787 1.798584 2.5507202 4.237976 2.5507202 6.7815247l0 0c0 5.2967224 -3.8989868 9.590576 -8.708679 9.590576l0 0c-4.8096313 0 -8.708679 -4.2938538 -8.708679 -9.590576z" fill-rule="evenodd"></path><path stroke="#000000" stroke-width="3.0" stroke-linejoin="round" stroke-linecap="butt" d="m742.88055 490.0909l0 0c0 -5.296692 3.8990479 -9.590546 8.708679 -9.590546l0 0c2.3096924 0 4.5247803 1.010437 6.157959 2.809021c1.6331787 1.798584 2.5507202 4.237976 2.5507202 6.7815247l0 0c0 5.2967224 -3.8989868 9.590576 -8.708679 9.590576l0 0c-4.8096313 0 -8.708679 -4.2938538 -8.708679 -9.590576z" fill-rule="evenodd"></path><path fill="#000000" d="m62.64418 490.08643l0 0c0 -5.296692 3.899002 -9.590546 8.708656 -9.590546l0 0c2.3096848 0 4.524765 1.010437 6.157959 2.809021c1.6331863 1.7985535 2.550705 4.237976 2.550705 6.7815247l0 0c0 5.2967224 -3.899002 9.590546 -8.708664 9.590546l0 0c-4.809654 0 -8.708656 -4.2938232 -8.708656 -9.590546z" fill-rule="evenodd"></path><path stroke="#000000" stroke-width="3.0" stroke-linejoin="round" stroke-linecap="butt" d="m62.64418 490.08643l0 0c0 -5.296692 3.899002 -9.590546 8.708656 -9.590546l0 0c2.3096848 0 4.524765 1.010437 6.157959 2.809021c1.6331863 1.7985535 2.550705 4.237976 2.550705 6.7815247l0 0c0 5.2967224 -3.899002 9.590546 -8.708664 9.590546l0 0c-4.809654 0 -8.708656 -4.2938232 -8.708656 -9.590546z" fill-rule="evenodd"></path><path fill="#000000" d="m226.24681 294.83566l0 0c0 -5.2967224 3.899002 -9.590546 8.708664 -9.590546l0 0c2.3096771 0 4.524765 1.010437 6.157959 2.809021c1.633194 1.7985535 2.550705 4.2379456 2.550705 6.7815247l0 0c0 5.2967224 -3.899002 9.590546 -8.708664 9.590546l0 0c-4.809662 0 -8.708664 -4.2938232 -8.708664 -9.590546z" fill-rule="evenodd"></path><path stroke="#000000" stroke-width="3.0" stroke-linejoin="round" stroke-linecap="butt" d="m226.24681 294.83566l0 0c0 -5.2967224 3.899002 -9.590546 8.708664 -9.590546l0 0c2.3096771 0 4.524765 1.010437 6.157959 2.809021c1.633194 1.7985535 2.550705 4.2379456 2.550705 6.7815247l0 0c0 5.2967224 -3.899002 9.590546 -8.708664 9.590546l0 0c-4.809662 0 -8.708664 -4.2938232 -8.708664 -9.590546z" fill-rule="evenodd"></path><path fill="#000000" d="m390.59998 99.580414l0 0c0 -5.296715 3.8990173 -9.590546 8.708679 -9.590546l0 0c2.3096619 0 4.5247498 1.0104294 6.157959 2.8090057c1.6331787 1.7985764 2.5506897 4.2379684 2.5506897 6.78154l0 0c0 5.296715 -3.8989868 9.590553 -8.708649 9.590553l0 0c-4.809662 0 -8.708679 -4.2938385 -8.708679 -9.590553z" fill-rule="evenodd"></path><path stroke="#000000" stroke-width="3.0" stroke-linejoin="round" stroke-linecap="butt" d="m390.59998 99.580414l0 0c0 -5.296715 3.8990173 -9.590546 8.708679 -9.590546l0 0c2.3096619 0 4.5247498 1.0104294 6.157959 2.8090057c1.6331787 1.7985764 2.5506897 4.2379684 2.5506897 6.78154l0 0c0 5.296715 -3.8989868 9.590553 -8.708649 9.590553l0 0c-4.809662 0 -8.708679 -4.2938385 -8.708679 -9.590553z" fill-rule="evenodd"></path><path fill="#000000" d="m390.59998 294.83566l0 0c0 -5.2967224 3.8990173 -9.590546 8.708679 -9.590546l0 0c2.3096619 0 4.5247498 1.010437 6.157959 2.809021c1.6331787 1.7985535 2.5506897 4.2379456 2.5506897 6.7815247l0 0c0 5.2967224 -3.8989868 9.590546 -8.708649 9.590546l0 0c-4.809662 0 -8.708679 -4.2938232 -8.708679 -9.590546z" fill-rule="evenodd"></path><path stroke="#000000" stroke-width="3.0" stroke-linejoin="round" stroke-linecap="butt" d="m390.59998 294.83566l0 0c0 -5.2967224 3.8990173 -9.590546 8.708679 -9.590546l0 0c2.3096619 0 4.5247498 1.010437 6.157959 2.809021c1.6331787 1.7985535 2.5506897 4.2379456 2.5506897 6.7815247l0 0c0 5.2967224 -3.8989868 9.590546 -8.708649 9.590546l0 0c-4.809662 0 -8.708679 -4.2938232 -8.708679 -9.590546z" fill-rule="evenodd"></path><path fill="#000000" d="m390.59998 490.0909l0 0c0 -5.296692 3.8990173 -9.590546 8.708679 -9.590546l0 0c2.3096619 0 4.5247498 1.010437 6.157959 2.809021c1.6331787 1.798584 2.5506897 4.237976 2.5506897 6.7815247l0 0c0 5.2967224 -3.8989868 9.590576 -8.708649 9.590576l0 0c-4.809662 0 -8.708679 -4.2938538 -8.708679 -9.590576z" fill-rule="evenodd"></path><path stroke="#000000" stroke-width="3.0" stroke-linejoin="round" stroke-linecap="butt" d="m390.59998 490.0909l0 0c0 -5.296692 3.8990173 -9.590546 8.708679 -9.590546l0 0c2.3096619 0 4.5247498 1.010437 6.157959 2.809021c1.6331787 1.798584 2.5506897 4.237976 2.5506897 6.7815247l0 0c0 5.2967224 -3.8989868 9.590576 -8.708649 9.590576l0 0c-4.809662 0 -8.708679 -4.2938538 -8.708679 -9.590576z" fill-rule="evenodd"></path></g></svg>

