<?xml version="1.0" standalone="yes"?>

<svg version="1.1" viewBox="0.0 0.0 800.0 600.0" fill="none" stroke="none" stroke-linecap="square" stroke-miterlimit="10" xmlns="http://www.w3.org/2000/svg" xmlns:xlink="http://www.w3.org/1999/xlink"><clipPath id="p.0"><path d="m0 0l800.0 0l0 600.0l-800.0 0l0 -600.0z" clip-rule="nonzero"></path></clipPath><g clip-path="url(#p.0)"><path fill="#000000" fill-opacity="0.0" d="m0 0l800.0 0l0 600.0l-800.0 0z" fill-rule="evenodd"></path><path fill="#000000" fill-opacity="0.0" d="m39.542133 313.0087l0 -297.13385l276.44092 297.13385z" fill-rule="evenodd"></path><path stroke="#b7b7b7" stroke-width="3.0" stroke-linejoin="round" stroke-linecap="butt" d="m39.542133 313.0087l0 -297.13385l276.44092 297.13385z" fill-rule="evenodd"></path><path fill="#78ffb1" fill-opacity="0.4192" d="m178.87138 314.64304l0 -148.6614l-139.33858 148.6614z" fill-rule="evenodd"></path><path fill="#000000" fill-opacity="0.0" d="m43.723236 578.5437l264.56693 -261.00787" fill-rule="evenodd"></path><path stroke="#54bb6f" stroke-width="4.0" stroke-linejoin="round" stroke-linecap="butt" d="m53.48192 568.91626l254.80824 -251.38043" fill-rule="evenodd"></path><path fill="#54bb6f" stroke="#54bb6f" stroke-width="4.0" stroke-linecap="butt" d="m53.48192 568.91626l0.04307556 -6.36145l-5.6389694 11.88208l11.957352 -5.477539z" fill-rule="evenodd"></path><path fill="#000000" fill-opacity="0.0" d="m177.75597 312.88885l0 -148.53543" fill-rule="evenodd"></path><path stroke="#000000" stroke-width="3.0" stroke-linejoin="round" stroke-linecap="butt" d="m177.75597 312.88885l0 -148.53543" fill-rule="evenodd"></path><path fill="#000000" fill-opacity="0.0" d="m39.542133 164.43744l138.20473 -0.06298828" fill-rule="evenodd"></path><path stroke="#999999" stroke-width="3.0" stroke-linejoin="round" stroke-linecap="butt" d="m39.542133 164.43744l138.20473 -0.06298828" fill-rule="evenodd"></path><path fill="#000000" fill-opacity="0.0" d="m39.542133 313.00006l138.20473 -148.66142" fill-rule="evenodd"></path><path stroke="#999999" stroke-width="3.0" stroke-linejoin="round" stroke-linecap="butt" d="m39.542133 313.00006l138.20473 -148.66142" fill-rule="evenodd"></path><path fill="#000000" d="m32.136417 16.322824l0 0c0 -4.0095005 3.0388222 -7.259843 6.787403 -7.259843l0 0c1.8001289 0 3.5265312 0.76487446 4.7994156 2.126359c1.2728844 1.3614845 1.9879837 3.2080536 1.9879837 5.133484l0 0c0 4.0095005 -3.0388222 7.259842 -6.7873993 7.259842l0 0c-3.748581 0 -6.787403 -3.2503414 -6.787403 -7.259842z" fill-rule="evenodd"></path><path stroke="#000000" stroke-width="3.0" stroke-linejoin="round" stroke-linecap="butt" d="m32.136417 16.322824l0 0c0 -4.0095005 3.0388222 -7.259843 6.787403 -7.259843l0 0c1.8001289 0 3.5265312 0.76487446 4.7994156 2.126359c1.2728844 1.3614845 1.9879837 3.2080536 1.9879837 5.133484l0 0c0 4.0095005 -3.0388222 7.259842 -6.7873993 7.259842l0 0c-3.748581 0 -6.787403 -3.2503414 -6.787403 -7.259842z" fill-rule="evenodd"></path><path fill="#000000" d="m32.136417 164.36865l0 0c0 -4.009491 3.0388222 -7.259842 6.787403 -7.259842l0 0c1.8001289 0 3.5265312 0.7648773 4.7994156 2.126358c1.2728844 1.361496 1.9879837 3.2080536 1.9879837 5.133484l0 0c0 4.009506 -3.0388222 7.259842 -6.7873993 7.259842l0 0c-3.748581 0 -6.787403 -3.2503357 -6.787403 -7.259842z" fill-rule="evenodd"></path><path stroke="#000000" stroke-width="3.0" stroke-linejoin="round" stroke-linecap="butt" d="m32.136417 164.36865l0 0c0 -4.009491 3.0388222 -7.259842 6.787403 -7.259842l0 0c1.8001289 0 3.5265312 0.7648773 4.7994156 2.126358c1.2728844 1.361496 1.9879837 3.2080536 1.9879837 5.133484l0 0c0 4.009506 -3.0388222 7.259842 -6.7873993 7.259842l0 0c-3.748581 0 -6.787403 -3.2503357 -6.787403 -7.259842z" fill-rule="evenodd"></path><path fill="#000000" fill-opacity="0.0" d="m55.290787 98.45417l56.944878 0l0 40.72442l-56.944878 0z" fill-rule="evenodd"></path><path fill="#002835" d="m91.44292 121.13013q0 4.71875 -1.953125 7.21875q-1.953125 2.5 -5.71875 2.5q-3.71875 0 -5.6875 -2.453125q-1.96875 -2.453125 -2.015625 -7.03125l0 -4.1875q0 -4.765625 1.96875 -7.234375q1.984375 -2.46875 5.703125 -2.46875q3.71875 0 5.6875 2.453125q1.96875 2.4375 2.015625 7.015625l0 4.1875zm-4.515625 -4.59375q0 -2.828125 -0.78125 -4.109375q-0.765625 -1.296875 -2.40625 -1.296875q-1.59375 0 -2.359375 1.234375q-0.75 1.21875 -0.796875 3.828125l0 5.53125q0 2.78125 0.75 4.140625q0.765625 1.34375 2.4375 1.34375q1.65625 0 2.390625 -1.296875q0.734375 -1.296875 0.765625 -3.96875l0 -5.40625z" fill-rule="nonzero"></path><path fill="#000000" fill-opacity="0.0" d="m104.80038 246.69879l56.944878 0l0 40.724396l-56.944878 0z" fill-rule="evenodd"></path><path fill="#002835" d="m141.23375 278.781l-15.59375 0l0 -3.09375l7.359375 -7.84375q1.515625 -1.65625 2.234375 -2.890625q0.734375 -1.234375 0.734375 -2.34375q0 -1.515625 -0.765625 -2.375q-0.765625 -0.875 -2.1875 -0.875q-1.53125 0 -2.421875 1.0625q-0.875 1.046875 -0.875 2.765625l-4.53125 0q0 -2.078125 0.984375 -3.796875q1.0 -1.71875 2.8125 -2.6875q1.8125 -0.98439026 4.109375 -0.98439026q3.515625 0 5.453125 1.6875153q1.953125 1.6875 1.953125 4.765625q0 1.6875 -0.875 3.4375q-0.875 1.75 -3.0 4.078125l-5.171875 5.453125l9.78125 0l0 3.640625z" fill-rule="nonzero"></path><path fill="#000000" fill-opacity="0.0" d="m200.5752 246.69879l56.944885 0l0 40.724396l-56.944885 0z" fill-rule="evenodd"></path><path fill="#002835" d="m226.00858 265.406l2.40625 0q1.71875 0 2.546875 -0.859375q0.828125 -0.859375 0.828125 -2.28125q0 -1.375 -0.828125 -2.140625q-0.8125 -0.765625 -2.25 -0.765625q-1.296875 0 -2.171875 0.71875q-0.875 0.703125 -0.875 1.84375l-4.515625 0q0 -1.78125 0.953125 -3.1875q0.96875 -1.421875 2.6875 -2.21875q1.734375 -0.79689026 3.8125 -0.79689026q3.609375 0 5.65625 1.7343903q2.046875 1.71875 2.046875 4.75q0 1.5625 -0.953125 2.875q-0.953125 1.3125 -2.5 2.015625q1.921875 0.6875 2.859375 2.0625q0.953125 1.375 0.953125 3.25q0 3.03125 -2.21875 4.859375q-2.203125 1.828125 -5.84375 1.828125q-3.40625 0 -5.578125 -1.796875q-2.15625 -1.796875 -2.15625 -4.75l4.515625 0q0 1.28125 0.953125 2.09375q0.96875 0.8125 2.375 0.8125q1.609375 0 2.515625 -0.84375q0.921875 -0.859375 0.921875 -2.265625q0 -3.40625 -3.75 -3.40625l-2.390625 0l0 -3.53125z" fill-rule="nonzero"></path><path fill="#000000" d="m32.136417 583.6772l0 0c0 -4.0095215 3.0388222 -7.2598267 6.787403 -7.2598267l0 0c1.8001289 0 3.5265312 0.76483154 4.7994156 2.1263428c1.2728844 1.3614502 1.9879837 3.2080688 1.9879837 5.133484l0 0c0 4.0094604 -3.0388222 7.2598267 -6.7873993 7.2598267l0 0c-3.748581 0 -6.787403 -3.2503662 -6.787403 -7.2598267z" fill-rule="evenodd"></path><path stroke="#000000" stroke-width="3.0" stroke-linejoin="round" stroke-linecap="butt" d="m32.136417 583.6772l0 0c0 -4.0095215 3.0388222 -7.2598267 6.787403 -7.2598267l0 0c1.8001289 0 3.5265312 0.76483154 4.7994156 2.1263428c1.2728844 1.3614502 1.9879837 3.2080688 1.9879837 5.133484l0 0c0 4.0094604 -3.0388222 7.2598267 -6.7873993 7.2598267l0 0c-3.748581 0 -6.787403 -3.2503662 -6.787403 -7.2598267z" fill-rule="evenodd"></path><path fill="#000000" fill-opacity="0.0" d="m55.290787 189.62518l56.944878 0l0 40.72441l-56.944878 0z" fill-rule="evenodd"></path><path fill="#002835" d="m87.09917 221.70738l-4.515625 0l0 -17.40625l-5.390625 1.671875l0 -3.671875l9.421875 -3.375l0.484375 0l0 22.78125z" fill-rule="nonzero"></path><path fill="#000000" fill-opacity="0.0" d="m124.13507 317.5644l76.44095 0l0 40.724426l-76.44095 0z" fill-rule="evenodd"></path><path fill="#54bb6f" d="m172.02742 338.78723q0 3.359375 -1.1875 5.890625q-1.1875 2.53125 -3.40625 3.90625q-2.203125 1.375 -5.0625 1.375q-2.828125 0 -5.046875 -1.359375q-2.21875 -1.359375 -3.4375 -3.875q-1.21875 -2.53125 -1.234375 -5.8125l0 -1.125q0 -3.359375 1.203125 -5.90625q1.21875 -2.5625 3.421875 -3.921875q2.21875 -1.375 5.0625 -1.375q2.84375 0 5.046875 1.375q2.21875 1.359375 3.421875 3.921875q1.21875 2.546875 1.21875 5.890625l0 1.015625zm-4.75 -1.03125q0 -3.578125 -1.28125 -5.4375q-1.28125 -1.859375 -3.65625 -1.859375q-2.359375 0 -3.640625 1.84375q-1.28125 1.828125 -1.296875 5.375l0 1.109375q0 3.484375 1.28125 5.40625q1.28125 1.921875 3.6875 1.921875q2.359375 0 3.625 -1.84375q1.265625 -1.859375 1.28125 -5.40625l0 -1.109375z" fill-rule="nonzero"></path><path fill="#000000" fill-opacity="0.0" d="m31.547987 318.23358l41.543304 0l0 40.724426l-41.543304 0z" fill-rule="evenodd"></path><path fill="#54bb6f" d="m61.038387 327.5658l0 14.984375q0 3.734375 -2.34375 5.90625q-2.328125 2.171875 -6.375 2.171875q-3.984375 0 -6.328121 -2.109375q-2.34375 -2.109375 -2.390625 -5.796875l0 -15.15625l4.687496 0l0 15.015625q0 2.234375 1.0625 3.265625q1.078125 1.015625 2.96875 1.015625q3.953125 0 4.015625 -4.15625l0 -15.140625l4.703125 0z" fill-rule="nonzero"></path><path fill="#000000" d="m172.08453 445.1933l0 0c0 -4.009491 3.0388336 -7.259857 6.7873993 -7.259857l0 0c1.8001404 0 3.526535 0.7648926 4.799423 2.1263733c1.2728882 1.3614807 1.9879913 3.2080383 1.9879913 5.133484l0 0c0 4.009491 -3.0388336 7.2598267 -6.7874146 7.2598267l0 0c-3.7485657 0 -6.7873993 -3.2503357 -6.7873993 -7.2598267z" fill-rule="evenodd"></path><path stroke="#000000" stroke-width="3.0" stroke-linejoin="round" stroke-linecap="butt" d="m172.08453 445.1933l0 0c0 -4.009491 3.0388336 -7.259857 6.7873993 -7.259857l0 0c1.8001404 0 3.526535 0.7648926 4.799423 2.1263733c1.2728882 1.3614807 1.9879913 3.2080383 1.9879913 5.133484l0 0c0 4.009491 -3.0388336 7.2598267 -6.7874146 7.2598267l0 0c-3.7485657 0 -6.7873993 -3.2503357 -6.7873993 -7.2598267z" fill-rule="evenodd"></path><path fill="#000000" fill-opacity="0.0" d="m178.87193 437.93344l-1.1338501 -264.37793" fill-rule="evenodd"></path><path stroke="#54bb6f" stroke-width="4.0" stroke-linejoin="round" stroke-linecap="butt" d="m178.81316 424.22522l-1.0750732 -250.66971" fill-rule="evenodd"></path><path fill="#54bb6f" stroke="#54bb6f" stroke-width="4.0" stroke-linecap="butt" d="m178.81316 424.22522l-4.5175934 -4.479004l4.5513 12.339661l4.4452972 -12.378235z" fill-rule="evenodd"></path><path fill="#000000" fill-opacity="0.0" d="m140.65231 456.03577l76.44095 0l0 40.724426l-76.44095 0z" fill-rule="evenodd"></path><path fill="#002835" d="m188.1306 469.16486l-6.96875 0l0 18.953125l-4.6875 0l0 -18.953125l-6.875 0l0 -3.796875l18.53125 0l0 3.796875z" fill-rule="nonzero"></path><path fill="#000000" fill-opacity="0.0" d="m315.98425 292.0525l69.95276 0l0 40.724426l-69.95276 0z" fill-rule="evenodd"></path><path fill="#002835" d="m354.0845 324.1347l-4.6875 0l0 -9.75l-9.140625 0l0 9.75l-4.6875 0l0 -22.75l4.6875 0l0 9.21875l9.140625 0l0 -9.21875l4.6875 0l0 22.75z" fill-rule="nonzero"></path><path fill="#002835" d="m367.38138 329.86908q0 3.140625 -1.296875 4.8125q-1.296875 1.65625 -3.8125 1.65625q-2.484375 0 -3.796875 -1.625q-1.3125 -1.640625 -1.34375 -4.6875l0 -2.796875q0 -3.171875 1.3125 -4.8125q1.328125 -1.65625 3.796875 -1.65625q2.484375 0 3.796875 1.640625q1.3125 1.625 1.34375 4.671875l0 2.796875zm-3.0 -3.0625q0 -1.890625 -0.515625 -2.75q-0.515625 -0.859375 -1.609375 -0.859375q-1.0625 0 -1.578125 0.828125q-0.5 0.8125 -0.53125 2.546875l0 3.6875q0 1.859375 0.5 2.765625q0.515625 0.890625 1.625 0.890625q1.109375 0 1.59375 -0.859375q0.484375 -0.875 0.515625 -2.65625l0 -3.59375z" fill-rule="nonzero"></path><path fill="#000000" fill-opacity="0.0" d="m53.211246 546.37744l76.44095 0l0 40.724426l-76.44095 0z" fill-rule="evenodd"></path><path fill="#002835" d="m94.55561 578.45966l-4.6875 0l0 -9.75l-9.140633 0l0 9.75l-4.6875 0l0 -22.75l4.6875 0l0 9.21875l9.140633 0l0 -9.21875l4.6875 0l0 22.75z" fill-rule="nonzero"></path><path fill="#002835" d="m104.96186 590.45966l-3.015625 0l0 -11.59375l-3.59375 1.109375l0 -2.453125l6.28125 -2.25l0.328125 0l0 15.1875z" fill-rule="nonzero"></path><path fill="#000000" d="m170.9443 166.28183l0 0c0 -4.009491 3.0388184 -7.259842 6.7873993 -7.259842l0 0c1.8001251 0 3.526535 0.7648773 4.799408 2.126358c1.2728882 1.361496 1.9879913 3.2080536 1.9879913 5.133484l0 0c0 4.009506 -3.0388184 7.259842 -6.7873993 7.259842l0 0c-3.748581 0 -6.7873993 -3.2503357 -6.7873993 -7.259842z" fill-rule="evenodd"></path><path stroke="#000000" stroke-width="3.0" stroke-linejoin="round" stroke-linecap="butt" d="m170.9443 166.28183l0 0c0 -4.009491 3.0388184 -7.259842 6.7873993 -7.259842l0 0c1.8001251 0 3.526535 0.7648773 4.799408 2.126358c1.2728882 1.361496 1.9879913 3.2080536 1.9879913 5.133484l0 0c0 4.009506 -3.0388184 7.259842 -6.7873993 7.259842l0 0c-3.748581 0 -6.7873993 -3.2503357 -6.7873993 -7.259842z" fill-rule="evenodd"></path><path fill="#000000" fill-opacity="0.0" d="m306.2888 312.4145l-266.74017 0.5984192" fill-rule="evenodd"></path><path stroke="#54bb6f" stroke-width="4.0" stroke-linejoin="round" stroke-linecap="butt" d="m292.58047 312.44525l-253.03186 0.5676575" fill-rule="evenodd"></path><path fill="#54bb6f" stroke="#54bb6f" stroke-width="4.0" stroke-linecap="butt" d="m292.58047 312.44525l-4.4882507 4.508423l12.3489685 -4.526062l-12.369141 -4.470581z" fill-rule="evenodd"></path><path fill="#000000" d="m170.9443 312.4145l0 0c0 -4.009491 3.0388184 -7.2598267 6.7873993 -7.2598267l0 0c1.8001251 0 3.526535 0.76486206 4.799408 2.1263428c1.2728882 1.3614807 1.9879913 3.2080688 1.9879913 5.133484l0 0c0 4.009491 -3.0388184 7.259857 -6.7873993 7.259857l0 0c-3.748581 0 -6.7873993 -3.2503662 -6.7873993 -7.259857z" fill-rule="evenodd"></path><path stroke="#000000" stroke-width="3.0" stroke-linejoin="round" stroke-linecap="butt" d="m170.9443 312.4145l0 0c0 -4.009491 3.0388184 -7.2598267 6.7873993 -7.2598267l0 0c1.8001251 0 3.526535 0.76486206 4.799408 2.1263428c1.2728882 1.3614807 1.9879913 3.2080688 1.9879913 5.133484l0 0c0 4.009491 -3.0388184 7.259857 -6.7873993 7.259857l0 0c-3.748581 0 -6.7873993 -3.2503662 -6.7873993 -7.259857z" fill-rule="evenodd"></path><path fill="#000000" fill-opacity="0.0" d="m152.29414 112.42782l56.944885 0l0 40.72442l-56.944885 0z" fill-rule="evenodd"></path><path fill="#54bb6f" d="m181.00877 136.1819l-3.734375 0l0 8.328125l-4.6875 0l0 -22.75l8.453125 0q4.03125 0 6.21875 1.796875q2.1875 1.796875 2.1875 5.078125q0 2.328125 -1.015625 3.890625q-1.0 1.546875 -3.046875 2.46875l4.921875 9.296875l0 0.21875l-5.03125 0l-4.265625 -8.328125zm-3.734375 -3.796875l3.78125 0q1.765625 0 2.734375 -0.890625q0.96875 -0.90625 0.96875 -2.484375q0 -1.609375 -0.921875 -2.53125q-0.90625 -0.921875 -2.796875 -0.921875l-3.765625 0l0 6.828125z" fill-rule="nonzero"></path><path fill="#000000" d="m32.136417 312.4145l0 0c0 -4.009491 3.0388222 -7.2598267 6.787403 -7.2598267l0 0c1.8001289 0 3.5265312 0.76486206 4.7994156 2.1263428c1.2728844 1.3614807 1.9879837 3.2080688 1.9879837 5.133484l0 0c0 4.009491 -3.0388222 7.259857 -6.7873993 7.259857l0 0c-3.748581 0 -6.787403 -3.2503662 -6.787403 -7.259857z" fill-rule="evenodd"></path><path stroke="#000000" stroke-width="3.0" stroke-linejoin="round" stroke-linecap="butt" d="m32.136417 312.4145l0 0c0 -4.009491 3.0388222 -7.2598267 6.787403 -7.2598267l0 0c1.8001289 0 3.5265312 0.76486206 4.7994156 2.1263428c1.2728844 1.3614807 1.9879837 3.2080688 1.9879837 5.133484l0 0c0 4.009491 -3.0388222 7.259857 -6.7873993 7.259857l0 0c-3.748581 0 -6.787403 -3.2503662 -6.787403 -7.259857z" fill-rule="evenodd"></path><path fill="#000000" d="m306.2888 312.4145l0 0c0 -4.009491 3.0388184 -7.2598267 6.787384 -7.2598267l0 0c1.8001404 0 3.5265503 0.76486206 4.7994385 2.1263428c1.2728577 1.3614807 1.9879761 3.2080688 1.9879761 5.133484l0 0c0 4.009491 -3.0388184 7.259857 -6.7874146 7.259857l0 0c-3.7485657 0 -6.787384 -3.2503662 -6.787384 -7.259857z" fill-rule="evenodd"></path><path stroke="#000000" stroke-width="3.0" stroke-linejoin="round" stroke-linecap="butt" d="m306.2888 312.4145l0 0c0 -4.009491 3.0388184 -7.2598267 6.787384 -7.2598267l0 0c1.8001404 0 3.5265503 0.76486206 4.7994385 2.1263428c1.2728577 1.3614807 1.9879761 3.2080688 1.9879761 5.133484l0 0c0 4.009491 -3.0388184 7.259857 -6.7874146 7.259857l0 0c-3.7485657 0 -6.787384 -3.2503662 -6.787384 -7.259857z" fill-rule="evenodd"></path><path fill="#78ffb1" fill-opacity="0.4192" d="m569.7244 312.66806l135.81104 0l-135.81104 -148.78741z" fill-rule="evenodd"></path><path fill="#000000" fill-opacity="0.0" d="m439.75058 580.3141l256.50394 -262.64566" fill-rule="evenodd"></path><path stroke="#54bb6f" stroke-width="4.0" stroke-linejoin="round" stroke-linecap="butt" d="m449.3285 570.50684l246.92603 -252.83841" fill-rule="evenodd"></path><path fill="#54bb6f" stroke="#54bb6f" stroke-width="4.0" stroke-linecap="butt" d="m449.3285 570.50684l-0.07525635 -6.361145l-5.416992 11.984924l11.853424 -5.6990356z" fill-rule="evenodd"></path><path fill="#000000" fill-opacity="0.0" d="m569.7007 312.95477l0 -149.48032" fill-rule="evenodd"></path><path stroke="#000000" stroke-width="3.0" stroke-linejoin="round" stroke-linecap="butt" d="m569.7007 312.95477l0 -149.48032" fill-rule="evenodd"></path><path fill="#000000" fill-opacity="0.0" d="m435.69354 163.55357l133.98425 -0.06298828" fill-rule="evenodd"></path><path stroke="#b7b7b7" stroke-width="3.0" stroke-linejoin="round" stroke-linecap="butt" d="m435.69354 163.55357l133.98425 -0.06298828" fill-rule="evenodd"></path><path fill="#000000" fill-opacity="0.0" d="m435.69354 313.06668l133.98425 -149.5748" fill-rule="evenodd"></path><path stroke="#b7b7b7" stroke-width="3.0" stroke-linejoin="round" stroke-linecap="butt" d="m435.69354 313.06668l133.98425 -149.5748" fill-rule="evenodd"></path><path fill="#000000" fill-opacity="0.0" d="m450.9629 97.14815l55.212585 0l0 41.007874l-55.212585 0z" fill-rule="evenodd"></path><path fill="#002835" d="m486.24887 119.965836q0 4.71875 -1.953125 7.21875q-1.953125 2.5 -5.71875 2.5q-3.71875 0 -5.6875 -2.453125q-1.96875 -2.453125 -2.015625 -7.03125l0 -4.1875q0 -4.765625 1.96875 -7.234375q1.984375 -2.46875 5.703125 -2.46875q3.71875 0 5.6875 2.453125q1.96875 2.4375 2.015625 7.015625l0 4.1875zm-4.515625 -4.59375q0 -2.828125 -0.78125 -4.109375q-0.765625 -1.296875 -2.40625 -1.296875q-1.59375 0 -2.359375 1.234375q-0.75 1.21875 -0.796875 3.828125l0 5.53125q0 2.78125 0.75 4.140625q0.765625 1.34375 2.4375 1.34375q1.65625 0 2.390625 -1.296875q0.734375 -1.296875 0.765625 -3.96875l0 -5.40625z" fill-rule="nonzero"></path><path fill="#000000" fill-opacity="0.0" d="m498.96558 246.34123l55.212585 0l0 41.00786l-55.212585 0z" fill-rule="evenodd"></path><path fill="#002835" d="m534.53284 278.56516l-15.59375 0l0 -3.09375l7.359375 -7.84375q1.515625 -1.65625 2.234375 -2.890625q0.734375 -1.234375 0.734375 -2.34375q0 -1.515625 -0.765625 -2.375q-0.765625 -0.875 -2.1875 -0.875q-1.53125 0 -2.421875 1.0625q-0.875 1.046875 -0.875 2.765625l-4.53125 0q0 -2.078125 0.984375 -3.796875q1.0 -1.71875 2.8125 -2.6875q1.8125 -0.98435974 4.109375 -0.98435974q3.515625 0 5.453125 1.6874847q1.953125 1.6875 1.953125 4.765625q0 1.6875 -0.875 3.4375q-0.875 1.75 -3.0 4.078125l-5.171875 5.453125l9.78125 0l0 3.640625z" fill-rule="nonzero"></path><path fill="#000000" fill-opacity="0.0" d="m591.8254 246.34123l55.212585 0l0 41.00786l-55.212585 0z" fill-rule="evenodd"></path><path fill="#002835" d="m616.3926 265.19016l2.40625 0q1.71875 0 2.546875 -0.859375q0.828125 -0.859375 0.828125 -2.28125q0 -1.375 -0.828125 -2.140625q-0.8125 -0.765625 -2.25 -0.765625q-1.296875 0 -2.171875 0.71875q-0.875 0.703125 -0.875 1.84375l-4.515625 0q0 -1.78125 0.953125 -3.1875q0.96875 -1.421875 2.6875 -2.21875q1.734375 -0.79685974 3.8125 -0.79685974q3.609375 0 5.65625 1.7343597q2.046875 1.71875 2.046875 4.75q0 1.5625 -0.953125 2.875q-0.953125 1.3125 -2.5 2.015625q1.921875 0.6875 2.859375 2.0625q0.953125 1.375 0.953125 3.25q0 3.03125 -2.21875 4.859375q-2.203125 1.828125 -5.84375 1.828125q-3.40625 0 -5.578125 -1.796875q-2.15625 -1.796875 -2.15625 -4.75l4.515625 0q0 1.28125 0.953125 2.09375q0.96875 0.8125 2.375 0.8125q1.609375 0 2.515625 -0.84375q0.921875 -0.859375 0.921875 -2.265625q0 -3.40625 -3.75 -3.40625l-2.390625 0l0 -3.53125z" fill-rule="nonzero"></path><path fill="#000000" d="m428.51324 585.4921l0 0c0 -4.0443115 2.947174 -7.322815 6.582672 -7.322815l0 0c1.7458496 0 3.420166 0.7714844 4.654663 2.1447754c1.2344971 1.373291 1.928009 3.2359009 1.928009 5.1780396l0 0c0 4.0443115 -2.9471436 7.322815 -6.582672 7.322815l0 0c-3.635498 0 -6.582672 -3.2785034 -6.582672 -7.322815z" fill-rule="evenodd"></path><path stroke="#000000" stroke-width="3.0" stroke-linejoin="round" stroke-linecap="butt" d="m428.51324 585.4921l0 0c0 -4.0443115 2.947174 -7.322815 6.582672 -7.322815l0 0c1.7458496 0 3.420166 0.7714844 4.654663 2.1447754c1.2344971 1.373291 1.928009 3.2359009 1.928009 5.1780396l0 0c0 4.0443115 -2.9471436 7.322815 -6.582672 7.322815l0 0c-3.635498 0 -6.582672 -3.2785034 -6.582672 -7.322815z" fill-rule="evenodd"></path><path fill="#000000" fill-opacity="0.0" d="m450.9629 188.90247l55.212585 0l0 41.007874l-55.212585 0z" fill-rule="evenodd"></path><path fill="#002835" d="m481.90512 221.1264l-4.515625 0l0 -17.40625l-5.390625 1.671875l0 -3.671875l9.421875 -3.375l0.484375 0l0 22.78125z" fill-rule="nonzero"></path><path fill="#000000" fill-opacity="0.0" d="m517.7118 317.66025l74.11023 0l0 41.007874l-74.11023 0z" fill-rule="evenodd"></path><path fill="#54bb6f" d="m564.4388 339.0248q0 3.359375 -1.1875 5.890625q-1.1875 2.53125 -3.40625 3.90625q-2.203125 1.375 -5.0625 1.375q-2.828125 0 -5.046875 -1.359375q-2.21875 -1.359375 -3.4375 -3.875q-1.21875 -2.53125 -1.234375 -5.8125l0 -1.125q0 -3.359375 1.203125 -5.90625q1.21875 -2.5625 3.421875 -3.921875q2.21875 -1.375 5.0625 -1.375q2.84375 0 5.046875 1.375q2.21875 1.359375 3.421875 3.921875q1.21875 2.546875 1.21875 5.890625l0 1.015625zm-4.75 -1.03125q0 -3.578125 -1.28125 -5.4375q-1.28125 -1.859375 -3.65625 -1.859375q-2.359375 0 -3.640625 1.84375q-1.28125 1.828125 -1.296875 5.375l0 1.109375q0 3.484375 1.28125 5.40625q1.28125 1.921875 3.6875 1.921875q2.359375 0 3.625 -1.84375q1.265625 -1.859375 1.28125 -5.40625l0 -1.109375z" fill-rule="nonzero"></path><path fill="#000000" fill-opacity="0.0" d="m533.7263 109.00169l74.11023 0l0 41.007874l-74.11023 0z" fill-rule="evenodd"></path><path fill="#54bb6f" d="m579.5002 118.47563l0 14.984375q0 3.734375 -2.34375 5.90625q-2.328125 2.171875 -6.375 2.171875q-3.984375 0 -6.328125 -2.109375q-2.34375 -2.109375 -2.390625 -5.796875l0 -15.15625l4.6875 0l0 15.015625q0 2.234375 1.0625 3.265625q1.078125 1.015625 2.96875 1.015625q3.953125 0 4.015625 -4.15625l0 -15.140625l4.703125 0z" fill-rule="nonzero"></path><path fill="#000000" d="m564.20184 446.12225l0 0c0 -4.0443115 2.9471436 -7.3228455 6.5827026 -7.3228455l0 0c1.7457886 0 3.420166 0.7715149 4.654663 2.144806c1.234436 1.373291 1.9279785 3.2359009 1.9279785 5.1780396l0 0c0 4.044281 -2.9471436 7.322815 -6.5826416 7.322815l0 0c-3.635559 0 -6.5827026 -3.278534 -6.5827026 -7.322815z" fill-rule="evenodd"></path><path stroke="#000000" stroke-width="3.0" stroke-linejoin="round" stroke-linecap="butt" d="m564.20184 446.12225l0 0c0 -4.0443115 2.9471436 -7.3228455 6.5827026 -7.3228455l0 0c1.7457886 0 3.420166 0.7715149 4.654663 2.144806c1.234436 1.373291 1.9279785 3.2359009 1.9279785 5.1780396l0 0c0 4.044281 -2.9471436 7.322815 -6.5826416 7.322815l0 0c-3.635559 0 -6.5827026 -3.278534 -6.5827026 -7.322815z" fill-rule="evenodd"></path><path fill="#000000" fill-opacity="0.0" d="m570.78455 438.7994l-1.102356 -266.04724" fill-rule="evenodd"></path><path stroke="#54bb6f" stroke-width="4.0" stroke-linejoin="round" stroke-linecap="butt" d="m570.7277 425.09122l-1.0455322 -252.33907" fill-rule="evenodd"></path><path fill="#54bb6f" stroke="#54bb6f" stroke-width="4.0" stroke-linecap="butt" d="m570.7277 425.0912l-4.5169067 -4.479645l4.5494995 12.340332l4.4470825 -12.3776245z" fill-rule="evenodd"></path><path fill="#000000" fill-opacity="0.0" d="m533.7263 457.01755l74.11023 0l0 41.007874l-74.11023 0z" fill-rule="evenodd"></path><path fill="#002835" d="m580.03925 470.28836l-6.96875 0l0 18.953125l-4.6875 0l0 -18.953125l-6.875 0l0 -3.796875l18.53125 0l0 3.796875z" fill-rule="nonzero"></path><path fill="#000000" fill-opacity="0.0" d="m676.6612 259.04462l140.12598 0l0 41.007874l-140.12598 0z" fill-rule="evenodd"></path><path fill="#54bb6f" d="m712.4184 282.94043l-3.734375 0l0 8.328125l-4.6875 0l0 -22.75l8.453125 0q4.03125 0 6.21875 1.796875q2.1875 1.796875 2.1875 5.078125q0 2.328125 -1.015625 3.890625q-1.0 1.546875 -3.046875 2.46875l4.921875 9.296875l0 0.21875l-5.03125 0l-4.265625 -8.328125zm-3.734375 -3.796875l3.78125 0q1.765625 0 2.734375 -0.890625q0.96875 -0.90625 0.96875 -2.484375q0 -1.609375 -0.921875 -2.53125q-0.90625 -0.921875 -2.796875 -0.921875l-3.765625 0l0 6.828125z" fill-rule="nonzero"></path><path fill="#002835" d="m746.44965 279.6123l-13.96875 0l0 -3.6875l13.96875 0l0 3.6875zm0 6.765625l-13.96875 0l0 -3.6875l13.96875 0l0 3.6875zm30.734375 4.890625l-4.6875 0l0 -9.75l-9.140625 0l0 9.75l-4.6875 0l0 -22.75l4.6875 0l0 9.21875l9.140625 0l0 -9.21875l4.6875 0l0 22.75z" fill-rule="nonzero"></path><path fill="#002835" d="m790.4809 297.00293q0 3.140625 -1.296875 4.8125q-1.296875 1.65625 -3.8125 1.65625q-2.484375 0 -3.796875 -1.625q-1.3125 -1.640625 -1.34375 -4.6875l0 -2.796875q0 -3.171875 1.3125 -4.8125q1.328125 -1.65625 3.796875 -1.65625q2.484375 0 3.796875 1.640625q1.3125 1.625 1.34375 4.671875l0 2.796875zm-3.0 -3.0625q0 -1.890625 -0.515625 -2.75q-0.515625 -0.859375 -1.609375 -0.859375q-1.0625 0 -1.578125 0.828125q-0.5 0.8125 -0.53125 2.546875l0 3.6875q0 1.859375 0.5 2.765625q0.515625 0.890625 1.625 0.890625q1.109375 0 1.59375 -0.859375q0.484375 -0.875 0.515625 -2.65625l0 -3.59375z" fill-rule="nonzero"></path><path fill="#000000" fill-opacity="0.0" d="m449.75067 553.2772l74.11023 0l0 41.007874l-74.11023 0z" fill-rule="evenodd"></path><path fill="#002835" d="m489.92966 585.50116l-4.6875 0l0 -9.75l-9.140625 0l0 9.75l-4.6875 0l0 -22.75l4.6875 0l0 9.21875l9.140625 0l0 -9.21875l4.6875 0l0 22.75z" fill-rule="nonzero"></path><path fill="#002835" d="m500.3359 597.50116l-3.015625 0l0 -11.59375l-3.59375 1.109375l0 -2.453125l6.28125 -2.25l0.328125 0l0 15.1875z" fill-rule="nonzero"></path><path fill="#000000" fill-opacity="0.0" d="m435.69354 313.0641l0 -299.02362l268.0 299.02362z" fill-rule="evenodd"></path><path stroke="#b7b7b7" stroke-width="3.0" stroke-linejoin="round" stroke-linecap="butt" d="m435.69354 313.0641l0 -299.02362l268.0 299.02362z" fill-rule="evenodd"></path><path fill="#000000" d="m428.51324 14.507867l0 0c0 -4.0442905 2.947174 -7.322835 6.582672 -7.322835l0 0c1.7458496 0 3.420166 0.7715106 4.654663 2.1448088c1.2344971 1.3732977 1.928009 3.2358894 1.928009 5.178026l0 0c0 4.0442896 -2.9471436 7.322835 -6.582672 7.322835l0 0c-3.635498 0 -6.582672 -3.2785454 -6.582672 -7.322835z" fill-rule="evenodd"></path><path stroke="#000000" stroke-width="3.0" stroke-linejoin="round" stroke-linecap="butt" d="m428.51324 14.507867l0 0c0 -4.0442905 2.947174 -7.322835 6.582672 -7.322835l0 0c1.7458496 0 3.420166 0.7715106 4.654663 2.1448088c1.2344971 1.3732977 1.928009 3.2358894 1.928009 5.178026l0 0c0 4.0442896 -2.9471436 7.322835 -6.582672 7.322835l0 0c-3.635498 0 -6.582672 -3.2785454 -6.582672 -7.322835z" fill-rule="evenodd"></path><path fill="#000000" d="m428.51324 163.5009l0 0c0 -4.0442963 2.947174 -7.3228455 6.582672 -7.3228455l0 0c1.7458496 0 3.420166 0.7715149 4.654663 2.144806c1.2344971 1.3733063 1.928009 3.2359009 1.928009 5.1780396l0 0c0 4.044281 -2.9471436 7.32283 -6.582672 7.32283l0 0c-3.635498 0 -6.582672 -3.2785492 -6.582672 -7.32283z" fill-rule="evenodd"></path><path stroke="#000000" stroke-width="3.0" stroke-linejoin="round" stroke-linecap="butt" d="m428.51324 163.5009l0 0c0 -4.0442963 2.947174 -7.3228455 6.582672 -7.3228455l0 0c1.7458496 0 3.420166 0.7715149 4.654663 2.144806c1.2344971 1.3733063 1.928009 3.2359009 1.928009 5.1780396l0 0c0 4.044281 -2.9471436 7.32283 -6.582672 7.32283l0 0c-3.635498 0 -6.582672 -3.2785492 -6.582672 -7.32283z" fill-rule="evenodd"></path><path fill="#000000" d="m428.51324 312.49393l0 0c0 -4.0443115 2.947174 -7.3228455 6.582672 -7.3228455l0 0c1.7458496 0 3.420166 0.7715149 4.654663 2.144806c1.2344971 1.373291 1.928009 3.2359009 1.928009 5.1780396l0 0c0 4.044281 -2.9471436 7.322815 -6.582672 7.322815l0 0c-3.635498 0 -6.582672 -3.278534 -6.582672 -7.322815z" fill-rule="evenodd"></path><path stroke="#000000" stroke-width="3.0" stroke-linejoin="round" stroke-linecap="butt" d="m428.51324 312.49393l0 0c0 -4.0443115 2.947174 -7.3228455 6.582672 -7.3228455l0 0c1.7458496 0 3.420166 0.7715149 4.654663 2.144806c1.2344971 1.373291 1.928009 3.2359009 1.928009 5.1780396l0 0c0 4.044281 -2.9471436 7.322815 -6.582672 7.322815l0 0c-3.635498 0 -6.582672 -3.278534 -6.582672 -7.322815z" fill-rule="evenodd"></path><path fill="#000000" d="m694.3214 312.49393l0 0c0 -4.0443115 2.9471436 -7.3228455 6.5826416 -7.3228455l0 0c1.7458496 0 3.420166 0.7715149 4.654663 2.144806c1.2344971 1.373291 1.9280396 3.2359009 1.9280396 5.1780396l0 0c0 4.044281 -2.9471436 7.322815 -6.5827026 7.322815l0 0c-3.635498 0 -6.5826416 -3.278534 -6.5826416 -7.322815z" fill-rule="evenodd"></path><path stroke="#000000" stroke-width="3.0" stroke-linejoin="round" stroke-linecap="butt" d="m694.3214 312.49393l0 0c0 -4.0443115 2.9471436 -7.3228455 6.5826416 -7.3228455l0 0c1.7458496 0 3.420166 0.7715149 4.654663 2.144806c1.2344971 1.373291 1.9280396 3.2359009 1.9280396 5.1780396l0 0c0 4.044281 -2.9471436 7.322815 -6.5827026 7.322815l0 0c-3.635498 0 -6.5826416 -3.278534 -6.5826416 -7.322815z" fill-rule="evenodd"></path><path fill="#000000" d="m563.0963 165.42632l0 0c0 -4.0442963 2.9471436 -7.3228455 6.5827026 -7.3228455l0 0c1.7457886 0 3.420166 0.7715149 4.654663 2.1448212c1.234436 1.373291 1.9279785 3.2358856 1.9279785 5.1780243l0 0c0 4.044281 -2.9471436 7.32283 -6.5826416 7.32283l0 0c-3.635559 0 -6.5827026 -3.2785492 -6.5827026 -7.32283z" fill-rule="evenodd"></path><path stroke="#000000" stroke-width="3.0" stroke-linejoin="round" stroke-linecap="butt" d="m563.0963 165.42632l0 0c0 -4.0442963 2.9471436 -7.3228455 6.5827026 -7.3228455l0 0c1.7457886 0 3.420166 0.7715149 4.654663 2.1448212c1.234436 1.373291 1.9279785 3.2358856 1.9279785 5.1780243l0 0c0 4.044281 -2.9471436 7.32283 -6.5826416 7.32283l0 0c-3.635559 0 -6.5827026 -3.2785492 -6.5827026 -7.32283z" fill-rule="evenodd"></path><path fill="#000000" d="m563.0963 312.49393l0 0c0 -4.0443115 2.9471436 -7.3228455 6.5827026 -7.3228455l0 0c1.7457886 0 3.420166 0.7715149 4.654663 2.144806c1.234436 1.373291 1.9279785 3.2359009 1.9279785 5.1780396l0 0c0 4.044281 -2.9471436 7.322815 -6.5826416 7.322815l0 0c-3.635559 0 -6.5827026 -3.278534 -6.5827026 -7.322815z" fill-rule="evenodd"></path><path stroke="#000000" stroke-width="3.0" stroke-linejoin="round" stroke-linecap="butt" d="m563.0963 312.49393l0 0c0 -4.0443115 2.9471436 -7.3228455 6.5827026 -7.3228455l0 0c1.7457886 0 3.420166 0.7715149 4.654663 2.144806c1.234436 1.373291 1.9279785 3.2359009 1.9279785 5.1780396l0 0c0 4.044281 -2.9471436 7.322815 -6.5826416 7.322815l0 0c-3.635559 0 -6.5827026 -3.278534 -6.5827026 -7.322815z" fill-rule="evenodd"></path></g></svg>

