<?xml version="1.0" standalone="yes"?>

<svg version="1.1" viewBox="0.0 0.0 1152.0 864.0" fill="none" stroke="none" stroke-linecap="square" stroke-miterlimit="10" xmlns="http://www.w3.org/2000/svg" xmlns:xlink="http://www.w3.org/1999/xlink"><clipPath id="p.0"><path d="m0 0l1152.0 0l0 864.0l-1152.0 0l0 -864.0z" clip-rule="nonzero"></path></clipPath><g clip-path="url(#p.0)"><path fill="#000000" fill-opacity="0.0" d="m0 0l1152.0 0l0 864.0l-1152.0 0z" fill-rule="evenodd"></path><path fill="#cfe2f3" d="m25.223097 113.049866l408.50394 117.74718l0 388.0017l-408.50394 117.74719z" fill-rule="evenodd"></path><path stroke="#000000" stroke-width="1.0" stroke-linejoin="round" stroke-linecap="butt" d="m25.223097 113.049866l408.50394 117.74718l0 388.0017l-408.50394 117.74719z" fill-rule="evenodd"></path><path fill="#000000" d="m247.46602 249.48886l0 0c-0.4676361 -1.4902039 0.90657043 -2.9594574 3.0693817 -3.281662l0 0c2.1628113 -0.3222046 4.295212 0.62464905 4.762848 2.114853l0 0c0.4676361 1.4902039 -0.9065857 2.9594574 -3.069397 3.281662l0 0c-2.162796 0.32221985 -4.2951965 -0.6246338 -4.7628326 -2.114853z" fill-rule="evenodd"></path><path stroke="#000000" stroke-width="3.0" stroke-linejoin="round" stroke-linecap="butt" d="m247.46602 249.48886l0 0c-0.4676361 -1.4902039 0.90657043 -2.9594574 3.0693817 -3.281662l0 0c2.1628113 -0.3222046 4.295212 0.62464905 4.762848 2.114853l0 0c0.4676361 1.4902039 -0.9065857 2.9594574 -3.069397 3.281662l0 0c-2.162796 0.32221985 -4.2951965 -0.6246338 -4.7628326 -2.114853z" fill-rule="evenodd"></path><path fill="#000000" d="m281.77682 417.28015l0 0c-0.44815063 -1.5036316 0.9576721 -2.9728699 3.1399536 -3.2816772l0 0c2.182312 -0.30877686 4.3146973 0.6598511 4.762848 2.1634827l0 0c0.44815063 1.5036316 -0.9576416 2.9729004 -3.1399536 3.2816772l0 0c-2.1822815 0.30877686 -4.3146973 -0.6598511 -4.762848 -2.1634827z" fill-rule="evenodd"></path><path stroke="#000000" stroke-width="3.0" stroke-linejoin="round" stroke-linecap="butt" d="m281.77682 417.28015l0 0c-0.44815063 -1.5036316 0.9576721 -2.9728699 3.1399536 -3.2816772l0 0c2.182312 -0.30877686 4.3146973 0.6598511 4.762848 2.1634827l0 0c0.44815063 1.5036316 -0.9576416 2.9729004 -3.1399536 3.2816772l0 0c-2.1822815 0.30877686 -4.3146973 -0.6598511 -4.762848 -2.1634827z" fill-rule="evenodd"></path><path fill="#000000" fill-opacity="0.0" d="m252.22885 251.60371l32.669586 162.38185" fill-rule="evenodd"></path><path stroke="#000000" stroke-width="3.0" stroke-linejoin="round" stroke-linecap="butt" d="m252.22885 251.60371l32.669586 162.38185" fill-rule="evenodd"></path><path fill="#000000" d="m364.87958 498.35138l0 0c1.4902039 -0.46762085 2.9594421 0.9065857 3.2816772 3.069397l0 0c0.3222046 2.1628113 -0.6246643 4.2951965 -2.1148682 4.762848l0 0c-1.4902039 0.46762085 -2.9594727 -0.9065857 -3.2816772 -3.069397l0 0c-0.3222046 -2.1628113 0.6246643 -4.2951965 2.1148682 -4.762848z" fill-rule="evenodd"></path><path stroke="#000000" stroke-width="3.0" stroke-linejoin="round" stroke-linecap="butt" d="m364.87958 498.35138l0 0c1.4902039 -0.46762085 2.9594421 0.9065857 3.2816772 3.069397l0 0c0.3222046 2.1628113 -0.6246643 4.2951965 -2.1148682 4.762848l0 0c-1.4902039 0.46762085 -2.9594727 -0.9065857 -3.2816772 -3.069397l0 0c-0.3222046 -2.1628113 0.6246643 -4.2951965 2.1148682 -4.762848z" fill-rule="evenodd"></path><path fill="#000000" d="m197.08829 532.66223l0 0c1.5036316 -0.44818115 2.9728851 0.9576416 3.281662 3.1399536l0 0c0.3087921 2.182251 -0.6598358 4.314636 -2.1634674 4.7628174l0 0c-1.5036316 0.44812012 -2.9728851 -0.9576416 -3.281662 -3.1399536l0 0c-0.3087921 -2.182312 0.6598358 -4.3146973 2.1634674 -4.7628174z" fill-rule="evenodd"></path><path stroke="#000000" stroke-width="3.0" stroke-linejoin="round" stroke-linecap="butt" d="m197.08829 532.66223l0 0c1.5036316 -0.44818115 2.9728851 0.9576416 3.281662 3.1399536l0 0c0.3087921 2.182251 -0.6598358 4.314636 -2.1634674 4.7628174l0 0c-1.5036316 0.44812012 -2.9728851 -0.9576416 -3.281662 -3.1399536l0 0c-0.3087921 -2.182312 0.6598358 -4.3146973 2.1634674 -4.7628174z" fill-rule="evenodd"></path><path fill="#000000" fill-opacity="0.0" d="m362.7647 503.11423l-162.38185 32.669586" fill-rule="evenodd"></path><path stroke="#000000" stroke-width="3.0" stroke-linejoin="round" stroke-linecap="butt" d="m362.7647 503.11423l-162.38185 32.669586" fill-rule="evenodd"></path><path fill="#000000" fill-opacity="0.0" d="m366.9584 498.89966l63.370087 -5.1968384" fill-rule="evenodd"></path><path stroke="#000000" stroke-width="2.0" stroke-linejoin="round" stroke-linecap="butt" stroke-dasharray="2.0,6.0" d="m366.9584 498.89966l63.370087 -5.1968384" fill-rule="evenodd"></path><path fill="#000000" fill-opacity="0.0" d="m200.36995 535.8022l229.98427 -26.078766" fill-rule="evenodd"></path><path stroke="#000000" stroke-width="2.0" stroke-linejoin="round" stroke-linecap="butt" stroke-dasharray="2.0,6.0" d="m200.36995 535.8022l229.98427 -26.078766" fill-rule="evenodd"></path><path fill="#000000" fill-opacity="0.0" d="m433.15747 287.77167l0 130.36218" fill-rule="evenodd"></path><path stroke="#666666" stroke-width="3.0" stroke-linejoin="round" stroke-linecap="butt" d="m433.15747 287.77167l0 130.36218" fill-rule="evenodd"></path><path fill="#666666" d="m430.3386 285.11023l0 0c0 -1.4698486 1.2620544 -2.6614075 2.8188782 -2.6614075l0 0c0.7476196 0 1.4646301 0.2803955 1.9932861 0.7795105c0.5286255 0.499115 0.82562256 1.1760559 0.82562256 1.881897l0 0c0 1.4698792 -1.2620544 2.661438 -2.8189087 2.661438l0 0c-1.5568237 0 -2.8188782 -1.1915588 -2.8188782 -2.661438z" fill-rule="evenodd"></path><path stroke="#000000" stroke-width="1.0" stroke-linejoin="round" stroke-linecap="butt" d="m430.3386 285.11023l0 0c0 -1.4698486 1.2620544 -2.6614075 2.8188782 -2.6614075l0 0c0.7476196 0 1.4646301 0.2803955 1.9932861 0.7795105c0.5286255 0.499115 0.82562256 1.1760559 0.82562256 1.881897l0 0c0 1.4698792 -1.2620544 2.661438 -2.8189087 2.661438l0 0c-1.5568237 0 -2.8188782 -1.1915588 -2.8188782 -2.661438z" fill-rule="evenodd"></path><path fill="#666666" d="m430.3386 420.8084l0 0c0 -1.4698792 1.2620544 -2.661438 2.8188782 -2.661438l0 0c0.7476196 0 1.4646301 0.2803955 1.9932861 0.7795105c0.5286255 0.499115 0.82562256 1.1760559 0.82562256 1.8819275l0 0c0 1.4698486 -1.2620544 2.6614075 -2.8189087 2.6614075l0 0c-1.5568237 0 -2.8188782 -1.1915588 -2.8188782 -2.6614075z" fill-rule="evenodd"></path><path stroke="#000000" stroke-width="1.0" stroke-linejoin="round" stroke-linecap="butt" d="m430.3386 420.8084l0 0c0 -1.4698792 1.2620544 -2.661438 2.8188782 -2.661438l0 0c0.7476196 0 1.4646301 0.2803955 1.9932861 0.7795105c0.5286255 0.499115 0.82562256 1.1760559 0.82562256 1.8819275l0 0c0 1.4698486 -1.2620544 2.6614075 -2.8189087 2.6614075l0 0c-1.5568237 0 -2.8188782 -1.1915588 -2.8188782 -2.6614075z" fill-rule="evenodd"></path><path fill="#000000" d="m1071.7299 422.78195l8.8585205 3.9197998l0 10.649689l-8.8585205 3.9541626c0 0 0 -18.523651 0 -18.523651zm-1.107666 21.569458c0.17822266 -3.3569336E-4 0.34069824 -0.05807495 0.48962402 -0.14135742l0.0045166016 0.011199951l10.990234 -4.9058533c0.010864258 -0.0063171387 0.022338867 -0.009521484 0.033691406 -0.016143799l0.051879883 -0.020751953l-0.0068359375 -0.012634277c0.3630371 -0.20343018 0.6179199 -0.6090698 0.6179199 -1.0908813l0 -12.305359c0 -0.48181152 -0.2548828 -0.8864746 -0.6179199 -1.088501l0.0068359375 -0.011199951l-0.049926758 -0.020568848c-0.013305664 -0.008026123 -0.024780273 -0.01260376 -0.03564453 -0.017456055l-10.990234 -4.86322l-0.0045166016 0.011230469c-0.14892578 -0.08270264 -0.31140137 -0.13983154 -0.48962402 -0.13946533c-0.611084 0.001159668 -1.107666 0.5525818 -1.107666 1.2319641l0 22.151337c0 0.6793823 0.49658203 1.2288513 1.107666 1.2276611m16.611328 -24.643188c0 -1.3607483 0.99035645 -2.4632874 2.2128906 -2.4656372l24.362183 -0.04724121c1.2226562 -0.002380371 2.215454 1.096283 2.215454 2.4570618l0 24.610962c0 1.3607483 -0.99279785 2.4632874 -2.215454 2.4656677l-24.362183 0.04724121c-1.2225342 0.0023498535 -2.2128906 -1.0963135 -2.2128906 -2.4570618c0 0 0 -24.610992 0 -24.610992zm2.2128906 29.529419l24.362183 -0.04727173c2.4476318 -0.0047302246 4.430298 -2.2129517 4.430298 -4.931305l0 -24.610962c0 -2.7197876 -1.982666 -4.919159 -4.430298 -4.914398l-24.362183 0.04724121c-2.4450684 0.0047302246 -4.4277344 2.211792 -4.4277344 4.9315796l0 24.610962c0 2.7183533 1.982666 4.9188843 4.4277344 4.914154" fill-rule="evenodd"></path><path stroke="#000000" stroke-width="3.0" stroke-linejoin="round" stroke-linecap="butt" d="m1071.7299 422.78195l8.8585205 3.9197998l0 10.649689l-8.8585205 3.9541626c0 0 0 -18.523651 0 -18.523651zm-1.107666 21.569458c0.17822266 -3.3569336E-4 0.34069824 -0.05807495 0.48962402 -0.14135742l0.0045166016 0.011199951l10.990234 -4.9058533c0.010864258 -0.0063171387 0.022338867 -0.009521484 0.033691406 -0.016143799l0.051879883 -0.020751953l-0.0068359375 -0.012634277c0.3630371 -0.20343018 0.6179199 -0.6090698 0.6179199 -1.0908813l0 -12.305359c0 -0.48181152 -0.2548828 -0.8864746 -0.6179199 -1.088501l0.0068359375 -0.011199951l-0.049926758 -0.020568848c-0.013305664 -0.008026123 -0.024780273 -0.01260376 -0.03564453 -0.017456055l-10.990234 -4.86322l-0.0045166016 0.011230469c-0.14892578 -0.08270264 -0.31140137 -0.13983154 -0.48962402 -0.13946533c-0.611084 0.001159668 -1.107666 0.5525818 -1.107666 1.2319641l0 22.151337c0 0.6793823 0.49658203 1.2288513 1.107666 1.2276611m16.611328 -24.643188c0 -1.3607483 0.99035645 -2.4632874 2.2128906 -2.4656372l24.362183 -0.04724121c1.2226562 -0.002380371 2.215454 1.096283 2.215454 2.4570618l0 24.610962c0 1.3607483 -0.99279785 2.4632874 -2.215454 2.4656677l-24.362183 0.04724121c-1.2225342 0.0023498535 -2.2128906 -1.0963135 -2.2128906 -2.4570618c0 0 0 -24.610992 0 -24.610992zm2.2128906 29.529419l24.362183 -0.04727173c2.4476318 -0.0047302246 4.430298 -2.2129517 4.430298 -4.931305l0 -24.610962c0 -2.7197876 -1.982666 -4.919159 -4.430298 -4.914398l-24.362183 0.04724121c-2.4450684 0.0047302246 -4.4277344 2.211792 -4.4277344 4.9315796l0 24.610962c0 2.7183533 1.982666 4.9188843 4.4277344 4.914154" fill-rule="evenodd"></path><path fill="#000000" fill-opacity="0.0" d="m255.29825 248.32205l175.05511 36.787415" fill-rule="evenodd"></path><path stroke="#000000" stroke-width="2.0" stroke-linejoin="round" stroke-linecap="butt" stroke-dasharray="2.0,6.0" d="m255.29825 248.32205l175.05511 36.787415" fill-rule="evenodd"></path><path fill="#000000" fill-opacity="0.0" d="m289.09607 418.25085l141.22833 2.551178" fill-rule="evenodd"></path><path stroke="#000000" stroke-width="2.0" stroke-linejoin="round" stroke-linecap="butt" stroke-dasharray="2.0,6.0" d="m289.09607 418.25085l141.22833 2.551178" fill-rule="evenodd"></path><path fill="#000000" fill-opacity="0.0" d="m433.14435 496.3727l0 10.677155" fill-rule="evenodd"></path><path stroke="#666666" stroke-width="3.0" stroke-linejoin="round" stroke-linecap="butt" d="m433.14435 496.3727l0 10.677155" fill-rule="evenodd"></path><path fill="#666666" d="m430.32547 493.71127l0 0c0 -1.4698486 1.2620544 -2.6614075 2.8188782 -2.6614075l0 0c0.7476196 0 1.4646301 0.2803955 1.9932556 0.7795105c0.528656 0.499115 0.8256531 1.1760559 0.8256531 1.881897l0 0c0 1.4698792 -1.2620544 2.661438 -2.8189087 2.661438l0 0c-1.5568237 0 -2.8188782 -1.1915588 -2.8188782 -2.661438z" fill-rule="evenodd"></path><path stroke="#000000" stroke-width="1.0" stroke-linejoin="round" stroke-linecap="butt" d="m430.32547 493.71127l0 0c0 -1.4698486 1.2620544 -2.6614075 2.8188782 -2.6614075l0 0c0.7476196 0 1.4646301 0.2803955 1.9932556 0.7795105c0.528656 0.499115 0.8256531 1.1760559 0.8256531 1.881897l0 0c0 1.4698792 -1.2620544 2.661438 -2.8189087 2.661438l0 0c-1.5568237 0 -2.8188782 -1.1915588 -2.8188782 -2.661438z" fill-rule="evenodd"></path><path fill="#666666" d="m430.3386 509.70865l0 0c0 -1.4698486 1.2620544 -2.6614075 2.8188782 -2.6614075l0 0c0.7476196 0 1.4646301 0.2803955 1.9932861 0.7795105c0.5286255 0.499115 0.82562256 1.1760559 0.82562256 1.881897l0 0c0 1.4698792 -1.2620544 2.6614075 -2.8189087 2.6614075l0 0c-1.5568237 0 -2.8188782 -1.1915283 -2.8188782 -2.6614075z" fill-rule="evenodd"></path><path stroke="#000000" stroke-width="1.0" stroke-linejoin="round" stroke-linecap="butt" d="m430.3386 509.70865l0 0c0 -1.4698486 1.2620544 -2.6614075 2.8188782 -2.6614075l0 0c0.7476196 0 1.4646301 0.2803955 1.9932861 0.7795105c0.5286255 0.499115 0.82562256 1.1760559 0.82562256 1.881897l0 0c0 1.4698792 -1.2620544 2.6614075 -2.8189087 2.6614075l0 0c-1.5568237 0 -2.8188782 -1.1915283 -2.8188782 -2.6614075z" fill-rule="evenodd"></path><path fill="#000000" fill-opacity="0.0" d="m432.0 230.39896l675.9055 205.22833" fill-rule="evenodd"></path><path stroke="#000000" stroke-width="2.0" stroke-linejoin="round" stroke-linecap="butt" stroke-dasharray="2.0,6.0" d="m432.0 230.39896l675.9055 205.22833" fill-rule="evenodd"></path><path fill="#000000" fill-opacity="0.0" d="m433.80054 620.09973l673.1968 -185.38583" fill-rule="evenodd"></path><path stroke="#000000" stroke-width="2.0" stroke-linejoin="round" stroke-linecap="butt" stroke-dasharray="2.0,6.0" d="m433.80054 620.09973l673.1968 -185.38583" fill-rule="evenodd"></path></g></svg>

