<?xml version="1.0" standalone="yes"?>

<svg version="1.1" viewBox="0.0 0.0 1280.0 960.0" fill="none" stroke="none" stroke-linecap="square" stroke-miterlimit="10" xmlns="http://www.w3.org/2000/svg" xmlns:xlink="http://www.w3.org/1999/xlink"><clipPath id="p.0"><path d="m0 0l1280.0 0l0 960.0l-1280.0 0l0 -960.0z" clip-rule="nonzero"></path></clipPath><g clip-path="url(#p.0)"><path fill="#000000" fill-opacity="0.0" d="m0 0l1280.0 0l0 960.0l-1280.0 0z" fill-rule="evenodd"></path><path fill="#cfe2f3" d="m33.513123 564.0131l0 -540.9449l500.40942 540.9449z" fill-rule="evenodd"></path><path stroke="#000000" stroke-width="3.0" stroke-linejoin="round" stroke-linecap="butt" d="m33.513123 564.0131l0 -540.9449l500.40942 540.9449z" fill-rule="evenodd"></path><path fill="#cfe2f3" d="m279.6537 289.06296l0 274.74014l-246.14172 -274.74014z" fill-rule="evenodd"></path><path stroke="#000000" stroke-width="3.0" stroke-linejoin="round" stroke-linecap="butt" d="m279.6537 289.06296l0 274.74014l-246.14172 -274.74014z" fill-rule="evenodd"></path><path fill="#cfe2f3" d="m705.479 567.8898l0 -540.9449l541.0078 540.9449z" fill-rule="evenodd"></path><path stroke="#000000" stroke-width="3.0" stroke-linejoin="round" stroke-linecap="butt" d="m705.479 567.8898l0 -540.9449l541.0078 540.9449z" fill-rule="evenodd"></path><path fill="#cfe2f3" d="m971.6283 293.14694l0 274.74014l-266.14172 -274.74014z" fill-rule="evenodd"></path><path stroke="#000000" stroke-width="3.0" stroke-linejoin="round" stroke-linecap="butt" d="m971.6283 293.14694l0 274.74014l-266.14172 -274.74014z" fill-rule="evenodd"></path><path fill="#a1e3d8" fill-opacity="0.5115" d="m972.98816 566.5801l0 -270.14175l269.98425 270.14175z" fill-rule="evenodd"></path><path fill="#000000" fill-opacity="0.0" d="m1107.244 429.63672l0 138.17322l-135.59052 -138.17322z" fill-rule="evenodd"></path><path stroke="#000000" stroke-width="3.0" stroke-linejoin="round" stroke-linecap="butt" d="m1107.244 429.63672l0 138.17322l-135.59052 -138.17322z" fill-rule="evenodd"></path><path fill="#a1e3d8" fill-opacity="0.5115" d="m281.23752 562.6903l0 -269.54333l249.63779 269.54333z" fill-rule="evenodd"></path><path fill="#000000" d="m467.3123 290.11728l88.58267 0l0 -7.2991943l14.598389 14.598419l-14.598389 14.598419l0 -7.299225l-88.58267 0z" fill-rule="evenodd"></path><path stroke="#000000" stroke-width="1.0" stroke-linejoin="round" stroke-linecap="butt" d="m467.3123 290.11728l88.58267 0l0 -7.2991943l14.598389 14.598419l-14.598389 14.598419l0 -7.299225l-88.58267 0z" fill-rule="evenodd"></path><path fill="#000000" fill-opacity="0.0" d="m79.098495 183.45702l58.362198 0l0 57.32283l-58.362198 0z" fill-rule="evenodd"></path><path fill="#000000" d="m108.16241 200.83844q3.328125 0 5.203125 2.375q2.234375 2.8125 2.234375 9.328125q0 6.5 -2.25 9.34375q-1.859375 2.34375 -5.1875 2.34375q-3.34375 0 -5.390625 -2.5625q-2.046875 -2.578125 -2.046875 -9.171875q0 -6.46875 2.25 -9.3125q1.859375 -2.34375 5.1875 -2.34375zm0 3.640625q-0.796875 0 -1.421875 0.515625q-0.625 0.5 -0.96875 1.8125q-0.453125 1.703125 -0.453125 5.734375q0 4.03125 0.40625 5.546875q0.40625 1.5 1.015625 2.0q0.625 0.5 1.421875 0.5q0.796875 0 1.421875 -0.5q0.625 -0.515625 0.96875 -1.828125q0.453125 -1.6875 0.453125 -5.71875q0 -4.03125 -0.40625 -5.53125q-0.40625 -1.515625 -1.03125 -2.015625q-0.609375 -0.515625 -1.40625 -0.515625z" fill-rule="nonzero"></path><path fill="#000000" fill-opacity="0.0" d="m79.09939 455.09802l58.362206 0l0 57.322815l-58.362206 0z" fill-rule="evenodd"></path><path fill="#000000" d="m111.97581 495.47946l-4.390625 0l0 -16.546875q-2.40625 2.25 -5.671875 3.328125l0 -3.984375q1.71875 -0.5625 3.734375 -2.125q2.015625 -1.578125 2.765625 -3.671875l3.5625 0l0 23.0z" fill-rule="nonzero"></path><path fill="#000000" fill-opacity="0.0" d="m179.76146 372.3159l58.362213 0l0 57.322815l-58.362213 0z" fill-rule="evenodd"></path><path fill="#000000" d="m216.23163 408.61917l0 4.078125l-15.390625 0q0.25 -2.3125 1.5 -4.375q1.25 -2.078125 4.9375 -5.5q2.96875 -2.765625 3.640625 -3.75q0.90625 -1.359375 0.90625 -2.6875q0 -1.46875 -0.796875 -2.25q-0.78125 -0.796875 -2.171875 -0.796875q-1.375 0 -2.1875 0.828125q-0.8125 0.828125 -0.9375 2.75l-4.375 -0.4375q0.390625 -3.625 2.453125 -5.203125q2.0625 -1.578125 5.15625 -1.578125q3.390625 0 5.328125 1.828125q1.9375 1.828125 1.9375 4.546875q0 1.546875 -0.5625 2.953125q-0.546875 1.390625 -1.75 2.921875q-0.796875 1.015625 -2.875 2.921875q-2.078125 1.90625 -2.640625 2.53125q-0.546875 0.625 -0.890625 1.21875l8.71875 0z" fill-rule="nonzero"></path><path fill="#000000" fill-opacity="0.0" d="m333.98694 455.09717l58.362213 0l0 57.322876l-58.362213 0z" fill-rule="evenodd"></path><path fill="#000000" d="m355.47272 489.40048l4.25 -0.515625q0.203125 1.625 1.09375 2.484375q0.890625 0.859375 2.15625 0.859375q1.359375 0 2.28125 -1.03125q0.9375 -1.03125 0.9375 -2.78125q0 -1.65625 -0.890625 -2.625q-0.890625 -0.96875 -2.171875 -0.96875q-0.84375 0 -2.015625 0.328125l0.484375 -3.578125q1.78125 0.046875 2.71875 -0.765625q0.9375 -0.828125 0.9375 -2.1875q0 -1.15625 -0.6875 -1.84375q-0.6875 -0.6875 -1.828125 -0.6875q-1.125 0 -1.921875 0.78125q-0.796875 0.78125 -0.96875 2.28125l-4.046875 -0.6875q0.421875 -2.078125 1.265625 -3.3125q0.859375 -1.25 2.375 -1.953125q1.53125 -0.71875 3.421875 -0.71875q3.234375 0 5.1875 2.0625q1.609375 1.6875 1.609375 3.8125q0 3.015625 -3.296875 4.8125q1.96875 0.421875 3.140625 1.890625q1.1875 1.46875 1.1875 3.546875q0 3.015625 -2.203125 5.140625q-2.203125 2.125 -5.484375 2.125q-3.109375 0 -5.15625 -1.78125q-2.046875 -1.796875 -2.375 -4.6875z" fill-rule="nonzero"></path><path fill="#000000" fill-opacity="0.0" d="m752.6118 170.92299l63.08661 0l0 57.32283l-63.08661 0z" fill-rule="evenodd"></path><path fill="#000000" d="m784.0379 188.3044q3.328125 0 5.203125 2.375q2.234375 2.8125 2.234375 9.328125q0 6.5 -2.25 9.34375q-1.859375 2.34375 -5.1875 2.34375q-3.34375 0 -5.390625 -2.5625q-2.046875 -2.578125 -2.046875 -9.171875q0 -6.46875 2.25 -9.3125q1.859375 -2.34375 5.1875 -2.34375zm0 3.640625q-0.796875 0 -1.421875 0.515625q-0.625 0.5 -0.96875 1.8125q-0.453125 1.703125 -0.453125 5.734375q0 4.03125 0.40625 5.546875q0.40625 1.5 1.015625 2.0q0.625 0.5 1.421875 0.5q0.796875 0 1.421875 -0.5q0.625 -0.515625 0.96875 -1.828125q0.453125 -1.6875 0.453125 -5.71875q0 -4.03125 -0.40625 -5.53125q-0.40625 -1.515625 -1.03125 -2.015625q-0.609375 -0.515625 -1.40625 -0.515625z" fill-rule="nonzero"></path><path fill="#000000" fill-opacity="0.0" d="m740.4568 429.63666l63.08661 0l0 57.322815l-63.08661 0z" fill-rule="evenodd"></path><path fill="#000000" d="m775.6954 470.01807l-4.390625 0l0 -16.546875q-2.40625 2.25 -5.671875 3.328125l0 -3.984375q1.71875 -0.5625 3.734375 -2.125q2.015625 -1.578125 2.765625 -3.671875l3.5625 0l0 23.0z" fill-rule="nonzero"></path><path fill="#000000" fill-opacity="0.0" d="m859.5381 359.823l63.08661 0l0 57.322845l-63.08661 0z" fill-rule="evenodd"></path><path fill="#000000" d="m898.3705 396.12628l0 4.078125l-15.390625 0q0.25 -2.3125 1.5 -4.375q1.25 -2.078125 4.9375 -5.5q2.96875 -2.765625 3.640625 -3.75q0.90625 -1.359375 0.90625 -2.6875q0 -1.46875 -0.796875 -2.25q-0.78125 -0.796875 -2.171875 -0.796875q-1.375 0 -2.1875 0.828125q-0.8125 0.828125 -0.9375 2.75l-4.375 -0.4375q0.390625 -3.625 2.453125 -5.203125q2.0625 -1.578125 5.15625 -1.578125q3.390625 0 5.328125 1.828125q1.9375 1.828125 1.9375 4.546875q0 1.546875 -0.5625 2.953125q-0.546875 1.390625 -1.75 2.921875q-0.796875 1.015625 -2.875 2.921875q-2.078125 1.90625 -2.640625 2.53125q-0.546875 0.625 -0.890625 1.21875l8.71875 0z" fill-rule="nonzero"></path><path fill="#000000" fill-opacity="0.0" d="m1010.07764 437.7308l97.165405 0l0 57.322815l-97.165405 0z" fill-rule="evenodd"></path><path fill="#000000" d="m1042.0665 472.0341l4.25 -0.515625q0.203125 1.625 1.09375 2.484375q0.890625 0.859375 2.15625 0.859375q1.359375 0 2.28125 -1.03125q0.9375 -1.03125 0.9375 -2.78125q0 -1.65625 -0.890625 -2.625q-0.890625 -0.96875 -2.171875 -0.96875q-0.84375 0 -2.015625 0.328125l0.484375 -3.578125q1.78125 0.046875 2.71875 -0.765625q0.9375 -0.828125 0.9375 -2.1875q0 -1.15625 -0.6875 -1.84375q-0.6875 -0.6875 -1.828125 -0.6875q-1.125 0 -1.921875 0.78125q-0.796875 0.78125 -0.96875 2.28125l-4.046875 -0.6875q0.421875 -2.078125 1.265625 -3.3125q0.859375 -1.25 2.375 -1.953125q1.53125 -0.71875 3.421875 -0.71875q3.234375 0 5.1875 2.0625q1.609375 1.6875 1.609375 3.8125q0 3.015625 -3.296875 4.8125q1.96875 0.421875 3.140625 1.890625q1.1875 1.46875 1.1875 3.546875q0 3.015625 -2.203125 5.140625q-2.203125 2.125 -5.484375 2.125q-3.109375 0 -5.15625 -1.78125q-2.046875 -1.796875 -2.375 -4.6875zm32.78125 2.0l0 4.078125l-15.390625 0q0.25 -2.3125 1.5 -4.375q1.25 -2.078125 4.9375 -5.5q2.96875 -2.765625 3.640625 -3.75q0.90625 -1.359375 0.90625 -2.6875q0 -1.46875 -0.796875 -2.25q-0.78125 -0.796875 -2.171875 -0.796875q-1.375 0 -2.1875 0.828125q-0.8125 0.828125 -0.9375 2.75l-4.375 -0.4375q0.390625 -3.625 2.453125 -5.203125q2.0625 -1.578125 5.15625 -1.578125q3.390625 0 5.328125 1.828125q1.9375 1.828125 1.9375 4.546875q0 1.546875 -0.5625 2.953125q-0.546875 1.390625 -1.75 2.921875q-0.796875 1.015625 -2.875 2.921875q-2.078125 1.90625 -2.640625 2.53125q-0.546875 0.625 -0.890625 1.21875l8.71875 0z" fill-rule="nonzero"></path><path fill="#000000" fill-opacity="0.0" d="m971.65875 510.4934l84.15753 0l0 57.322815l-84.15753 0z" fill-rule="evenodd"></path><path fill="#000000" d="m997.14374 544.7967l4.25 -0.515625q0.203125 1.625 1.09375 2.484375q0.890625 0.859375 2.15625 0.859375q1.359375 0 2.28125 -1.03125q0.9375 -1.03125 0.9375 -2.78125q0 -1.65625 -0.890625 -2.625q-0.890625 -0.96875 -2.171875 -0.96875q-0.84375 0 -2.015625 0.328125l0.484375 -3.578125q1.78125 0.046875 2.71875 -0.765625q0.9375 -0.828125 0.9375 -2.1875q0 -1.15625 -0.6875 -1.84375q-0.6875 -0.6875 -1.828125 -0.6875q-1.125 0 -1.921875 0.78125q-0.796875 0.78125 -0.96875 2.28125l-4.046875 -0.6875q0.421875 -2.078125 1.265625 -3.3125q0.859375 -1.25 2.375 -1.953125q1.53125 -0.71875 3.421875 -0.71875q3.234375 0 5.1875 2.0625q1.609375 1.6875 1.609375 3.8125q0 3.015625 -3.296875 4.8125q1.96875 0.421875 3.140625 1.890625q1.1875 1.46875 1.1875 3.546875q0 3.015625 -2.203125 5.140625q-2.203125 2.125 -5.484375 2.125q-3.109375 0 -5.15625 -1.78125q-2.046875 -1.796875 -2.375 -4.6875zm29.187561 6.078125l-4.390686 0l0 -16.546875q-2.40625 2.25 -5.671875 3.328125l0 -3.984375q1.71875 -0.5625 3.734375 -2.125q2.015625 -1.578125 2.765625 -3.671875l3.562561 0l0 23.0z" fill-rule="nonzero"></path><path fill="#000000" fill-opacity="0.0" d="m971.65875 354.6901l84.15753 0l0 67.590546l-84.15753 0z" fill-rule="evenodd"></path><path fill="#000000" d="m997.14374 394.12726l4.25 -0.515625q0.203125 1.625 1.09375 2.484375q0.890625 0.859375 2.15625 0.859375q1.359375 0 2.28125 -1.03125q0.9375 -1.03125 0.9375 -2.78125q0 -1.65625 -0.890625 -2.625q-0.890625 -0.96875 -2.171875 -0.96875q-0.84375 0 -2.015625 0.328125l0.484375 -3.578125q1.78125 0.046875 2.71875 -0.765625q0.9375 -0.828125 0.9375 -2.1875q0 -1.15625 -0.6875 -1.84375q-0.6875 -0.6875 -1.828125 -0.6875q-1.125 0 -1.921875 0.78125q-0.796875 0.78125 -0.96875 2.28125l-4.046875 -0.6875q0.421875 -2.078125 1.265625 -3.3125q0.859375 -1.25 2.375 -1.953125q1.53125 -0.71875 3.421875 -0.71875q3.234375 0 5.1875 2.0625q1.609375 1.6875 1.609375 3.8125q0 3.015625 -3.296875 4.8125q1.96875 0.421875 3.140625 1.890625q1.1875 1.46875 1.1875 3.546875q0 3.015625 -2.203125 5.140625q-2.203125 2.125 -5.484375 2.125q-3.109375 0 -5.15625 -1.78125q-2.046875 -1.796875 -2.375 -4.6875zm25.375 -16.921875q3.328186 0 5.203186 2.375q2.234375 2.8125 2.234375 9.328125q0 6.5 -2.25 9.34375q-1.859375 2.34375 -5.187561 2.34375q-3.34375 0 -5.390625 -2.5625q-2.046875 -2.578125 -2.046875 -9.171875q0 -6.46875 2.25 -9.3125q1.859375 -2.34375 5.1875 -2.34375zm0 3.640625q-0.796875 0 -1.421875 0.515625q-0.625 0.5 -0.96875 1.8125q-0.453125 1.703125 -0.453125 5.734375q0 4.03125 0.40625 5.546875q0.40625 1.5 1.015625 2.0q0.625 0.5 1.421875 0.5q0.796875 0 1.421875 -0.5q0.62506104 -0.515625 0.96881104 -1.828125q0.453125 -1.6875 0.453125 -5.71875q0 -4.03125 -0.40625 -5.53125q-0.40625 -1.515625 -1.031311 -2.015625q-0.609375 -0.515625 -1.40625 -0.515625z" fill-rule="nonzero"></path><path fill="#000000" fill-opacity="0.0" d="m1107.244 503.14172l97.165405 0l0 57.322815l-97.165405 0z" fill-rule="evenodd"></path><path fill="#000000" d="m1139.2329 537.445l4.25 -0.515625q0.203125 1.625 1.09375 2.484375q0.890625 0.859375 2.15625 0.859375q1.359375 0 2.28125 -1.03125q0.9375 -1.03125 0.9375 -2.78125q0 -1.65625 -0.890625 -2.625q-0.890625 -0.96875 -2.171875 -0.96875q-0.84375 0 -2.015625 0.328125l0.484375 -3.578125q1.78125 0.046875 2.71875 -0.765625q0.9375 -0.828125 0.9375 -2.1875q0 -1.15625 -0.6875 -1.84375q-0.6875 -0.6875 -1.828125 -0.6875q-1.125 0 -1.921875 0.78125q-0.796875 0.78125 -0.96875 2.28125l-4.046875 -0.6875q0.421875 -2.078125 1.265625 -3.3125q0.859375 -1.25 2.375 -1.953125q1.53125 -0.71875 3.421875 -0.71875q3.234375 0 5.1875 2.0625q1.609375 1.6875 1.609375 3.8125q0 3.015625 -3.296875 4.8125q1.96875 0.421875 3.140625 1.890625q1.1875 1.46875 1.1875 3.546875q0 3.015625 -2.203125 5.140625q-2.203125 2.125 -5.484375 2.125q-3.109375 0 -5.15625 -1.78125q-2.046875 -1.796875 -2.375 -4.6875zm17.796875 0l4.25 -0.515625q0.203125 1.625 1.09375 2.484375q0.890625 0.859375 2.15625 0.859375q1.359375 0 2.28125 -1.03125q0.9375 -1.03125 0.9375 -2.78125q0 -1.65625 -0.890625 -2.625q-0.890625 -0.96875 -2.171875 -0.96875q-0.84375 0 -2.015625 0.328125l0.484375 -3.578125q1.78125 0.046875 2.71875 -0.765625q0.9375 -0.828125 0.9375 -2.1875q0 -1.15625 -0.6875 -1.84375q-0.6875 -0.6875 -1.828125 -0.6875q-1.125 0 -1.921875 0.78125q-0.796875 0.78125 -0.96875 2.28125l-4.046875 -0.6875q0.421875 -2.078125 1.265625 -3.3125q0.859375 -1.25 2.375 -1.953125q1.53125 -0.71875 3.421875 -0.71875q3.234375 0 5.1875 2.0625q1.609375 1.6875 1.609375 3.8125q0 3.015625 -3.296875 4.8125q1.96875 0.421875 3.140625 1.890625q1.1875 1.46875 1.1875 3.546875q0 3.015625 -2.203125 5.140625q-2.203125 2.125 -5.484375 2.125q-3.109375 0 -5.15625 -1.78125q-2.046875 -1.796875 -2.375 -4.6875z" fill-rule="nonzero"></path><path fill="#000000" fill-opacity="0.0" d="m144.15224 572.895l246.14174 0l0 216.22046l-246.14174 0z" fill-rule="evenodd"></path><path fill="#000000" d="m171.21474 603.59937q-0.015625 2.09375 -0.734375 3.953125q-0.703125 1.84375 -2.078125 3.15625l3.765625 3.40625l-2.828125 2.515625l-4.328125 -4.0q-0.546875 0.140625 -1.125 0.21875q-0.5625 0.078125 -1.171875 0.078125q-1.96875 0 -3.5 -0.75q-1.53125 -0.765625 -2.59375 -2.046875q-1.046875 -1.296875 -1.59375 -2.984375q-0.546875 -1.6875 -0.546875 -3.546875l0 -3.9375q0 -2.203125 0.546875 -4.046875q0.546875 -1.859375 1.59375 -3.203125q1.0625 -1.34375 2.59375 -2.09375q1.53125 -0.765625 3.5 -0.765625q1.984375 0 3.5625 0.765625q1.578125 0.75 2.671875 2.09375q1.09375 1.34375 1.671875 3.203125q0.59375 1.84375 0.59375 4.046875l0 3.9375zm-4.453125 -3.96875q0 -1.40625 -0.234375 -2.578125q-0.21875 -1.1875 -0.703125 -2.046875q-0.484375 -0.859375 -1.25 -1.328125q-0.765625 -0.484375 -1.859375 -0.484375q-1.078125 0 -1.8125 0.484375q-0.71875 0.484375 -1.15625 1.34375q-0.4375 0.84375 -0.625 2.03125q-0.1875 1.171875 -0.1875 2.578125l0 3.96875q0 1.0625 0.1875 2.09375q0.1875 1.015625 0.625 1.828125q0.4375 0.796875 1.15625 1.296875q0.734375 0.5 1.8125 0.5q1.09375 0 1.859375 -0.484375q0.765625 -0.5 1.25 -1.3125q0.484375 -0.8125 0.703125 -1.828125q0.234375 -1.03125 0.234375 -2.09375l0 -3.96875zm18.578125 10.609375q-0.859375 1.265625 -2.078125 1.984375q-1.203125 0.71875 -2.640625 0.71875q-1.3125 0 -2.40625 -0.40625q-1.09375 -0.40625 -1.875 -1.28125q-0.78125 -0.890625 -1.21875 -2.25q-0.421875 -1.375 -0.421875 -3.296875l0 -10.0l4.34375 0l0 10.03125q0 1.03125 0.140625 1.734375q0.15625 0.703125 0.484375 1.140625q0.328125 0.421875 0.859375 0.609375q0.53125 0.1875 1.296875 0.1875q1.296875 0 2.109375 -0.484375q0.8125 -0.5 1.234375 -1.359375l0 -11.859375l4.359375 0l0 16.90625l-3.9375 0l-0.25 -2.375zm18.984375 2.375q-0.15625 -0.3125 -0.265625 -0.71875q-0.109375 -0.40625 -0.1875 -0.859375q-0.359375 0.390625 -0.828125 0.734375q-0.46875 0.34375 -1.046875 0.609375q-0.5625 0.25 -1.25 0.390625q-0.6875 0.15625 -1.484375 0.15625q-1.296875 0 -2.390625 -0.375q-1.078125 -0.375 -1.859375 -1.046875q-0.78125 -0.671875 -1.21875 -1.59375q-0.4375 -0.9375 -0.4375 -2.03125q0 -2.671875 1.984375 -4.125q2.0 -1.46875 5.953125 -1.46875l2.421875 0l0 -1.0q0 -1.21875 -0.796875 -1.921875q-0.796875 -0.71875 -2.296875 -0.71875q-1.328125 0 -1.9375 0.578125q-0.609375 0.5625 -0.609375 1.515625l-4.34375 0q0 -1.078125 0.46875 -2.046875q0.484375 -0.96875 1.390625 -1.703125q0.921875 -0.734375 2.234375 -1.15625q1.328125 -0.4375 3.03125 -0.4375q1.53125 0 2.84375 0.375q1.328125 0.375 2.296875 1.109375q0.96875 0.734375 1.515625 1.859375q0.546875 1.109375 0.546875 2.578125l0 7.25q0 1.359375 0.171875 2.25q0.171875 0.890625 0.5 1.53125l0 0.265625l-4.40625 0zm-4.140625 -3.046875q0.65625 0 1.21875 -0.15625q0.5625 -0.15625 1.015625 -0.40625q0.453125 -0.25 0.78125 -0.5625q0.328125 -0.328125 0.515625 -0.65625l0 -2.90625l-2.21875 0q-1.015625 0 -1.734375 0.203125q-0.71875 0.1875 -1.171875 0.546875q-0.453125 0.34375 -0.671875 0.84375q-0.21875 0.484375 -0.21875 1.0625q0 0.875 0.609375 1.453125q0.625 0.578125 1.875 0.578125zm12.328125 -5.53125q0 -1.921875 0.4375 -3.515625q0.453125 -1.59375 1.3125 -2.734375q0.859375 -1.140625 2.078125 -1.765625q1.234375 -0.625 2.8125 -0.625q1.328125 0 2.328125 0.484375q1.015625 0.46875 1.796875 1.34375l0 -8.609375l4.359375 0l0 24.0l-3.921875 0l-0.21875 -1.765625q-0.796875 0.984375 -1.875 1.53125q-1.078125 0.546875 -2.5 0.546875q-1.546875 0 -2.78125 -0.640625q-1.21875 -0.65625 -2.078125 -1.796875q-0.84375 -1.140625 -1.296875 -2.703125q-0.453125 -1.578125 -0.453125 -3.421875l0 -0.328125zm4.34375 0.328125q0 1.0625 0.171875 1.984375q0.1875 0.90625 0.59375 1.59375q0.40625 0.671875 1.046875 1.0625q0.640625 0.390625 1.5625 0.390625q1.125 0 1.859375 -0.484375q0.75 -0.484375 1.1875 -1.328125l0 -6.84375q-0.4375 -0.859375 -1.171875 -1.328125q-0.734375 -0.484375 -1.84375 -0.484375q-0.921875 0 -1.578125 0.40625q-0.640625 0.390625 -1.046875 1.09375q-0.40625 0.6875 -0.59375 1.625q-0.1875 0.921875 -0.1875 1.984375l0 0.328125zm23.28125 -12.796875l0 4.140625l6.3125 0l0 3.203125l-6.3125 0l0 7.265625q0 0.921875 0.203125 1.546875q0.21875 0.609375 0.609375 0.984375q0.390625 0.359375 0.9375 0.515625q0.5625 0.15625 1.25 0.15625q0.5 0 1.015625 -0.046875q0.53125 -0.046875 1.0 -0.109375q0.484375 -0.078125 0.890625 -0.15625q0.421875 -0.078125 0.71875 -0.15625l0.421875 2.984375q-0.453125 0.265625 -1.0625 0.46875q-0.609375 0.1875 -1.296875 0.3125q-0.6875 0.125 -1.4375 0.1875q-0.734375 0.078125 -1.453125 0.078125q-1.390625 0 -2.53125 -0.359375q-1.125 -0.375 -1.9375 -1.140625q-0.796875 -0.78125 -1.234375 -1.96875q-0.4375 -1.203125 -0.4375 -2.875l0 -7.6875l-3.859375 0l0 -3.203125l3.859375 0l0 -4.140625l4.34375 0zm23.374985 3.828125q0.984375 0 1.8125 0.140625q0.84375 0.125 1.359375 0.28125l-0.640625 4.328125q-0.859375 -0.203125 -1.765625 -0.296875q-0.890625 -0.109375 -1.703125 -0.109375q-1.828125 0 -2.9375 0.703125q-1.09375 0.703125 -1.640625 2.015625l0 10.15625l-4.3437347 0l0 -16.90625l4.0468597 0l0.203125 2.765625q1.03125 -1.4375 2.46875 -2.25q1.4375 -0.828125 3.140625 -0.828125zm15.265625 17.53125q-1.953125 0 -3.546875 -0.640625q-1.59375 -0.640625 -2.734375 -1.734375q-1.140625 -1.109375 -1.765625 -2.59375q-0.609375 -1.5 -0.609375 -3.203125l0 -0.625q0 -1.9375 0.609375 -3.53125q0.609375 -1.609375 1.703125 -2.765625q1.09375 -1.15625 2.59375 -1.796875q1.5 -0.640625 3.265625 -0.640625q1.828125 0 3.25 0.609375q1.4375 0.59375 2.421875 1.6875q1.0 1.09375 1.515625 2.640625q0.515625 1.53125 0.515625 3.390625l0 1.84375l-11.46875 0q0.125 0.859375 0.5 1.578125q0.390625 0.703125 0.984375 1.21875q0.59375 0.515625 1.359375 0.796875q0.765625 0.28125 1.671875 0.28125q0.640625 0 1.265625 -0.125q0.640625 -0.125 1.21875 -0.359375q0.578125 -0.25 1.078125 -0.609375q0.5 -0.359375 0.875 -0.84375l2.171875 2.34375q-0.40625 0.578125 -1.0625 1.140625q-0.640625 0.546875 -1.53125 0.984375q-0.875 0.421875 -1.953125 0.6875q-1.078125 0.265625 -2.328125 0.265625zm-0.515625 -14.015625q-0.734375 0 -1.34375 0.265625q-0.609375 0.25 -1.078125 0.734375q-0.453125 0.484375 -0.765625 1.15625q-0.3125 0.671875 -0.46875 1.5l7.125 0l0 -0.34375q-0.03125 -0.6875 -0.265625 -1.296875q-0.234375 -0.609375 -0.671875 -1.046875q-0.4375 -0.453125 -1.078125 -0.703125q-0.625 -0.265625 -1.453125 -0.265625zm19.71875 14.015625q-1.953125 0 -3.546875 -0.640625q-1.59375 -0.640625 -2.734375 -1.734375q-1.140625 -1.109375 -1.765625 -2.59375q-0.609375 -1.5 -0.609375 -3.203125l0 -0.625q0 -1.9375 0.609375 -3.53125q0.609375 -1.609375 1.703125 -2.765625q1.09375 -1.15625 2.59375 -1.796875q1.5 -0.640625 3.265625 -0.640625q1.828125 0 3.25 0.609375q1.4375 0.59375 2.421875 1.6875q1.0 1.09375 1.515625 2.640625q0.515625 1.53125 0.515625 3.390625l0 1.84375l-11.46875 0q0.125 0.859375 0.5 1.578125q0.390625 0.703125 0.984375 1.21875q0.59375 0.515625 1.359375 0.796875q0.765625 0.28125 1.671875 0.28125q0.640625 0 1.265625 -0.125q0.640625 -0.125 1.21875 -0.359375q0.578125 -0.25 1.078125 -0.609375q0.5 -0.359375 0.875 -0.84375l2.171875 2.34375q-0.40625 0.578125 -1.0625 1.140625q-0.640625 0.546875 -1.53125 0.984375q-0.875 0.421875 -1.953125 0.6875q-1.078125 0.265625 -2.328125 0.265625zm-0.515625 -14.015625q-0.734375 0 -1.34375 0.265625q-0.609375 0.25 -1.078125 0.734375q-0.453125 0.484375 -0.765625 1.15625q-0.3125 0.671875 -0.46875 1.5l7.125 0l0 -0.34375q-0.03125 -0.6875 -0.265625 -1.296875q-0.234375 -0.609375 -0.671875 -1.046875q-0.4375 -0.453125 -1.078125 -0.703125q-0.625 -0.265625 -1.453125 -0.265625zm15.90625 11.1875q0 -0.609375 0.203125 -1.125q0.203125 -0.53125 0.59375 -0.90625q0.390625 -0.390625 0.953125 -0.609375q0.5625 -0.234375 1.265625 -0.234375q0.703125 0 1.265625 0.234375q0.5625 0.21875 0.9375 0.609375q0.390625 0.375 0.59375 0.90625q0.21875 0.515625 0.21875 1.125q0 0.59375 -0.21875 1.109375q-0.203125 0.515625 -0.59375 0.90625q-0.375 0.375 -0.9375 0.59375q-0.5625 0.21875 -1.265625 0.21875q-0.703125 0 -1.265625 -0.21875q-0.5625 -0.21875 -0.953125 -0.59375q-0.390625 -0.390625 -0.59375 -0.90625q-0.203125 -0.515625 -0.203125 -1.109375zm0 -13.0q0 -0.609375 0.203125 -1.125q0.203125 -0.53125 0.59375 -0.90625q0.390625 -0.390625 0.953125 -0.609375q0.5625 -0.234375 1.265625 -0.234375q0.703125 0 1.265625 0.234375q0.5625 0.21875 0.9375 0.609375q0.390625 0.375 0.59375 0.90625q0.21875 0.515625 0.21875 1.125q0 0.59375 -0.21875 1.109375q-0.203125 0.515625 -0.59375 0.90625q-0.375 0.375 -0.9375 0.59375q-0.5625 0.21875 -1.265625 0.21875q-0.703125 0 -1.265625 -0.21875q-0.5625 -0.21875 -0.953125 -0.59375q-0.390625 -0.390625 -0.59375 -0.90625q-0.203125 -0.515625 -0.203125 -1.109375z" fill-rule="nonzero"></path><path fill="#000000" d="m175.37099 642.33374l-13.015625 0l0 -3.515625l13.015625 0l0 3.515625z" fill-rule="nonzero"></path><path fill="#000000" d="m218.16786 641.95874q0 2.203125 -0.515625 3.890625q-0.5 1.671875 -1.453125 2.8125q-0.953125 1.125 -2.328125 1.703125q-1.375 0.578125 -3.09375 0.578125q-1.703125 0 -3.078125 -0.578125q-1.375 -0.578125 -2.34375 -1.703125q-0.953125 -1.140625 -1.484375 -2.8125q-0.515625 -1.6875 -0.515625 -3.890625l0 -5.4375q0 -2.203125 0.515625 -3.875q0.515625 -1.6875 1.46875 -2.8125q0.96875 -1.140625 2.328125 -1.71875q1.375 -0.578125 3.078125 -0.578125q1.71875 0 3.09375 0.578125q1.375 0.578125 2.328125 1.71875q0.96875 1.125 1.484375 2.8125q0.515625 1.671875 0.515625 3.875l0 5.4375zm-10.4375 -1.875l6.0625 -4.515625q-0.046875 -2.296875 -0.796875 -3.40625q-0.75 -1.109375 -2.25 -1.109375q-1.515625 0 -2.265625 1.171875q-0.75 1.171875 -0.75 3.609375l0 4.25zm6.0625 -1.5625l-6.0625 4.5q0.078125 2.25 0.828125 3.34375q0.75 1.078125 2.21875 1.078125q1.53125 0 2.265625 -1.1875q0.75 -1.1875 0.75 -3.640625l0 -4.09375z" fill-rule="nonzero"></path><path fill="#000000" d="m245.13661 641.3806q0 -2.234375 0.34375 -4.203125q0.359375 -1.96875 0.953125 -3.640625q0.59375 -1.6875 1.359375 -3.078125q0.78125 -1.390625 1.625 -2.46875q0.859375 -1.078125 1.71875 -1.84375q0.859375 -0.765625 1.640625 -1.203125l0.609375 1.90625q-0.96875 0.734375 -1.9375 2.0q-0.953125 1.265625 -1.71875 3.078125q-0.75 1.796875 -1.234375 4.15625q-0.46875 2.34375 -0.46875 5.265625l0 0.21875q0 2.921875 0.46875 5.28125q0.484375 2.359375 1.234375 4.171875q0.765625 1.8125 1.71875 3.09375q0.96875 1.296875 1.9375 2.078125l-0.609375 1.765625q-0.78125 -0.4375 -1.65625 -1.203125q-0.859375 -0.75 -1.71875 -1.84375q-0.84375 -1.078125 -1.625 -2.46875q-0.765625 -1.375 -1.359375 -3.046875q-0.578125 -1.6875 -0.9375 -3.65625q-0.34375 -1.96875 -0.34375 -4.203125l0 -0.15625zm16.79686 -14.765625l8.640625 0l0 21.5l5.515625 0l0 2.5l-14.15625 0l0 -2.5l5.75 0l0 -18.984375l-5.75 0l0 -2.515625zm25.375 19.84375l0.265625 1.046875l0.28125 -1.046875l4.734375 -12.75l2.953125 0l-6.890625 16.90625l-2.203125 0l-6.953125 -16.90625l2.96875 0l4.84375 12.75zm13.03125 -19.84375l8.640625 0l0 21.5l5.515625 0l0 2.5l-14.15625 0l0 -2.5l5.75 0l0 -18.984375l-5.75 0l0 -2.515625zm47.328125 24.0l-2.890625 0l0 -19.0625l-5.953125 2.265625l0 -2.640625l8.609375 -3.3125l0.234375 0l0 22.75zm20.375 -9.078125q0 2.234375 -0.359375 4.203125q-0.34375 1.96875 -0.9375 3.65625q-0.59375 1.671875 -1.375 3.046875q-0.765625 1.390625 -1.625 2.46875q-0.84375 1.09375 -1.71875 1.84375q-0.859375 0.765625 -1.640625 1.203125l-0.609375 -1.765625q0.96875 -0.71875 1.921875 -2.015625q0.96875 -1.28125 1.71875 -3.109375q0.765625 -1.828125 1.234375 -4.203125q0.484375 -2.375 0.484375 -5.296875l0 -0.21875q0 -2.921875 -0.5 -5.296875q-0.5 -2.390625 -1.296875 -4.21875q-0.78125 -1.84375 -1.734375 -3.125q-0.9375 -1.28125 -1.828125 -2.0l0.609375 -1.765625q0.78125 0.4375 1.640625 1.203125q0.875 0.765625 1.71875 1.84375q0.859375 1.078125 1.625 2.46875q0.78125 1.390625 1.375 3.078125q0.59375 1.671875 0.9375 3.640625q0.359375 1.96875 0.359375 4.203125l0 0.15625z" fill-rule="nonzero"></path><path fill="#000000" d="m175.37099 680.33374l-13.015625 0l0 -3.515625l13.015625 0l0 3.515625z" fill-rule="nonzero"></path><path fill="#000000" d="m213.99599 688.615l-4.390625 0l0 -17.453125l-5.75 2.0625l0 -3.78125l9.90625 -3.578125l0.234375 0l0 22.75z" fill-rule="nonzero"></path><path fill="#000000" d="m245.13661 679.3806q0 -2.234375 0.34375 -4.203125q0.359375 -1.96875 0.953125 -3.640625q0.59375 -1.6875 1.359375 -3.078125q0.78125 -1.390625 1.625 -2.46875q0.859375 -1.078125 1.71875 -1.84375q0.859375 -0.765625 1.640625 -1.203125l0.609375 1.90625q-0.96875 0.734375 -1.9375 2.0q-0.953125 1.265625 -1.71875 3.078125q-0.75 1.796875 -1.234375 4.15625q-0.46875 2.34375 -0.46875 5.265625l0 0.21875q0 2.921875 0.46875 5.28125q0.484375 2.359375 1.234375 4.171875q0.765625 1.8125 1.71875 3.09375q0.96875 1.296875 1.9375 2.078125l-0.609375 1.765625q-0.78125 -0.4375 -1.65625 -1.203125q-0.859375 -0.75 -1.71875 -1.84375q-0.84375 -1.078125 -1.625 -2.46875q-0.765625 -1.375 -1.359375 -3.046875q-0.578125 -1.6875 -0.9375 -3.65625q-0.34375 -1.96875 -0.34375 -4.203125l0 -0.15625zm16.79686 -14.765625l8.640625 0l0 21.5l5.515625 0l0 2.5l-14.15625 0l0 -2.5l5.75 0l0 -18.984375l-5.75 0l0 -2.515625zm25.375 19.84375l0.265625 1.046875l0.28125 -1.046875l4.734375 -12.75l2.953125 0l-6.890625 16.90625l-2.203125 0l-6.953125 -16.90625l2.96875 0l4.84375 12.75zm13.03125 -19.84375l8.640625 0l0 21.5l5.515625 0l0 2.5l-14.15625 0l0 -2.5l5.75 0l0 -18.984375l-5.75 0l0 -2.515625zm47.328125 24.0l-2.890625 0l0 -19.0625l-5.953125 2.265625l0 -2.640625l8.609375 -3.3125l0.234375 0l0 22.75zm20.375 -9.078125q0 2.234375 -0.359375 4.203125q-0.34375 1.96875 -0.9375 3.65625q-0.59375 1.671875 -1.375 3.046875q-0.765625 1.390625 -1.625 2.46875q-0.84375 1.09375 -1.71875 1.84375q-0.859375 0.765625 -1.640625 1.203125l-0.609375 -1.765625q0.96875 -0.71875 1.921875 -2.015625q0.96875 -1.28125 1.71875 -3.109375q0.765625 -1.828125 1.234375 -4.203125q0.484375 -2.375 0.484375 -5.296875l0 -0.21875q0 -2.921875 -0.5 -5.296875q-0.5 -2.390625 -1.296875 -4.21875q-0.78125 -1.84375 -1.734375 -3.125q-0.9375 -1.28125 -1.828125 -2.0l0.609375 -1.765625q0.78125 0.4375 1.640625 1.203125q0.875 0.765625 1.71875 1.84375q0.859375 1.078125 1.625 2.46875q0.78125 1.390625 1.375 3.078125q0.59375 1.671875 0.9375 3.640625q0.359375 1.96875 0.359375 4.203125l0 0.15625z" fill-rule="nonzero"></path><path fill="#000000" d="m175.37099 718.33374l-13.015625 0l0 -3.515625l13.015625 0l0 3.515625z" fill-rule="nonzero"></path><path fill="#000000" d="m218.23036 726.615l-15.515625 0l0 -2.96875l7.359375 -7.90625q0.859375 -0.9375 1.453125 -1.703125q0.59375 -0.765625 0.953125 -1.390625q0.375 -0.640625 0.53125 -1.1875q0.171875 -0.546875 0.171875 -1.0625q0 -0.765625 -0.21875 -1.359375q-0.21875 -0.59375 -0.625 -1.0q-0.390625 -0.421875 -0.953125 -0.640625q-0.546875 -0.21875 -1.21875 -0.21875q-1.796875 0 -2.6875 1.0q-0.875 1.0 -0.875 2.796875l-4.359375 0q0 -1.515625 0.578125 -2.859375q0.578125 -1.359375 1.625 -2.375q1.0625 -1.015625 2.546875 -1.59375q1.5 -0.59375 3.3125 -0.59375q1.734375 0 3.0625 0.484375q1.34375 0.484375 2.234375 1.359375q0.90625 0.875 1.375 2.109375q0.46875 1.21875 0.46875 2.703125q0 1.125 -0.359375 2.15625q-0.34375 1.015625 -1.0 2.015625q-0.640625 1.0 -1.546875 2.046875q-0.90625 1.03125 -2.015625 2.171875l-4.28125 4.53125l9.984375 0l0 3.484375z" fill-rule="nonzero"></path><path fill="#000000" d="m245.13661 717.3806q0 -2.234375 0.34375 -4.203125q0.359375 -1.96875 0.953125 -3.640625q0.59375 -1.6875 1.359375 -3.078125q0.78125 -1.390625 1.625 -2.46875q0.859375 -1.078125 1.71875 -1.84375q0.859375 -0.765625 1.640625 -1.203125l0.609375 1.90625q-0.96875 0.734375 -1.9375 2.0q-0.953125 1.265625 -1.71875 3.078125q-0.75 1.796875 -1.234375 4.15625q-0.46875 2.34375 -0.46875 5.265625l0 0.21875q0 2.921875 0.46875 5.28125q0.484375 2.359375 1.234375 4.171875q0.765625 1.8125 1.71875 3.09375q0.96875 1.296875 1.9375 2.078125l-0.609375 1.765625q-0.78125 -0.4375 -1.65625 -1.203125q-0.859375 -0.75 -1.71875 -1.84375q-0.84375 -1.078125 -1.625 -2.46875q-0.765625 -1.375 -1.359375 -3.046875q-0.578125 -1.6875 -0.9375 -3.65625q-0.34375 -1.96875 -0.34375 -4.203125l0 -0.15625zm16.79686 -14.765625l8.640625 0l0 21.5l5.515625 0l0 2.5l-14.15625 0l0 -2.5l5.75 0l0 -18.984375l-5.75 0l0 -2.515625zm25.375 19.84375l0.265625 1.046875l0.28125 -1.046875l4.734375 -12.75l2.953125 0l-6.890625 16.90625l-2.203125 0l-6.953125 -16.90625l2.96875 0l4.84375 12.75zm13.03125 -19.84375l8.640625 0l0 21.5l5.515625 0l0 2.5l-14.15625 0l0 -2.5l5.75 0l0 -18.984375l-5.75 0l0 -2.515625zm47.328125 24.0l-2.890625 0l0 -19.0625l-5.953125 2.265625l0 -2.640625l8.609375 -3.3125l0.234375 0l0 22.75zm20.375 -9.078125q0 2.234375 -0.359375 4.203125q-0.34375 1.96875 -0.9375 3.65625q-0.59375 1.671875 -1.375 3.046875q-0.765625 1.390625 -1.625 2.46875q-0.84375 1.09375 -1.71875 1.84375q-0.859375 0.765625 -1.640625 1.203125l-0.609375 -1.765625q0.96875 -0.71875 1.921875 -2.015625q0.96875 -1.28125 1.71875 -3.109375q0.765625 -1.828125 1.234375 -4.203125q0.484375 -2.375 0.484375 -5.296875l0 -0.21875q0 -2.921875 -0.5 -5.296875q-0.5 -2.390625 -1.296875 -4.21875q-0.78125 -1.84375 -1.734375 -3.125q-0.9375 -1.28125 -1.828125 -2.0l0.609375 -1.765625q0.78125 0.4375 1.640625 1.203125q0.875 0.765625 1.71875 1.84375q0.859375 1.078125 1.625 2.46875q0.78125 1.390625 1.375 3.078125q0.59375 1.671875 0.9375 3.640625q0.359375 1.96875 0.359375 4.203125l0 0.15625z" fill-rule="nonzero"></path><path fill="#4a86e8" d="m175.37099 756.33374l-13.015625 0l0 -3.515625l13.015625 0l0 3.515625z" fill-rule="nonzero"></path><path fill="#4a86e8" d="m207.73036 751.33374l2.359375 0q1.78125 0 2.640625 -0.890625q0.859375 -0.90625 0.859375 -2.359375q0 -0.671875 -0.203125 -1.21875q-0.1875 -0.5625 -0.578125 -0.953125q-0.390625 -0.40625 -1.0 -0.625q-0.59375 -0.21875 -1.390625 -0.21875q-0.65625 0 -1.234375 0.1875q-0.5625 0.1875 -1.0 0.546875q-0.421875 0.34375 -0.671875 0.84375q-0.25 0.5 -0.25 1.125l-4.34375 0q0 -1.390625 0.5625 -2.53125q0.578125 -1.140625 1.578125 -1.953125q1.0 -0.828125 2.34375 -1.28125q1.359375 -0.453125 2.921875 -0.453125q1.6875 0 3.09375 0.421875q1.40625 0.40625 2.40625 1.234375q1.0 0.8125 1.546875 2.03125q0.5625 1.203125 0.5625 2.796875q0 0.734375 -0.21875 1.453125q-0.21875 0.703125 -0.640625 1.34375q-0.421875 0.640625 -1.046875 1.1875q-0.625 0.53125 -1.4375 0.921875q0.953125 0.34375 1.640625 0.875q0.703125 0.53125 1.15625 1.21875q0.453125 0.671875 0.671875 1.484375q0.21875 0.8125 0.21875 1.71875q0 1.59375 -0.609375 2.84375q-0.609375 1.25 -1.671875 2.109375q-1.0625 0.84375 -2.53125 1.296875q-1.453125 0.4375 -3.140625 0.4375q-1.453125 0 -2.84375 -0.390625q-1.375 -0.40625 -2.453125 -1.203125q-1.078125 -0.8125 -1.734375 -2.03125q-0.640625 -1.21875 -0.640625 -2.875l4.34375 0q0 0.65625 0.25 1.21875q0.25 0.546875 0.703125 0.953125q0.46875 0.390625 1.09375 0.625q0.625 0.21875 1.375 0.21875q1.65625 0 2.59375 -0.875q0.9375 -0.875 0.9375 -2.375q0 -0.921875 -0.265625 -1.578125q-0.265625 -0.65625 -0.78125 -1.078125q-0.5 -0.421875 -1.21875 -0.625q-0.703125 -0.203125 -1.59375 -0.203125l-2.359375 0l0 -3.375z" fill-rule="nonzero"></path><path fill="#4a86e8" d="m245.13661 755.3806q0 -2.234375 0.34375 -4.203125q0.359375 -1.96875 0.953125 -3.640625q0.59375 -1.6875 1.359375 -3.078125q0.78125 -1.390625 1.625 -2.46875q0.859375 -1.078125 1.71875 -1.84375q0.859375 -0.765625 1.640625 -1.203125l0.609375 1.90625q-0.96875 0.734375 -1.9375 2.0q-0.953125 1.265625 -1.71875 3.078125q-0.75 1.796875 -1.234375 4.15625q-0.46875 2.34375 -0.46875 5.265625l0 0.21875q0 2.921875 0.46875 5.28125q0.484375 2.359375 1.234375 4.171875q0.765625 1.8125 1.71875 3.09375q0.96875 1.296875 1.9375 2.078125l-0.609375 1.765625q-0.78125 -0.4375 -1.65625 -1.203125q-0.859375 -0.75 -1.71875 -1.84375q-0.84375 -1.078125 -1.625 -2.46875q-0.765625 -1.375 -1.359375 -3.046875q-0.578125 -1.6875 -0.9375 -3.65625q-0.34375 -1.96875 -0.34375 -4.203125l0 -0.15625zm16.79686 -14.765625l8.640625 0l0 21.5l5.515625 0l0 2.5l-14.15625 0l0 -2.5l5.75 0l0 -18.984375l-5.75 0l0 -2.515625zm25.375 19.84375l0.265625 1.046875l0.28125 -1.046875l4.734375 -12.75l2.953125 0l-6.890625 16.90625l-2.203125 0l-6.953125 -16.90625l2.96875 0l4.84375 12.75zm13.03125 -19.84375l8.640625 0l0 21.5l5.515625 0l0 2.5l-14.15625 0l0 -2.5l5.75 0l0 -18.984375l-5.75 0l0 -2.515625zm47.328125 24.0l-2.890625 0l0 -19.0625l-5.953125 2.265625l0 -2.640625l8.609375 -3.3125l0.234375 0l0 22.75zm20.375 -9.078125q0 2.234375 -0.359375 4.203125q-0.34375 1.96875 -0.9375 3.65625q-0.59375 1.671875 -1.375 3.046875q-0.765625 1.390625 -1.625 2.46875q-0.84375 1.09375 -1.71875 1.84375q-0.859375 0.765625 -1.640625 1.203125l-0.609375 -1.765625q0.96875 -0.71875 1.921875 -2.015625q0.96875 -1.28125 1.71875 -3.109375q0.765625 -1.828125 1.234375 -4.203125q0.484375 -2.375 0.484375 -5.296875l0 -0.21875q0 -2.921875 -0.5 -5.296875q-0.5 -2.390625 -1.296875 -4.21875q-0.78125 -1.84375 -1.734375 -3.125q-0.9375 -1.28125 -1.828125 -2.0l0.609375 -1.765625q0.78125 0.4375 1.640625 1.203125q0.875 0.765625 1.71875 1.84375q0.859375 1.078125 1.625 2.46875q0.78125 1.390625 1.375 3.078125q0.59375 1.671875 0.9375 3.640625q0.359375 1.96875 0.359375 4.203125l0 0.15625z" fill-rule="nonzero"></path><path fill="#000000" fill-opacity="0.0" d="m794.4724 564.0131l318.67725 0l0 368.72443l-318.67725 0z" fill-rule="evenodd"></path><path fill="#000000" d="m821.5349 594.7175q-0.015625 2.09375 -0.734375 3.953125q-0.703125 1.84375 -2.078125 3.15625l3.765625 3.40625l-2.828125 2.515625l-4.328125 -4.0q-0.546875 0.140625 -1.125 0.21875q-0.5625 0.078125 -1.171875 0.078125q-1.96875 0 -3.5 -0.75q-1.53125 -0.765625 -2.59375 -2.046875q-1.046875 -1.296875 -1.59375 -2.984375q-0.546875 -1.6875 -0.546875 -3.546875l0 -3.9375q0 -2.203125 0.546875 -4.046875q0.546875 -1.859375 1.59375 -3.203125q1.0625 -1.34375 2.59375 -2.09375q1.53125 -0.765625 3.5 -0.765625q1.984375 0 3.5625 0.765625q1.578125 0.75 2.671875 2.09375q1.09375 1.34375 1.671875 3.203125q0.59375 1.84375 0.59375 4.046875l0 3.9375zm-4.453125 -3.96875q0 -1.40625 -0.234375 -2.578125q-0.21875 -1.1875 -0.703125 -2.046875q-0.484375 -0.859375 -1.25 -1.328125q-0.765625 -0.484375 -1.859375 -0.484375q-1.078125 0 -1.8125 0.484375q-0.71875 0.484375 -1.15625 1.34375q-0.4375 0.84375 -0.625 2.03125q-0.1875 1.171875 -0.1875 2.578125l0 3.96875q0 1.0625 0.1875 2.09375q0.1875 1.015625 0.625 1.828125q0.4375 0.796875 1.15625 1.296875q0.734375 0.5 1.8125 0.5q1.09375 0 1.859375 -0.484375q0.765625 -0.5 1.25 -1.3125q0.484375 -0.8125 0.703125 -1.828125q0.234375 -1.03125 0.234375 -2.09375l0 -3.96875zm18.578125 10.609375q-0.859375 1.265625 -2.078125 1.984375q-1.203125 0.71875 -2.640625 0.71875q-1.3125 0 -2.40625 -0.40625q-1.09375 -0.40625 -1.875 -1.28125q-0.78125 -0.890625 -1.21875 -2.25q-0.421875 -1.375 -0.421875 -3.296875l0 -10.0l4.34375 0l0 10.03125q0 1.03125 0.140625 1.734375q0.15625 0.703125 0.484375 1.140625q0.328125 0.421875 0.859375 0.609375q0.53125 0.1875 1.296875 0.1875q1.296875 0 2.109375 -0.484375q0.8125 -0.5 1.234375 -1.359375l0 -11.859375l4.359375 0l0 16.90625l-3.9375 0l-0.25 -2.375zm18.984375 2.375q-0.15625 -0.3125 -0.265625 -0.71875q-0.109375 -0.40625 -0.1875 -0.859375q-0.359375 0.390625 -0.828125 0.734375q-0.46875 0.34375 -1.046875 0.609375q-0.5625 0.25 -1.25 0.390625q-0.6875 0.15625 -1.484375 0.15625q-1.296875 0 -2.390625 -0.375q-1.078125 -0.375 -1.859375 -1.046875q-0.78125 -0.671875 -1.21875 -1.59375q-0.4375 -0.9375 -0.4375 -2.03125q0 -2.671875 1.984375 -4.125q2.0 -1.46875 5.953125 -1.46875l2.421875 0l0 -1.0q0 -1.21875 -0.796875 -1.921875q-0.796875 -0.71875 -2.296875 -0.71875q-1.328125 0 -1.9375 0.578125q-0.609375 0.5625 -0.609375 1.515625l-4.34375 0q0 -1.078125 0.46875 -2.046875q0.484375 -0.96875 1.390625 -1.703125q0.921875 -0.734375 2.234375 -1.15625q1.328125 -0.4375 3.03125 -0.4375q1.53125 0 2.84375 0.375q1.328125 0.375 2.296875 1.109375q0.96875 0.734375 1.515625 1.859375q0.546875 1.109375 0.546875 2.578125l0 7.25q0 1.359375 0.171875 2.25q0.171875 0.890625 0.5 1.53125l0 0.265625l-4.40625 0zm-4.140625 -3.046875q0.65625 0 1.21875 -0.15625q0.5625 -0.15625 1.015625 -0.40625q0.453125 -0.25 0.78125 -0.5625q0.328125 -0.328125 0.515625 -0.65625l0 -2.90625l-2.21875 0q-1.015625 0 -1.734375 0.203125q-0.71875 0.1875 -1.171875 0.546875q-0.453125 0.34375 -0.671875 0.84375q-0.21875 0.484375 -0.21875 1.0625q0 0.875 0.609375 1.453125q0.625 0.578125 1.875 0.578125zm12.328125 -5.53125q0 -1.921875 0.4375 -3.515625q0.453125 -1.59375 1.3125 -2.734375q0.859375 -1.140625 2.078125 -1.765625q1.234375 -0.625 2.8125 -0.625q1.328125 0 2.328125 0.484375q1.015625 0.46875 1.796875 1.34375l0 -8.609375l4.359375 0l0 24.0l-3.921875 0l-0.21875 -1.765625q-0.796875 0.984375 -1.875 1.53125q-1.078125 0.546875 -2.5 0.546875q-1.546875 0 -2.78125 -0.640625q-1.21875 -0.65625 -2.078125 -1.796875q-0.84375 -1.140625 -1.296875 -2.703125q-0.453125 -1.578125 -0.453125 -3.421875l0 -0.328125zm4.34375 0.328125q0 1.0625 0.171875 1.984375q0.1875 0.90625 0.59375 1.59375q0.40625 0.671875 1.046875 1.0625q0.640625 0.390625 1.5625 0.390625q1.125 0 1.859375 -0.484375q0.75 -0.484375 1.1875 -1.328125l0 -6.84375q-0.4375 -0.859375 -1.171875 -1.328125q-0.734375 -0.484375 -1.84375 -0.484375q-0.921875 0 -1.578125 0.40625q-0.640625 0.390625 -1.046875 1.09375q-0.40625 0.6875 -0.59375 1.625q-0.1875 0.921875 -0.1875 1.984375l0 0.328125zm23.28125 -12.796875l0 4.140625l6.3125 0l0 3.203125l-6.3125 0l0 7.265625q0 0.921875 0.203125 1.546875q0.21875 0.609375 0.609375 0.984375q0.390625 0.359375 0.9375 0.515625q0.5625 0.15625 1.25 0.15625q0.5 0 1.015625 -0.046875q0.53125 -0.046875 1.0 -0.109375q0.484375 -0.078125 0.890625 -0.15625q0.421875 -0.078125 0.71875 -0.15625l0.421875 2.984375q-0.453125 0.265625 -1.0625 0.46875q-0.609375 0.1875 -1.296875 0.3125q-0.6875 0.125 -1.4375 0.1875q-0.734375 0.078125 -1.453125 0.078125q-1.390625 0 -2.53125 -0.359375q-1.125 -0.375 -1.9375 -1.140625q-0.796875 -0.78125 -1.234375 -1.96875q-0.4375 -1.203125 -0.4375 -2.875l0 -7.6875l-3.859375 0l0 -3.203125l3.859375 0l0 -4.140625l4.34375 0zm23.375 3.828125q0.984375 0 1.8125 0.140625q0.84375 0.125 1.359375 0.28125l-0.640625 4.328125q-0.859375 -0.203125 -1.765625 -0.296875q-0.890625 -0.109375 -1.703125 -0.109375q-1.828125 0 -2.9375 0.703125q-1.09375 0.703125 -1.640625 2.015625l0 10.15625l-4.34375 0l0 -16.90625l4.046875 0l0.203125 2.765625q1.03125 -1.4375 2.46875 -2.25q1.4375 -0.828125 3.140625 -0.828125zm15.265625 17.53125q-1.953125 0 -3.546875 -0.640625q-1.59375 -0.640625 -2.734375 -1.734375q-1.140625 -1.109375 -1.765625 -2.59375q-0.609375 -1.5 -0.609375 -3.203125l0 -0.625q0 -1.9375 0.609375 -3.53125q0.609375 -1.609375 1.703125 -2.765625q1.09375 -1.15625 2.59375 -1.796875q1.5 -0.640625 3.265625 -0.640625q1.828125 0 3.25 0.609375q1.4375 0.59375 2.421875 1.6875q1.0 1.09375 1.515625 2.640625q0.515625 1.53125 0.515625 3.390625l0 1.84375l-11.46875 0q0.125 0.859375 0.5 1.578125q0.390625 0.703125 0.984375 1.21875q0.59375 0.515625 1.359375 0.796875q0.765625 0.28125 1.671875 0.28125q0.640625 0 1.265625 -0.125q0.640625 -0.125 1.21875 -0.359375q0.578125 -0.25 1.078125 -0.609375q0.5 -0.359375 0.875 -0.84375l2.171875 2.34375q-0.40625 0.578125 -1.0625 1.140625q-0.640625 0.546875 -1.53125 0.984375q-0.875 0.421875 -1.953125 0.6875q-1.078125 0.265625 -2.328125 0.265625zm-0.515625 -14.015625q-0.734375 0 -1.34375 0.265625q-0.609375 0.25 -1.078125 0.734375q-0.453125 0.484375 -0.765625 1.15625q-0.3125 0.671875 -0.46875 1.5l7.125 0l0 -0.34375q-0.03125 -0.6875 -0.265625 -1.296875q-0.234375 -0.609375 -0.671875 -1.046875q-0.4375 -0.453125 -1.078125 -0.703125q-0.625 -0.265625 -1.453125 -0.265625zm19.71875 14.015625q-1.953125 0 -3.546875 -0.640625q-1.59375 -0.640625 -2.734375 -1.734375q-1.140625 -1.109375 -1.765625 -2.59375q-0.609375 -1.5 -0.609375 -3.203125l0 -0.625q0 -1.9375 0.609375 -3.53125q0.609375 -1.609375 1.703125 -2.765625q1.09375 -1.15625 2.59375 -1.796875q1.5 -0.640625 3.265625 -0.640625q1.828125 0 3.25 0.609375q1.4375 0.59375 2.421875 1.6875q1.0 1.09375 1.515625 2.640625q0.515625 1.53125 0.515625 3.390625l0 1.84375l-11.46875 0q0.125 0.859375 0.5 1.578125q0.390625 0.703125 0.984375 1.21875q0.59375 0.515625 1.359375 0.796875q0.765625 0.28125 1.671875 0.28125q0.640625 0 1.265625 -0.125q0.640625 -0.125 1.21875 -0.359375q0.578125 -0.25 1.078125 -0.609375q0.5 -0.359375 0.875 -0.84375l2.171875 2.34375q-0.40625 0.578125 -1.0625 1.140625q-0.640625 0.546875 -1.53125 0.984375q-0.875 0.421875 -1.953125 0.6875q-1.078125 0.265625 -2.328125 0.265625zm-0.515625 -14.015625q-0.734375 0 -1.34375 0.265625q-0.609375 0.25 -1.078125 0.734375q-0.453125 0.484375 -0.765625 1.15625q-0.3125 0.671875 -0.46875 1.5l7.125 0l0 -0.34375q-0.03125 -0.6875 -0.265625 -1.296875q-0.234375 -0.609375 -0.671875 -1.046875q-0.4375 -0.453125 -1.078125 -0.703125q-0.625 -0.265625 -1.453125 -0.265625zm15.90625 11.1875q0 -0.609375 0.203125 -1.125q0.203125 -0.53125 0.59375 -0.90625q0.390625 -0.390625 0.953125 -0.609375q0.5625 -0.234375 1.265625 -0.234375q0.703125 0 1.265625 0.234375q0.5625 0.21875 0.9375 0.609375q0.390625 0.375 0.59375 0.90625q0.21875 0.515625 0.21875 1.125q0 0.59375 -0.21875 1.109375q-0.203125 0.515625 -0.59375 0.90625q-0.375 0.375 -0.9375 0.59375q-0.5625 0.21875 -1.265625 0.21875q-0.703125 0 -1.265625 -0.21875q-0.5625 -0.21875 -0.953125 -0.59375q-0.390625 -0.390625 -0.59375 -0.90625q-0.203125 -0.515625 -0.203125 -1.109375zm0 -13.0q0 -0.609375 0.203125 -1.125q0.203125 -0.53125 0.59375 -0.90625q0.390625 -0.390625 0.953125 -0.609375q0.5625 -0.234375 1.265625 -0.234375q0.703125 0 1.265625 0.234375q0.5625 0.21875 0.9375 0.609375q0.390625 0.375 0.59375 0.90625q0.21875 0.515625 0.21875 1.125q0 0.59375 -0.21875 1.109375q-0.203125 0.515625 -0.59375 0.90625q-0.375 0.375 -0.9375 0.59375q-0.5625 0.21875 -1.265625 0.21875q-0.703125 0 -1.265625 -0.21875q-0.5625 -0.21875 -0.953125 -0.59375q-0.390625 -0.390625 -0.59375 -0.90625q-0.203125 -0.515625 -0.203125 -1.109375z" fill-rule="nonzero"></path><path fill="#000000" d="m825.69116 633.4519l-13.015625 0l0 -3.515625l13.015625 0l0 3.515625z" fill-rule="nonzero"></path><path fill="#000000" d="m868.48804 633.0769q0 2.203125 -0.515625 3.890625q-0.5 1.671875 -1.453125 2.8125q-0.953125 1.125 -2.328125 1.703125q-1.375 0.578125 -3.09375 0.578125q-1.703125 0 -3.078125 -0.578125q-1.375 -0.578125 -2.34375 -1.703125q-0.953125 -1.140625 -1.484375 -2.8125q-0.515625 -1.6875 -0.515625 -3.890625l0 -5.4375q0 -2.203125 0.515625 -3.875q0.515625 -1.6875 1.46875 -2.8125q0.96875 -1.140625 2.328125 -1.71875q1.375 -0.578125 3.078125 -0.578125q1.71875 0 3.09375 0.578125q1.375 0.578125 2.328125 1.71875q0.96875 1.125 1.484375 2.8125q0.515625 1.671875 0.515625 3.875l0 5.4375zm-10.4375 -1.875l6.0625 -4.515625q-0.046875 -2.296875 -0.796875 -3.40625q-0.75 -1.109375 -2.25 -1.109375q-1.515625 0 -2.265625 1.171875q-0.75 1.171875 -0.75 3.609375l0 4.25zm6.0625 -1.5625l-6.0625 4.5q0.078125 2.25 0.828125 3.34375q0.75 1.078125 2.21875 1.078125q1.53125 0 2.265625 -1.1875q0.75 -1.1875 0.75 -3.640625l0 -4.09375z" fill-rule="nonzero"></path><path fill="#000000" d="m914.6599 632.4988q0 -2.234375 0.34375 -4.203125q0.359375 -1.96875 0.953125 -3.640625q0.59375 -1.6875 1.359375 -3.078125q0.78125 -1.390625 1.625 -2.46875q0.859375 -1.078125 1.71875 -1.84375q0.859375 -0.765625 1.640625 -1.203125l0.609375 1.90625q-0.96875 0.734375 -1.9375 2.0q-0.953125 1.265625 -1.71875 3.078125q-0.75 1.796875 -1.234375 4.15625q-0.46875 2.34375 -0.46875 5.265625l0 0.21875q0 2.921875 0.46875 5.28125q0.484375 2.359375 1.234375 4.171875q0.765625 1.8125 1.71875 3.09375q0.96875 1.296875 1.9375 2.078125l-0.609375 1.765625q-0.78125 -0.4375 -1.65625 -1.203125q-0.859375 -0.75 -1.71875 -1.84375q-0.84375 -1.078125 -1.625 -2.46875q-0.765625 -1.375 -1.359375 -3.046875q-0.578125 -1.6875 -0.9375 -3.65625q-0.34375 -1.96875 -0.34375 -4.203125l0 -0.15625zm16.796875 -14.765625l8.640625 0l0 21.5l5.515625 0l0 2.5l-14.15625 0l0 -2.5l5.75 0l0 -18.984375l-5.75 0l0 -2.515625zm25.375 19.84375l0.265625 1.046875l0.28125 -1.046875l4.734375 -12.75l2.953125 0l-6.890625 16.90625l-2.203125 0l-6.953125 -16.90625l2.96875 0l4.84375 12.75zm13.03125 -19.84375l8.640625 0l0 21.5l5.515625 0l0 2.5l-14.15625 0l0 -2.5l5.75 0l0 -18.984375l-5.75 0l0 -2.515625zm47.328125 24.0l-2.890625 0l0 -19.0625l-5.953125 2.265625l0 -2.640625l8.609375 -3.3125l0.234375 0l0 22.75zm20.375 -9.078125q0 2.234375 -0.359375 4.203125q-0.34375 1.96875 -0.9375 3.65625q-0.59375 1.671875 -1.375 3.046875q-0.765625 1.390625 -1.625 2.46875q-0.84375 1.09375 -1.71875 1.84375q-0.859375 0.765625 -1.640625 1.203125l-0.609375 -1.765625q0.96875 -0.71875 1.921875 -2.015625q0.96875 -1.28125 1.71875 -3.109375q0.765625 -1.828125 1.234375 -4.203125q0.484375 -2.375 0.484375 -5.296875l0 -0.21875q0 -2.921875 -0.5 -5.296875q-0.5 -2.390625 -1.296875 -4.21875q-0.78125 -1.84375 -1.734375 -3.125q-0.9375 -1.28125 -1.828125 -2.0l0.609375 -1.765625q0.78125 0.4375 1.640625 1.203125q0.875 0.765625 1.71875 1.84375q0.859375 1.078125 1.625 2.46875q0.78125 1.390625 1.375 3.078125q0.59375 1.671875 0.9375 3.640625q0.359375 1.96875 0.359375 4.203125l0 0.15625z" fill-rule="nonzero"></path><path fill="#000000" d="m825.69116 671.4519l-13.015625 0l0 -3.515625l13.015625 0l0 3.515625z" fill-rule="nonzero"></path><path fill="#000000" d="m864.31616 679.73315l-4.390625 0l0 -17.453125l-5.75 2.0625l0 -3.78125l9.90625 -3.578125l0.234375 0l0 22.75z" fill-rule="nonzero"></path><path fill="#000000" d="m914.6599 670.4988q0 -2.234375 0.34375 -4.203125q0.359375 -1.96875 0.953125 -3.640625q0.59375 -1.6875 1.359375 -3.078125q0.78125 -1.390625 1.625 -2.46875q0.859375 -1.078125 1.71875 -1.84375q0.859375 -0.765625 1.640625 -1.203125l0.609375 1.90625q-0.96875 0.734375 -1.9375 2.0q-0.953125 1.265625 -1.71875 3.078125q-0.75 1.796875 -1.234375 4.15625q-0.46875 2.34375 -0.46875 5.265625l0 0.21875q0 2.921875 0.46875 5.28125q0.484375 2.359375 1.234375 4.171875q0.765625 1.8125 1.71875 3.09375q0.96875 1.296875 1.9375 2.078125l-0.609375 1.765625q-0.78125 -0.4375 -1.65625 -1.203125q-0.859375 -0.75 -1.71875 -1.84375q-0.84375 -1.078125 -1.625 -2.46875q-0.765625 -1.375 -1.359375 -3.046875q-0.578125 -1.6875 -0.9375 -3.65625q-0.34375 -1.96875 -0.34375 -4.203125l0 -0.15625zm16.796875 -14.765625l8.640625 0l0 21.5l5.515625 0l0 2.5l-14.15625 0l0 -2.5l5.75 0l0 -18.984375l-5.75 0l0 -2.515625zm25.375 19.84375l0.265625 1.046875l0.28125 -1.046875l4.734375 -12.75l2.953125 0l-6.890625 16.90625l-2.203125 0l-6.953125 -16.90625l2.96875 0l4.84375 12.75zm13.03125 -19.84375l8.640625 0l0 21.5l5.515625 0l0 2.5l-14.15625 0l0 -2.5l5.75 0l0 -18.984375l-5.75 0l0 -2.515625zm47.328125 24.0l-2.890625 0l0 -19.0625l-5.953125 2.265625l0 -2.640625l8.609375 -3.3125l0.234375 0l0 22.75zm20.375 -9.078125q0 2.234375 -0.359375 4.203125q-0.34375 1.96875 -0.9375 3.65625q-0.59375 1.671875 -1.375 3.046875q-0.765625 1.390625 -1.625 2.46875q-0.84375 1.09375 -1.71875 1.84375q-0.859375 0.765625 -1.640625 1.203125l-0.609375 -1.765625q0.96875 -0.71875 1.921875 -2.015625q0.96875 -1.28125 1.71875 -3.109375q0.765625 -1.828125 1.234375 -4.203125q0.484375 -2.375 0.484375 -5.296875l0 -0.21875q0 -2.921875 -0.5 -5.296875q-0.5 -2.390625 -1.296875 -4.21875q-0.78125 -1.84375 -1.734375 -3.125q-0.9375 -1.28125 -1.828125 -2.0l0.609375 -1.765625q0.78125 0.4375 1.640625 1.203125q0.875 0.765625 1.71875 1.84375q0.859375 1.078125 1.625 2.46875q0.78125 1.390625 1.375 3.078125q0.59375 1.671875 0.9375 3.640625q0.359375 1.96875 0.359375 4.203125l0 0.15625z" fill-rule="nonzero"></path><path fill="#000000" d="m825.69116 709.4519l-13.015625 0l0 -3.515625l13.015625 0l0 3.515625z" fill-rule="nonzero"></path><path fill="#000000" d="m868.55054 717.73315l-15.515625 0l0 -2.96875l7.359375 -7.90625q0.859375 -0.9375 1.453125 -1.703125q0.59375 -0.765625 0.953125 -1.390625q0.375 -0.640625 0.53125 -1.1875q0.171875 -0.546875 0.171875 -1.0625q0 -0.765625 -0.21875 -1.359375q-0.21875 -0.59375 -0.625 -1.0q-0.390625 -0.421875 -0.953125 -0.640625q-0.546875 -0.21875 -1.21875 -0.21875q-1.796875 0 -2.6875 1.0q-0.875 1.0 -0.875 2.796875l-4.359375 0q0 -1.515625 0.578125 -2.859375q0.578125 -1.359375 1.625 -2.375q1.0625 -1.015625 2.546875 -1.59375q1.5 -0.59375 3.3125 -0.59375q1.734375 0 3.0625 0.484375q1.34375 0.484375 2.234375 1.359375q0.90625 0.875 1.375 2.109375q0.46875 1.21875 0.46875 2.703125q0 1.125 -0.359375 2.15625q-0.34375 1.015625 -1.0 2.015625q-0.640625 1.0 -1.546875 2.046875q-0.90625 1.03125 -2.015625 2.171875l-4.28125 4.53125l9.984375 0l0 3.484375z" fill-rule="nonzero"></path><path fill="#000000" d="m914.6599 708.4988q0 -2.234375 0.34375 -4.203125q0.359375 -1.96875 0.953125 -3.640625q0.59375 -1.6875 1.359375 -3.078125q0.78125 -1.390625 1.625 -2.46875q0.859375 -1.078125 1.71875 -1.84375q0.859375 -0.765625 1.640625 -1.203125l0.609375 1.90625q-0.96875 0.734375 -1.9375 2.0q-0.953125 1.265625 -1.71875 3.078125q-0.75 1.796875 -1.234375 4.15625q-0.46875 2.34375 -0.46875 5.265625l0 0.21875q0 2.921875 0.46875 5.28125q0.484375 2.359375 1.234375 4.171875q0.765625 1.8125 1.71875 3.09375q0.96875 1.296875 1.9375 2.078125l-0.609375 1.765625q-0.78125 -0.4375 -1.65625 -1.203125q-0.859375 -0.75 -1.71875 -1.84375q-0.84375 -1.078125 -1.625 -2.46875q-0.765625 -1.375 -1.359375 -3.046875q-0.578125 -1.6875 -0.9375 -3.65625q-0.34375 -1.96875 -0.34375 -4.203125l0 -0.15625zm16.796875 -14.765625l8.640625 0l0 21.5l5.515625 0l0 2.5l-14.15625 0l0 -2.5l5.75 0l0 -18.984375l-5.75 0l0 -2.515625zm25.375 19.84375l0.265625 1.046875l0.28125 -1.046875l4.734375 -12.75l2.953125 0l-6.890625 16.90625l-2.203125 0l-6.953125 -16.90625l2.96875 0l4.84375 12.75zm13.03125 -19.84375l8.640625 0l0 21.5l5.515625 0l0 2.5l-14.15625 0l0 -2.5l5.75 0l0 -18.984375l-5.75 0l0 -2.515625zm47.328125 24.0l-2.890625 0l0 -19.0625l-5.953125 2.265625l0 -2.640625l8.609375 -3.3125l0.234375 0l0 22.75zm20.375 -9.078125q0 2.234375 -0.359375 4.203125q-0.34375 1.96875 -0.9375 3.65625q-0.59375 1.671875 -1.375 3.046875q-0.765625 1.390625 -1.625 2.46875q-0.84375 1.09375 -1.71875 1.84375q-0.859375 0.765625 -1.640625 1.203125l-0.609375 -1.765625q0.96875 -0.71875 1.921875 -2.015625q0.96875 -1.28125 1.71875 -3.109375q0.765625 -1.828125 1.234375 -4.203125q0.484375 -2.375 0.484375 -5.296875l0 -0.21875q0 -2.921875 -0.5 -5.296875q-0.5 -2.390625 -1.296875 -4.21875q-0.78125 -1.84375 -1.734375 -3.125q-0.9375 -1.28125 -1.828125 -2.0l0.609375 -1.765625q0.78125 0.4375 1.640625 1.203125q0.875 0.765625 1.71875 1.84375q0.859375 1.078125 1.625 2.46875q0.78125 1.390625 1.375 3.078125q0.59375 1.671875 0.9375 3.640625q0.359375 1.96875 0.359375 4.203125l0 0.15625z" fill-rule="nonzero"></path><path fill="#4a86e8" d="m825.69116 747.4519l-13.015625 0l0 -3.515625l13.015625 0l0 3.515625z" fill-rule="nonzero"></path><path fill="#4a86e8" d="m858.05054 742.4519l2.359375 0q1.78125 0 2.640625 -0.890625q0.859375 -0.90625 0.859375 -2.359375q0 -0.671875 -0.203125 -1.21875q-0.1875 -0.5625 -0.578125 -0.953125q-0.390625 -0.40625 -1.0 -0.625q-0.59375 -0.21875 -1.390625 -0.21875q-0.65625 0 -1.234375 0.1875q-0.5625 0.1875 -1.0 0.546875q-0.421875 0.34375 -0.671875 0.84375q-0.25 0.5 -0.25 1.125l-4.34375 0q0 -1.390625 0.5625 -2.53125q0.578125 -1.140625 1.578125 -1.953125q1.0 -0.828125 2.34375 -1.28125q1.359375 -0.453125 2.921875 -0.453125q1.6875 0 3.09375 0.421875q1.40625 0.40625 2.40625 1.234375q1.0 0.8125 1.546875 2.03125q0.5625 1.203125 0.5625 2.796875q0 0.734375 -0.21875 1.453125q-0.21875 0.703125 -0.640625 1.34375q-0.421875 0.640625 -1.046875 1.1875q-0.625 0.53125 -1.4375 0.921875q0.953125 0.34375 1.640625 0.875q0.703125 0.53125 1.15625 1.21875q0.453125 0.671875 0.671875 1.484375q0.21875 0.8125 0.21875 1.71875q0 1.59375 -0.609375 2.84375q-0.609375 1.25 -1.671875 2.109375q-1.0625 0.84375 -2.53125 1.296875q-1.453125 0.4375 -3.140625 0.4375q-1.453125 0 -2.84375 -0.390625q-1.375 -0.40625 -2.453125 -1.203125q-1.078125 -0.8125 -1.734375 -2.03125q-0.640625 -1.21875 -0.640625 -2.875l4.34375 0q0 0.65625 0.25 1.21875q0.25 0.546875 0.703125 0.953125q0.46875 0.390625 1.09375 0.625q0.625 0.21875 1.375 0.21875q1.65625 0 2.59375 -0.875q0.9375 -0.875 0.9375 -2.375q0 -0.921875 -0.265625 -1.578125q-0.265625 -0.65625 -0.78125 -1.078125q-0.5 -0.421875 -1.21875 -0.625q-0.703125 -0.203125 -1.59375 -0.203125l-2.359375 0l0 -3.375zm29.640625 4.625q0 2.203125 -0.515625 3.890625q-0.5 1.671875 -1.453125 2.8125q-0.953125 1.125 -2.328125 1.703125q-1.375 0.578125 -3.09375 0.578125q-1.703125 0 -3.078125 -0.578125q-1.375 -0.578125 -2.34375 -1.703125q-0.953125 -1.140625 -1.484375 -2.8125q-0.515625 -1.6875 -0.515625 -3.890625l0 -5.4375q0 -2.203125 0.515625 -3.875q0.515625 -1.6875 1.46875 -2.8125q0.96875 -1.140625 2.328125 -1.71875q1.375 -0.578125 3.078125 -0.578125q1.71875 0 3.09375 0.578125q1.375 0.578125 2.328125 1.71875q0.96875 1.125 1.484375 2.8125q0.515625 1.671875 0.515625 3.875l0 5.4375zm-10.4375 -1.875l6.0625 -4.515625q-0.046875 -2.296875 -0.796875 -3.40625q-0.75 -1.109375 -2.25 -1.109375q-1.515625 0 -2.265625 1.171875q-0.75 1.171875 -0.75 3.609375l0 4.25zm6.0625 -1.5625l-6.0625 4.5q0.078125 2.25 0.828125 3.34375q0.75 1.078125 2.21875 1.078125q1.53125 0 2.265625 -1.1875q0.75 -1.1875 0.75 -3.640625l0 -4.09375z" fill-rule="nonzero"></path><path fill="#4a86e8" d="m914.6599 746.4988q0 -2.234375 0.34375 -4.203125q0.359375 -1.96875 0.953125 -3.640625q0.59375 -1.6875 1.359375 -3.078125q0.78125 -1.390625 1.625 -2.46875q0.859375 -1.078125 1.71875 -1.84375q0.859375 -0.765625 1.640625 -1.203125l0.609375 1.90625q-0.96875 0.734375 -1.9375 2.0q-0.953125 1.265625 -1.71875 3.078125q-0.75 1.796875 -1.234375 4.15625q-0.46875 2.34375 -0.46875 5.265625l0 0.21875q0 2.921875 0.46875 5.28125q0.484375 2.359375 1.234375 4.171875q0.765625 1.8125 1.71875 3.09375q0.96875 1.296875 1.9375 2.078125l-0.609375 1.765625q-0.78125 -0.4375 -1.65625 -1.203125q-0.859375 -0.75 -1.71875 -1.84375q-0.84375 -1.078125 -1.625 -2.46875q-0.765625 -1.375 -1.359375 -3.046875q-0.578125 -1.6875 -0.9375 -3.65625q-0.34375 -1.96875 -0.34375 -4.203125l0 -0.15625zm16.796875 -14.765625l8.640625 0l0 21.5l5.515625 0l0 2.5l-14.15625 0l0 -2.5l5.75 0l0 -18.984375l-5.75 0l0 -2.515625zm25.375 19.84375l0.265625 1.046875l0.28125 -1.046875l4.734375 -12.75l2.953125 0l-6.890625 16.90625l-2.203125 0l-6.953125 -16.90625l2.96875 0l4.84375 12.75zm13.03125 -19.84375l8.640625 0l0 21.5l5.515625 0l0 2.5l-14.15625 0l0 -2.5l5.75 0l0 -18.984375l-5.75 0l0 -2.515625zm51.90625 24.0l-14.90625 0l0 -2.078125l7.453125 -8.28125q1.0 -1.109375 1.671875 -1.96875q0.671875 -0.859375 1.078125 -1.578125q0.40625 -0.734375 0.578125 -1.375q0.171875 -0.65625 0.171875 -1.34375q0 -0.84375 -0.28125 -1.578125q-0.265625 -0.75 -0.796875 -1.296875q-0.515625 -0.546875 -1.265625 -0.859375q-0.734375 -0.328125 -1.671875 -0.328125q-1.140625 0 -1.984375 0.328125q-0.828125 0.328125 -1.390625 0.9375q-0.546875 0.59375 -0.828125 1.453125q-0.265625 0.859375 -0.265625 1.921875l-2.90625 0q0 -1.4375 0.5 -2.703125q0.5 -1.28125 1.4375 -2.234375q0.953125 -0.953125 2.3125 -1.515625q1.375 -0.5625 3.125 -0.5625q1.609375 0 2.890625 0.484375q1.296875 0.46875 2.1875 1.3125q0.890625 0.84375 1.359375 2.0q0.484375 1.15625 0.484375 2.515625q0 1.015625 -0.34375 2.015625q-0.34375 0.984375 -0.9375 1.953125q-0.578125 0.96875 -1.359375 1.921875q-0.765625 0.9375 -1.625 1.875l-6.109375 6.625l11.421875 0l0 2.359375zm15.796875 -9.078125q0 2.234375 -0.359375 4.203125q-0.34375 1.96875 -0.9375 3.65625q-0.59375 1.671875 -1.375 3.046875q-0.765625 1.390625 -1.625 2.46875q-0.84375 1.09375 -1.71875 1.84375q-0.859375 0.765625 -1.640625 1.203125l-0.609375 -1.765625q0.96875 -0.71875 1.921875 -2.015625q0.96875 -1.28125 1.71875 -3.109375q0.765625 -1.828125 1.234375 -4.203125q0.484375 -2.375 0.484375 -5.296875l0 -0.21875q0 -2.921875 -0.5 -5.296875q-0.5 -2.390625 -1.296875 -4.21875q-0.78125 -1.84375 -1.734375 -3.125q-0.9375 -1.28125 -1.828125 -2.0l0.609375 -1.765625q0.78125 0.4375 1.640625 1.203125q0.875 0.765625 1.71875 1.84375q0.859375 1.078125 1.625 2.46875q0.78125 1.390625 1.375 3.078125q0.59375 1.671875 0.9375 3.640625q0.359375 1.96875 0.359375 4.203125l0 0.15625z" fill-rule="nonzero"></path><path fill="#4a86e8" d="m825.69116 785.4519l-13.015625 0l0 -3.515625l13.015625 0l0 3.515625z" fill-rule="nonzero"></path><path fill="#4a86e8" d="m858.05054 780.4519l2.359375 0q1.78125 0 2.640625 -0.890625q0.859375 -0.90625 0.859375 -2.359375q0 -0.671875 -0.203125 -1.21875q-0.1875 -0.5625 -0.578125 -0.953125q-0.390625 -0.40625 -1.0 -0.625q-0.59375 -0.21875 -1.390625 -0.21875q-0.65625 0 -1.234375 0.1875q-0.5625 0.1875 -1.0 0.546875q-0.421875 0.34375 -0.671875 0.84375q-0.25 0.5 -0.25 1.125l-4.34375 0q0 -1.390625 0.5625 -2.53125q0.578125 -1.140625 1.578125 -1.953125q1.0 -0.828125 2.34375 -1.28125q1.359375 -0.453125 2.921875 -0.453125q1.6875 0 3.09375 0.421875q1.40625 0.40625 2.40625 1.234375q1.0 0.8125 1.546875 2.03125q0.5625 1.203125 0.5625 2.796875q0 0.734375 -0.21875 1.453125q-0.21875 0.703125 -0.640625 1.34375q-0.421875 0.640625 -1.046875 1.1875q-0.625 0.53125 -1.4375 0.921875q0.953125 0.34375 1.640625 0.875q0.703125 0.53125 1.15625 1.21875q0.453125 0.671875 0.671875 1.484375q0.21875 0.8125 0.21875 1.71875q0 1.59375 -0.609375 2.84375q-0.609375 1.25 -1.671875 2.109375q-1.0625 0.84375 -2.53125 1.296875q-1.453125 0.4375 -3.140625 0.4375q-1.453125 0 -2.84375 -0.390625q-1.375 -0.40625 -2.453125 -1.203125q-1.078125 -0.8125 -1.734375 -2.03125q-0.640625 -1.21875 -0.640625 -2.875l4.34375 0q0 0.65625 0.25 1.21875q0.25 0.546875 0.703125 0.953125q0.46875 0.390625 1.09375 0.625q0.625 0.21875 1.375 0.21875q1.65625 0 2.59375 -0.875q0.9375 -0.875 0.9375 -2.375q0 -0.921875 -0.265625 -1.578125q-0.265625 -0.65625 -0.78125 -1.078125q-0.5 -0.421875 -1.21875 -0.625q-0.703125 -0.203125 -1.59375 -0.203125l-2.359375 0l0 -3.375zm25.46875 13.28125l-4.390625 0l0 -17.453125l-5.75 2.0625l0 -3.78125l9.90625 -3.578125l0.234375 0l0 22.75z" fill-rule="nonzero"></path><path fill="#4a86e8" d="m914.6599 784.4988q0 -2.234375 0.34375 -4.203125q0.359375 -1.96875 0.953125 -3.640625q0.59375 -1.6875 1.359375 -3.078125q0.78125 -1.390625 1.625 -2.46875q0.859375 -1.078125 1.71875 -1.84375q0.859375 -0.765625 1.640625 -1.203125l0.609375 1.90625q-0.96875 0.734375 -1.9375 2.0q-0.953125 1.265625 -1.71875 3.078125q-0.75 1.796875 -1.234375 4.15625q-0.46875 2.34375 -0.46875 5.265625l0 0.21875q0 2.921875 0.46875 5.28125q0.484375 2.359375 1.234375 4.171875q0.765625 1.8125 1.71875 3.09375q0.96875 1.296875 1.9375 2.078125l-0.609375 1.765625q-0.78125 -0.4375 -1.65625 -1.203125q-0.859375 -0.75 -1.71875 -1.84375q-0.84375 -1.078125 -1.625 -2.46875q-0.765625 -1.375 -1.359375 -3.046875q-0.578125 -1.6875 -0.9375 -3.65625q-0.34375 -1.96875 -0.34375 -4.203125l0 -0.15625zm16.796875 -14.765625l8.640625 0l0 21.5l5.515625 0l0 2.5l-14.15625 0l0 -2.5l5.75 0l0 -18.984375l-5.75 0l0 -2.515625zm25.375 19.84375l0.265625 1.046875l0.28125 -1.046875l4.734375 -12.75l2.953125 0l-6.890625 16.90625l-2.203125 0l-6.953125 -16.90625l2.96875 0l4.84375 12.75zm13.03125 -19.84375l8.640625 0l0 21.5l5.515625 0l0 2.5l-14.15625 0l0 -2.5l5.75 0l0 -18.984375l-5.75 0l0 -2.515625zm51.90625 24.0l-14.90625 0l0 -2.078125l7.453125 -8.28125q1.0 -1.109375 1.671875 -1.96875q0.671875 -0.859375 1.078125 -1.578125q0.40625 -0.734375 0.578125 -1.375q0.171875 -0.65625 0.171875 -1.34375q0 -0.84375 -0.28125 -1.578125q-0.265625 -0.75 -0.796875 -1.296875q-0.515625 -0.546875 -1.265625 -0.859375q-0.734375 -0.328125 -1.671875 -0.328125q-1.140625 0 -1.984375 0.328125q-0.828125 0.328125 -1.390625 0.9375q-0.546875 0.59375 -0.828125 1.453125q-0.265625 0.859375 -0.265625 1.921875l-2.90625 0q0 -1.4375 0.5 -2.703125q0.5 -1.28125 1.4375 -2.234375q0.953125 -0.953125 2.3125 -1.515625q1.375 -0.5625 3.125 -0.5625q1.609375 0 2.890625 0.484375q1.296875 0.46875 2.1875 1.3125q0.890625 0.84375 1.359375 2.0q0.484375 1.15625 0.484375 2.515625q0 1.015625 -0.34375 2.015625q-0.34375 0.984375 -0.9375 1.953125q-0.578125 0.96875 -1.359375 1.921875q-0.765625 0.9375 -1.625 1.875l-6.109375 6.625l11.421875 0l0 2.359375zm15.796875 -9.078125q0 2.234375 -0.359375 4.203125q-0.34375 1.96875 -0.9375 3.65625q-0.59375 1.671875 -1.375 3.046875q-0.765625 1.390625 -1.625 2.46875q-0.84375 1.09375 -1.71875 1.84375q-0.859375 0.765625 -1.640625 1.203125l-0.609375 -1.765625q0.96875 -0.71875 1.921875 -2.015625q0.96875 -1.28125 1.71875 -3.109375q0.765625 -1.828125 1.234375 -4.203125q0.484375 -2.375 0.484375 -5.296875l0 -0.21875q0 -2.921875 -0.5 -5.296875q-0.5 -2.390625 -1.296875 -4.21875q-0.78125 -1.84375 -1.734375 -3.125q-0.9375 -1.28125 -1.828125 -2.0l0.609375 -1.765625q0.78125 0.4375 1.640625 1.203125q0.875 0.765625 1.71875 1.84375q0.859375 1.078125 1.625 2.46875q0.78125 1.390625 1.375 3.078125q0.59375 1.671875 0.9375 3.640625q0.359375 1.96875 0.359375 4.203125l0 0.15625z" fill-rule="nonzero"></path><path fill="#4a86e8" d="m825.69116 823.4519l-13.015625 0l0 -3.515625l13.015625 0l0 3.515625z" fill-rule="nonzero"></path><path fill="#4a86e8" d="m858.05054 818.4519l2.359375 0q1.78125 0 2.640625 -0.890625q0.859375 -0.90625 0.859375 -2.359375q0 -0.671875 -0.203125 -1.21875q-0.1875 -0.5625 -0.578125 -0.953125q-0.390625 -0.40625 -1.0 -0.625q-0.59375 -0.21875 -1.390625 -0.21875q-0.65625 0 -1.234375 0.1875q-0.5625 0.1875 -1.0 0.546875q-0.421875 0.34375 -0.671875 0.84375q-0.25 0.5 -0.25 1.125l-4.34375 0q0 -1.390625 0.5625 -2.53125q0.578125 -1.140625 1.578125 -1.953125q1.0 -0.828125 2.34375 -1.28125q1.359375 -0.453125 2.921875 -0.453125q1.6875 0 3.09375 0.421875q1.40625 0.40625 2.40625 1.234375q1.0 0.8125 1.546875 2.03125q0.5625 1.203125 0.5625 2.796875q0 0.734375 -0.21875 1.453125q-0.21875 0.703125 -0.640625 1.34375q-0.421875 0.640625 -1.046875 1.1875q-0.625 0.53125 -1.4375 0.921875q0.953125 0.34375 1.640625 0.875q0.703125 0.53125 1.15625 1.21875q0.453125 0.671875 0.671875 1.484375q0.21875 0.8125 0.21875 1.71875q0 1.59375 -0.609375 2.84375q-0.609375 1.25 -1.671875 2.109375q-1.0625 0.84375 -2.53125 1.296875q-1.453125 0.4375 -3.140625 0.4375q-1.453125 0 -2.84375 -0.390625q-1.375 -0.40625 -2.453125 -1.203125q-1.078125 -0.8125 -1.734375 -2.03125q-0.640625 -1.21875 -0.640625 -2.875l4.34375 0q0 0.65625 0.25 1.21875q0.25 0.546875 0.703125 0.953125q0.46875 0.390625 1.09375 0.625q0.625 0.21875 1.375 0.21875q1.65625 0 2.59375 -0.875q0.9375 -0.875 0.9375 -2.375q0 -0.921875 -0.265625 -1.578125q-0.265625 -0.65625 -0.78125 -1.078125q-0.5 -0.421875 -1.21875 -0.625q-0.703125 -0.203125 -1.59375 -0.203125l-2.359375 0l0 -3.375zm29.703125 13.28125l-15.515625 0l0 -2.96875l7.359375 -7.90625q0.859375 -0.9375 1.453125 -1.703125q0.59375 -0.765625 0.953125 -1.390625q0.375 -0.640625 0.53125 -1.1875q0.171875 -0.546875 0.171875 -1.0625q0 -0.765625 -0.21875 -1.359375q-0.21875 -0.59375 -0.625 -1.0q-0.390625 -0.421875 -0.953125 -0.640625q-0.546875 -0.21875 -1.21875 -0.21875q-1.796875 0 -2.6875 1.0q-0.875 1.0 -0.875 2.796875l-4.359375 0q0 -1.515625 0.578125 -2.859375q0.578125 -1.359375 1.625 -2.375q1.0625 -1.015625 2.546875 -1.59375q1.5 -0.59375 3.3125 -0.59375q1.734375 0 3.0625 0.484375q1.34375 0.484375 2.234375 1.359375q0.90625 0.875 1.375 2.109375q0.46875 1.21875 0.46875 2.703125q0 1.125 -0.359375 2.15625q-0.34375 1.015625 -1.0 2.015625q-0.640625 1.0 -1.546875 2.046875q-0.90625 1.03125 -2.015625 2.171875l-4.28125 4.53125l9.984375 0l0 3.484375z" fill-rule="nonzero"></path><path fill="#4a86e8" d="m914.6599 822.4988q0 -2.234375 0.34375 -4.203125q0.359375 -1.96875 0.953125 -3.640625q0.59375 -1.6875 1.359375 -3.078125q0.78125 -1.390625 1.625 -2.46875q0.859375 -1.078125 1.71875 -1.84375q0.859375 -0.765625 1.640625 -1.203125l0.609375 1.90625q-0.96875 0.734375 -1.9375 2.0q-0.953125 1.265625 -1.71875 3.078125q-0.75 1.796875 -1.234375 4.15625q-0.46875 2.34375 -0.46875 5.265625l0 0.21875q0 2.921875 0.46875 5.28125q0.484375 2.359375 1.234375 4.171875q0.765625 1.8125 1.71875 3.09375q0.96875 1.296875 1.9375 2.078125l-0.609375 1.765625q-0.78125 -0.4375 -1.65625 -1.203125q-0.859375 -0.75 -1.71875 -1.84375q-0.84375 -1.078125 -1.625 -2.46875q-0.765625 -1.375 -1.359375 -3.046875q-0.578125 -1.6875 -0.9375 -3.65625q-0.34375 -1.96875 -0.34375 -4.203125l0 -0.15625zm16.796875 -14.765625l8.640625 0l0 21.5l5.515625 0l0 2.5l-14.15625 0l0 -2.5l5.75 0l0 -18.984375l-5.75 0l0 -2.515625zm25.375 19.84375l0.265625 1.046875l0.28125 -1.046875l4.734375 -12.75l2.953125 0l-6.890625 16.90625l-2.203125 0l-6.953125 -16.90625l2.96875 0l4.84375 12.75zm13.03125 -19.84375l8.640625 0l0 21.5l5.515625 0l0 2.5l-14.15625 0l0 -2.5l5.75 0l0 -18.984375l-5.75 0l0 -2.515625zm51.90625 24.0l-14.90625 0l0 -2.078125l7.453125 -8.28125q1.0 -1.109375 1.671875 -1.96875q0.671875 -0.859375 1.078125 -1.578125q0.40625 -0.734375 0.578125 -1.375q0.171875 -0.65625 0.171875 -1.34375q0 -0.84375 -0.28125 -1.578125q-0.265625 -0.75 -0.796875 -1.296875q-0.515625 -0.546875 -1.265625 -0.859375q-0.734375 -0.328125 -1.671875 -0.328125q-1.140625 0 -1.984375 0.328125q-0.828125 0.328125 -1.390625 0.9375q-0.546875 0.59375 -0.828125 1.453125q-0.265625 0.859375 -0.265625 1.921875l-2.90625 0q0 -1.4375 0.5 -2.703125q0.5 -1.28125 1.4375 -2.234375q0.953125 -0.953125 2.3125 -1.515625q1.375 -0.5625 3.125 -0.5625q1.609375 0 2.890625 0.484375q1.296875 0.46875 2.1875 1.3125q0.890625 0.84375 1.359375 2.0q0.484375 1.15625 0.484375 2.515625q0 1.015625 -0.34375 2.015625q-0.34375 0.984375 -0.9375 1.953125q-0.578125 0.96875 -1.359375 1.921875q-0.765625 0.9375 -1.625 1.875l-6.109375 6.625l11.421875 0l0 2.359375zm15.796875 -9.078125q0 2.234375 -0.359375 4.203125q-0.34375 1.96875 -0.9375 3.65625q-0.59375 1.671875 -1.375 3.046875q-0.765625 1.390625 -1.625 2.46875q-0.84375 1.09375 -1.71875 1.84375q-0.859375 0.765625 -1.640625 1.203125l-0.609375 -1.765625q0.96875 -0.71875 1.921875 -2.015625q0.96875 -1.28125 1.71875 -3.109375q0.765625 -1.828125 1.234375 -4.203125q0.484375 -2.375 0.484375 -5.296875l0 -0.21875q0 -2.921875 -0.5 -5.296875q-0.5 -2.390625 -1.296875 -4.21875q-0.78125 -1.84375 -1.734375 -3.125q-0.9375 -1.28125 -1.828125 -2.0l0.609375 -1.765625q0.78125 0.4375 1.640625 1.203125q0.875 0.765625 1.71875 1.84375q0.859375 1.078125 1.625 2.46875q0.78125 1.390625 1.375 3.078125q0.59375 1.671875 0.9375 3.640625q0.359375 1.96875 0.359375 4.203125l0 0.15625z" fill-rule="nonzero"></path><path fill="#4a86e8" d="m825.69116 861.4519l-13.015625 0l0 -3.515625l13.015625 0l0 3.515625z" fill-rule="nonzero"></path><path fill="#4a86e8" d="m858.05054 856.4519l2.359375 0q1.78125 0 2.640625 -0.890625q0.859375 -0.90625 0.859375 -2.359375q0 -0.671875 -0.203125 -1.21875q-0.1875 -0.5625 -0.578125 -0.953125q-0.390625 -0.40625 -1.0 -0.625q-0.59375 -0.21875 -1.390625 -0.21875q-0.65625 0 -1.234375 0.1875q-0.5625 0.1875 -1.0 0.546875q-0.421875 0.34375 -0.671875 0.84375q-0.25 0.5 -0.25 1.125l-4.34375 0q0 -1.390625 0.5625 -2.53125q0.578125 -1.140625 1.578125 -1.953125q1.0 -0.828125 2.34375 -1.28125q1.359375 -0.453125 2.921875 -0.453125q1.6875 0 3.09375 0.421875q1.40625 0.40625 2.40625 1.234375q1.0 0.8125 1.546875 2.03125q0.5625 1.203125 0.5625 2.796875q0 0.734375 -0.21875 1.453125q-0.21875 0.703125 -0.640625 1.34375q-0.421875 0.640625 -1.046875 1.1875q-0.625 0.53125 -1.4375 0.921875q0.953125 0.34375 1.640625 0.875q0.703125 0.53125 1.15625 1.21875q0.453125 0.671875 0.671875 1.484375q0.21875 0.8125 0.21875 1.71875q0 1.59375 -0.609375 2.84375q-0.609375 1.25 -1.671875 2.109375q-1.0625 0.84375 -2.53125 1.296875q-1.453125 0.4375 -3.140625 0.4375q-1.453125 0 -2.84375 -0.390625q-1.375 -0.40625 -2.453125 -1.203125q-1.078125 -0.8125 -1.734375 -2.03125q-0.640625 -1.21875 -0.640625 -2.875l4.34375 0q0 0.65625 0.25 1.21875q0.25 0.546875 0.703125 0.953125q0.46875 0.390625 1.09375 0.625q0.625 0.21875 1.375 0.21875q1.65625 0 2.59375 -0.875q0.9375 -0.875 0.9375 -2.375q0 -0.921875 -0.265625 -1.578125q-0.265625 -0.65625 -0.78125 -1.078125q-0.5 -0.421875 -1.21875 -0.625q-0.703125 -0.203125 -1.59375 -0.203125l-2.359375 0l0 -3.375zm19.203125 0l2.359375 0q1.78125 0 2.640625 -0.890625q0.859375 -0.90625 0.859375 -2.359375q0 -0.671875 -0.203125 -1.21875q-0.1875 -0.5625 -0.578125 -0.953125q-0.390625 -0.40625 -1.0 -0.625q-0.59375 -0.21875 -1.390625 -0.21875q-0.65625 0 -1.234375 0.1875q-0.5625 0.1875 -1.0 0.546875q-0.421875 0.34375 -0.671875 0.84375q-0.25 0.5 -0.25 1.125l-4.34375 0q0 -1.390625 0.5625 -2.53125q0.578125 -1.140625 1.578125 -1.953125q1.0 -0.828125 2.34375 -1.28125q1.359375 -0.453125 2.921875 -0.453125q1.6875 0 3.09375 0.421875q1.40625 0.40625 2.40625 1.234375q1.0 0.8125 1.546875 2.03125q0.5625 1.203125 0.5625 2.796875q0 0.734375 -0.21875 1.453125q-0.21875 0.703125 -0.640625 1.34375q-0.421875 0.640625 -1.046875 1.1875q-0.625 0.53125 -1.4375 0.921875q0.953125 0.34375 1.640625 0.875q0.703125 0.53125 1.15625 1.21875q0.453125 0.671875 0.671875 1.484375q0.21875 0.8125 0.21875 1.71875q0 1.59375 -0.609375 2.84375q-0.609375 1.25 -1.671875 2.109375q-1.0625 0.84375 -2.53125 1.296875q-1.453125 0.4375 -3.140625 0.4375q-1.453125 0 -2.84375 -0.390625q-1.375 -0.40625 -2.453125 -1.203125q-1.078125 -0.8125 -1.734375 -2.03125q-0.640625 -1.21875 -0.640625 -2.875l4.34375 0q0 0.65625 0.25 1.21875q0.25 0.546875 0.703125 0.953125q0.46875 0.390625 1.09375 0.625q0.625 0.21875 1.375 0.21875q1.65625 0 2.59375 -0.875q0.9375 -0.875 0.9375 -2.375q0 -0.921875 -0.265625 -1.578125q-0.265625 -0.65625 -0.78125 -1.078125q-0.5 -0.421875 -1.21875 -0.625q-0.703125 -0.203125 -1.59375 -0.203125l-2.359375 0l0 -3.375z" fill-rule="nonzero"></path><path fill="#4a86e8" d="m914.6599 860.4988q0 -2.234375 0.34375 -4.203125q0.359375 -1.96875 0.953125 -3.640625q0.59375 -1.6875 1.359375 -3.078125q0.78125 -1.390625 1.625 -2.46875q0.859375 -1.078125 1.71875 -1.84375q0.859375 -0.765625 1.640625 -1.203125l0.609375 1.90625q-0.96875 0.734375 -1.9375 2.0q-0.953125 1.265625 -1.71875 3.078125q-0.75 1.796875 -1.234375 4.15625q-0.46875 2.34375 -0.46875 5.265625l0 0.21875q0 2.921875 0.46875 5.28125q0.484375 2.359375 1.234375 4.171875q0.765625 1.8125 1.71875 3.09375q0.96875 1.296875 1.9375 2.078125l-0.609375 1.765625q-0.78125 -0.4375 -1.65625 -1.203125q-0.859375 -0.75 -1.71875 -1.84375q-0.84375 -1.078125 -1.625 -2.46875q-0.765625 -1.375 -1.359375 -3.046875q-0.578125 -1.6875 -0.9375 -3.65625q-0.34375 -1.96875 -0.34375 -4.203125l0 -0.15625zm16.796875 -14.765625l8.640625 0l0 21.5l5.515625 0l0 2.5l-14.15625 0l0 -2.5l5.75 0l0 -18.984375l-5.75 0l0 -2.515625zm25.375 19.84375l0.265625 1.046875l0.28125 -1.046875l4.734375 -12.75l2.953125 0l-6.890625 16.90625l-2.203125 0l-6.953125 -16.90625l2.96875 0l4.84375 12.75zm13.03125 -19.84375l8.640625 0l0 21.5l5.515625 0l0 2.5l-14.15625 0l0 -2.5l5.75 0l0 -18.984375l-5.75 0l0 -2.515625zm51.90625 24.0l-14.90625 0l0 -2.078125l7.453125 -8.28125q1.0 -1.109375 1.671875 -1.96875q0.671875 -0.859375 1.078125 -1.578125q0.40625 -0.734375 0.578125 -1.375q0.171875 -0.65625 0.171875 -1.34375q0 -0.84375 -0.28125 -1.578125q-0.265625 -0.75 -0.796875 -1.296875q-0.515625 -0.546875 -1.265625 -0.859375q-0.734375 -0.328125 -1.671875 -0.328125q-1.140625 0 -1.984375 0.328125q-0.828125 0.328125 -1.390625 0.9375q-0.546875 0.59375 -0.828125 1.453125q-0.265625 0.859375 -0.265625 1.921875l-2.90625 0q0 -1.4375 0.5 -2.703125q0.5 -1.28125 1.4375 -2.234375q0.953125 -0.953125 2.3125 -1.515625q1.375 -0.5625 3.125 -0.5625q1.609375 0 2.890625 0.484375q1.296875 0.46875 2.1875 1.3125q0.890625 0.84375 1.359375 2.0q0.484375 1.15625 0.484375 2.515625q0 1.015625 -0.34375 2.015625q-0.34375 0.984375 -0.9375 1.953125q-0.578125 0.96875 -1.359375 1.921875q-0.765625 0.9375 -1.625 1.875l-6.109375 6.625l11.421875 0l0 2.359375zm15.796875 -9.078125q0 2.234375 -0.359375 4.203125q-0.34375 1.96875 -0.9375 3.65625q-0.59375 1.671875 -1.375 3.046875q-0.765625 1.390625 -1.625 2.46875q-0.84375 1.09375 -1.71875 1.84375q-0.859375 0.765625 -1.640625 1.203125l-0.609375 -1.765625q0.96875 -0.71875 1.921875 -2.015625q0.96875 -1.28125 1.71875 -3.109375q0.765625 -1.828125 1.234375 -4.203125q0.484375 -2.375 0.484375 -5.296875l0 -0.21875q0 -2.921875 -0.5 -5.296875q-0.5 -2.390625 -1.296875 -4.21875q-0.78125 -1.84375 -1.734375 -3.125q-0.9375 -1.28125 -1.828125 -2.0l0.609375 -1.765625q0.78125 0.4375 1.640625 1.203125q0.875 0.765625 1.71875 1.84375q0.859375 1.078125 1.625 2.46875q0.78125 1.390625 1.375 3.078125q0.59375 1.671875 0.9375 3.640625q0.359375 1.96875 0.359375 4.203125l0 0.15625z" fill-rule="nonzero"></path></g></svg>

