<?xml version="1.0" standalone="yes"?>

<svg version="1.1" viewBox="0.0 0.0 800.0 600.0" fill="none" stroke="none" stroke-linecap="square" stroke-miterlimit="10" xmlns="http://www.w3.org/2000/svg" xmlns:xlink="http://www.w3.org/1999/xlink"><clipPath id="p.0"><path d="m0 0l800.0 0l0 600.0l-800.0 0l0 -600.0z" clip-rule="nonzero"></path></clipPath><g clip-path="url(#p.0)"><path fill="#000000" fill-opacity="0.0" d="m0 0l800.0 0l0 600.0l-800.0 0z" fill-rule="evenodd"></path><path fill="#2196f3" fill-opacity="0.8346" d="m397.69354 52.970512l124.787415 132.75592l-124.787415 132.7559z" fill-rule="evenodd"></path><path fill="#78ffb1" d="m400.00607 315.79385l122.1575 -130.55118l122.15747 130.55118z" fill-rule="evenodd"></path><path fill="#78ffb1" fill-opacity="0.4192" d="m399.01898 314.48645l0 239.18109l244.31494 -239.18109z" fill-rule="evenodd"></path><path stroke="#666666" stroke-width="2.0" stroke-linejoin="round" stroke-linecap="butt" d="m399.01898 314.48645l0 239.18109l244.31494 -239.18109z" fill-rule="evenodd"></path><path fill="#2196f3" fill-opacity="0.3808" d="m399.01898 314.58414l0 -260.97638l-227.1811 260.97638z" fill-rule="evenodd"></path><path stroke="#666666" stroke-width="2.0" stroke-linejoin="round" stroke-linecap="butt" d="m399.01898 314.58414l0 -260.97638l-227.1811 260.97638z" fill-rule="evenodd"></path><path fill="#000000" fill-opacity="0.0" d="m399.01898 53.607758l-227.1811 260.97638" fill-rule="evenodd"></path><path stroke="#ffab40" stroke-width="4.0" stroke-linejoin="round" stroke-linecap="butt" d="m399.01898 53.607758l-227.1811 260.97638" fill-rule="evenodd"></path><path fill="#000000" fill-opacity="0.0" d="m399.01898 553.66754l244.31494 -239.18109" fill-rule="evenodd"></path><path stroke="#ffab40" stroke-width="4.0" stroke-linejoin="round" stroke-linecap="butt" d="m399.01898 553.66754l244.31494 -239.18109" fill-rule="evenodd"></path><path fill="#000000" fill-opacity="0.0" d="m521.17645 314.48645l0 -130.45668" fill-rule="evenodd"></path><path stroke="#000000" stroke-width="3.0" stroke-linejoin="round" stroke-linecap="butt" d="m521.17645 314.48645l0 -130.45668" fill-rule="evenodd"></path><path fill="#000000" fill-opacity="0.0" d="m399.01898 184.09595l122.14172 -0.06298828" fill-rule="evenodd"></path><path stroke="#000000" stroke-width="3.0" stroke-linejoin="round" stroke-linecap="butt" d="m399.01898 184.09595l122.14172 -0.06298828" fill-rule="evenodd"></path><path fill="#000000" fill-opacity="0.0" d="m399.01898 314.58414l122.14172 -130.55118" fill-rule="evenodd"></path><path stroke="#000000" stroke-width="3.0" stroke-linejoin="round" stroke-linecap="butt" d="m399.01898 314.58414l122.14172 -130.55118" fill-rule="evenodd"></path><path fill="#000000" d="m392.4736 54.0026l0 0c0 -3.5224457 2.6862793 -6.3779526 6.0 -6.3779526l0 0c1.5912781 0 3.1174011 0.6719589 4.2426147 1.8680573c1.1252441 1.1960983 1.7573853 2.8183556 1.7573853 4.5098953l0 0c0 3.5224457 -2.6863098 6.3779526 -6.0 6.3779526l0 0c-3.3137207 0 -6.0 -2.855507 -6.0 -6.3779526z" fill-rule="evenodd"></path><path stroke="#000000" stroke-width="3.0" stroke-linejoin="round" stroke-linecap="butt" d="m392.4736 54.0026l0 0c0 -3.5224457 2.6862793 -6.3779526 6.0 -6.3779526l0 0c1.5912781 0 3.1174011 0.6719589 4.2426147 1.8680573c1.1252441 1.1960983 1.7573853 2.8183556 1.7573853 4.5098953l0 0c0 3.5224457 -2.6863098 6.3779526 -6.0 6.3779526l0 0c-3.3137207 0 -6.0 -2.855507 -6.0 -6.3779526z" fill-rule="evenodd"></path><path fill="#000000" d="m392.4736 184.03688l0 0c0 -3.5224457 2.6862793 -6.377945 6.0 -6.377945l0 0c1.5912781 0 3.1174011 0.6719513 4.2426147 1.8680573c1.1252441 1.1960907 1.7573853 2.8183594 1.7573853 4.5098877l0 0c0 3.5224457 -2.6863098 6.37796 -6.0 6.37796l0 0c-3.3137207 0 -6.0 -2.8555145 -6.0 -6.37796z" fill-rule="evenodd"></path><path stroke="#000000" stroke-width="3.0" stroke-linejoin="round" stroke-linecap="butt" d="m392.4736 184.03688l0 0c0 -3.5224457 2.6862793 -6.377945 6.0 -6.377945l0 0c1.5912781 0 3.1174011 0.6719513 4.2426147 1.8680573c1.1252441 1.1960907 1.7573853 2.8183594 1.7573853 4.5098877l0 0c0 3.5224457 -2.6863098 6.37796 -6.0 6.37796l0 0c-3.3137207 0 -6.0 -2.8555145 -6.0 -6.37796z" fill-rule="evenodd"></path><path fill="#000000" d="m392.4736 314.07117l0 0c0 -3.5224304 2.6862793 -6.37796 6.0 -6.37796l0 0c1.5912781 0 3.1174011 0.67196655 4.2426147 1.8680725c1.1252441 1.196106 1.7573853 2.8183594 1.7573853 4.5098877l0 0c0 3.522461 -2.6863098 6.37796 -6.0 6.37796l0 0c-3.3137207 0 -6.0 -2.8554993 -6.0 -6.37796z" fill-rule="evenodd"></path><path stroke="#000000" stroke-width="3.0" stroke-linejoin="round" stroke-linecap="butt" d="m392.4736 314.07117l0 0c0 -3.5224304 2.6862793 -6.37796 6.0 -6.37796l0 0c1.5912781 0 3.1174011 0.67196655 4.2426147 1.8680725c1.1252441 1.196106 1.7573853 2.8183594 1.7573853 4.5098877l0 0c0 3.522461 -2.6863098 6.37796 -6.0 6.37796l0 0c-3.3137207 0 -6.0 -2.8554993 -6.0 -6.37796z" fill-rule="evenodd"></path><path fill="#000000" d="m515.1561 314.07117l0 0c0 -3.5224304 2.6862793 -6.37796 6.0 -6.37796l0 0c1.5912476 0 3.1173706 0.67196655 4.2426147 1.8680725c1.1252441 1.196106 1.7573853 2.8183594 1.7573853 4.5098877l0 0c0 3.522461 -2.6863403 6.37796 -6.0 6.37796l0 0c-3.3137207 0 -6.0 -2.8554993 -6.0 -6.37796z" fill-rule="evenodd"></path><path stroke="#000000" stroke-width="3.0" stroke-linejoin="round" stroke-linecap="butt" d="m515.1561 314.07117l0 0c0 -3.5224304 2.6862793 -6.37796 6.0 -6.37796l0 0c1.5912476 0 3.1173706 0.67196655 4.2426147 1.8680725c1.1252441 1.196106 1.7573853 2.8183594 1.7573853 4.5098877l0 0c0 3.522461 -2.6863403 6.37796 -6.0 6.37796l0 0c-3.3137207 0 -6.0 -2.8554993 -6.0 -6.37796z" fill-rule="evenodd"></path><path fill="#000000" d="m515.1561 185.7173l0 0c0 -3.5224457 2.6862793 -6.377945 6.0 -6.377945l0 0c1.5912476 0 3.1173706 0.6719513 4.2426147 1.8680573c1.1252441 1.1960907 1.7573853 2.818344 1.7573853 4.5098877l0 0c0 3.5224457 -2.6863403 6.37796 -6.0 6.37796l0 0c-3.3137207 0 -6.0 -2.8555145 -6.0 -6.37796z" fill-rule="evenodd"></path><path stroke="#000000" stroke-width="3.0" stroke-linejoin="round" stroke-linecap="butt" d="m515.1561 185.7173l0 0c0 -3.5224457 2.6862793 -6.377945 6.0 -6.377945l0 0c1.5912476 0 3.1173706 0.6719513 4.2426147 1.8680573c1.1252441 1.1960907 1.7573853 2.818344 1.7573853 4.5098877l0 0c0 3.5224457 -2.6863403 6.37796 -6.0 6.37796l0 0c-3.3137207 0 -6.0 -2.8555145 -6.0 -6.37796z" fill-rule="evenodd"></path><path fill="#000000" d="m634.7776 314.07117l0 0c0 -3.5224304 2.6862793 -6.37796 6.0 -6.37796l0 0c1.5912476 0 3.1173706 0.67196655 4.2426147 1.8680725c1.1252441 1.196106 1.7573853 2.8183594 1.7573853 4.5098877l0 0c0 3.522461 -2.6863403 6.37796 -6.0 6.37796l0 0c-3.3137207 0 -6.0 -2.8554993 -6.0 -6.37796z" fill-rule="evenodd"></path><path stroke="#000000" stroke-width="3.0" stroke-linejoin="round" stroke-linecap="butt" d="m634.7776 314.07117l0 0c0 -3.5224304 2.6862793 -6.37796 6.0 -6.37796l0 0c1.5912476 0 3.1173706 0.67196655 4.2426147 1.8680725c1.1252441 1.196106 1.7573853 2.8183594 1.7573853 4.5098877l0 0c0 3.522461 -2.6863403 6.37796 -6.0 6.37796l0 0c-3.3137207 0 -6.0 -2.8554993 -6.0 -6.37796z" fill-rule="evenodd"></path><path fill="#000000" fill-opacity="0.0" d="m212.46477 211.99384l200.50395 0l0 74.11023l-200.50395 0z" fill-rule="evenodd"></path><path fill="#002835" d="m251.71478 248.21396l3.546875 -7.6875l3.84375 0l-5.59375 10.875l0 6.1875l-3.578125 0l0 -6.1875l-5.59375 -10.875l3.84375 0l3.53125 7.6875zm15.3203125 3.4375l-6.59375 0l0 -2.734375l6.59375 0l0 2.734375zm16.820312 5.9375l-3.515625 0l-6.84375 -11.234375l0 11.234375l-3.515625 0l0 -17.0625l3.515625 0l6.84375 11.25l0 -11.25l3.515625 0l0 17.0625zm8.6796875 0.234375q-2.796875 0 -4.546875 -1.703125q-1.75 -1.71875 -1.75 -4.5625l0 -0.328125q0 -1.921875 0.734375 -3.421875q0.75 -1.5 2.09375 -2.3125q1.359375 -0.828125 3.09375 -0.828125q2.59375 0 4.09375 1.640625q1.5 1.640625 1.5 4.65625l0 1.390625l-8.078125 0q0.15625 1.234375 0.984375 1.984375q0.828125 0.75 2.09375 0.75q1.953125 0 3.0625 -1.421875l1.65625 1.875q-0.75 1.078125 -2.0625 1.6875q-1.296875 0.59375 -2.875 0.59375zm-0.390625 -10.40625q-1.0 0 -1.640625 0.6875q-0.625 0.671875 -0.796875 1.9375l4.71875 0l0 -0.265625q-0.03125 -1.125 -0.625 -1.734375q-0.578125 -0.625 -1.65625 -0.625zm11.097656 10.171875l-3.390625 0l0 -12.6875l3.390625 0l0 12.6875zm-3.59375 -15.96875q0 -0.75 0.5 -1.234375q0.515625 -0.5 1.390625 -0.5q0.875 0 1.390625 0.5q0.515625 0.484375 0.515625 1.234375q0 0.78125 -0.53125 1.28125q-0.515625 0.484375 -1.375 0.484375q-0.84375 0 -1.375 -0.484375q-0.515625 -0.5 -0.515625 -1.28125zm5.8945312 9.53125q0 -2.921875 1.390625 -4.703125q1.390625 -1.78125 3.734375 -1.78125q2.09375 0 3.25 1.4375l0.140625 -1.203125l3.078125 0l0 12.265625q0 1.671875 -0.765625 2.890625q-0.75 1.234375 -2.125 1.875q-1.375 0.65625 -3.203125 0.65625q-1.40625 0 -2.734375 -0.5625q-1.3125 -0.5625 -2.0 -1.4375l1.5 -2.0625q1.265625 1.421875 3.078125 1.421875q1.34375 0 2.09375 -0.71875q0.75 -0.71875 0.75 -2.046875l0 -0.6875q-1.171875 1.328125 -3.078125 1.328125q-2.28125 0 -3.703125 -1.78125q-1.40625 -1.796875 -1.40625 -4.75l0 -0.140625zm3.390625 0.25q0 1.71875 0.6875 2.703125q0.6875 0.96875 1.890625 0.96875q1.546875 0 2.21875 -1.15625l0 -5.328125q-0.671875 -1.15625 -2.1875 -1.15625q-1.21875 0 -1.921875 1.0q-0.6875 0.984375 -0.6875 2.96875zm14.105469 -5.109375q1.34375 -1.625 3.390625 -1.625q4.125 0 4.171875 4.796875l0 8.125l-3.375 0l0 -8.03125q0 -1.09375 -0.46875 -1.609375q-0.46875 -0.515625 -1.5625 -0.515625q-1.484375 0 -2.15625 1.140625l0 9.015625l-3.390625 0l0 -18.0l3.390625 0l0 6.703125zm21.554688 5.078125q0 3.046875 -1.3125 4.75q-1.296875 1.703125 -3.625 1.703125q-2.0625 0 -3.296875 -1.578125l-0.15625 1.34375l-3.046875 0l0 -18.0l3.390625 0l0 6.453125q1.171875 -1.375 3.078125 -1.375q2.328125 0 3.640625 1.71875q1.328125 1.703125 1.328125 4.796875l0 0.1875zm-3.390625 -0.25q0 -1.921875 -0.609375 -2.796875q-0.609375 -0.890625 -1.8125 -0.890625q-1.625 0 -2.234375 1.3125l0 5.015625q0.625 1.328125 2.25 1.328125q1.640625 0 2.15625 -1.609375q0.25 -0.78125 0.25 -2.359375zm4.9492188 0.015625q0 -1.890625 0.71875 -3.359375q0.734375 -1.484375 2.09375 -2.296875q1.359375 -0.8125 3.171875 -0.8125q2.5625 0 4.1875 1.578125q1.625 1.5625 1.8125 4.265625l0.015625 0.859375q0 2.921875 -1.625 4.6875q-1.625 1.765625 -4.375 1.765625q-2.734375 0 -4.375 -1.75q-1.625 -1.765625 -1.625 -4.796875l0 -0.140625zm3.375 0.234375q0 1.8125 0.671875 2.765625q0.6875 0.953125 1.953125 0.953125q1.234375 0 1.921875 -0.9375q0.703125 -0.953125 0.703125 -3.015625q0 -1.78125 -0.703125 -2.75q-0.6875 -0.96875 -1.9375 -0.96875q-1.25 0 -1.9375 0.96875q-0.671875 0.96875 -0.671875 2.984375zm18.304688 4.921875q-1.25 1.53125 -3.46875 1.53125q-2.03125 0 -3.109375 -1.171875q-1.0625 -1.171875 -1.09375 -3.4375l0 -8.3125l3.390625 0l0 8.203125q0 1.96875 1.796875 1.96875q1.734375 0 2.375 -1.1875l0 -8.984375l3.390625 0l0 12.6875l-3.1875 0l-0.09375 -1.296875zm12.9609375 -8.203125q-0.6875 -0.09375 -1.21875 -0.09375q-1.921875 0 -2.515625 1.296875l0 8.296875l-3.390625 0l0 -12.6875l3.203125 0l0.09375 1.515625q1.015625 -1.75 2.828125 -1.75q0.5625 0 1.046875 0.15625l-0.046875 3.265625z" fill-rule="nonzero"></path><path fill="#000000" fill-opacity="0.0" d="m412.9381 126.14033l50.33072 0l0 35.779533l-50.33072 0z" fill-rule="evenodd"></path><path fill="#002835" d="m445.78314 146.34384q0 4.71875 -1.953125 7.21875q-1.953125 2.5 -5.71875 2.5q-3.71875 0 -5.6875 -2.453125q-1.96875 -2.453125 -2.015625 -7.03125l0 -4.1875q0 -4.765625 1.96875 -7.234375q1.984375 -2.46875 5.703125 -2.46875q3.71875 0 5.6875 2.453125q1.96875 2.4375 2.015625 7.015625l0 4.1875zm-4.515625 -4.59375q0 -2.828125 -0.78125 -4.109375q-0.765625 -1.296875 -2.40625 -1.296875q-1.59375 0 -2.359375 1.234375q-0.75 1.21875 -0.796875 3.828125l0 5.53125q0 2.78125 0.75 4.140625q0.765625 1.34375 2.4375 1.34375q1.65625 0 2.390625 -1.296875q0.734375 -1.296875 0.765625 -3.96875l0 -5.40625z" fill-rule="nonzero"></path><path fill="#000000" fill-opacity="0.0" d="m456.69614 256.3492l50.33072 0l0 35.77954l-50.33072 0z" fill-rule="evenodd"></path><path fill="#002835" d="m489.82245 285.95898l-15.59375 0l0 -3.09375l7.359375 -7.84375q1.515625 -1.65625 2.234375 -2.890625q0.734375 -1.234375 0.734375 -2.34375q0 -1.515625 -0.765625 -2.375q-0.765625 -0.875 -2.1875 -0.875q-1.53125 0 -2.421875 1.0625q-0.875 1.046875 -0.875 2.765625l-4.53125 0q0 -2.078125 0.984375 -3.796875q1.0 -1.71875 2.8125 -2.6875q1.8125 -0.984375 4.109375 -0.984375q3.515625 0 5.453125 1.6875q1.953125 1.6875 1.953125 4.765625q0 1.6875 -0.875 3.4375q-0.875 1.75 -3.0 4.078125l-5.171875 5.453125l9.78125 0l0 3.640625z" fill-rule="nonzero"></path><path fill="#000000" fill-opacity="0.0" d="m541.3448 256.3492l50.33069 0l0 35.77954l-50.33069 0z" fill-rule="evenodd"></path><path fill="#002835" d="m563.47107 272.58398l2.40625 0q1.71875 0 2.546875 -0.859375q0.828125 -0.859375 0.828125 -2.28125q0 -1.375 -0.828125 -2.140625q-0.8125 -0.765625 -2.25 -0.765625q-1.296875 0 -2.171875 0.71875q-0.875 0.703125 -0.875 1.84375l-4.515625 0q0 -1.78125 0.953125 -3.1875q0.96875 -1.421875 2.6875 -2.21875q1.734375 -0.796875 3.8125 -0.796875q3.609375 0 5.65625 1.734375q2.046875 1.71875 2.046875 4.75q0 1.5625 -0.953125 2.875q-0.953125 1.3125 -2.5 2.015625q1.921875 0.6875 2.859375 2.0625q0.953125 1.375 0.953125 3.25q0 3.03125 -2.21875 4.859375q-2.203125 1.828125 -5.84375 1.828125q-3.40625 0 -5.578125 -1.796875q-2.15625 -1.796875 -2.15625 -4.75l4.515625 0q0 1.28125 0.953125 2.09375q0.96875 0.8125 2.375 0.8125q1.609375 0 2.515625 -0.84375q0.921875 -0.859375 0.921875 -2.265625q0 -3.40625 -3.75 -3.40625l-2.390625 0l0 -3.53125z" fill-rule="nonzero"></path><path fill="#000000" d="m166.90057 314.06818l0 0c0 -3.5224304 2.6862946 -6.37796 6.0 -6.37796l0 0c1.5913086 0 3.1174316 0.67196655 4.2426453 1.8680725c1.1252136 1.196106 1.7573547 2.8183594 1.7573547 4.5098877l0 0c0 3.522461 -2.6862793 6.37796 -6.0 6.37796l0 0c-3.3137054 0 -6.0 -2.8554993 -6.0 -6.37796z" fill-rule="evenodd"></path><path stroke="#000000" stroke-width="3.0" stroke-linejoin="round" stroke-linecap="butt" d="m166.90057 314.06818l0 0c0 -3.5224304 2.6862946 -6.37796 6.0 -6.37796l0 0c1.5913086 0 3.1174316 0.67196655 4.2426453 1.8680725c1.1252136 1.196106 1.7573547 2.8183594 1.7573547 4.5098877l0 0c0 3.522461 -2.6862793 6.37796 -6.0 6.37796l0 0c-3.3137054 0 -6.0 -2.8554993 -6.0 -6.37796z" fill-rule="evenodd"></path><path fill="#000000" d="m392.4736 552.3315l0 0c0 -3.522461 2.6862793 -6.3779297 6.0 -6.3779297l0 0c1.5912781 0 3.1174011 0.67193604 4.2426147 1.868042c1.1252441 1.196106 1.7573853 2.8183594 1.7573853 4.5098877l0 0c0 3.522461 -2.6863098 6.3779907 -6.0 6.3779907l0 0c-3.3137207 0 -6.0 -2.8555298 -6.0 -6.3779907z" fill-rule="evenodd"></path><path stroke="#000000" stroke-width="3.0" stroke-linejoin="round" stroke-linecap="butt" d="m392.4736 552.3315l0 0c0 -3.522461 2.6862793 -6.3779297 6.0 -6.3779297l0 0c1.5912781 0 3.1174011 0.67193604 4.2426147 1.868042c1.1252441 1.196106 1.7573853 2.8183594 1.7573853 4.5098877l0 0c0 3.522461 -2.6863098 6.3779907 -6.0 6.3779907l0 0c-3.3137207 0 -6.0 -2.8555298 -6.0 -6.3779907z" fill-rule="evenodd"></path><path fill="#000000" fill-opacity="0.0" d="m321.76398 320.45026l85.76376 0l0 35.77954l-85.76376 0z" fill-rule="evenodd"></path><path fill="#002835" d="m344.61462 339.66376q0 -2.359375 0.625 -4.515625q0.625 -2.171875 1.875 -3.9375q1.25 -1.765625 2.59375 -2.5l0.40625 1.265625q-1.53125 1.171875 -2.5 3.5625q-0.96875 2.390625 -1.0625 5.359375l-0.015625 0.890625q0 4.015625 1.46875 6.984375q0.890625 1.765625 2.109375 2.765625l-0.40625 1.171875q-1.375 -0.765625 -2.640625 -2.578125q-2.453125 -3.546875 -2.453125 -8.46875zm16.664886 -0.3125q0 3.390625 -1.15625 5.03125q-1.15625 1.640625 -3.609375 1.640625q-2.421875 0 -3.59375 -1.609375q-1.171875 -1.609375 -1.203125 -4.796875l0 -2.578125q0 -3.34375 1.15625 -4.96875q1.15625 -1.625 3.625 -1.625q2.4375 0 3.59375 1.578125q1.15625 1.5625 1.1875 4.828125l0 2.5zm-1.921875 -2.640625q0 -2.4375 -0.6875 -3.546875q-0.6875 -1.125 -2.171875 -1.125q-1.484375 0 -2.171875 1.109375q-0.671875 1.109375 -0.6875 3.421875l0 3.078125q0 2.46875 0.703125 3.640625q0.71875 1.171875 2.171875 1.171875q1.421875 0 2.109375 -1.109375q0.703125 -1.109375 0.734375 -3.484375l0 -3.15625zm4.5231323 12.125l-1.09375 -0.75q0.984375 -1.359375 1.03125 -2.8125l0 -1.734375l1.875 0l0 1.515625q0 1.046875 -0.515625 2.09375q-0.515625 1.0625 -1.296875 1.6875zm13.561462 -9.484375q0 3.390625 -1.15625 5.03125q-1.15625 1.640625 -3.609375 1.640625q-2.421875 0 -3.59375 -1.609375q-1.171875 -1.609375 -1.203125 -4.796875l0 -2.578125q0 -3.34375 1.15625 -4.96875q1.15625 -1.625 3.625 -1.625q2.4375 0 3.59375 1.578125q1.15625 1.5625 1.1875 4.828125l0 2.5zm-1.921875 -2.640625q0 -2.4375 -0.6875 -3.546875q-0.6875 -1.125 -2.171875 -1.125q-1.484375 0 -2.171875 1.109375q-0.671875 1.109375 -0.6875 3.421875l0 3.078125q0 2.46875 0.703125 3.640625q0.71875 1.171875 2.171875 1.171875q1.421875 0 2.109375 -1.109375q0.703125 -1.109375 0.734375 -3.484375l0 -3.15625zm9.038757 3.0625q0 2.3125 -0.609375 4.453125q-0.609375 2.125 -1.875 3.921875q-1.25 1.8125 -2.625 2.5625l-0.40625 -1.171875q1.609375 -1.234375 2.578125 -3.8125q0.984375 -2.59375 1.0 -5.75l0 -0.328125q0 -2.1875 -0.46875 -4.0625q-0.453125 -1.890625 -1.265625 -3.375q-0.8125 -1.484375 -1.84375 -2.328125l0.40625 -1.171875q1.375 0.765625 2.625 2.546875q1.25 1.78125 1.859375 3.921875q0.625 2.140625 0.625 4.59375z" fill-rule="nonzero"></path><path fill="#000000" fill-opacity="0.0" d="m637.8412 296.18933l85.763794 0l0 35.77954l-85.763794 0z" fill-rule="evenodd"></path><path fill="#002835" d="m660.69183 315.40286q0 -2.359375 0.625 -4.515625q0.625 -2.171875 1.875 -3.9375q1.25 -1.765625 2.59375 -2.5l0.40625 1.265625q-1.53125 1.171875 -2.5 3.5625q-0.96875 2.390625 -1.0625 5.359375l-0.015625 0.890625q0 4.015625 1.46875 6.984375q0.890625 1.765625 2.109375 2.765625l-0.40625 1.171875q-1.375 -0.765625 -2.640625 -2.578125q-2.453125 -3.546875 -2.453125 -8.46875zm13.493042 6.15625l-1.9375 0l0 -12.84375l-3.890625 1.4375l0 -1.75l5.53125 -2.078125l0.296875 0l0 15.234375zm5.7730713 3.015625l-1.09375 -0.75q0.984375 -1.359375 1.03125 -2.8125l0 -1.734375l1.875 0l0 1.515625q0 1.046875 -0.515625 2.09375q-0.515625 1.0625 -1.296875 1.6875zm13.561523 -9.484375q0 3.390625 -1.15625 5.03125q-1.15625 1.640625 -3.609375 1.640625q-2.421875 0 -3.59375 -1.609375q-1.171875 -1.609375 -1.203125 -4.796875l0 -2.578125q0 -3.34375 1.15625 -4.96875q1.15625 -1.625 3.625 -1.625q2.4375 0 3.59375 1.578125q1.15625 1.5625 1.1875 4.828125l0 2.5zm-1.921875 -2.640625q0 -2.4375 -0.6875 -3.546875q-0.6875 -1.125 -2.171875 -1.125q-1.484375 0 -2.171875 1.109375q-0.671875 1.109375 -0.6875 3.421875l0 3.078125q0 2.46875 0.703125 3.640625q0.71875 1.171875 2.171875 1.171875q1.421875 0 2.109375 -1.109375q0.703125 -1.109375 0.734375 -3.484375l0 -3.15625zm9.038696 3.0625q0 2.3125 -0.609375 4.453125q-0.609375 2.125 -1.875 3.921875q-1.25 1.8125 -2.625 2.5625l-0.40625 -1.171875q1.609375 -1.234375 2.578125 -3.8125q0.984375 -2.59375 1.0 -5.75l0 -0.328125q0 -2.1875 -0.46875 -4.0625q-0.453125 -1.890625 -1.265625 -3.375q-0.8125 -1.484375 -1.84375 -2.328125l0.40625 -1.171875q1.375 0.765625 2.625 2.546875q1.25 1.78125 1.859375 3.921875q0.625 2.140625 0.625 4.59375z" fill-rule="nonzero"></path><path fill="#000000" fill-opacity="0.0" d="m355.58594 1.7358588l85.763794 0l0 35.779526l-85.763794 0z" fill-rule="evenodd"></path><path fill="#002835" d="m378.4366 20.949371q0 -2.359375 0.625 -4.515625q0.625 -2.171875 1.875 -3.9375q1.25 -1.765625 2.59375 -2.5l0.40625 1.265625q-1.53125 1.171875 -2.5 3.5625q-0.96875 2.390625 -1.0625 5.359375l-0.015625 0.890625q0 4.015625 1.46875 6.984375q0.890625 1.765625 2.109375 2.765625l-0.40625 1.171875q-1.375 -0.765625 -2.640625 -2.578125q-2.453125 -3.546875 -2.453125 -8.46875zm16.664886 -0.3125q0 3.390625 -1.15625 5.03125q-1.15625 1.640625 -3.609375 1.640625q-2.421875 0 -3.59375 -1.609375q-1.171875 -1.609375 -1.203125 -4.796875l0 -2.578125q0 -3.34375 1.15625 -4.96875q1.15625 -1.625 3.625 -1.625q2.4375 0 3.59375 1.578125q1.15625 1.5625 1.1875 4.828125l0 2.5zm-1.921875 -2.640625q0 -2.4375 -0.6875 -3.546875q-0.6875 -1.125 -2.171875 -1.125q-1.484375 0 -2.171875 1.109375q-0.671875 1.109375 -0.6875 3.421875l0 3.078125q0 2.46875 0.703125 3.640625q0.71875 1.171875 2.171875 1.171875q1.421875 0 2.109375 -1.109375q0.703125 -1.109375 0.734375 -3.484375l0 -3.15625zm4.523102 12.125l-1.09375 -0.75q0.984375 -1.359375 1.03125 -2.8125l0 -1.734375l1.875 0l0 1.515625q0 1.046875 -0.515625 2.09375q-0.515625 1.0625 -1.296875 1.6875zm10.389618 -3.015625l-1.9375 0l0 -12.84375l-3.890625 1.4375l0 -1.75l5.53125 -2.078125l0.296875 0l0 15.234375zm10.288727 -6.046875q0 2.3125 -0.609375 4.453125q-0.609375 2.125 -1.875 3.921875q-1.25 1.8125 -2.625 2.5625l-0.40625 -1.171875q1.609375 -1.234375 2.578125 -3.8125q0.984375 -2.59375 1.0 -5.75l0 -0.328125q0 -2.1875 -0.46875 -4.0625q-0.453125 -1.890625 -1.265625 -3.375q-0.8125 -1.484375 -1.84375 -2.328125l0.40625 -1.171875q1.375 0.765625 2.625 2.546875q1.25 1.78125 1.859375 3.921875q0.625 2.140625 0.625 4.59375z" fill-rule="nonzero"></path><path fill="#000000" fill-opacity="0.0" d="m76.39504 296.18933l85.76379 0l0 35.77954l-85.76379 0z" fill-rule="evenodd"></path><path fill="#002835" d="m96.30371 315.40286q0 -2.359375 0.625 -4.515625q0.625 -2.171875 1.875 -3.9375q1.25 -1.765625 2.59375 -2.5l0.40625 1.265625q-1.53125 1.171875 -2.5 3.5625q-0.96875 2.390625 -1.0625 5.359375l-0.015625 0.890625q0 4.015625 1.46875 6.984375q0.890625 1.765625 2.109375 2.765625l-0.40625 1.171875q-1.375 -0.765625 -2.640625 -2.578125q-2.453125 -3.546875 -2.453125 -8.46875zm11.368011 0.5l-5.078125 0l0 -1.578125l5.078125 0l0 1.578125zm8.008987 5.65625l-1.9375 0l0 -12.84375l-3.890625 1.4375l0 -1.75l5.53125 -2.078125l0.296875 0l0 15.234375zm5.773117 3.015625l-1.09375 -0.75q0.984375 -1.359375 1.03125 -2.8125l0 -1.734375l1.875 0l0 1.515625q0 1.046875 -0.515625 2.09375q-0.515625 1.0625 -1.296875 1.6875zm13.561478 -9.484375q0 3.390625 -1.15625 5.03125q-1.15625 1.640625 -3.609375 1.640625q-2.421875 0 -3.59375 -1.609375q-1.171875 -1.609375 -1.203125 -4.796875l0 -2.578125q0 -3.34375 1.15625 -4.96875q1.15625 -1.625 3.625 -1.625q2.4375 0 3.59375 1.578125q1.15625 1.5625 1.1875 4.828125l0 2.5zm-1.921875 -2.640625q0 -2.4375 -0.6875 -3.546875q-0.6875 -1.125 -2.171875 -1.125q-1.484375 0 -2.171875 1.109375q-0.671875 1.109375 -0.6875 3.421875l0 3.078125q0 2.46875 0.703125 3.640625q0.71875 1.171875 2.171875 1.171875q1.421875 0 2.109375 -1.109375q0.703125 -1.109375 0.734375 -3.484375l0 -3.15625zm9.038742 3.0625q0 2.3125 -0.609375 4.453125q-0.609375 2.125 -1.875 3.921875q-1.25 1.8125 -2.625 2.5625l-0.40625 -1.171875q1.609375 -1.234375 2.578125 -3.8125q0.984375 -2.59375 1.0 -5.75l0 -0.328125q0 -2.1875 -0.46875 -4.0625q-0.453125 -1.890625 -1.265625 -3.375q-0.8125 -1.484375 -1.84375 -2.328125l0.40625 -1.171875q1.375 0.765625 2.625 2.546875q1.25 1.78125 1.859375 3.921875q0.625 2.140625 0.625 4.59375z" fill-rule="nonzero"></path><path fill="#000000" fill-opacity="0.0" d="m355.58594 562.4846l85.763794 0l0 35.77954l-85.763794 0z" fill-rule="evenodd"></path><path fill="#002835" d="m375.4946 581.6981q0 -2.359375 0.625 -4.515625q0.625 -2.171875 1.875 -3.9375q1.25 -1.765625 2.59375 -2.5l0.40625 1.265625q-1.53125 1.171875 -2.5 3.5625q-0.96875 2.390625 -1.0625 5.359375l-0.015625 0.890625q0 4.015625 1.46875 6.984375q0.890625 1.765625 2.109375 2.765625l-0.40625 1.171875q-1.375 -0.765625 -2.640625 -2.578125q-2.453125 -3.546875 -2.453125 -8.46875zm16.664886 -0.3125q0 3.390625 -1.15625 5.03125q-1.15625 1.640625 -3.609375 1.640625q-2.421875 0 -3.59375 -1.609375q-1.171875 -1.609375 -1.203125 -4.796875l0 -2.578125q0 -3.34375 1.15625 -4.96875q1.15625 -1.625 3.625 -1.625q2.4375 0 3.59375 1.578125q1.15625 1.5625 1.1875 4.828125l0 2.5zm-1.921875 -2.640625q0 -2.4375 -0.6875 -3.546875q-0.6875 -1.125 -2.171875 -1.125q-1.484375 0 -2.171875 1.109375q-0.671875 1.109375 -0.6875 3.421875l0 3.078125q0 2.46875 0.703125 3.640625q0.71875 1.171875 2.171875 1.171875q1.421875 0 2.109375 -1.109375q0.703125 -1.109375 0.734375 -3.484375l0 -3.15625zm4.5231323 12.125l-1.09375 -0.75q0.984375 -1.359375 1.03125 -2.8125l0 -1.734375l1.875 0l0 1.515625q0 1.046875 -0.515625 2.09375q-0.515625 1.0625 -1.296875 1.6875zm8.264587 -8.671875l-5.078125 0l0 -1.578125l5.078125 0l0 1.578125zm8.009003 5.65625l-1.9375 0l0 -12.84375l-3.890625 1.4375l0 -1.75l5.53125 -2.078125l0.296875 0l0 15.234375zm10.288727 -6.046875q0 2.3125 -0.609375 4.453125q-0.609375 2.125 -1.875 3.921875q-1.25 1.8125 -2.625 2.5625l-0.40625 -1.171875q1.609375 -1.234375 2.578125 -3.8125q0.984375 -2.59375 1.0 -5.75l0 -0.328125q0 -2.1875 -0.46875 -4.0625q-0.453125 -1.890625 -1.265625 -3.375q-0.8125 -1.484375 -1.84375 -2.328125l0.40625 -1.171875q1.375 0.765625 2.625 2.546875q1.25 1.78125 1.859375 3.921875q0.625 2.140625 0.625 4.59375z" fill-rule="nonzero"></path><path fill="#000000" fill-opacity="0.0" d="m385.74878 349.52652l200.5039 0l0 74.11026l-200.5039 0z" fill-rule="evenodd"></path><path fill="#002835" d="m425.01245 383.93414l3.203125 -5.875l4.046875 0l-4.96875 8.453125l5.09375 8.609375l-4.09375 0l-3.28125 -5.984375l-3.28125 5.984375l-4.078125 0l5.09375 -8.609375l-4.96875 -8.453125l4.046875 0l3.1875 5.875zm15.511719 5.25l-6.59375 0l0 -2.734375l6.59375 0l0 2.734375zm16.820312 5.9375l-3.515625 0l-6.84375 -11.234375l0 11.234375l-3.515625 0l0 -17.0625l3.515625 0l6.84375 11.25l0 -11.25l3.515625 0l0 17.0625zm8.6796875 0.234375q-2.796875 0 -4.546875 -1.703125q-1.75 -1.71875 -1.75 -4.5625l0 -0.328125q0 -1.921875 0.734375 -3.421875q0.75 -1.5 2.09375 -2.3125q1.359375 -0.828125 3.09375 -0.828125q2.59375 0 4.09375 1.640625q1.5 1.640625 1.5 4.65625l0 1.390625l-8.078125 0q0.15625 1.234375 0.984375 1.984375q0.828125 0.75 2.09375 0.75q1.953125 0 3.0625 -1.421875l1.65625 1.875q-0.75 1.078125 -2.0625 1.6875q-1.296875 0.59375 -2.875 0.59375zm-0.390625 -10.40625q-1.0 0 -1.640625 0.6875q-0.625 0.671875 -0.796875 1.9375l4.71875 0l0 -0.265625q-0.03125 -1.125 -0.625 -1.734375q-0.578125 -0.625 -1.65625 -0.625zm11.097656 10.171875l-3.390625 0l0 -12.6875l3.390625 0l0 12.6875zm-3.59375 -15.96875q0 -0.75 0.5 -1.234375q0.515625 -0.5 1.390625 -0.5q0.875 0 1.390625 0.5q0.515625 0.484375 0.515625 1.234375q0 0.78125 -0.53125 1.28125q-0.515625 0.484375 -1.375 0.484375q-0.84375 0 -1.375 -0.484375q-0.515625 -0.5 -0.515625 -1.28125zm5.8945312 9.53125q0 -2.921875 1.390625 -4.703125q1.390625 -1.78125 3.734375 -1.78125q2.09375 0 3.25 1.4375l0.140625 -1.203125l3.078125 0l0 12.265625q0 1.671875 -0.765625 2.890625q-0.75 1.234375 -2.125 1.875q-1.375 0.65625 -3.203125 0.65625q-1.40625 0 -2.734375 -0.5625q-1.3125 -0.5625 -2.0 -1.4375l1.5 -2.0625q1.265625 1.421875 3.078125 1.421875q1.34375 0 2.09375 -0.71875q0.75 -0.71875 0.75 -2.046875l0 -0.6875q-1.171875 1.328125 -3.078125 1.328125q-2.28125 0 -3.703125 -1.78125q-1.40625 -1.796875 -1.40625 -4.75l0 -0.140625zm3.390625 0.25q0 1.71875 0.6875 2.703125q0.6875 0.96875 1.890625 0.96875q1.546875 0 2.21875 -1.15625l0 -5.328125q-0.671875 -1.15625 -2.1875 -1.15625q-1.21875 0 -1.921875 1.0q-0.6875 0.984375 -0.6875 2.96875zm14.105469 -5.109375q1.34375 -1.625 3.390625 -1.625q4.125 0 4.171875 4.796875l0 8.125l-3.375 0l0 -8.03125q0 -1.09375 -0.46875 -1.609375q-0.46875 -0.515625 -1.5625 -0.515625q-1.484375 0 -2.15625 1.140625l0 9.015625l-3.390625 0l0 -18.0l3.390625 0l0 6.703125zm21.554688 5.078125q0 3.046875 -1.3125 4.75q-1.296875 1.703125 -3.625 1.703125q-2.0625 0 -3.296875 -1.578125l-0.15625 1.34375l-3.046875 0l0 -18.0l3.390625 0l0 6.453125q1.171875 -1.375 3.078125 -1.375q2.328125 0 3.640625 1.71875q1.328125 1.703125 1.328125 4.796875l0 0.1875zm-3.390625 -0.25q0 -1.921875 -0.609375 -2.796875q-0.609375 -0.890625 -1.8125 -0.890625q-1.625 0 -2.234375 1.3125l0 5.015625q0.625 1.328125 2.25 1.328125q1.640625 0 2.15625 -1.609375q0.25 -0.78125 0.25 -2.359375zm4.9492188 0.015625q0 -1.890625 0.71875 -3.359375q0.734375 -1.484375 2.09375 -2.296875q1.359375 -0.8125 3.171875 -0.8125q2.5625 0 4.1875 1.578125q1.625 1.5625 1.8125 4.265625l0.015625 0.859375q0 2.921875 -1.625 4.6875q-1.625 1.765625 -4.375 1.765625q-2.734375 0 -4.375 -1.75q-1.625 -1.765625 -1.625 -4.796875l0 -0.140625zm3.375 0.234375q0 1.8125 0.671875 2.765625q0.6875 0.953125 1.953125 0.953125q1.234375 0 1.921875 -0.9375q0.703125 -0.953125 0.703125 -3.015625q0 -1.78125 -0.703125 -2.75q-0.6875 -0.96875 -1.9375 -0.96875q-1.25 0 -1.9375 0.96875q-0.671875 0.96875 -0.671875 2.984375zm18.304688 4.921875q-1.25 1.53125 -3.46875 1.53125q-2.03125 0 -3.109375 -1.171875q-1.0625 -1.171875 -1.09375 -3.4375l0 -8.3125l3.390625 0l0 8.203125q0 1.96875 1.796875 1.96875q1.734375 0 2.375 -1.1875l0 -8.984375l3.390625 0l0 12.6875l-3.1875 0l-0.09375 -1.296875zm12.9609375 -8.203125q-0.6875 -0.09375 -1.21875 -0.09375q-1.921875 0 -2.515625 1.296875l0 8.296875l-3.390625 0l0 -12.6875l3.203125 0l0.09375 1.515625q1.015625 -1.75 2.828125 -1.75q0.5625 0 1.046875 0.15625l-0.046875 3.265625z" fill-rule="nonzero"></path><path fill="#000000" fill-opacity="0.0" d="m412.9381 206.21928l50.33072 0l0 35.779526l-50.33072 0z" fill-rule="evenodd"></path><path fill="#002835" d="m441.4394 235.82906l-4.515625 0l0 -17.40625l-5.390625 1.671875l0 -3.671875l9.421875 -3.375l0.484375 0l0 22.78125z" fill-rule="nonzero"></path><path fill="#000000" fill-opacity="0.0" d="m399.01898 314.58414l0 -260.97638l244.31494 260.97638z" fill-rule="evenodd"></path><path stroke="#000000" stroke-width="3.0" stroke-linejoin="round" stroke-linecap="butt" d="m399.01898 314.58414l0 -260.97638l244.31494 260.97638z" fill-rule="evenodd"></path></g></svg>

